<?xml version="1.0" encoding="utf-8"?>
<!-- Generator: Adobe Illustrator 25.0.0, SVG Export Plug-In . SVG Version: 6.00 Build 0)  -->
<svg version="1.1" baseProfile="basic" id="Layer_1"
	 xmlns="http://www.w3.org/2000/svg" xmlns:xlink="http://www.w3.org/1999/xlink" x="0px" y="0px" viewBox="0 0 30 37"
	 xml:space="preserve">
<pattern  x="1" y="-2" width="27" height="27" patternUnits="userSpaceOnUse" id="New_Pattern_Swatch_3" viewBox="0 -27 27 27" overflow="visible">
	<g>
		<rect y="-27" fill="none" width="27" height="27"/>
		<rect y="-27" fill="#AD5E17" width="27" height="27"/>
	</g>
</pattern>
<g>
	<g>
		<path fill="#F6CB48" d="M75.67,82.25c-0.61-0.17-1.16-0.53-1.57-1.03c-1.13-1.36-2.2-2.35-3.16-2.71c0.07,1.79-1.36,3.01-2.25,3.6
			c0.83,0.91,2.3,1.54,3.23,1.87c0.46,0.16,0.76,0.61,0.73,1.09c-0.07,1.14,0.32,1.94,0.4,8.18c0.09,7.59-7.44,14.33-8.31,16.87
			c-0.11,0.32-0.18,0.62-0.22,0.88c0.93,0.43,1.92,1.19,1.96,2.48c0.69,0.1,1.4,0.04,1.81-0.01c1.19-0.16,14.03-5.61,14.49-18.11
			C83.14,85.4,77.84,82.87,75.67,82.25z"/>
		<path fill="#F2B41C" d="M75.65,82.3c-0.5-0.14-0.96-0.4-1.34-0.76c-0.37-0.37-0.67-0.77-1.03-1.13c-0.7-0.72-1.48-1.43-2.4-1.76
			l0.2-0.14c0.05,0.78-0.19,1.56-0.61,2.21c-0.43,0.65-1,1.19-1.62,1.63l0.05-0.44c0.45,0.45,1.04,0.8,1.64,1.08
			c0.3,0.14,0.61,0.27,0.93,0.4l0.48,0.18c0.14,0.04,0.42,0.16,0.58,0.31c0.37,0.29,0.57,0.81,0.53,1.25
			c-0.01,0.31,0.02,0.64,0.06,0.98c0.08,0.69,0.16,1.39,0.19,2.09c0.08,1.4,0.12,2.8,0.12,4.19c0.01,0.69-0.04,1.41-0.1,2.13
			c-0.03,0.36-0.12,0.7-0.18,1.06c-0.06,0.35-0.14,0.7-0.25,1.04c-0.36,1.38-0.97,2.66-1.62,3.9c-0.64,1.25-1.41,2.42-2.21,3.57
			c-0.79,1.15-1.62,2.27-2.45,3.39c-0.8,1.13-1.71,2.23-1.87,3.55l-0.14-0.27c0.53,0.24,1.05,0.55,1.46,1
			c0.42,0.45,0.69,1.07,0.72,1.7l-0.28-0.32c0.83,0.07,1.7,0.05,2.42-0.3c0.79-0.34,1.57-0.72,2.32-1.17
			c1.5-0.88,2.93-1.89,4.24-3.03c1.3-1.16,2.45-2.46,3.47-3.85l0.7-1.09l0.35-0.54l0.29-0.58l0.58-1.15l0.44-1.21
			c1.14-3.24,1.25-6.84,0.65-10.25c-0.34-1.7-0.98-3.36-2.06-4.75C78.85,83.85,77.34,82.82,75.65,82.3z M75.68,82.2
			c1.72,0.48,3.28,1.5,4.45,2.86c1.2,1.35,1.97,3.03,2.46,4.77c0.48,1.74,0.66,3.56,0.64,5.36c-0.05,0.9-0.09,1.82-0.23,2.72
			l-0.3,1.33c-0.05,0.22-0.1,0.45-0.16,0.67l-0.23,0.64l-0.46,1.29l-0.6,1.23l-0.3,0.61l-0.36,0.58l-0.73,1.15
			c-1.09,1.46-2.33,2.79-3.7,3.97c-1.39,1.15-2.87,2.19-4.46,3.04c-0.79,0.44-1.61,0.81-2.46,1.14c-0.4,0.16-0.96,0.32-1.4,0.31
			c-0.46,0.02-0.93,0.01-1.4-0.07l-0.28-0.05l0-0.27c0-0.49-0.18-0.95-0.5-1.34c-0.32-0.39-0.76-0.69-1.24-0.92l-0.2-0.1l0.05-0.17
			c0.11-0.35,0.17-0.71,0.31-1.05c0.15-0.35,0.34-0.65,0.53-0.95c0.4-0.59,0.82-1.14,1.24-1.7c0.84-1.11,1.7-2.2,2.48-3.35
			c1.55-2.29,2.91-4.76,3.5-7.44c0.09-0.33,0.15-0.66,0.19-1c0.04-0.34,0.11-0.67,0.12-1.01c0.02-0.67,0.04-1.34-0.01-2.05
			c-0.04-1.39-0.09-2.77-0.2-4.15l-0.17-2.07c-0.03-0.35-0.05-0.72-0.03-1.1c0.03-0.25-0.06-0.45-0.22-0.61
			c-0.1-0.08-0.14-0.11-0.33-0.18l-0.5-0.2c-0.33-0.14-0.65-0.29-0.97-0.47c-0.63-0.35-1.24-0.76-1.74-1.33l-0.23-0.26l0.29-0.18
			c0.6-0.37,1.16-0.83,1.58-1.39c0.42-0.56,0.68-1.24,0.68-1.95l0-0.23l0.2,0.09c0.98,0.44,1.71,1.19,2.4,1.94
			c0.35,0.37,0.66,0.79,1,1.15C74.75,81.8,75.2,82.06,75.68,82.2z"/>
	</g>
	<path fill="#F2B41C" d="M70.46,79.52c2.74,2.02,5.05,4.66,6.68,7.71c0.82,1.52,1.41,3.19,1.72,4.91c0.3,1.73,0.27,3.52-0.08,5.24
		c-0.37,1.72-1.05,3.35-1.93,4.86c-0.91,1.49-2,2.84-3.21,4.06c-2.43,2.45-5.28,4.39-8.27,6.01c0.68-0.51,1.37-1.01,2.06-1.5
		c0.68-0.51,1.32-1.06,1.99-1.58c0.65-0.54,1.27-1.11,1.91-1.66c0.59-0.6,1.2-1.18,1.76-1.8c1.1-1.26,2.14-2.57,2.95-4.01
		c0.81-1.44,1.44-2.98,1.77-4.58c0.71-3.22,0.08-6.61-1.34-9.61c-0.7-1.51-1.6-2.94-2.62-4.28C72.83,81.94,71.7,80.68,70.46,79.52z"
		/>
	<g>
		<pattern  id="SVGID_1_" xlink:href="#New_Pattern_Swatch_3" patternTransform="matrix(0.8673 0 0 0.8673 -1121.019 -1098.8595)">
		</pattern>
		<path fill="url(#SVGID_1_)" d="M70.93,78.51C69.9,78.12,69,78.44,68.3,79.8c-0.47,0.9-0.2,1.68,0.39,2.31
			C69.57,81.53,71,80.3,70.93,78.51z"/>
		<pattern  id="SVGID_2_" xlink:href="#New_Pattern_Swatch_3" patternTransform="matrix(0.8673 0 0 0.8673 -1108.0092 -1077.1764)">
		</pattern>
		<path fill="url(#SVGID_2_)" d="M70.93,78.51c-0.5-0.06-0.97-0.01-1.31,0.22c-0.34,0.22-0.59,0.57-0.79,0.96
			c-0.23,0.4-0.32,0.76-0.29,1.1c0.03,0.34,0.23,0.67,0.49,0.99l-0.63-0.08c0.58-0.37,1.13-0.79,1.58-1.31
			c0.22-0.26,0.42-0.54,0.58-0.85C70.73,79.22,70.85,78.9,70.93,78.51z M70.93,78.51c0.1,0.35,0.12,0.77,0.06,1.16
			c-0.06,0.39-0.21,0.78-0.41,1.13c-0.4,0.7-0.98,1.28-1.63,1.72l-0.33,0.23l-0.29-0.3c-0.38-0.39-0.71-0.94-0.74-1.57
			c-0.06-0.63,0.26-1.22,0.55-1.62c0.31-0.42,0.73-0.84,1.28-1C69.97,78.07,70.54,78.23,70.93,78.51z"/>
	</g>
	<g>
		<pattern  id="SVGID_3_" xlink:href="#New_Pattern_Swatch_3" patternTransform="matrix(0.8673 0 0 0.8673 -1121.019 -1098.8595)">
		</pattern>
		<path fill="url(#SVGID_3_)" d="M64.51,111c-0.26,1.72,0.83,2.31,1.96,2.48C66.43,112.19,65.44,111.43,64.51,111z"/>
		<pattern  id="SVGID_4_" xlink:href="#New_Pattern_Swatch_3" patternTransform="matrix(0.8673 0 0 0.8673 -1108.0092 -1077.1764)">
		</pattern>
		<path fill="url(#SVGID_4_)" d="M64.53,111.04c0.07,0.26,0.18,0.23,0.21,0.41l0.15,0.38c0.09,0.24,0.21,0.4,0.29,0.63
			c0.08,0.22,0.22,0.52,0.48,0.64c0.25,0.14,0.57,0.12,0.85,0.07l-0.36,0.32c-0.11-0.24-0.19-0.45-0.31-0.64
			c-0.12-0.19-0.26-0.36-0.39-0.54c-0.13-0.18-0.28-0.38-0.45-0.58C64.87,111.52,64.63,111.31,64.53,111.04z M64.48,110.96
			c0.41-0.03,0.66,0.03,0.97,0.14c0.29,0.11,0.57,0.29,0.8,0.52c0.46,0.47,0.69,1.22,0.53,1.85l-0.11,0.44l-0.25-0.12
			c-0.31-0.14-0.59-0.31-0.89-0.41c-0.29-0.12-0.66-0.17-0.97-0.41c-0.32-0.23-0.44-0.65-0.45-1c0-0.18,0.02-0.36,0.08-0.52
			C64.23,111.32,64.39,110.99,64.48,110.96z"/>
	</g>
</g>
<g>
	<path fill="#F6CB48" d="M16.33,1.12C16.8,1.56,17.36,2.43,18.1,4c0.25,0.53,0.65,0.99,1.15,1.3c1.62,1.01,5.52,4.04,8.28,10.98
		c3.35,8.41,0.36,16.05-2.75,18.49c-1.41-2.78-3-2.45-4.11-1.65c-0.3-1.04-0.35-2.32-0.05-5.49c0.35-3.62-3.12-15.94-3.8-20.68
		c-0.08-0.58-0.35-1.12-0.75-1.54c-0.68-0.72-1.7-1.88-2.03-2.77C15.64,2.67,16.19,1.91,16.33,1.12z"/>
	<g>
		<path fill="#F2B41C" d="M16.31,1.08c0.73,0.57,1.08,1.28,1.51,1.98l0.58,1.06c0.2,0.32,0.46,0.6,0.76,0.81
			c1.37,0.82,2.71,1.89,3.82,3.1c2.24,2.43,3.92,5.34,5.05,8.43c1.11,3.12,1.45,6.49,0.99,9.73c-0.24,1.62-0.66,3.21-1.29,4.73
			c-0.65,1.5-1.51,2.95-2.79,4.06l-0.23,0.2l-0.16-0.29c-0.4-0.73-0.91-1.45-1.59-1.8c-0.67-0.36-1.43-0.13-2.06,0.35l-0.45,0.34
			l-0.16-0.55c-0.4-1.38-0.32-2.76-0.26-4.09c0.03-0.65,0.13-1.36,0.12-1.96c0.01-0.61-0.06-1.27-0.14-1.91
			c-0.37-2.58-0.92-5.17-1.47-7.75c-0.57-2.58-1.13-5.17-1.62-7.78c-0.13-0.65-0.24-1.31-0.34-1.97c-0.1-0.7-0.11-1.28-0.45-1.78
			c-0.73-0.97-1.78-1.97-2.26-3.28l-0.09-0.26l0.27,0.01c0.48,0.02,0.98-0.01,1.41-0.23c0.21-0.11,0.4-0.26,0.54-0.45
			C16.14,1.57,16.19,1.4,16.31,1.08z M16.34,1.17c0.03,0.18-0.1,0.49-0.22,0.7c-0.14,0.23-0.34,0.42-0.56,0.56
			c-0.46,0.29-1.01,0.37-1.53,0.39l0.17-0.25c0.26,0.56,0.67,1.08,1.09,1.57c0.21,0.25,0.43,0.49,0.66,0.72
			c0.21,0.23,0.48,0.46,0.7,0.77c0.21,0.3,0.37,0.64,0.46,1l0.2,0.99c0.12,0.64,0.26,1.29,0.41,1.93c0.59,2.57,1.25,5.14,1.82,7.73
			c0.58,2.59,1.17,5.18,1.46,7.86c0.07,0.67,0.13,1.34,0.11,2.05c-0.02,0.73-0.13,1.33-0.17,2c-0.09,1.3-0.21,2.62,0.1,3.81
			l-0.61-0.21c0.39-0.27,0.84-0.5,1.35-0.58c0.51-0.08,1.05,0.03,1.49,0.28c0.87,0.52,1.34,1.35,1.74,2.15l-0.39-0.09
			c1.22-0.96,2.16-2.32,2.8-3.79c0.66-1.46,1.08-3.04,1.25-4.63c0.4-3.2-0.24-6.45-1.41-9.39c-1.2-2.96-2.73-5.82-4.84-8.21
			c-1.05-1.21-2.19-2.28-3.56-3.2c-0.34-0.28-0.63-0.62-0.83-1.01c-0.19-0.4-0.32-0.75-0.5-1.12C17.2,2.5,16.78,1.75,16.34,1.17z"/>
	</g>
</g>
<path fill="#F2B41C" d="M14.84,1.71c2.39,1.92,4.44,4.26,6.2,6.79c1.77,2.53,3.17,5.34,4.07,8.32c0.9,2.97,1.25,6.14,0.88,9.23
	c-0.33,3.1-1.39,6.07-2.92,8.72c0.55-1.43,1.12-2.84,1.44-4.33c0.39-1.46,0.62-2.96,0.71-4.46c0.1-1.5,0.04-3-0.14-4.49
	c-0.17-1.49-0.49-2.96-0.93-4.39c-0.84-2.88-2.18-5.61-3.76-8.19c-0.79-1.29-1.66-2.54-2.59-3.73C16.9,3.97,15.9,2.81,14.84,1.71z"
	/>
<g>
	<path fill="#7F7F7F" d="M16.06,3.76c0.09-0.76-0.01-1.44-0.6-1.62c-0.99-0.31-1.59-0.32-1.89,0.98C14.12,3.5,14.92,3.8,16.06,3.76z
		"/>
	<path fill="#7F7F7F" d="M16.03,3.73c-0.22-0.33-0.29-0.72-0.43-0.91c-0.15-0.19-0.13-0.23-0.53-0.5c-0.28-0.23-0.72-0.26-0.86,0.01
		c-0.14,0.25-0.11,0.59-0.16,0.91l-0.19-0.5c0.17,0.08,0.35,0.14,0.51,0.22c0.17,0.06,0.34,0.15,0.52,0.23l0.56,0.24
		C15.65,3.51,15.83,3.59,16.03,3.73z M16.1,3.8c-0.23,0.15-0.49,0.22-0.72,0.27c-0.24,0.05-0.48,0.06-0.73,0.04
		c-0.24-0.03-0.49-0.07-0.72-0.18c-0.23-0.1-0.44-0.25-0.63-0.41l-0.28-0.24l0.09-0.27c0.12-0.38,0.38-0.81,0.82-1.04
		c0.46-0.22,0.86-0.13,1.27-0.19c0.21,0,0.39-0.06,0.69,0.08c0.27,0.13,0.44,0.41,0.5,0.65C16.51,3.02,16.4,3.39,16.1,3.8z"/>
</g>
<g>
	<path fill="#F6CB48" d="M14.31,28.73c2.83-10.31,1.9-15.64,1.2-17.75c-0.31-0.92-0.42-1.9-0.35-2.87c0.02-0.29,0.04-0.58,0.06-0.84
		c0.04-0.56,0.16-1.11,0.35-1.64c0.19-0.51,0.41-1.22,0.49-1.87c-1.14,0.04-1.94-0.27-2.49-0.64c-0.16,0.67-0.23,1.7-0.25,3.21
		c-0.04,4.43-1.91,2.49-3.69,9.65c-1.4,5.67-4.27,14.82-2.48,18.61c2.46-1.68,4.23-0.71,5.33,0.49
		C13.61,33.51,13.75,30.77,14.31,28.73z"/>
	<g>
		<path fill="#F2B41C" d="M14.26,28.71c1.11-4.07,1.65-8.32,1.54-12.48c-0.02-1.04-0.1-2.08-0.24-3.1c-0.08-0.51-0.17-1.02-0.3-1.51
			c-0.12-0.47-0.33-1.02-0.4-1.57c-0.08-0.55-0.11-1.11-0.07-1.66c0.05-0.56,0.09-1.05,0.18-1.61c0.09-0.54,0.29-1.09,0.48-1.56
			c0.18-0.49,0.33-0.98,0.41-1.48l0.21,0.22c-0.89,0.02-1.84-0.17-2.59-0.7l0.26-0.1c-0.31,1.3-0.2,2.67-0.28,4.05
			c-0.05,0.69-0.18,1.4-0.51,2.05c-0.33,0.64-0.77,1.17-1.1,1.74c-1.37,2.3-1.75,5.03-2.44,7.67c-0.66,2.64-1.31,5.29-1.78,7.94
			c-0.24,1.33-0.43,2.66-0.5,3.98c-0.05,1.31-0.02,2.66,0.43,3.81l-0.66-0.18c0.45-0.28,0.92-0.53,1.43-0.7
			c0.51-0.17,1.08-0.23,1.62-0.17c1.12,0.11,2.04,0.81,2.69,1.58l-0.34,0.02c0.64-0.84,0.97-1.92,1.23-2.99
			C13.8,30.89,13.96,29.79,14.26,28.71z M14.36,28.74c-0.28,1.07-0.43,2.17-0.63,3.26c-0.22,1.09-0.42,2.21-1.06,3.21l-0.14,0.22
			l-0.2-0.2c-0.67-0.68-1.52-1.17-2.41-1.18c-0.89-0.02-1.74,0.37-2.5,0.91l-0.43,0.31l-0.23-0.49c-0.64-1.38-0.7-2.84-0.66-4.23
			c0.04-1.4,0.24-2.78,0.49-4.13c0.5-2.71,1.24-5.35,1.95-7.98c0.75-2.58,1.28-5.38,2.88-7.72c0.39-0.58,0.85-1.1,1.17-1.65
			c0.33-0.56,0.47-1.21,0.52-1.88c0.1-1.33,0.04-2.72,0.3-4.1l0.05-0.24l0.21,0.14c0.69,0.46,1.55,0.62,2.38,0.58l0.23-0.01
			l-0.02,0.24c-0.05,0.55-0.18,1.08-0.34,1.59c-0.17,0.52-0.3,0.98-0.36,1.49c-0.07,1.03-0.15,2.08,0.08,3.04
			c0.1,0.49,0.26,0.94,0.43,1.49c0.15,0.53,0.26,1.06,0.35,1.6c0.19,1.07,0.23,2.15,0.23,3.22c-0.01,2.15-0.36,4.27-0.78,6.35
			C15.44,24.65,14.91,26.7,14.36,28.74z"/>
	</g>
</g>
<path fill="#F2B41C" d="M15.21,3.46c-0.16,1.31-0.38,2.62-0.56,3.93l-0.63,3.91c-0.41,2.61-0.89,5.2-1.34,7.8l-2.8,15.58
	c0.04-2.65,0.32-5.29,0.63-7.91c0.3-2.63,0.74-5.24,1.19-7.84c0.47-2.6,0.98-5.19,1.57-7.77C13.85,8.57,14.46,6,15.21,3.46z"/>
<g>
	<path fill="#F6CB48" d="M21.9,27.1c0.07-10.69-2.21-15.6-3.42-17.45c-0.53-0.81-0.9-1.73-1.08-2.68c-0.05-0.29-0.11-0.57-0.16-0.83
		c-0.1-0.55-0.13-1.12-0.08-1.68c0.05-0.54,0.08-1.28-0.01-1.93c-1.09,0.34-1.95,0.24-2.57,0.02c0.02,0.69,0.21,1.7,0.59,3.17
		c1.1,4.29-1.21,2.9-1.07,10.27c0.11,5.84-0.3,15.42,2.41,18.62c1.94-2.26,3.91-1.78,5.27-0.9C22.46,31.9,21.89,29.22,21.9,27.1z"/>
	<g>
		<path fill="#F2B41C" d="M21.85,27.1c0.02-4.22-0.56-8.46-1.74-12.46c-0.29-1-0.63-1.98-1.03-2.93c-0.21-0.47-0.42-0.94-0.68-1.38
			c-0.24-0.42-0.58-0.9-0.79-1.42c-0.22-0.51-0.39-1.04-0.5-1.59c-0.1-0.55-0.18-1.03-0.24-1.6c-0.06-0.54-0.01-1.13,0.06-1.63
			c0.05-0.51,0.07-1.03,0.02-1.54l0.26,0.16c-0.86,0.25-1.82,0.31-2.68-0.01l0.22-0.16c0.04,1.34,0.5,2.63,0.78,3.98
			c0.13,0.68,0.19,1.4,0.04,2.11c-0.15,0.7-0.44,1.33-0.61,1.97c-0.73,2.58-0.39,5.31-0.37,8.04c0.04,2.73,0.1,5.44,0.33,8.13
			c0.11,1.34,0.27,2.68,0.54,3.98c0.29,1.28,0.67,2.57,1.4,3.57l-0.68,0c0.36-0.38,0.75-0.75,1.2-1.05c0.45-0.3,0.98-0.5,1.52-0.58
			c1.11-0.18,2.17,0.25,3,0.83l-0.33,0.11c0.4-0.98,0.44-2.11,0.42-3.21C21.96,29.32,21.84,28.21,21.85,27.1z M21.95,27.1
			c0.01,1.11,0.14,2.21,0.23,3.31c0.07,1.1,0.16,2.25-0.2,3.37l-0.08,0.25l-0.25-0.15c-0.82-0.48-1.77-0.74-2.64-0.52
			c-0.86,0.21-1.59,0.81-2.18,1.52l-0.34,0.41l-0.34-0.41c-0.97-1.17-1.41-2.56-1.73-3.92c-0.32-1.36-0.49-2.74-0.59-4.12
			c-0.22-2.75-0.18-5.49-0.17-8.21c0.06-2.69-0.15-5.53,0.78-8.2c0.22-0.66,0.54-1.28,0.71-1.9c0.18-0.62,0.14-1.29,0.02-1.95
			c-0.25-1.31-0.67-2.64-0.77-4.04L14.4,2.31l0.24,0.08c0.79,0.27,1.66,0.2,2.45-0.06l0.22-0.07l0.04,0.23
			c0.09,0.54,0.1,1.09,0.09,1.63c-0.03,0.55-0.04,1.02,0.04,1.53c0.2,1.01,0.39,2.05,0.86,2.92c0.23,0.45,0.5,0.84,0.8,1.33
			c0.28,0.47,0.52,0.96,0.75,1.45c0.46,0.98,0.78,2.02,1.05,3.05c0.54,2.08,0.75,4.21,0.89,6.33C21.94,22.87,21.96,24.98,21.95,27.1
			z"/>
	</g>
</g>
<path fill="#F2B41C" d="M16.24,2.45c0.18,1.31,0.31,2.63,0.47,3.94l0.4,3.94c0.27,2.63,0.48,5.25,0.72,7.88l1.32,15.77
	c-0.64-2.57-1.06-5.19-1.43-7.81c-0.38-2.62-0.64-5.25-0.88-7.88c-0.21-2.63-0.4-5.27-0.49-7.91C16.25,7.74,16.18,5.1,16.24,2.45z"
	/>
<g>
	<path fill="#F6CB48" d="M13.06,1.28c-0.47,0.43-1.03,1.3-1.77,2.88c-0.25,0.53-0.65,0.99-1.15,1.3C8.52,6.48,4.62,9.5,1.86,16.44
		C-1.49,24.85,1.5,32.5,4.61,34.93c1.41-2.78,3-2.45,4.11-1.65c0.3-1.04,0.35-2.32,0.05-5.49c-0.35-3.62,3.12-15.94,3.8-20.68
		c0.08-0.58,0.35-1.12,0.75-1.54c0.68-0.72,1.7-1.88,2.03-2.77C13.75,2.83,13.2,2.07,13.06,1.28z"/>
	<g>
		<path fill="#F2B41C" d="M13.05,1.33c-0.43,0.57-0.86,1.33-1.18,2.04c-0.18,0.37-0.31,0.72-0.5,1.12c-0.2,0.39-0.49,0.73-0.83,1.01
			C9.17,6.42,8.02,7.49,6.97,8.7c-2.11,2.4-3.64,5.26-4.84,8.21c-1.17,2.94-1.81,6.19-1.41,9.39c0.17,1.6,0.59,3.17,1.25,4.63
			c0.64,1.47,1.58,2.83,2.8,3.79l-0.39,0.09c0.4-0.79,0.87-1.62,1.74-2.15c0.43-0.25,0.98-0.36,1.49-0.28
			c0.51,0.08,0.96,0.31,1.35,0.58l-0.61,0.21c0.31-1.19,0.19-2.51,0.1-3.81c-0.04-0.67-0.15-1.27-0.17-2
			c-0.03-0.71,0.04-1.38,0.11-2.05c0.29-2.68,0.89-5.27,1.46-7.86c0.57-2.59,1.23-5.16,1.82-7.73c0.15-0.64,0.28-1.29,0.41-1.93
			l0.2-0.99c0.09-0.36,0.25-0.7,0.46-1c0.21-0.32,0.48-0.55,0.7-0.77c0.23-0.23,0.45-0.47,0.66-0.72c0.42-0.49,0.83-1.01,1.09-1.57
			l0.17,0.25c-0.52-0.02-1.06-0.1-1.53-0.39c-0.23-0.14-0.43-0.34-0.56-0.56C13.14,1.82,13.01,1.51,13.05,1.33z M13.08,1.24
			c0.12,0.32,0.17,0.49,0.32,0.71c0.14,0.19,0.33,0.35,0.54,0.45c0.43,0.22,0.92,0.25,1.41,0.23l0.27-0.01l-0.09,0.26
			c-0.48,1.31-1.54,2.31-2.26,3.28c-0.33,0.5-0.35,1.08-0.45,1.78c-0.1,0.66-0.22,1.32-0.34,1.97c-0.49,2.61-1.05,5.2-1.62,7.78
			c-0.55,2.58-1.11,5.17-1.47,7.75c-0.08,0.64-0.15,1.29-0.14,1.91c-0.01,0.6,0.1,1.31,0.12,1.96c0.06,1.33,0.15,2.71-0.26,4.09
			l-0.16,0.55L8.49,33.6c-0.63-0.48-1.39-0.71-2.06-0.35c-0.67,0.35-1.18,1.07-1.59,1.8l-0.16,0.29l-0.23-0.2
			c-1.28-1.11-2.15-2.56-2.79-4.06c-0.63-1.51-1.05-3.11-1.29-4.73c-0.46-3.24-0.13-6.61,0.99-9.73c1.13-3.09,2.81-6,5.05-8.43
			c1.1-1.21,2.44-2.28,3.82-3.1c0.3-0.22,0.56-0.5,0.76-0.81l0.58-1.06C12,2.51,12.35,1.81,13.08,1.24z"/>
	</g>
</g>
<path fill="#F2B41C" d="M14.54,1.87c-1.06,1.11-2.05,2.26-2.97,3.48c-0.93,1.2-1.8,2.44-2.59,3.73c-1.58,2.58-2.91,5.31-3.76,8.19
	c-0.44,1.43-0.76,2.9-0.93,4.39c-0.19,1.49-0.24,2.99-0.14,4.49c0.08,1.5,0.31,3,0.71,4.46c0.32,1.49,0.89,2.9,1.44,4.33
	c-1.53-2.65-2.59-5.62-2.92-8.72c-0.37-3.09-0.01-6.26,0.88-9.23c0.9-2.98,2.31-5.79,4.07-8.32C10.1,6.13,12.15,3.78,14.54,1.87z"/>
<g>
	<g>
		
			<pattern  id="SVGID_5_" xlink:href="#New_Pattern_Swatch_3" patternTransform="matrix(0.6234 -0.0129 0.0129 0.6234 -2958.0493 -3168.9136)">
		</pattern>
		<path fill="url(#SVGID_5_)" d="M24.77,34.77c-0.17,0.14-0.35,0.26-0.52,0.36c-1.2,0.71-2.76,0.16-3.28-1.13
			c-0.12-0.3-0.22-0.57-0.31-0.87C21.78,32.32,23.37,31.99,24.77,34.77z"/>
		<g>
			
				<pattern  id="SVGID_6_" xlink:href="#New_Pattern_Swatch_3" patternTransform="matrix(0.6234 -0.0129 0.0129 0.6234 -2948.3765 -3153.5208)">
			</pattern>
			<path fill="url(#SVGID_6_)" d="M24.82,34.78c-0.09,0.16-0.27,0.42-0.49,0.61c-0.19,0.18-0.44,0.3-0.69,0.39
				c-0.51,0.16-1.11,0.14-1.58-0.15c-0.47-0.28-0.76-0.74-1.01-1.15c-0.24-0.43-0.41-0.85-0.68-1.27l-0.07-0.12l0.19-0.2
				c0.32-0.35,0.75-0.64,1.27-0.77c0.52-0.14,1.14-0.06,1.6,0.22c0.47,0.28,0.79,0.68,1.02,1.09c0.12,0.21,0.21,0.43,0.28,0.65
				C24.75,34.29,24.81,34.61,24.82,34.78z M24.72,34.76c-0.2-0.21-0.33-0.28-0.49-0.43c-0.16-0.15-0.31-0.3-0.46-0.43
				c-0.31-0.27-0.61-0.5-0.91-0.64c-0.3-0.14-0.59-0.22-0.93-0.2c-0.34,0.03-0.7,0.15-1.09,0.31l0.11-0.32
				c0.07,0.43,0.1,0.92,0.36,1.26c0.25,0.36,0.69,0.51,1.06,0.58c0.37,0.08,0.72,0.15,1.11,0.13c0.19-0.02,0.38-0.04,0.59-0.09
				C24.24,34.87,24.43,34.86,24.72,34.76z"/>
		</g>
	</g>
	<g>
		
			<pattern  id="SVGID_7_" xlink:href="#New_Pattern_Swatch_3" patternTransform="matrix(0.6234 -0.0129 0.0129 0.6234 -2958.0493 -3168.9136)">
		</pattern>
		<path fill="url(#SVGID_7_)" d="M7.16,34.59c0.47,1,1.26,1.63,2.49,1.72c1.36,0.1,2.24-0.4,2.84-1.23
			C11.39,33.87,9.62,32.91,7.16,34.59z"/>
		<g>
			
				<pattern  id="SVGID_8_" xlink:href="#New_Pattern_Swatch_3" patternTransform="matrix(0.6234 -0.0129 0.0129 0.6234 -2948.3765 -3153.5208)">
			</pattern>
			<path fill="url(#SVGID_8_)" d="M7.21,34.6c0.4,0.33,0.77,0.7,1.18,0.89c0.41,0.22,0.84,0.3,1.32,0.42
				c0.48,0.12,1.01,0.22,1.49,0.03c0.49-0.17,0.83-0.6,1.03-1.05l0.02,0.4c-0.39-0.28-0.76-0.54-1.15-0.73
				c-0.39-0.19-0.8-0.29-1.2-0.34c-0.41-0.05-0.84-0.03-1.29,0.05c-0.22,0.05-0.46,0.09-0.69,0.16C7.65,34.5,7.52,34.51,7.21,34.6z
				 M7.11,34.57c0.11-0.16,0.38-0.45,0.57-0.59c0.2-0.18,0.43-0.31,0.67-0.45c0.48-0.25,1.05-0.39,1.63-0.37
				c0.58,0.01,1.15,0.23,1.61,0.55c0.47,0.31,0.86,0.7,1.14,1.15l0.16,0.26l-0.14,0.14c-0.42,0.42-0.92,0.73-1.43,0.97
				c-0.51,0.23-1.08,0.44-1.67,0.48c-0.59,0.05-1.23-0.17-1.71-0.57C7.46,35.73,7.16,35.22,7.11,34.57z"/>
		</g>
	</g>
	<g>
		
			<pattern  id="SVGID_9_" xlink:href="#New_Pattern_Swatch_3" patternTransform="matrix(0.6234 -0.0129 0.0129 0.6234 -2958.0493 -3168.9136)">
		</pattern>
		<path fill="url(#SVGID_9_)" d="M16.5,34.61c0.71,0.84,1.64,1.25,2.85,1.02c1.35-0.25,2.06-0.96,2.42-1.92
			C20.41,32.82,18.45,32.35,16.5,34.61z"/>
		<g>
			
				<pattern  id="SVGID_10_" xlink:href="#New_Pattern_Swatch_3" patternTransform="matrix(0.6234 -0.0129 0.0129 0.6234 -2948.3765 -3153.5208)">
			</pattern>
			<path fill="url(#SVGID_10_)" d="M16.55,34.61c0.47,0.21,0.93,0.48,1.37,0.56c0.45,0.1,0.89,0.07,1.38,0.06
				c0.49-0.01,1.04-0.05,1.45-0.36c0.42-0.29,0.64-0.79,0.73-1.28l0.12,0.38c-0.45-0.17-0.87-0.33-1.3-0.41
				c-0.43-0.08-0.84-0.07-1.25-0.02c-0.41,0.06-0.82,0.19-1.24,0.38c-0.2,0.1-0.42,0.21-0.62,0.33
				C16.96,34.4,16.83,34.44,16.55,34.61z M16.45,34.61c0.07-0.18,0.25-0.53,0.4-0.72c0.15-0.22,0.34-0.41,0.53-0.6
				c0.4-0.36,0.91-0.65,1.48-0.78c0.57-0.14,1.17-0.07,1.69,0.11c0.53,0.18,1.01,0.45,1.4,0.82l0.22,0.21l-0.1,0.17
				c-0.29,0.52-0.7,0.94-1.13,1.3c-0.44,0.35-0.93,0.7-1.49,0.89c-0.56,0.2-1.23,0.15-1.8-0.11C17.09,35.64,16.67,35.22,16.45,34.61
				z"/>
		</g>
	</g>
	<g>
		
			<pattern  id="SVGID_11_" xlink:href="#New_Pattern_Swatch_3" patternTransform="matrix(0.6234 -0.0129 0.0129 0.6234 -2958.0493 -3168.9136)">
		</pattern>
		<path fill="url(#SVGID_11_)" d="M4.61,34.93c0.17,0.14,0.35,0.26,0.52,0.36c1.2,0.71,2.76,0.16,3.28-1.13
			c0.12-0.3,0.22-0.57,0.31-0.87C7.61,32.48,6.02,32.15,4.61,34.93z"/>
		<g>
			
				<pattern  id="SVGID_12_" xlink:href="#New_Pattern_Swatch_3" patternTransform="matrix(0.6234 -0.0129 0.0129 0.6234 -2948.3765 -3153.5208)">
			</pattern>
			<path fill="url(#SVGID_12_)" d="M4.66,34.92c0.29,0.1,0.48,0.11,0.65,0.16c0.2,0.05,0.4,0.08,0.59,0.09
				c0.38,0.02,0.73-0.05,1.11-0.13c0.37-0.07,0.81-0.22,1.06-0.58c0.26-0.34,0.29-0.83,0.36-1.26l0.11,0.32
				c-0.39-0.15-0.75-0.28-1.09-0.31c-0.34-0.01-0.63,0.06-0.93,0.2c-0.31,0.14-0.61,0.37-0.91,0.64c-0.16,0.13-0.3,0.28-0.46,0.43
				C5,34.64,4.87,34.71,4.66,34.92z M4.57,34.94c0.01-0.17,0.07-0.49,0.15-0.71C4.8,34.01,4.88,33.79,5,33.58
				c0.23-0.42,0.56-0.81,1.02-1.09c0.46-0.28,1.08-0.35,1.6-0.22c0.52,0.13,0.95,0.42,1.27,0.77l0.19,0.2l-0.07,0.12
				c-0.26,0.42-0.43,0.84-0.68,1.27c-0.25,0.41-0.54,0.87-1.01,1.15c-0.47,0.28-1.07,0.31-1.58,0.15c-0.26-0.08-0.5-0.21-0.69-0.39
				C4.83,35.37,4.65,35.1,4.57,34.94z"/>
		</g>
	</g>
</g>
<g>
	<g>
		
			<pattern  id="SVGID_13_" xlink:href="#New_Pattern_Swatch_3" patternTransform="matrix(0.6234 -0.0129 0.0129 0.6234 -2958.0493 -3168.9136)">
		</pattern>
		<path fill="url(#SVGID_13_)" d="M14.04,2.65c-0.17-0.44-0.17-0.81,0.12-1.02c0.73-0.55,1.28-1.33,2.17-0.5
			C16.19,1.91,15.64,2.67,14.04,2.65z"/>
		<g>
			
				<pattern  id="SVGID_14_" xlink:href="#New_Pattern_Swatch_3" patternTransform="matrix(0.6234 -0.0129 0.0129 0.6234 -2948.3765 -3153.5208)">
			</pattern>
			<path fill="url(#SVGID_14_)" d="M14.01,2.69c-0.19-0.15-0.28-0.26-0.36-0.46c-0.07-0.18-0.09-0.44,0.04-0.68
				c0.05-0.12,0.17-0.24,0.23-0.28c0.05-0.05,0.1-0.1,0.16-0.14c0.11-0.09,0.24-0.17,0.4-0.23c0.32-0.12,0.67-0.21,1.03-0.27
				c0.36-0.04,0.75,0.06,1.08,0.23l0.1,0.05l0.02,0.29c0.04,0.58-0.31,1.33-0.93,1.6c-0.29,0.15-0.61,0.18-0.9,0.17
				c-0.15-0.02-0.29-0.04-0.43-0.08C14.31,2.84,14.08,2.76,14.01,2.69z M14.06,2.61c0.18-0.08,0.2-0.14,0.33-0.21l0.33-0.17
				c0.21-0.11,0.38-0.23,0.52-0.33c0.14-0.12,0.27-0.21,0.39-0.34c0.12-0.13,0.21-0.3,0.32-0.49l0.11,0.34
				c-0.12-0.23-0.29-0.49-0.55-0.48c-0.27-0.01-0.43,0.29-0.58,0.54c-0.08,0.13-0.18,0.25-0.3,0.35c-0.06,0.05-0.13,0.09-0.2,0.14
				C14.38,2,14.39,1.98,14.35,1.99C14.25,1.99,14.18,2.3,14.06,2.61z"/>
		</g>
	</g>
	<g>
		
			<pattern  id="SVGID_15_" xlink:href="#New_Pattern_Swatch_3" patternTransform="matrix(0.6234 -0.0129 0.0129 0.6234 -2958.0493 -3168.9136)">
		</pattern>
		<path fill="url(#SVGID_15_)" d="M17.15,2.53c-0.11-0.76-0.38-1.39-1-1.41c-1.04-0.04-1.61,0.1-1.57,1.44
			C15.2,2.77,16.05,2.87,17.15,2.53z"/>
		<g>
			
				<pattern  id="SVGID_16_" xlink:href="#New_Pattern_Swatch_3" patternTransform="matrix(0.6234 -0.0129 0.0129 0.6234 -2948.3765 -3153.5208)">
			</pattern>
			<path fill="url(#SVGID_16_)" d="M17.11,2.5c-0.3-0.26-0.47-0.62-0.66-0.77c-0.19-0.14-0.18-0.19-0.64-0.35
				c-0.33-0.15-0.76-0.07-0.83,0.23c-0.07,0.28,0.05,0.6,0.08,0.92L14.74,2.1c0.18,0.04,0.37,0.05,0.55,0.08
				c0.18,0.02,0.37,0.06,0.56,0.09l0.6,0.09C16.68,2.39,16.88,2.42,17.11,2.5z M17.19,2.56C17,2.76,16.77,2.9,16.57,3.01
				c-0.22,0.11-0.45,0.18-0.69,0.22c-0.24,0.04-0.5,0.06-0.74,0.01C14.89,3.2,14.65,3.11,14.42,3l-0.33-0.15l0.01-0.28
				c0.02-0.4,0.15-0.88,0.52-1.22c0.39-0.33,0.8-0.34,1.18-0.51c0.2-0.05,0.37-0.16,0.69-0.1c0.29,0.06,0.53,0.28,0.65,0.5
				C17.38,1.7,17.38,2.09,17.19,2.56z"/>
		</g>
	</g>
	<g>
		
			<pattern  id="SVGID_17_" xlink:href="#New_Pattern_Swatch_3" patternTransform="matrix(0.6234 -0.0129 0.0129 0.6234 -2958.0493 -3168.9136)">
		</pattern>
		<path fill="url(#SVGID_17_)" d="M15.35,2.81c0.17-0.44,0.17-0.81-0.12-1.02c-0.73-0.55-1.28-1.33-2.17-0.5
			C13.2,2.07,13.75,2.83,15.35,2.81z"/>
		<g>
			
				<pattern  id="SVGID_18_" xlink:href="#New_Pattern_Swatch_3" patternTransform="matrix(0.6234 -0.0129 0.0129 0.6234 -2948.3765 -3153.5208)">
			</pattern>
			<path fill="url(#SVGID_18_)" d="M15.32,2.77c-0.11-0.3-0.18-0.62-0.29-0.62C15,2.14,15.01,2.15,14.95,2.11
				c-0.07-0.05-0.14-0.09-0.2-0.14c-0.12-0.1-0.22-0.22-0.3-0.35c-0.15-0.25-0.31-0.55-0.58-0.54c-0.26-0.01-0.43,0.24-0.55,0.48
				l0.11-0.34c0.11,0.19,0.2,0.36,0.32,0.49c0.12,0.13,0.25,0.22,0.39,0.34c0.15,0.1,0.32,0.23,0.52,0.33l0.33,0.17
				C15.12,2.62,15.14,2.68,15.32,2.77z M15.38,2.85c-0.07,0.07-0.31,0.15-0.43,0.19c-0.14,0.04-0.28,0.07-0.43,0.08
				c-0.29,0.01-0.61-0.02-0.9-0.17c-0.62-0.27-0.97-1.01-0.93-1.6l0.02-0.29l0.1-0.05c0.32-0.17,0.71-0.27,1.08-0.23
				c0.35,0.05,0.7,0.15,1.03,0.27c0.16,0.06,0.29,0.14,0.4,0.23c0.06,0.05,0.1,0.1,0.16,0.14c0.06,0.05,0.18,0.17,0.23,0.28
				c0.13,0.24,0.11,0.5,0.04,0.68C15.66,2.58,15.57,2.69,15.38,2.85z"/>
		</g>
	</g>
</g>
</svg>
