<?xml version="1.0" encoding="utf-8"?>
<!-- Generator: Adobe Illustrator 25.0.0, SVG Export Plug-In . SVG Version: 6.00 Build 0)  -->
<svg version="1.1" baseProfile="basic" id="Layer_1"
	 xmlns="http://www.w3.org/2000/svg" xmlns:xlink="http://www.w3.org/1999/xlink" x="0px" y="0px" viewBox="0 0 43 37"
	 xml:space="preserve">
<pattern  x="1" y="-2" width="27" height="27" patternUnits="userSpaceOnUse" id="New_Pattern_Swatch_3" viewBox="0 -27 27 27" overflow="visible">
	<g>
		<rect y="-27" fill="none" width="27" height="27"/>
		<rect y="-27" fill="#AD5E17" width="27" height="27"/>
	</g>
</pattern>
<g>
	<g>
		<path fill="#F6CB48" d="M75.67,82.25c-0.61-0.17-1.16-0.53-1.57-1.03c-1.13-1.36-2.2-2.35-3.16-2.71c0.07,1.79-1.36,3.01-2.25,3.6
			c0.83,0.91,2.3,1.54,3.23,1.87c0.46,0.16,0.76,0.61,0.73,1.09c-0.07,1.14,0.32,1.94,0.4,8.18c0.09,7.59-7.44,14.33-8.31,16.87
			c-0.11,0.32-0.18,0.62-0.22,0.88c0.93,0.43,1.92,1.19,1.96,2.48c0.69,0.1,1.4,0.04,1.81-0.01c1.19-0.16,14.03-5.61,14.49-18.11
			C83.14,85.4,77.84,82.87,75.67,82.25z"/>
		<path fill="#F2B41C" d="M75.65,82.3c-0.5-0.14-0.96-0.4-1.34-0.76c-0.37-0.37-0.67-0.77-1.03-1.13c-0.7-0.72-1.48-1.43-2.4-1.76
			l0.2-0.14c0.05,0.78-0.19,1.56-0.61,2.21c-0.43,0.65-1,1.19-1.62,1.63l0.05-0.44c0.45,0.45,1.04,0.8,1.64,1.08
			c0.3,0.14,0.61,0.27,0.93,0.4l0.48,0.18c0.14,0.04,0.42,0.16,0.58,0.31c0.37,0.29,0.57,0.81,0.53,1.25
			c-0.01,0.31,0.02,0.64,0.06,0.98c0.08,0.69,0.16,1.39,0.19,2.09c0.08,1.4,0.12,2.8,0.12,4.19c0.01,0.69-0.04,1.41-0.1,2.13
			c-0.03,0.36-0.12,0.7-0.18,1.06c-0.06,0.35-0.14,0.7-0.25,1.04c-0.36,1.38-0.97,2.66-1.62,3.9c-0.64,1.25-1.41,2.42-2.21,3.57
			c-0.79,1.15-1.62,2.27-2.45,3.39c-0.8,1.13-1.71,2.23-1.87,3.55l-0.14-0.27c0.53,0.24,1.05,0.55,1.46,1
			c0.42,0.45,0.69,1.07,0.72,1.7l-0.28-0.32c0.83,0.07,1.7,0.05,2.42-0.3c0.79-0.34,1.57-0.72,2.32-1.17
			c1.5-0.88,2.93-1.89,4.24-3.03c1.3-1.16,2.45-2.46,3.47-3.85l0.7-1.09l0.35-0.54l0.29-0.58l0.58-1.15l0.44-1.21
			c1.14-3.24,1.25-6.84,0.65-10.25c-0.34-1.7-0.98-3.36-2.06-4.75C78.85,83.85,77.34,82.82,75.65,82.3z M75.68,82.2
			c1.72,0.48,3.28,1.5,4.45,2.86c1.2,1.35,1.97,3.03,2.46,4.77c0.48,1.74,0.66,3.56,0.64,5.36c-0.05,0.9-0.09,1.82-0.23,2.72
			l-0.3,1.33c-0.05,0.22-0.1,0.45-0.16,0.67l-0.23,0.64l-0.46,1.29l-0.6,1.23l-0.3,0.61l-0.36,0.58l-0.73,1.15
			c-1.09,1.46-2.33,2.79-3.7,3.97c-1.39,1.15-2.87,2.19-4.46,3.04c-0.79,0.44-1.61,0.81-2.46,1.14c-0.4,0.16-0.96,0.32-1.4,0.31
			c-0.46,0.02-0.93,0.01-1.4-0.07l-0.28-0.05l0-0.27c0-0.49-0.18-0.95-0.5-1.34c-0.32-0.39-0.76-0.69-1.24-0.92l-0.2-0.1l0.05-0.17
			c0.11-0.35,0.17-0.71,0.31-1.05c0.15-0.35,0.34-0.65,0.53-0.95c0.4-0.59,0.82-1.14,1.24-1.7c0.84-1.11,1.7-2.2,2.48-3.35
			c1.55-2.29,2.91-4.76,3.5-7.44c0.09-0.33,0.15-0.66,0.19-1c0.04-0.34,0.11-0.67,0.12-1.01c0.02-0.67,0.04-1.34-0.01-2.05
			c-0.04-1.39-0.09-2.77-0.2-4.15l-0.17-2.07c-0.03-0.35-0.05-0.72-0.03-1.1c0.03-0.25-0.06-0.45-0.22-0.61
			c-0.1-0.08-0.14-0.11-0.33-0.18l-0.5-0.2c-0.33-0.14-0.65-0.29-0.97-0.47c-0.63-0.35-1.24-0.76-1.74-1.33l-0.23-0.26l0.29-0.18
			c0.6-0.37,1.16-0.83,1.58-1.39c0.42-0.56,0.68-1.24,0.68-1.95l0-0.23l0.2,0.09c0.98,0.44,1.71,1.19,2.4,1.94
			c0.35,0.37,0.66,0.79,1,1.15C74.75,81.8,75.2,82.06,75.68,82.2z"/>
	</g>
	<path fill="#F2B41C" d="M70.46,79.52c2.74,2.02,5.05,4.66,6.68,7.71c0.82,1.52,1.41,3.19,1.72,4.91c0.3,1.73,0.27,3.52-0.08,5.24
		c-0.37,1.72-1.05,3.35-1.93,4.86c-0.91,1.49-2,2.84-3.21,4.06c-2.43,2.45-5.28,4.39-8.27,6.01c0.68-0.51,1.37-1.01,2.06-1.5
		c0.68-0.51,1.32-1.06,1.99-1.58c0.65-0.54,1.27-1.11,1.91-1.66c0.59-0.6,1.2-1.18,1.76-1.8c1.1-1.26,2.14-2.57,2.95-4.01
		c0.81-1.44,1.44-2.98,1.77-4.58c0.71-3.22,0.08-6.61-1.34-9.61c-0.7-1.51-1.6-2.94-2.62-4.28C72.83,81.94,71.7,80.68,70.46,79.52z"
		/>
	<g>
		<pattern  id="SVGID_1_" xlink:href="#New_Pattern_Swatch_3" patternTransform="matrix(0.8673 0 0 0.8673 -1121.019 -1098.8595)">
		</pattern>
		<path fill="url(#SVGID_1_)" d="M70.93,78.51C69.9,78.12,69,78.44,68.3,79.8c-0.47,0.9-0.2,1.68,0.39,2.31
			C69.57,81.53,71,80.3,70.93,78.51z"/>
		<pattern  id="SVGID_2_" xlink:href="#New_Pattern_Swatch_3" patternTransform="matrix(0.8673 0 0 0.8673 -1108.0092 -1077.1764)">
		</pattern>
		<path fill="url(#SVGID_2_)" d="M70.93,78.51c-0.5-0.06-0.97-0.01-1.31,0.22c-0.34,0.22-0.59,0.57-0.79,0.96
			c-0.23,0.4-0.32,0.76-0.29,1.1c0.03,0.34,0.23,0.67,0.49,0.99l-0.63-0.08c0.58-0.37,1.13-0.79,1.58-1.31
			c0.22-0.26,0.42-0.54,0.58-0.85C70.73,79.22,70.85,78.9,70.93,78.51z M70.93,78.51c0.1,0.35,0.12,0.77,0.06,1.16
			c-0.06,0.39-0.21,0.78-0.41,1.13c-0.4,0.7-0.98,1.28-1.63,1.72l-0.33,0.23l-0.29-0.3c-0.38-0.39-0.71-0.94-0.74-1.57
			c-0.06-0.63,0.26-1.22,0.55-1.62c0.31-0.42,0.73-0.84,1.28-1C69.97,78.07,70.54,78.23,70.93,78.51z"/>
	</g>
	<g>
		<pattern  id="SVGID_3_" xlink:href="#New_Pattern_Swatch_3" patternTransform="matrix(0.8673 0 0 0.8673 -1121.019 -1098.8595)">
		</pattern>
		<path fill="url(#SVGID_3_)" d="M64.51,111c-0.26,1.72,0.83,2.31,1.96,2.48C66.43,112.19,65.44,111.43,64.51,111z"/>
		<pattern  id="SVGID_4_" xlink:href="#New_Pattern_Swatch_3" patternTransform="matrix(0.8673 0 0 0.8673 -1108.0092 -1077.1764)">
		</pattern>
		<path fill="url(#SVGID_4_)" d="M64.53,111.04c0.07,0.26,0.18,0.23,0.21,0.41l0.15,0.38c0.09,0.24,0.21,0.4,0.29,0.63
			c0.08,0.22,0.22,0.52,0.48,0.64c0.25,0.14,0.57,0.12,0.85,0.07l-0.36,0.32c-0.11-0.24-0.19-0.45-0.31-0.64
			c-0.12-0.19-0.26-0.36-0.39-0.54c-0.13-0.18-0.28-0.38-0.45-0.58C64.87,111.52,64.63,111.31,64.53,111.04z M64.48,110.96
			c0.41-0.03,0.66,0.03,0.97,0.14c0.29,0.11,0.57,0.29,0.8,0.52c0.46,0.47,0.69,1.22,0.53,1.85l-0.11,0.44l-0.25-0.12
			c-0.31-0.14-0.59-0.31-0.89-0.41c-0.29-0.12-0.66-0.17-0.97-0.41c-0.32-0.23-0.44-0.65-0.45-1c0-0.18,0.02-0.36,0.08-0.52
			C64.23,111.32,64.39,110.99,64.48,110.96z"/>
	</g>
</g>
<g>
	<g>
		<g>
			<path fill="#F6CB48" d="M31.21,7.81c-0.27-0.58-0.36-1.23-0.26-1.87c0.28-1.75,0.32-3.22-0.04-4.19
				c-1.31,1.24-3.18,0.96-4.21,0.68c-0.14,1.23,0.36,2.76,0.72,3.68c0.18,0.45,0.04,0.98-0.34,1.28c-0.9,0.7-1.26,1.53-5.92,5.71
				c-5.68,5.09-15.77,3.86-18.26,4.87c-0.32,0.13-0.59,0.27-0.82,0.41c0.29,0.99,0.37,2.24-0.58,3.13c0.38,0.59,0.89,1.09,1.2,1.36
				c0.91,0.79,13.52,6.9,23.29-1.02C33.78,15.54,32.18,9.86,31.21,7.81z"/>
			<path fill="#F2B41C" d="M31.17,7.83c-0.22-0.47-0.33-0.99-0.31-1.51C30.89,5.79,31,5.3,31.03,4.79c0.08-1.01,0.1-2.06-0.26-2.98
				l0.24,0.06c-0.55,0.55-1.31,0.89-2.08,1c-0.78,0.11-1.56,0.03-2.31-0.15l0.37-0.25c-0.04,0.64,0.08,1.31,0.26,1.96
				c0.09,0.32,0.2,0.65,0.31,0.97l0.18,0.48c0.06,0.14,0.16,0.42,0.15,0.65c0.02,0.47-0.24,0.97-0.6,1.23
				c-0.24,0.2-0.47,0.44-0.7,0.69c-0.47,0.51-0.95,1.04-1.46,1.53c-1.01,0.99-2.04,1.94-3.09,2.87c-0.51,0.47-1.1,0.9-1.68,1.33
				c-0.29,0.21-0.61,0.37-0.92,0.56c-0.3,0.19-0.62,0.36-0.95,0.5c-1.28,0.64-2.65,1.03-4.02,1.36c-1.37,0.34-2.77,0.54-4.16,0.69
				c-1.39,0.17-2.79,0.28-4.18,0.39c-1.38,0.14-2.82,0.18-3.93,0.93l0.11-0.29c0.17,0.56,0.28,1.15,0.21,1.77
				c-0.06,0.61-0.35,1.23-0.81,1.67l0.05-0.42c0.49,0.67,1.09,1.31,1.83,1.63c0.78,0.37,1.59,0.71,2.42,0.98
				c1.66,0.55,3.37,0.97,5.1,1.21c1.73,0.22,3.48,0.23,5.21,0.08l1.29-0.19l0.64-0.1l0.63-0.16l1.26-0.33l1.21-0.47
				c3.2-1.28,6-3.58,8.19-6.29c1.06-1.38,1.9-2.97,2.23-4.7C32.11,11.28,31.89,9.45,31.17,7.83z M31.26,7.79
				c0.78,1.62,1.03,3.47,0.78,5.26c-0.22,1.8-0.99,3.5-1.98,5.01c-1,1.52-2.26,2.85-3.64,4.03c-0.72,0.56-1.44,1.13-2.21,1.62
				L23,24.37c-0.2,0.11-0.4,0.22-0.61,0.32l-0.64,0.25l-1.28,0.5l-1.33,0.36l-0.66,0.18l-0.68,0.11l-1.36,0.21
				c-1.82,0.15-3.65,0.08-5.45-0.17c-1.79-0.29-3.56-0.72-5.26-1.36c-0.85-0.31-1.68-0.68-2.49-1.1c-0.39-0.2-0.87-0.52-1.16-0.85
				c-0.32-0.34-0.62-0.7-0.87-1.11l-0.15-0.24l0.2-0.18c0.37-0.32,0.6-0.77,0.68-1.26c0.08-0.5,0.02-1.03-0.12-1.55l-0.06-0.21
				l0.16-0.07c0.34-0.15,0.65-0.34,1-0.46c0.36-0.12,0.71-0.17,1.07-0.22c0.71-0.09,1.41-0.13,2.11-0.18
				c1.4-0.1,2.79-0.17,4.18-0.34c2.76-0.35,5.53-0.95,7.94-2.28c0.31-0.15,0.6-0.32,0.88-0.52c0.28-0.19,0.58-0.36,0.84-0.58
				c0.52-0.43,1.04-0.86,1.54-1.36c1.02-0.95,2.04-1.91,3.01-2.9l1.45-1.5c0.25-0.25,0.51-0.52,0.81-0.75
				c0.21-0.15,0.3-0.34,0.31-0.57c0-0.13-0.01-0.18-0.08-0.37l-0.18-0.51c-0.11-0.34-0.21-0.69-0.28-1.04
				c-0.15-0.71-0.24-1.44-0.14-2.2l0.05-0.35l0.32,0.1c0.68,0.21,1.4,0.33,2.1,0.28c0.7-0.05,1.39-0.31,1.93-0.78l0.18-0.15
				l0.06,0.21c0.31,1.03,0.23,2.08,0.13,3.1c-0.05,0.51-0.16,1.02-0.2,1.52C30.95,6.82,31.05,7.33,31.26,7.79z"/>
		</g>
		<path fill="#F2B41C" d="M29.84,2.06c0.28,3.41-0.19,6.9-1.41,10.16c-0.61,1.63-1.48,3.17-2.58,4.55c-1.11,1.37-2.48,2.53-4.02,3.4
			c-1.54,0.86-3.23,1.42-4.95,1.76c-1.73,0.3-3.47,0.37-5.2,0.26c-3.46-0.21-6.82-1.09-10.02-2.28c0.84,0.18,1.67,0.37,2.5,0.57
			c0.83,0.18,1.68,0.3,2.51,0.46c0.84,0.14,1.68,0.23,2.52,0.34c0.84,0.05,1.69,0.13,2.53,0.14c1.68-0.01,3.36-0.08,4.99-0.42
			c1.62-0.34,3.2-0.88,4.64-1.7c2.91-1.59,5.05-4.32,6.38-7.38c0.68-1.53,1.16-3.16,1.5-4.81C29.58,5.46,29.78,3.76,29.84,2.06z"/>
		<g>
			
				<pattern  id="SVGID_5_" xlink:href="#New_Pattern_Swatch_3" patternTransform="matrix(0.5739 0.6562 -0.6562 0.5739 -8816.7588 1848.1001)">
			</pattern>
			<path fill="url(#SVGID_5_)" d="M30.91,1.76c-0.38-1.04-1.22-1.51-2.71-1.14c-0.99,0.24-1.4,0.96-1.5,1.82
				C27.73,2.72,29.6,2.99,30.91,1.76z"/>
			
				<pattern  id="SVGID_6_" xlink:href="#New_Pattern_Swatch_3" patternTransform="matrix(0.5739 0.6562 -0.6562 0.5739 -8824.5547 1872.2913)">
			</pattern>
			<path fill="url(#SVGID_6_)" d="M30.91,1.76c-0.28-0.41-0.63-0.74-1.03-0.84c-0.4-0.11-0.82-0.07-1.25,0.04
				c-0.46,0.09-0.79,0.26-1.03,0.51c-0.23,0.25-0.36,0.62-0.42,1.03l-0.35-0.52c0.67,0.19,1.35,0.33,2.04,0.32
				c0.34,0,0.69-0.04,1.03-0.12C30.24,2.07,30.56,1.95,30.91,1.76z M30.91,1.76c-0.2,0.31-0.51,0.6-0.84,0.81
				C29.73,2.78,29.34,2.92,28.95,3c-0.79,0.16-1.61,0.1-2.38-0.1l-0.39-0.1l0.04-0.42c0.05-0.54,0.24-1.16,0.7-1.6
				c0.44-0.46,1.09-0.61,1.59-0.66c0.53-0.04,1.12,0,1.61,0.31C30.6,0.74,30.86,1.26,30.91,1.76z"/>
		</g>
		<g>
			
				<pattern  id="SVGID_7_" xlink:href="#New_Pattern_Swatch_3" patternTransform="matrix(0.5739 0.6562 -0.6562 0.5739 -8816.7588 1848.1001)">
			</pattern>
			<path fill="url(#SVGID_7_)" d="M2.08,18.39c-1.48,0.94-1.2,2.16-0.58,3.13C2.45,20.63,2.37,19.38,2.08,18.39z"/>
			
				<pattern  id="SVGID_8_" xlink:href="#New_Pattern_Swatch_3" patternTransform="matrix(0.5739 0.6562 -0.6562 0.5739 -8824.5547 1872.2913)">
			</pattern>
			<path fill="url(#SVGID_8_)" d="M2.06,18.44C1.91,18.66,2,18.72,1.89,18.87L1.7,19.23c-0.12,0.23-0.16,0.43-0.29,0.63
				c-0.12,0.21-0.24,0.51-0.16,0.79c0.06,0.28,0.28,0.51,0.51,0.69l-0.48-0.06c0.11-0.24,0.21-0.44,0.28-0.66
				c0.07-0.21,0.1-0.43,0.15-0.65c0.05-0.22,0.1-0.46,0.14-0.72C1.92,19.01,1.93,18.68,2.06,18.44z M2.1,18.34
				c0.29,0.29,0.41,0.51,0.53,0.82c0.11,0.3,0.16,0.62,0.14,0.95c-0.05,0.66-0.47,1.33-1.05,1.63l-0.4,0.21l-0.08-0.27
				c-0.1-0.33-0.16-0.65-0.28-0.94c-0.1-0.3-0.3-0.61-0.33-1.01c-0.03-0.39,0.2-0.76,0.46-1c0.13-0.12,0.29-0.22,0.45-0.28
				C1.65,18.39,2,18.3,2.1,18.34z"/>
		</g>
	</g>
	<g>
		<g>
			<path fill="#F6CB48" d="M32.31,8.11c-0.41-0.49-0.66-1.1-0.72-1.74c-0.17-1.77-0.49-3.2-1.08-4.05c-0.96,1.52-2.84,1.72-3.91,1.7
				c0.17,1.22,1.03,2.58,1.61,3.39c0.29,0.4,0.28,0.94-0.01,1.32c-0.7,0.91-0.84,1.79-4.32,7C19.64,22.08,9.57,23.39,7.41,25
				c-0.28,0.2-0.5,0.41-0.69,0.6c0.53,0.89,0.91,2.08,0.22,3.17c0.52,0.48,1.13,0.83,1.5,1.02c1.08,0.54,14.81,3.32,22.3-6.78
				C36.71,14.96,33.76,9.85,32.31,8.11z"/>
			<path fill="#F2B41C" d="M32.27,8.14c-0.33-0.4-0.57-0.88-0.68-1.39c-0.1-0.52-0.11-1.02-0.21-1.52
				c-0.18-0.99-0.41-2.02-0.99-2.83l0.24-0.01c-0.4,0.67-1.04,1.19-1.76,1.49c-0.72,0.3-1.5,0.42-2.27,0.43l0.29-0.33
				c0.12,0.63,0.41,1.25,0.74,1.83c0.17,0.29,0.35,0.58,0.54,0.86l0.29,0.42c0.09,0.12,0.26,0.37,0.31,0.59
				c0.14,0.45,0.01,1-0.27,1.34C28.32,9.28,28.16,9.56,28,9.87c-0.32,0.61-0.66,1.24-1.03,1.84c-0.73,1.21-1.49,2.39-2.28,3.55
				c-0.38,0.58-0.84,1.14-1.29,1.7c-0.23,0.28-0.5,0.51-0.75,0.77c-0.25,0.26-0.51,0.5-0.8,0.72c-1.08,0.94-2.31,1.66-3.56,2.31
				c-1.24,0.67-2.55,1.21-3.86,1.7c-1.31,0.51-2.63,0.97-3.96,1.42c-1.3,0.48-2.69,0.87-3.57,1.88l0.03-0.3
				c0.31,0.5,0.56,1.05,0.64,1.66c0.09,0.61-0.03,1.28-0.36,1.82l-0.05-0.42c0.64,0.53,1.38,1,2.18,1.13
				c0.84,0.17,1.72,0.29,2.59,0.35c1.75,0.12,3.5,0.1,5.24-0.1c1.73-0.22,3.43-0.64,5.07-1.22l1.2-0.5l0.6-0.25l0.57-0.31l1.13-0.63
				l1.06-0.75c2.78-2.04,4.92-4.96,6.37-8.13c0.68-1.6,1.1-3.35,0.99-5.11C34.04,11.25,33.37,9.53,32.27,8.14z M32.35,8.08
				c1.16,1.37,1.86,3.11,2.06,4.9c0.23,1.8-0.09,3.64-0.67,5.35c-0.59,1.72-1.48,3.33-2.52,4.81c-0.55,0.72-1.11,1.45-1.74,2.12
				l-1.01,0.94c-0.17,0.15-0.33,0.32-0.51,0.46l-0.56,0.4l-1.11,0.81l-1.2,0.68l-0.6,0.34l-0.63,0.27l-1.26,0.54
				c-1.73,0.59-3.52,0.99-5.32,1.19c-1.81,0.17-3.63,0.19-5.43-0.01c-0.9-0.09-1.8-0.24-2.69-0.45c-0.43-0.1-0.97-0.28-1.33-0.54
				c-0.4-0.25-0.77-0.52-1.12-0.86l-0.21-0.2l0.15-0.22C6.93,28.19,7.05,27.7,7,27.2c-0.05-0.5-0.24-1-0.5-1.47l-0.11-0.19
				l0.14-0.11c0.29-0.23,0.54-0.49,0.86-0.69c0.32-0.2,0.65-0.35,0.98-0.48c0.66-0.26,1.33-0.48,1.99-0.7
				c1.33-0.44,2.66-0.86,3.96-1.37c2.58-1.02,5.12-2.29,7.13-4.18c0.26-0.22,0.5-0.46,0.73-0.72c0.22-0.26,0.47-0.49,0.67-0.77
				c0.4-0.55,0.8-1.09,1.16-1.7c0.75-1.18,1.5-2.35,2.19-3.55l1.04-1.81c0.18-0.3,0.36-0.63,0.6-0.93c0.17-0.2,0.21-0.41,0.16-0.63
				c-0.03-0.13-0.06-0.17-0.17-0.34l-0.3-0.45C27.34,6.8,27.16,6.48,27,6.16c-0.32-0.65-0.59-1.34-0.68-2.09l-0.04-0.35l0.34,0.02
				c0.71,0.04,1.44-0.03,2.11-0.26c0.67-0.23,1.27-0.64,1.67-1.23l0.13-0.19l0.11,0.19c0.56,0.92,0.74,1.96,0.89,2.97
				c0.08,0.51,0.1,1.03,0.18,1.52C31.81,7.22,32.03,7.69,32.35,8.08z"/>
		</g>
		<path fill="#F2B41C" d="M29.55,2.88c1.12,3.23,1.53,6.73,1.16,10.19c-0.18,1.73-0.64,3.44-1.37,5.05c-0.73,1.6-1.77,3.07-3.05,4.3
			c-1.28,1.22-2.78,2.18-4.36,2.93c-1.6,0.72-3.27,1.22-4.97,1.54c-3.4,0.65-6.87,0.64-10.27,0.28c0.86-0.03,1.71-0.06,2.56-0.07
			c0.85-0.04,1.7-0.12,2.54-0.18c0.84-0.07,1.68-0.2,2.52-0.29c0.83-0.16,1.66-0.29,2.48-0.49c1.63-0.42,3.24-0.91,4.73-1.65
			c1.49-0.74,2.89-1.65,4.07-2.79c2.42-2.26,3.82-5.44,4.35-8.73c0.28-1.65,0.34-3.35,0.26-5.03C30.14,6.24,29.91,4.55,29.55,2.88z"
			/>
		<g>
			
				<pattern  id="SVGID_9_" xlink:href="#New_Pattern_Swatch_3" patternTransform="matrix(0.719 0.493 -0.493 0.719 -6409.3501 1713.2644)">
			</pattern>
			<path fill="url(#SVGID_9_)" d="M30.51,2.32c-0.63-0.91-1.56-1.16-2.91-0.43c-0.9,0.48-1.12,1.27-1,2.14
				C27.67,4.05,29.55,3.85,30.51,2.32z"/>
			
				<pattern  id="SVGID_10_" xlink:href="#New_Pattern_Swatch_3" patternTransform="matrix(0.719 0.493 -0.493 0.719 -6410.8892 1738.634)">
			</pattern>
			<path fill="url(#SVGID_10_)" d="M30.51,2.32c-0.38-0.33-0.79-0.56-1.21-0.56c-0.41-0.01-0.81,0.13-1.2,0.35
				c-0.42,0.2-0.7,0.44-0.87,0.75c-0.17,0.3-0.19,0.69-0.15,1.1l-0.47-0.42C27.3,3.56,28,3.52,28.66,3.35
				c0.33-0.09,0.66-0.21,0.96-0.38C29.94,2.8,30.22,2.6,30.51,2.32z M30.51,2.32c-0.12,0.35-0.34,0.71-0.61,0.99
				c-0.28,0.29-0.61,0.53-0.98,0.7c-0.73,0.35-1.54,0.5-2.33,0.5l-0.4,0l-0.07-0.42c-0.09-0.54-0.06-1.18,0.28-1.72
				c0.31-0.56,0.91-0.86,1.37-1.03c0.5-0.17,1.08-0.28,1.63-0.1C29.96,1.41,30.34,1.86,30.51,2.32z"/>
		</g>
		<g>
			
				<pattern  id="SVGID_11_" xlink:href="#New_Pattern_Swatch_3" patternTransform="matrix(0.719 0.493 -0.493 0.719 -6409.3501 1713.2644)">
			</pattern>
			<path fill="url(#SVGID_11_)" d="M6.72,25.6c-1.2,1.28-0.62,2.39,0.22,3.17C7.63,27.68,7.25,26.49,6.72,25.6z"/>
			
				<pattern  id="SVGID_12_" xlink:href="#New_Pattern_Swatch_3" patternTransform="matrix(0.719 0.493 -0.493 0.719 -6410.8892 1738.634)">
			</pattern>
			<path fill="url(#SVGID_12_)" d="M6.71,25.65c-0.09,0.25,0.01,0.29-0.06,0.46l-0.09,0.4c-0.06,0.25-0.05,0.45-0.12,0.68
				c-0.06,0.23-0.11,0.55,0.04,0.8c0.13,0.26,0.4,0.42,0.67,0.54L6.67,28.6c0.05-0.26,0.1-0.48,0.11-0.7
				c0.01-0.22-0.01-0.44-0.01-0.67C6.76,27,6.75,26.76,6.73,26.49C6.72,26.24,6.65,25.92,6.71,25.65z M6.72,25.55
				c0.35,0.21,0.53,0.4,0.72,0.67c0.18,0.26,0.31,0.56,0.37,0.89c0.12,0.65-0.13,1.4-0.61,1.84l-0.34,0.3l-0.14-0.24
				c-0.18-0.29-0.31-0.59-0.5-0.84c-0.17-0.26-0.45-0.52-0.57-0.89c-0.13-0.37,0-0.79,0.2-1.09c0.1-0.15,0.22-0.29,0.36-0.39
				C6.3,25.71,6.62,25.53,6.72,25.55z"/>
		</g>
	</g>
	<g>
		<g>
			<path fill="#F6CB48" d="M34.31,4.39c-0.62-0.16-1.18-0.51-1.6-1c-1.16-1.34-2.26-2.31-3.24-2.66c0.11,1.8-1.3,3.06-2.19,3.66
				c0.85,0.89,2.34,1.5,3.28,1.81c0.46,0.16,0.78,0.59,0.76,1.08c-0.04,1.14,0.37,1.95,0.57,8.21c0.25,7.63-7.18,14.56-8,17.12
				c-0.1,0.33-0.17,0.62-0.21,0.89c0.95,0.42,1.95,1.16,2.02,2.45c0.7,0.09,1.4,0.02,1.82-0.05c1.19-0.18,13.98-5.92,14.18-18.5
				C41.88,7.39,36.5,4.96,34.31,4.39z"/>
			<path fill="#F2B41C" d="M34.3,4.43c-0.5-0.13-0.97-0.38-1.36-0.73c-0.38-0.36-0.68-0.76-1.06-1.11c-0.72-0.7-1.51-1.4-2.45-1.72
				l0.2-0.15c0.07,0.78-0.15,1.58-0.57,2.23c-0.41,0.67-0.98,1.21-1.6,1.67l0.05-0.44c0.47,0.45,1.06,0.78,1.67,1.06
				c0.31,0.14,0.62,0.26,0.94,0.38l0.48,0.17c0.15,0.04,0.43,0.15,0.59,0.3c0.37,0.29,0.59,0.8,0.56,1.25
				c0,0.32,0.03,0.64,0.08,0.99c0.1,0.69,0.19,1.39,0.23,2.1c0.11,1.41,0.18,2.81,0.21,4.21c0.03,0.69-0.02,1.42-0.06,2.14
				c-0.02,0.36-0.11,0.71-0.16,1.06c-0.05,0.36-0.12,0.7-0.23,1.05c-0.33,1.39-0.92,2.69-1.54,3.95c-0.62,1.27-1.37,2.46-2.14,3.63
				c-0.77,1.18-1.58,2.32-2.39,3.46c-0.78,1.15-1.68,2.28-1.81,3.61l-0.15-0.27c0.54,0.23,1.06,0.53,1.49,0.98
				c0.43,0.44,0.72,1.06,0.76,1.69l-0.29-0.31c0.83,0.06,1.71,0.01,2.43-0.36c0.79-0.35,1.57-0.76,2.31-1.22
				c1.49-0.92,2.91-1.96,4.2-3.13c1.28-1.19,2.41-2.52,3.41-3.94l0.68-1.11l0.34-0.55l0.28-0.59l0.56-1.17l0.42-1.23
				c1.08-3.28,1.11-6.9,0.44-10.32c-0.38-1.7-1.05-3.36-2.17-4.73C37.54,5.93,36,4.92,34.3,4.43z M34.32,4.34
				c1.74,0.44,3.32,1.44,4.53,2.78c1.23,1.33,2.05,3.01,2.57,4.74c0.52,1.74,0.73,3.57,0.75,5.38c-0.03,0.91-0.06,1.83-0.18,2.73
				l-0.27,1.35c-0.05,0.22-0.09,0.45-0.14,0.67l-0.22,0.65l-0.44,1.3l-0.58,1.25l-0.29,0.62L39.7,26.4l-0.71,1.17
				c-1.06,1.49-2.28,2.85-3.64,4.07c-1.37,1.19-2.84,2.26-4.42,3.15c-0.78,0.46-1.6,0.85-2.45,1.2c-0.4,0.17-0.96,0.34-1.4,0.34
				c-0.46,0.03-0.94,0.02-1.41-0.04l-0.28-0.04l-0.01-0.27c-0.01-0.49-0.2-0.95-0.53-1.33c-0.33-0.38-0.78-0.68-1.26-0.9l-0.2-0.09
				l0.05-0.17c0.1-0.35,0.16-0.72,0.29-1.06c0.14-0.35,0.33-0.66,0.52-0.96c0.39-0.6,0.8-1.16,1.21-1.73
				c0.82-1.13,1.66-2.25,2.42-3.42c1.51-2.33,2.83-4.85,3.36-7.55c0.08-0.33,0.14-0.67,0.17-1.01c0.03-0.34,0.1-0.68,0.1-1.02
				c0-0.68,0.01-1.35-0.05-2.06c-0.07-1.39-0.15-2.78-0.28-4.17l-0.21-2.08c-0.03-0.35-0.07-0.72-0.05-1.11
				c0.02-0.26-0.07-0.45-0.24-0.61c-0.1-0.08-0.15-0.11-0.34-0.17l-0.5-0.19c-0.33-0.13-0.66-0.28-0.98-0.45
				c-0.64-0.34-1.26-0.74-1.77-1.3l-0.24-0.26l0.28-0.18c0.6-0.39,1.15-0.86,1.56-1.43c0.41-0.57,0.66-1.26,0.64-1.98L29.32,0.5
				l0.2,0.09c0.99,0.42,1.74,1.16,2.46,1.89c0.36,0.37,0.68,0.78,1.03,1.13C33.38,3.96,33.84,4.21,34.32,4.34z"/>
		</g>
		<path fill="#F2B41C" d="M29.02,1.75c2.79,1.98,5.17,4.58,6.87,7.61c0.86,1.51,1.48,3.17,1.83,4.9c0.34,1.73,0.35,3.53,0.03,5.27
			c-0.33,1.74-0.99,3.39-1.84,4.92c-0.88,1.52-1.95,2.9-3.14,4.15c-2.39,2.51-5.21,4.52-8.18,6.21c0.68-0.53,1.36-1.04,2.04-1.55
			c0.67-0.53,1.31-1.09,1.96-1.63c0.64-0.55,1.25-1.14,1.88-1.71c0.58-0.61,1.18-1.21,1.73-1.85c1.08-1.29,2.1-2.62,2.89-4.09
			c0.78-1.46,1.39-3.02,1.68-4.64c0.65-3.25-0.06-6.64-1.55-9.63c-0.74-1.5-1.67-2.92-2.72-4.24C31.46,4.13,30.29,2.89,29.02,1.75z"
			/>
		<g>
			
				<pattern  id="SVGID_13_" xlink:href="#New_Pattern_Swatch_3" patternTransform="matrix(0.8716 -0.018 0.018 0.8716 -888.07 -1211.2067)">
			</pattern>
			<path fill="url(#SVGID_13_)" d="M29.48,0.73c-1.04-0.37-1.94-0.03-2.62,1.34c-0.45,0.91-0.17,1.69,0.43,2.32
				C28.17,3.78,29.58,2.53,29.48,0.73z"/>
			
				<pattern  id="SVGID_14_" xlink:href="#New_Pattern_Swatch_3" patternTransform="matrix(0.8716 -0.018 0.018 0.8716 -874.5467 -1189.6868)">
			</pattern>
			<path fill="url(#SVGID_14_)" d="M29.48,0.73c-0.5-0.05-0.97,0.01-1.31,0.25c-0.34,0.23-0.58,0.58-0.77,0.98
				c-0.22,0.41-0.31,0.77-0.27,1.11c0.04,0.34,0.24,0.67,0.52,0.98l-0.63-0.07c0.57-0.39,1.12-0.82,1.56-1.35
				c0.22-0.26,0.41-0.55,0.57-0.87C29.29,1.44,29.4,1.12,29.48,0.73z M29.48,0.73c0.11,0.35,0.14,0.78,0.08,1.16
				c-0.06,0.4-0.19,0.79-0.38,1.14c-0.39,0.71-0.96,1.3-1.6,1.76l-0.33,0.23l-0.3-0.3c-0.39-0.38-0.73-0.93-0.78-1.56
				c-0.07-0.64,0.24-1.23,0.52-1.64c0.3-0.43,0.72-0.86,1.27-1.04C28.5,0.31,29.07,0.45,29.48,0.73z"/>
		</g>
		<g>
			
				<pattern  id="SVGID_15_" xlink:href="#New_Pattern_Swatch_3" patternTransform="matrix(0.8716 -0.018 0.018 0.8716 -888.07 -1211.2067)">
			</pattern>
			<path fill="url(#SVGID_15_)" d="M23.69,33.51c-0.23,1.74,0.89,2.31,2.02,2.45C25.65,34.67,24.64,33.92,23.69,33.51z"/>
			
				<pattern  id="SVGID_16_" xlink:href="#New_Pattern_Swatch_3" patternTransform="matrix(0.8716 -0.018 0.018 0.8716 -874.5467 -1189.6868)">
			</pattern>
			<path fill="url(#SVGID_16_)" d="M23.72,33.55c0.07,0.26,0.18,0.23,0.22,0.41l0.16,0.38c0.1,0.24,0.22,0.4,0.3,0.63
				c0.08,0.22,0.23,0.51,0.5,0.63c0.26,0.13,0.57,0.11,0.86,0.05l-0.36,0.33c-0.11-0.24-0.2-0.45-0.32-0.64
				c-0.12-0.19-0.26-0.35-0.4-0.54c-0.14-0.18-0.29-0.37-0.46-0.57C24.07,34.02,23.82,33.81,23.72,33.55z M23.67,33.46
				c0.41-0.03,0.66,0.01,0.98,0.12c0.3,0.11,0.58,0.28,0.82,0.51c0.47,0.46,0.72,1.21,0.57,1.85l-0.1,0.44l-0.26-0.11
				c-0.31-0.13-0.6-0.3-0.9-0.39c-0.29-0.11-0.66-0.16-0.98-0.39c-0.32-0.23-0.46-0.64-0.47-1c-0.01-0.18,0.01-0.36,0.07-0.53
				C23.42,33.84,23.57,33.51,23.67,33.46z"/>
		</g>
	</g>
</g>
</svg>
