<?xml version="1.0" encoding="utf-8"?>
<!-- Generator: Adobe Illustrator 25.0.0, SVG Export Plug-In . SVG Version: 6.00 Build 0)  -->
<svg version="1.1" baseProfile="basic" id="Layer_1"
	 xmlns="http://www.w3.org/2000/svg" xmlns:xlink="http://www.w3.org/1999/xlink" x="0px" y="0px" viewBox="0 0 20 36"
	 xml:space="preserve">
<pattern  y="-2" width="27" height="27" patternUnits="userSpaceOnUse" id="New_Pattern_Swatch_3" viewBox="0 -27 27 27" overflow="visible">
	<g>
		<rect y="-27" fill="none" width="27" height="27"/>
		<rect y="-27" fill="#AD5E17" width="27" height="27"/>
	</g>
</pattern>
<g>
	<g>
		<path fill="#F6CB48" d="M11.67,4.25c-0.61-0.17-1.16-0.53-1.57-1.03c-1.13-1.36-2.2-2.35-3.16-2.71C7,2.3,5.57,3.53,4.68,4.11
			c0.83,0.91,2.3,1.54,3.23,1.87c0.46,0.16,0.76,0.61,0.73,1.09c-0.07,1.14,0.32,1.94,0.4,8.18c0.09,7.59-7.44,14.33-8.31,16.87
			C0.62,32.44,0.55,32.73,0.51,33c0.93,0.43,1.92,1.19,1.96,2.48c0.69,0.1,1.4,0.04,1.81-0.01c1.19-0.16,14.03-5.61,14.49-18.11
			C19.14,7.4,13.84,4.87,11.67,4.25z"/>
		<path fill="#F2B41C" d="M11.65,4.3c-0.5-0.14-0.96-0.4-1.34-0.76C9.94,3.17,9.65,2.77,9.28,2.41C8.58,1.7,7.8,0.99,6.88,0.65
			l0.2-0.14c0.05,0.78-0.19,1.56-0.61,2.21c-0.43,0.65-1,1.19-1.62,1.63L4.9,3.91C5.35,4.37,5.94,4.71,6.54,5
			c0.3,0.14,0.61,0.27,0.93,0.4l0.48,0.18c0.14,0.04,0.42,0.16,0.58,0.31C8.89,6.18,9.1,6.7,9.06,7.14
			C9.05,7.45,9.08,7.78,9.12,8.12c0.08,0.69,0.16,1.39,0.19,2.09c0.08,1.4,0.12,2.8,0.12,4.19c0.01,0.69-0.04,1.41-0.1,2.13
			c-0.03,0.36-0.12,0.7-0.18,1.06c-0.06,0.35-0.14,0.7-0.25,1.04c-0.36,1.38-0.97,2.66-1.62,3.9c-0.64,1.25-1.41,2.42-2.21,3.57
			c-0.79,1.15-1.62,2.27-2.45,3.39c-0.8,1.13-1.71,2.23-1.87,3.55l-0.14-0.27c0.53,0.24,1.05,0.55,1.46,1
			c0.42,0.45,0.69,1.07,0.72,1.7l-0.28-0.32c0.83,0.07,1.7,0.05,2.42-0.3c0.79-0.34,1.57-0.72,2.32-1.17
			c1.5-0.88,2.93-1.89,4.24-3.03c1.3-1.16,2.45-2.46,3.47-3.85l0.7-1.09l0.35-0.54l0.29-0.58l0.58-1.15l0.44-1.21
			c1.14-3.24,1.25-6.84,0.65-10.25c-0.34-1.7-0.98-3.36-2.06-4.75C14.85,5.85,13.34,4.82,11.65,4.3z M11.68,4.2
			c1.72,0.48,3.28,1.5,4.45,2.86c1.2,1.35,1.97,3.03,2.46,4.77c0.48,1.74,0.66,3.56,0.64,5.36c-0.05,0.9-0.09,1.82-0.23,2.72
			l-0.3,1.33c-0.05,0.22-0.1,0.45-0.16,0.67l-0.23,0.64l-0.46,1.29l-0.6,1.23l-0.3,0.61l-0.36,0.58l-0.73,1.15
			c-1.09,1.46-2.33,2.79-3.7,3.97c-1.39,1.15-2.87,2.19-4.46,3.04c-0.79,0.44-1.61,0.81-2.46,1.14c-0.4,0.16-0.96,0.32-1.4,0.31
			c-0.46,0.02-0.93,0.01-1.4-0.07l-0.28-0.05l0-0.27c0-0.49-0.18-0.95-0.5-1.34c-0.32-0.39-0.76-0.69-1.24-0.92l-0.2-0.1l0.05-0.17
			c0.11-0.35,0.17-0.71,0.31-1.05c0.15-0.35,0.34-0.65,0.53-0.95c0.4-0.59,0.82-1.14,1.24-1.7c0.84-1.11,1.7-2.2,2.48-3.35
			c1.55-2.29,2.91-4.76,3.5-7.44c0.09-0.33,0.15-0.66,0.19-1c0.04-0.34,0.11-0.67,0.12-1.01c0.02-0.67,0.04-1.34-0.01-2.05
			c-0.04-1.39-0.09-2.77-0.2-4.15L8.26,8.2C8.23,7.85,8.2,7.48,8.23,7.1C8.25,6.85,8.17,6.65,8,6.49C7.9,6.41,7.86,6.38,7.67,6.31
			l-0.5-0.2C6.85,5.97,6.52,5.82,6.21,5.64C5.58,5.29,4.97,4.87,4.47,4.31L4.24,4.04l0.29-0.18c0.6-0.37,1.16-0.83,1.58-1.39
			c0.42-0.56,0.68-1.24,0.68-1.95l0-0.23l0.2,0.09c0.98,0.44,1.71,1.19,2.4,1.94c0.35,0.37,0.66,0.79,1,1.15
			C10.75,3.8,11.2,4.06,11.68,4.2z"/>
	</g>
	<path fill="#F2B41C" d="M6.46,1.52c2.74,2.02,5.05,4.66,6.68,7.71c0.82,1.52,1.41,3.19,1.72,4.91c0.3,1.73,0.27,3.52-0.08,5.24
		c-0.37,1.72-1.05,3.35-1.93,4.86c-0.91,1.49-2,2.84-3.21,4.06c-2.43,2.45-5.28,4.39-8.27,6.01c0.68-0.51,1.37-1.01,2.06-1.5
		c0.68-0.51,1.32-1.06,1.99-1.58c0.65-0.54,1.27-1.11,1.91-1.66c0.59-0.6,1.2-1.18,1.76-1.8c1.1-1.26,2.14-2.57,2.95-4.01
		c0.81-1.44,1.44-2.98,1.77-4.58c0.71-3.22,0.08-6.61-1.34-9.61c-0.7-1.51-1.6-2.94-2.62-4.28C8.83,3.94,7.7,2.68,6.46,1.52z"/>
	<g>
		<pattern  id="SVGID_1_" xlink:href="#New_Pattern_Swatch_3" patternTransform="matrix(0.8673 0 0 0.8673 -1137.0509 -1106.739)">
		</pattern>
		<path fill="url(#SVGID_1_)" d="M6.93,0.51C5.9,0.12,5,0.44,4.3,1.8C3.83,2.7,4.1,3.47,4.68,4.11C5.57,3.53,7,2.3,6.93,0.51z"/>
		<pattern  id="SVGID_2_" xlink:href="#New_Pattern_Swatch_3" patternTransform="matrix(0.8673 0 0 0.8673 -1124.041 -1085.0559)">
		</pattern>
		<path fill="url(#SVGID_2_)" d="M6.93,0.51C6.44,0.45,5.97,0.5,5.63,0.73C5.29,0.96,5.04,1.3,4.84,1.69
			c-0.23,0.4-0.32,0.76-0.29,1.1c0.03,0.34,0.23,0.67,0.49,0.99L4.42,3.7c0.58-0.37,1.13-0.79,1.58-1.31
			c0.22-0.26,0.42-0.54,0.58-0.85C6.73,1.22,6.85,0.9,6.93,0.51z M6.93,0.51c0.1,0.35,0.12,0.77,0.06,1.16
			C6.93,2.07,6.78,2.45,6.58,2.8C6.18,3.5,5.6,4.08,4.95,4.52L4.62,4.74l-0.29-0.3C3.95,4.05,3.61,3.5,3.58,2.87
			C3.52,2.23,3.84,1.65,4.13,1.25c0.31-0.42,0.73-0.84,1.28-1C5.97,0.07,6.54,0.23,6.93,0.51z"/>
	</g>
	<g>
		<pattern  id="SVGID_3_" xlink:href="#New_Pattern_Swatch_3" patternTransform="matrix(0.8673 0 0 0.8673 -1137.0509 -1106.739)">
		</pattern>
		<path fill="url(#SVGID_3_)" d="M0.51,33c-0.26,1.72,0.83,2.31,1.96,2.48C2.43,34.19,1.44,33.43,0.51,33z"/>
		<pattern  id="SVGID_4_" xlink:href="#New_Pattern_Swatch_3" patternTransform="matrix(0.8673 0 0 0.8673 -1124.041 -1085.0559)">
		</pattern>
		<path fill="url(#SVGID_4_)" d="M0.53,33.04c0.07,0.26,0.18,0.23,0.21,0.41l0.15,0.38c0.09,0.24,0.21,0.4,0.29,0.63
			c0.08,0.22,0.22,0.52,0.48,0.64c0.25,0.14,0.57,0.12,0.85,0.07l-0.36,0.32c-0.11-0.24-0.19-0.45-0.31-0.64
			c-0.12-0.19-0.26-0.36-0.39-0.54c-0.13-0.18-0.28-0.38-0.45-0.58C0.87,33.52,0.63,33.31,0.53,33.04z M0.48,32.96
			c0.41-0.03,0.66,0.03,0.97,0.14c0.29,0.11,0.57,0.29,0.8,0.52c0.46,0.47,0.69,1.22,0.53,1.85l-0.11,0.44l-0.25-0.12
			c-0.31-0.14-0.59-0.31-0.89-0.41c-0.29-0.12-0.66-0.17-0.97-0.41c-0.32-0.23-0.44-0.65-0.45-1c0-0.18,0.02-0.36,0.08-0.52
			C0.23,33.32,0.39,32.99,0.48,32.96z"/>
	</g>
</g>
<g>
	<g>
		<g>
			<path fill="#F6CB48" d="M169.21,81.68c-0.72-0.36-1.32-0.93-1.71-1.63c-1.09-1.94-2.19-3.42-3.3-4.09
				c-0.33,2.24-2.38,3.42-3.62,3.94c0.82,1.32,2.5,2.44,3.57,3.07c0.53,0.31,0.8,0.93,0.66,1.52c-0.34,1.39-0.05,2.48-1.39,10.23
				c-1.64,9.44-12.53,16.06-14.2,19c-0.21,0.38-0.37,0.72-0.48,1.04c1.06,0.75,2.11,1.92,1.86,3.53c0.83,0.29,1.72,0.38,2.24,0.4
				c1.51,0.08,18.69-3.72,22.15-19.12C177.75,87.31,171.76,82.95,169.21,81.68z"/>
			<path fill="#F2B41C" d="M169.19,81.73c-0.59-0.28-1.1-0.71-1.49-1.24c-0.37-0.54-0.65-1.11-1.02-1.64
				c-0.7-1.06-1.48-2.13-2.56-2.77l0.22-0.1c-0.12,0.96-0.6,1.87-1.27,2.57c-0.68,0.7-1.51,1.22-2.38,1.62l0.13-0.42
				c0.46,0.68,1.11,1.25,1.79,1.76c0.35,0.25,0.7,0.49,1.06,0.72l0.55,0.33c0.17,0.09,0.46,0.28,0.62,0.5
				c0.36,0.43,0.49,1.07,0.35,1.59c-0.09,0.39-0.13,0.81-0.16,1.25c-0.06,0.87-0.13,1.76-0.25,2.63c-0.22,1.75-0.49,3.49-0.8,5.23
				c-0.14,0.86-0.37,1.74-0.6,2.61c-0.12,0.43-0.31,0.84-0.46,1.26l-0.24,0.63l-0.3,0.6c-0.75,1.62-1.79,3.08-2.88,4.47
				c-1.08,1.4-2.3,2.68-3.55,3.92c-1.24,1.25-2.53,2.44-3.82,3.63c-0.64,0.6-1.28,1.2-1.86,1.84c-0.29,0.32-0.57,0.65-0.78,1
				c-0.22,0.35-0.35,0.77-0.54,1.14l-0.09-0.29c0.6,0.41,1.15,0.92,1.56,1.56c0.41,0.64,0.59,1.45,0.49,2.22l-0.22-0.36
				c0.5,0.16,1.03,0.25,1.57,0.31c0.56,0.07,1,0.01,1.55-0.11c1.06-0.23,2.13-0.53,3.17-0.91c2.08-0.74,4.09-1.66,5.99-2.78
				c1.89-1.14,3.63-2.48,5.23-3.98l1.13-1.19l0.56-0.6l0.49-0.65l0.99-1.31l0.83-1.41c2.17-3.78,3.12-8.24,3.14-12.63
				c-0.05-2.19-0.47-4.41-1.51-6.37C172.81,84.38,171.16,82.75,169.19,81.73z M169.23,81.64c2.02,0.99,3.71,2.62,4.84,4.58
				c1.16,1.95,1.72,4.21,1.9,6.47c0.18,2.27-0.04,4.55-0.49,6.77c-0.11,0.56-0.29,1.1-0.43,1.65c-0.16,0.55-0.27,1.11-0.5,1.64
				l-0.68,1.58c-0.12,0.26-0.22,0.53-0.35,0.78l-0.43,0.74l-0.86,1.48l-1.02,1.38l-0.51,0.69l-0.58,0.63l-1.17,1.25
				c-1.67,1.55-3.51,2.91-5.47,4.06c-1.98,1.11-4.05,2.05-6.21,2.75c-1.07,0.36-2.17,0.64-3.3,0.86c-0.54,0.11-1.23,0.17-1.78,0.06
				c-0.57-0.08-1.15-0.2-1.7-0.4l-0.27-0.1l0.05-0.27c0.11-0.62-0.01-1.26-0.33-1.83c-0.32-0.56-0.81-1.04-1.35-1.45l-0.18-0.13
				l0.08-0.16c0.21-0.41,0.37-0.84,0.62-1.22c0.26-0.39,0.56-0.72,0.87-1.05c0.62-0.63,1.28-1.23,1.92-1.82
				c1.3-1.18,2.61-2.34,3.85-3.59c2.45-2.48,4.73-5.23,6.1-8.42l0.27-0.59l0.21-0.61c0.13-0.41,0.3-0.81,0.39-1.23
				c0.18-0.84,0.37-1.67,0.48-2.55c0.27-1.73,0.53-3.46,0.72-5.2l0.27-2.61c0.05-0.44,0.1-0.9,0.21-1.36
				c0.1-0.33,0.03-0.64-0.16-0.9c-0.11-0.14-0.19-0.2-0.4-0.32l-0.57-0.36c-0.38-0.25-0.74-0.51-1.09-0.8
				c-0.69-0.57-1.36-1.22-1.84-2.02l-0.18-0.3l0.31-0.12c0.84-0.33,1.64-0.78,2.3-1.39c0.66-0.61,1.13-1.41,1.29-2.3l0.04-0.22
				l0.18,0.12c0.56,0.37,1.01,0.85,1.42,1.35c0.41,0.5,0.78,1.03,1.12,1.58c0.35,0.54,0.64,1.13,0.98,1.65
				C168.18,80.92,168.67,81.35,169.23,81.64z"/>
		</g>
		<path fill="#F2B41C" d="M163.38,77.09c2.89,3.17,5.11,6.98,6.41,11.13c1.3,4.13,1.35,8.79-0.34,12.89
			c-0.85,2.03-2.08,3.88-3.5,5.54l-1.12,1.19c-0.37,0.4-0.8,0.74-1.2,1.11c-0.78,0.76-1.69,1.36-2.56,2.01
			c-3.55,2.49-7.52,4.26-11.58,5.62c0.97-0.46,1.94-0.91,2.91-1.35c0.96-0.47,1.9-0.99,2.84-1.47c0.94-0.51,1.84-1.07,2.76-1.61
			c0.88-0.6,1.77-1.18,2.61-1.82c1.66-1.31,3.28-2.68,4.64-4.28c1.34-1.61,2.48-3.39,3.26-5.32c0.81-1.92,1.25-3.99,1.31-6.08
			c0.07-2.09-0.26-4.18-0.78-6.23c-0.54-2.04-1.34-4.02-2.3-5.91C165.81,80.61,164.67,78.79,163.38,77.09z"/>
		<g>
			
				<pattern  id="SVGID_5_" xlink:href="#New_Pattern_Swatch_3" patternTransform="matrix(1.0756 0.2001 -0.2001 1.0756 -1037.9355 2213.7803)">
			</pattern>
			<path fill="url(#SVGID_5_)" d="M164.2,75.95c-1.19-0.73-2.38-0.54-3.56,0.98c-0.79,1.01-0.63,2.03-0.06,2.96
				C161.82,79.38,163.88,78.19,164.2,75.95z"/>
			
				<pattern  id="SVGID_6_" xlink:href="#New_Pattern_Swatch_3" patternTransform="matrix(1.0756 0.2001 -0.2001 1.0756 -1026.8048 2243.6724)">
			</pattern>
			<path fill="url(#SVGID_6_)" d="M164.2,75.95c-0.58-0.22-1.18-0.29-1.69-0.1c-0.5,0.19-0.91,0.56-1.26,1
				c-0.39,0.45-0.62,0.89-0.66,1.36c-0.04,0.47,0.13,0.95,0.4,1.42l-0.6-0.19C162.02,78.78,163.57,77.77,164.2,75.95z M164.2,75.95
				c0.02,0.46-0.07,0.97-0.25,1.42c-0.18,0.46-0.45,0.89-0.78,1.26c-0.66,0.75-1.5,1.31-2.4,1.7l-0.37,0.16l-0.23-0.35
				c-0.37-0.56-0.64-1.28-0.54-2.04c0.07-0.76,0.57-1.39,1.01-1.82c0.47-0.45,1.06-0.86,1.76-0.95
				C163.1,75.24,163.76,75.53,164.2,75.95z"/>
		</g>
		<g>
			
				<pattern  id="SVGID_7_" xlink:href="#New_Pattern_Swatch_3" patternTransform="matrix(1.0756 0.2001 -0.2001 1.0756 -1037.9355 2213.7803)">
			</pattern>
			<path fill="url(#SVGID_7_)" d="M148.74,114.76c-0.72,2.07,0.5,3.06,1.86,3.53C150.85,116.68,149.8,115.51,148.74,114.76z"/>
			
				<pattern  id="SVGID_8_" xlink:href="#New_Pattern_Swatch_3" patternTransform="matrix(1.0756 0.2001 -0.2001 1.0756 -1026.8048 2243.6724)">
			</pattern>
			<path fill="url(#SVGID_8_)" d="M148.76,114.81c0.01,0.31,0.11,0.33,0.1,0.56l0.06,0.52c0.05,0.33,0.15,0.59,0.22,0.9
				c0.07,0.3,0.22,0.67,0.52,0.89c0.29,0.23,0.67,0.3,1.04,0.32l-0.42,0.25c-0.05-0.33-0.1-0.62-0.19-0.9
				c-0.1-0.28-0.23-0.54-0.36-0.8c-0.13-0.27-0.29-0.54-0.47-0.82C149.12,115.43,148.86,115.12,148.76,114.81z M148.73,114.71
				c0.47,0.09,0.76,0.24,1.09,0.45c0.32,0.22,0.6,0.49,0.83,0.83c0.44,0.67,0.56,1.6,0.27,2.34l-0.16,0.41l-0.25-0.16
				c-0.35-0.22-0.67-0.47-1.01-0.67c-0.33-0.21-0.74-0.39-1.04-0.75c-0.31-0.36-0.38-0.87-0.32-1.29c0.03-0.22,0.09-0.43,0.19-0.62
				C148.38,115.1,148.61,114.77,148.73,114.71z"/>
		</g>
	</g>
	<g>
		<g>
			<path fill="#F6CB48" d="M170.53,81.13c-0.79-0.17-1.51-0.57-2.06-1.16c-1.54-1.61-2.97-2.77-4.21-3.15
				c0.24,2.25-1.46,3.91-2.53,4.72c1.12,1.07,3.03,1.74,4.22,2.08c0.59,0.17,1.01,0.7,1.01,1.31c0.01,1.44,0.57,2.42,1.19,10.26
				c0.76,9.55-8.15,18.67-9.03,21.93c-0.11,0.42-0.18,0.79-0.21,1.13c1.21,0.47,2.52,1.34,2.68,2.95c0.88,0.07,1.76-0.06,2.27-0.17
				c1.48-0.3,17.18-8.24,16.7-24.02C180.19,84.45,173.31,81.72,170.53,81.13z"/>
			<path fill="#F2B41C" d="M170.52,81.17c-0.64-0.13-1.24-0.42-1.75-0.83c-0.5-0.43-0.91-0.91-1.39-1.34
				c-0.94-0.85-1.97-1.69-3.17-2.04l0.19-0.16c0.13,0.96-0.11,1.96-0.59,2.8c-0.48,0.85-1.15,1.56-1.9,2.16l0.03-0.44
				c0.62,0.55,1.38,0.94,2.17,1.26c0.4,0.16,0.8,0.3,1.21,0.43l0.62,0.18c0.19,0.04,0.52,0.16,0.73,0.33
				c0.46,0.32,0.74,0.92,0.73,1.45c0.01,0.4,0.08,0.82,0.15,1.25c0.16,0.86,0.31,1.74,0.41,2.61c0.22,1.75,0.39,3.51,0.52,5.26
				c0.08,0.87,0.07,1.77,0.07,2.67c0,0.45-0.09,0.89-0.13,1.34l-0.08,0.67l-0.14,0.65c-0.33,1.76-0.97,3.42-1.68,5.04
				c-0.69,1.63-1.56,3.17-2.46,4.68c-0.89,1.52-1.85,3-2.8,4.47c-0.47,0.74-0.94,1.48-1.34,2.25c-0.2,0.38-0.39,0.77-0.51,1.17
				c-0.12,0.4-0.15,0.83-0.24,1.24l-0.16-0.26c0.68,0.25,1.35,0.6,1.9,1.13c0.55,0.52,0.94,1.26,1.02,2.03l-0.3-0.3
				c0.53,0.03,1.07-0.01,1.6-0.09c0.57-0.07,0.97-0.24,1.48-0.49c0.97-0.49,1.93-1.04,2.84-1.67c1.83-1.23,3.55-2.63,5.11-4.18
				c1.55-1.57,2.9-3.31,4.07-5.16l0.79-1.44l0.39-0.72l0.32-0.76l0.63-1.51l0.46-1.57c1.16-4.2,0.98-8.76-0.1-13.02
				c-0.59-2.11-1.55-4.16-3.04-5.8C174.68,82.85,172.68,81.68,170.52,81.17z M170.54,81.08c2.2,0.46,4.24,1.62,5.82,3.23
				c1.61,1.6,2.71,3.66,3.44,5.79c0.73,2.15,1.09,4.42,1.21,6.68c0.04,0.57,0,1.14,0,1.71c-0.02,0.57,0.01,1.15-0.07,1.71
				l-0.26,1.69c-0.05,0.28-0.08,0.57-0.14,0.85l-0.23,0.83l-0.47,1.65l-0.65,1.59l-0.33,0.79l-0.41,0.75l-0.82,1.5
				c-1.23,1.92-2.68,3.69-4.29,5.29c-1.64,1.57-3.41,3-5.33,4.21c-0.95,0.62-1.95,1.16-2.98,1.65c-0.5,0.24-1.15,0.47-1.71,0.5
				c-0.58,0.07-1.16,0.09-1.75,0.03l-0.28-0.03l-0.02-0.27c-0.05-0.63-0.32-1.22-0.78-1.69c-0.45-0.47-1.04-0.81-1.67-1.07
				l-0.2-0.08l0.04-0.18c0.1-0.45,0.15-0.9,0.3-1.33c0.15-0.44,0.36-0.84,0.58-1.23c0.45-0.77,0.93-1.5,1.41-2.24
				c0.96-1.47,1.95-2.92,2.83-4.43c1.76-3.01,3.28-6.24,3.81-9.67l0.11-0.64l0.05-0.64c0.02-0.43,0.09-0.86,0.07-1.29
				c-0.03-0.86-0.05-1.71-0.17-2.59c-0.17-1.74-0.35-3.48-0.59-5.21l-0.39-2.59c-0.07-0.44-0.13-0.89-0.13-1.37
				c0.01-0.35-0.13-0.63-0.38-0.83c-0.14-0.11-0.23-0.14-0.46-0.21l-0.64-0.21c-0.42-0.15-0.84-0.31-1.25-0.5
				c-0.81-0.38-1.62-0.84-2.29-1.5l-0.25-0.24l0.27-0.2c0.73-0.53,1.4-1.16,1.88-1.92c0.48-0.75,0.75-1.65,0.68-2.55l-0.02-0.23
				l0.21,0.07c0.63,0.21,1.19,0.57,1.71,0.95c0.52,0.38,1.01,0.81,1.48,1.25c0.47,0.43,0.9,0.94,1.36,1.36
				C169.34,80.65,169.92,80.94,170.54,81.08z"/>
		</g>
		<path fill="#F2B41C" d="M163.74,78.12c3.58,2.35,6.69,5.49,8.98,9.19c2.29,3.68,3.49,8.18,2.88,12.57
			c-0.32,2.18-1.05,4.28-2.01,6.23l-0.79,1.43c-0.26,0.48-0.59,0.91-0.89,1.37c-0.57,0.93-1.3,1.74-1.98,2.58
			c-2.82,3.29-6.23,5.99-9.82,8.33c0.83-0.69,1.65-1.36,2.49-2.03c0.82-0.69,1.59-1.43,2.39-2.14c0.78-0.73,1.52-1.5,2.27-2.24
			c0.7-0.8,1.42-1.58,2.08-2.41c1.29-1.68,2.51-3.41,3.43-5.3c0.9-1.89,1.56-3.9,1.84-5.96c0.31-2.06,0.22-4.17-0.24-6.21
			c-0.45-2.04-1.29-3.99-2.31-5.84c-1.03-1.84-2.29-3.56-3.7-5.15C166.96,80.94,165.41,79.46,163.74,78.12z"/>
		<g>
			
				<pattern  id="SVGID_9_" xlink:href="#New_Pattern_Swatch_3" patternTransform="matrix(1.0916 -0.0735 0.0735 1.0916 1271.3577 197.7512)">
			</pattern>
			<path fill="url(#SVGID_9_)" d="M164.25,76.82c-1.33-0.41-2.44,0.07-3.21,1.84c-0.51,1.17-0.11,2.13,0.68,2.88
				C162.8,80.73,164.49,79.07,164.25,76.82z"/>
			
				<pattern  id="SVGID_10_" xlink:href="#New_Pattern_Swatch_3" patternTransform="matrix(1.0916 -0.0735 0.0735 1.0916 1289.5682 223.9388)">
			</pattern>
			<path fill="url(#SVGID_10_)" d="M164.25,76.82c-0.62-0.06-1.22,0.01-1.66,0.33c-0.44,0.31-0.75,0.77-0.97,1.28
				c-0.26,0.53-0.38,1.01-0.3,1.48c0.07,0.46,0.36,0.89,0.74,1.28l-0.63-0.04C162.84,80.1,164.09,78.74,164.25,76.82z M164.25,76.82
				c0.14,0.44,0.18,0.96,0.11,1.44c-0.06,0.49-0.22,0.97-0.44,1.42c-0.45,0.89-1.13,1.64-1.9,2.25l-0.32,0.25l-0.31-0.28
				c-0.49-0.45-0.94-1.08-1.03-1.84c-0.12-0.76,0.2-1.49,0.52-2.01c0.34-0.55,0.81-1.1,1.47-1.36
				C163.01,76.41,163.72,76.53,164.25,76.82z"/>
		</g>
		<g>
			
				<pattern  id="SVGID_11_" xlink:href="#New_Pattern_Swatch_3" patternTransform="matrix(1.0916 -0.0735 0.0735 1.0916 1271.3577 197.7512)">
			</pattern>
			<path fill="url(#SVGID_11_)" d="M158.92,118.25c-0.19,2.19,1.24,2.84,2.68,2.95C161.43,119.59,160.13,118.72,158.92,118.25z"/>
			
				<pattern  id="SVGID_12_" xlink:href="#New_Pattern_Swatch_3" patternTransform="matrix(1.0916 -0.0735 0.0735 1.0916 1289.5682 223.9388)">
			</pattern>
			<path fill="url(#SVGID_12_)" d="M158.94,118.3c0.08,0.3,0.19,0.3,0.24,0.51l0.19,0.49c0.13,0.31,0.29,0.53,0.44,0.81
				c0.15,0.28,0.38,0.6,0.72,0.73c0.34,0.15,0.73,0.12,1.09,0.06l-0.34,0.35c-0.13-0.3-0.25-0.58-0.41-0.83
				c-0.16-0.25-0.35-0.46-0.55-0.69c-0.2-0.23-0.42-0.45-0.66-0.68C159.45,118.81,159.12,118.58,158.94,118.3z M158.89,118.21
				c0.47-0.03,0.79,0.04,1.17,0.17c0.36,0.13,0.71,0.33,1.01,0.6c0.6,0.54,0.94,1.42,0.84,2.2l-0.06,0.44l-0.29-0.09
				c-0.39-0.13-0.76-0.29-1.14-0.4c-0.37-0.13-0.81-0.19-1.2-0.47c-0.39-0.27-0.58-0.75-0.63-1.18c-0.02-0.22-0.02-0.44,0.03-0.64
				C158.65,118.67,158.8,118.3,158.89,118.21z"/>
		</g>
	</g>
	<g>
		<g>
			<path fill="#F6CB48" d="M169.6,75.9c-0.74,0.32-1.56,0.41-2.35,0.26c-2.19-0.42-4.03-0.52-5.26-0.1c1.5,1.69,1.09,4.02,0.69,5.31
				c1.53,0.22,3.47-0.35,4.64-0.77c0.58-0.21,1.23-0.02,1.59,0.48c0.85,1.16,1.87,1.63,6.94,7.64c6.17,7.32,4.25,19.92,5.43,23.09
				c0.15,0.4,0.32,0.75,0.49,1.04c1.26-0.33,2.83-0.38,3.9,0.84c0.76-0.46,1.4-1.08,1.75-1.46c1.03-1.11,9.16-16.71-0.41-29.25
				C179.39,72.98,172.2,74.76,169.6,75.9z"/>
			<path fill="#F2B41C" d="M169.62,75.95c-0.59,0.27-1.25,0.38-1.91,0.34c-0.66-0.06-1.27-0.21-1.91-0.28
				c-1.26-0.14-2.58-0.23-3.76,0.18l0.06-0.24c0.66,0.71,1.05,1.66,1.15,2.62c0.1,0.97-0.03,1.94-0.29,2.87l-0.24-0.37
				c0.82,0.08,1.67-0.04,2.5-0.24c0.41-0.1,0.83-0.22,1.23-0.35l0.61-0.21c0.18-0.07,0.51-0.17,0.78-0.16
				c0.56-0.01,1.14,0.32,1.44,0.76c0.25,0.32,0.54,0.62,0.85,0.92c0.63,0.61,1.26,1.23,1.86,1.88c1.2,1.3,2.36,2.62,3.49,3.97
				c0.57,0.66,1.09,1.4,1.61,2.14c0.26,0.37,0.45,0.78,0.67,1.16l0.33,0.59l0.27,0.61c0.76,1.62,1.21,3.35,1.57,5.07
				c0.38,1.73,0.58,3.48,0.72,5.24c0.16,1.75,0.24,3.51,0.33,5.26c0.04,0.88,0.1,1.75,0.22,2.61c0.06,0.43,0.13,0.85,0.27,1.24
				c0.13,0.4,0.36,0.76,0.53,1.14l-0.28-0.12c0.7-0.19,1.44-0.3,2.2-0.19c0.75,0.1,1.49,0.48,2.01,1.05l-0.42-0.06
				c0.45-0.28,0.86-0.63,1.24-1.01c0.42-0.39,0.65-0.76,0.92-1.26c0.5-0.96,0.96-1.97,1.34-3.01c0.77-2.07,1.35-4.2,1.72-6.37
				c0.34-2.18,0.43-4.38,0.31-6.56l-0.19-1.63l-0.1-0.81l-0.18-0.8l-0.37-1.6l-0.55-1.54c-1.5-4.09-4.31-7.69-7.66-10.52
				c-1.71-1.37-3.68-2.47-5.85-2.94C173.98,74.88,171.67,75.1,169.62,75.95z M169.58,75.86c2.06-0.91,4.39-1.16,6.61-0.76
				c2.24,0.36,4.33,1.39,6.17,2.7c1.85,1.32,3.46,2.95,4.87,4.72c0.36,0.44,0.66,0.93,0.99,1.39c0.31,0.48,0.68,0.92,0.94,1.43
				l0.77,1.53c0.13,0.26,0.26,0.51,0.38,0.77l0.29,0.81l0.58,1.62l0.4,1.67l0.2,0.84l0.11,0.85l0.21,1.7
				c0.12,2.28-0.03,4.56-0.41,6.8c-0.42,2.23-1.03,4.42-1.88,6.52c-0.41,1.06-0.91,2.08-1.46,3.08c-0.26,0.48-0.66,1.05-1.09,1.4
				c-0.43,0.39-0.89,0.75-1.4,1.05l-0.24,0.14l-0.17-0.21c-0.41-0.48-0.97-0.81-1.61-0.92c-0.64-0.12-1.32-0.05-1.98,0.1l-0.21,0.05
				l-0.07-0.17c-0.18-0.42-0.4-0.82-0.54-1.26c-0.13-0.45-0.19-0.89-0.24-1.34c-0.09-0.89-0.12-1.77-0.16-2.64
				c-0.07-1.76-0.12-3.51-0.28-5.25c-0.33-3.47-0.97-6.98-2.53-10.08l-0.28-0.58l-0.34-0.55c-0.23-0.36-0.43-0.75-0.69-1.09
				c-0.52-0.68-1.04-1.36-1.64-2c-1.15-1.32-2.31-2.63-3.52-3.89l-1.83-1.88c-0.31-0.32-0.63-0.65-0.91-1.03
				c-0.19-0.29-0.47-0.43-0.79-0.45c-0.18,0-0.27,0.02-0.5,0.1l-0.64,0.2c-0.43,0.13-0.87,0.24-1.31,0.32
				c-0.89,0.16-1.8,0.26-2.73,0.11l-0.34-0.05l0.11-0.32c0.29-0.85,0.46-1.76,0.41-2.66c-0.05-0.89-0.35-1.77-0.93-2.47l-0.15-0.17
				l0.21-0.06c0.64-0.2,1.3-0.23,1.95-0.23c0.65,0.01,1.29,0.06,1.93,0.15c0.64,0.08,1.28,0.24,1.9,0.31
				C168.35,76.21,169,76.1,169.58,75.86z"/>
		</g>
		<path fill="#F2B41C" d="M162.33,77.42c4.29-0.17,8.64,0.57,12.65,2.24c4,1.66,7.6,4.62,9.66,8.54c1.01,1.96,1.64,4.09,1.99,6.24
			l0.19,1.62c0.07,0.54,0.05,1.09,0.08,1.63c0.08,1.09-0.04,2.17-0.1,3.25c-0.38,4.32-1.57,8.5-3.13,12.49
			c0.27-1.04,0.55-2.07,0.84-3.1c0.26-1.04,0.46-2.09,0.7-3.13c0.21-1.04,0.36-2.1,0.54-3.15c0.1-1.06,0.24-2.11,0.29-3.17
			c0.07-2.11,0.06-4.23-0.3-6.31c-0.37-2.06-1-4.08-1.98-5.92c-0.95-1.85-2.25-3.52-3.81-4.91c-1.56-1.4-3.37-2.49-5.27-3.4
			c-1.91-0.9-3.94-1.56-6.01-2.04C166.59,77.83,164.47,77.52,162.33,77.42z"/>
		<g>
			
				<pattern  id="SVGID_13_" xlink:href="#New_Pattern_Swatch_3" patternTransform="matrix(0.8446 -0.6954 0.6954 0.8446 4415.6206 -6927.4888)">
			</pattern>
			<path fill="url(#SVGID_13_)" d="M161.99,76.06c-1.32,0.44-1.94,1.48-1.54,3.36c0.27,1.25,1.15,1.79,2.23,1.94
				C163.08,80.08,163.5,77.74,161.99,76.06z"/>
			
				<pattern  id="SVGID_14_" xlink:href="#New_Pattern_Swatch_3" patternTransform="matrix(0.8446 -0.6954 0.6954 0.8446 4445.6753 -6916.8052)">
			</pattern>
			<path fill="url(#SVGID_14_)" d="M161.99,76.06c-0.54,0.31-0.98,0.72-1.16,1.23c-0.18,0.5-0.16,1.06-0.04,1.61
				c0.09,0.58,0.28,1.04,0.62,1.38c0.33,0.33,0.81,0.51,1.35,0.61l-0.53,0.34C162.76,79.55,162.98,77.71,161.99,76.06z
				 M161.99,76.06c0.37,0.28,0.7,0.68,0.93,1.11c0.24,0.43,0.39,0.92,0.47,1.41c0.15,0.99,0.04,2-0.24,2.94l-0.12,0.39l-0.42-0.05
				c-0.66-0.08-1.39-0.33-1.91-0.9c-0.54-0.54-0.7-1.33-0.75-1.94c-0.04-0.65,0.02-1.37,0.4-1.96
				C160.74,76.45,161.38,76.13,161.99,76.06z"/>
		</g>
		<g>
			
				<pattern  id="SVGID_15_" xlink:href="#New_Pattern_Swatch_3" patternTransform="matrix(0.8446 -0.6954 0.6954 0.8446 4415.6206 -6927.4888)">
			</pattern>
			<path fill="url(#SVGID_15_)" d="M181.78,112.84c1.12,1.89,2.67,1.58,3.9,0.84C184.61,112.47,183.04,112.52,181.78,112.84z"/>
			
				<pattern  id="SVGID_16_" xlink:href="#New_Pattern_Swatch_3" patternTransform="matrix(0.8446 -0.6954 0.6954 0.8446 4445.6753 -6916.8052)">
			</pattern>
			<path fill="url(#SVGID_16_)" d="M181.83,112.86c0.24,0.19,0.33,0.13,0.49,0.28l0.44,0.28c0.28,0.18,0.55,0.26,0.83,0.41
				c0.28,0.14,0.66,0.27,1.01,0.17c0.36-0.08,0.66-0.32,0.92-0.59l-0.07,0.48c-0.28-0.17-0.54-0.33-0.81-0.44
				c-0.28-0.11-0.56-0.17-0.85-0.24c-0.29-0.07-0.6-0.12-0.93-0.17C182.54,112.99,182.14,112.99,181.83,112.86z M181.74,112.83
				c0.37-0.3,0.67-0.43,1.05-0.55c0.37-0.11,0.77-0.15,1.17-0.1c0.8,0.09,1.59,0.6,1.97,1.3l0.21,0.39l-0.29,0.09
				c-0.39,0.13-0.79,0.21-1.16,0.34c-0.37,0.11-0.77,0.32-1.24,0.32c-0.47,0.01-0.9-0.27-1.19-0.59c-0.15-0.16-0.27-0.34-0.35-0.54
				C181.82,113.34,181.71,112.95,181.74,112.83z"/>
		</g>
	</g>
</g>
</svg>
