<?xml version="1.0" encoding="utf-8"?>
<!-- Generator: Adobe Illustrator 25.0.0, SVG Export Plug-In . SVG Version: 6.00 Build 0)  -->
<svg version="1.1" baseProfile="tiny" xmlns="http://www.w3.org/2000/svg" xmlns:xlink="http://www.w3.org/1999/xlink" x="0px"
	 y="0px" viewBox="0 0 40.7 40" overflow="visible" xml:space="preserve">
<g id="Layer_2">
</g>
<g id="Layer_1">
	<g>
		<path fill="#F37557" d="M1.22,24.75c-0.16-0.85-0.18-1.72-0.51-2.53c0-0.37,0-0.73,0-1.1c0.1-0.73,0.1-1.46,0-2.19
			c0-0.04,0-0.08,0-0.12c0.1-0.24,0.1-0.49,0-0.73c0-0.08,0-0.16,0-0.24c0.26-0.29,0.18-0.67,0.25-1.01
			c0.17-0.76,0.33-1.52,0.49-2.28c0.05-0.07,0.13-0.08,0.21-0.07c0.12,0.04,0.22,0.13,0.33,0.19c0.05,0.02,0.09,0.05,0.13,0.08
			c0.07,0.05,0.13,0.1,0.19,0.16c1.66,1.41,3.36,2.76,5.05,4.14c0.72,0.59,1.43,1.18,2.16,1.75c1.2,1.03,2.45,1.98,3.65,3
			c0.09,0.07,0.18,0.14,0.25,0.23c0.04,0.08,0.04,0.16-0.01,0.25c-0.04,0.04-0.09,0.06-0.15,0.07c-0.16-0.01-0.33-0.04-0.47-0.13
			c-0.04-0.13-0.1-0.26-0.27-0.26c-1.47-1.05-2.82-2.25-4.23-3.38c-1.94-1.57-3.86-3.16-5.8-4.72c-0.46-0.37-0.52-0.34-0.64,0.23
			c-0.53,2.53-0.52,5.07-0.05,7.61c0.05,0.26,0.13,0.51,0.09,0.78c-0.07,0.2-0.22,0.29-0.42,0.34C1.37,24.83,1.27,24.86,1.22,24.75z
			"/>
		<path fill="#F4866E" d="M0.7,18.93c0.2,0.73,0.2,1.46,0,2.19C0.7,20.39,0.7,19.66,0.7,18.93z"/>
		<path fill="#F5B2A4" d="M0.7,18.08c0.19,0.24,0.18,0.49,0,0.73C0.7,18.57,0.7,18.32,0.7,18.08z"/>
		<path fill="#3864AD" d="M15.81,0.66c0.6-0.17,1.2-0.33,1.82-0.36c0.09,0.21,0.26,0.28,0.47,0.32c0.64,0.14,0.64,0.17,0.48,0.82
			c-0.22,0.9-0.53,1.78-0.76,2.68c-0.27,1.06-0.63,2.09-0.9,3.15c-0.03,0.13-0.04,0.31-0.22,0.32c-0.16,0.01-0.22-0.15-0.28-0.28
			c-0.23-1.15-0.2-2.32-0.28-3.48C16.09,3.11,15.96,2.39,16,1.67c0.01-0.22-0.1-0.33-0.26-0.43C15.63,1.03,15.66,0.84,15.81,0.66z"
			/>
		<path fill="#F5A1A1" d="M17.64,39.73c-0.4-0.13-0.84-0.04-1.22-0.24c-0.14-0.26-0.39-0.44-0.55-0.69c0.03-0.43,0.3-0.69,0.64-0.9
			c0.32,0.06,0.47-0.18,0.65-0.36c2.27-2.27,4.54-4.55,6.82-6.81c0.21-0.21,0.44-0.64,0.81-0.16c0.07,0.21,0.07,0.41,0,0.62
			c-0.96,1.27-2.18,2.28-3.28,3.41c-1.28,1.33-2.61,2.6-3.9,3.92c-0.22,0.23-0.33,0.38,0.03,0.59
			C17.88,39.27,17.99,39.52,17.64,39.73z"/>
		<path fill="#F4979C" d="M19.94,39.89c-0.36-0.01-0.73-0.01-1.09-0.02c-0.17-0.53,0.03-0.91,0.41-1.29c1.6-1.6,3.23-3.17,4.8-4.8
			c0.2-0.21,0.4-0.4,0.52-0.67c0.07-0.15,0.18-0.32,0.34-0.06c0.13,0.56,0.26,1.13,0.14,1.71c-0.29,0.44-0.72,0.75-1.1,1.11
			c-1.24,1.21-2.38,2.53-3.73,3.63C20.1,39.61,20.07,39.78,19.94,39.89z"/>
		<path fill="#2D58A4" d="M18.6,0.18c0.07,0,0.14-0.01,0.2-0.01c0.3-0.09,0.61-0.03,0.91-0.05c0.32,0.18,0.65,0.31,1.03,0.27
			c0.09,0.01,0.18,0.03,0.27,0.07c0.08,0.04,0.14,0.11,0.18,0.2c-0.34,1.67-0.88,3.28-1.35,4.91c-0.3,1.07-0.59,2.15-0.92,3.21
			c-0.06,0.19-0.04,0.36-0.01,0.53c-0.33,0.66-0.73,1.27-1.42,1.61c-0.31-0.26-0.13-0.57-0.06-0.84c0.39-1.51,0.88-2.98,1.27-4.49
			c0.36-1.39,0.8-2.76,1.2-4.13c0.07-0.25,0.14-0.49,0.33-0.71c-0.32,0.07-0.63,0.07-0.94,0.08C18.53,0.79,18.47,0.73,18.6,0.18z"/>
		<path fill="#EEEEF7" d="M2.77,28.8c-0.29-0.26-0.32-0.65-0.49-0.97c0.06-0.67,0.06-0.62,0.7-0.63c0.63-0.01,1.25-0.05,1.88-0.12
			c1.75-0.2,3.51-0.32,5.26-0.48c0.28-0.03,0.57-0.06,0.8,0.18c0.02,0.52-0.38,1.11-0.9,1.35c-0.19-0.12-0.4-0.16-0.63-0.14
			c-1.76,0.16-3.53,0.32-5.29,0.47c-0.2,0.02-0.42,0.08-0.6,0.01C3.12,28.3,2.93,28.5,2.77,28.8z"/>
		<path fill="#F5F5FA" d="M2.16,27.46c-0.26-0.27-0.33-0.62-0.37-0.97c0.09-0.42,0.28-0.53,0.76-0.49c0.92,0.07,1.84-0.15,2.77-0.23
			c1.18-0.1,2.36-0.21,3.54-0.31c0.72-0.06,1.44-0.14,2.16-0.22c0.35-0.04,0.69-0.06,0.92,0.28c-0.06,0.41-0.3,0.7-0.65,0.9
			c-1.54-0.05-3.06,0.24-4.6,0.33c-1.37,0.08-2.72,0.35-4.09,0.3C2.27,27.02,2.53,27.54,2.16,27.46z"/>
		<path fill="#F59E9F" d="M17.64,39.73c0.17-0.29,0.14-0.5-0.22-0.59c-0.48-0.12-0.31-0.33-0.08-0.56c1.12-1.11,2.23-2.22,3.34-3.33
			c1.34-1.34,2.68-2.68,4.01-4.01c0.05,0.04,0.08,0.09,0.1,0.15c0.04,0.15,0.03,0.3,0,0.44c-0.05,0.51-0.32,0.89-0.68,1.24
			c-1.83,1.81-3.64,3.63-5.46,5.45c-0.25,0.25-0.6,0.46-0.21,0.88c0.09,0.09,0.05,0.27-0.09,0.38
			C18.11,39.76,17.88,39.75,17.64,39.73z"/>
		<path fill="#9391C7" d="M31.26,3.1c0.2,0.07,0.39,0.17,0.52,0.35c-0.89,2.08-1.27,4.3-1.9,6.46c-0.37,1.26-0.66,2.55-1.02,3.82
			c-0.09,0.31-0.21,0.62-0.19,0.95c-0.1,0.23-0.1,0.56-0.5,0.44c-0.16-0.49-0.27-0.99-0.18-1.51c0.51-2.81,1.38-5.54,2.12-8.29
			c0.13-0.49,0.17-1.01,0.38-1.47C30.63,3.51,30.69,3.02,31.26,3.1z"/>
		<path fill="#345FA9" d="M18.6,0.18c-0.05,0.76,0.52,0.4,0.85,0.49c0.12,0.26,0.04,0.52-0.04,0.77c-0.77,2.5-1.42,5.03-2.16,7.54
			c-0.15,0.51-0.17,1.03-0.2,1.56c-0.01,0.17,0.09,0.55-0.34,0.43c-0.12-0.19-0.18-0.41-0.2-0.63c-0.05-0.78-0.02-1.57-0.14-2.35
			c-0.03-0.21-0.03-0.45,0.16-0.62c0.08-0.01,0.21,0.27,0.23,0.03c0.05-0.78,0.4-1.48,0.58-2.22c0.32-1.31,0.73-2.6,1.13-3.89
			c0.14-0.43,0.02-0.54-0.39-0.51c-0.31,0.02-0.75,0.1-0.45-0.48C17.95,0.19,18.27,0.14,18.6,0.18z"/>
		<path fill="#F59B9E" d="M18.35,39.78c-0.01-0.16,0.08-0.39-0.08-0.45c-0.65-0.25-0.16-0.47,0.02-0.65
			c1.82-1.84,3.65-3.67,5.48-5.49c0.4-0.39,0.8-0.77,0.92-1.35c0.13,0.09,0.16,0.23,0.19,0.37c-0.03,0.24,0.13,0.5-0.07,0.73
			c-0.39,0.97-1.27,1.53-1.94,2.25c-1.2,1.27-2.45,2.5-3.72,3.7c-0.34,0.32-0.04,0.71-0.3,0.99C18.68,39.86,18.5,39.91,18.35,39.78z
			"/>
		<path fill="#F4939A" d="M19.94,39.89c0-0.28-0.05-0.57,0.39-0.61c0.12-0.01,0.24-0.21,0.35-0.32c1.23-1.23,2.45-2.45,3.68-3.68
			c0.17-0.17,0.3-0.4,0.58-0.4c0.33,0.52,0.32,1.09,0.24,1.67c-0.05,0.11-0.09,0.23-0.26,0.13c-0.04-0.02-0.05-0.14-0.07-0.08
			c-0.1,0.36-0.34,0.59-0.65,0.76c-0.41,0.22-0.69,0.54-0.93,0.93c-0.38,0.59-0.84,1.09-1.6,1.19c-0.23,0.03-0.47,0.07-0.36,0.41
			C20.85,40.05,20.4,40.02,19.94,39.89z"/>
		<path fill="#C63427" d="M37.99,10.15c0.14,0.19,0.3,0.37,0.34,0.62c-0.2,0.32-0.06,0.68-0.1,1.01c-0.53,0.56-1.26,0.8-1.89,1.18
			c-1.14,0.69-2.3,1.35-3.46,2.02c-0.12,0.07-0.26,0.11-0.25,0.3c-0.04,0.04-0.09,0.08-0.14,0.1c-0.29,0.08-0.6,0.02-0.89,0.13
			c-0.25,0.05-0.5,0.06-0.75,0c-0.17-0.06-0.41-0.1-0.42-0.29c-0.01-0.22,0.24-0.31,0.41-0.41c1.92-1.11,3.84-2.22,5.77-3.33
			c0.45-0.26,0.97-0.44,0.99-1.1C37.59,10.23,37.75,10.07,37.99,10.15z"/>
		<path fill="#9D9BCD" d="M29.69,2.22c0.27,0.08,0.51,0.2,0.72,0.39c0.05,0.07,0.09,0.15,0.06,0.22c-1.02,2.46-1.4,5.11-2.21,7.63
			c-0.09,0.27-0.05,0.72-0.58,0.55c-0.27-0.65-0.36-1.32-0.3-2.02c0.41-1.2,0.7-2.45,1.04-3.67c0.2-0.74,0.39-1.49,0.58-2.23
			C29.1,2.69,29.31,2.38,29.69,2.22z"/>
		<path fill="#F8F8FB" d="M11.89,25.51c-0.61-0.39-1.26-0.09-1.85-0.02c-0.74,0.09-1.49,0.08-2.23,0.18c-1.66,0.23-3.33,0.31-5,0.46
			c-0.19,0.02-0.34,0.11-0.56-0.02c-0.31-0.18-0.12,0.45-0.45,0.37c-0.28-0.36-0.37-0.77-0.36-1.22c0.41,0.09,0.84,0.07,1.25,0.05
			c1.69-0.1,3.37-0.31,5.06-0.41c1.45-0.09,2.88-0.33,4.34-0.33c0.1,0,0.2,0.04,0.28,0.1C12.54,25.14,12.27,25.35,11.89,25.51z"/>
		<path fill="#CB3528" d="M37.99,10.15c-0.1,0.09-0.31,0.21-0.3,0.27c0.19,0.74-0.45,0.89-0.85,1.13c-2.1,1.23-4.23,2.42-6.36,3.63
			c0.12,0.09,0.21,0.16,0.3,0.23c-0.61,0.51-1.31,0.26-1.98,0.22c-0.26-0.31-0.05-0.48,0.19-0.64c0.31-0.03,0.58-0.13,0.85-0.29
			c2.02-1.21,4.07-2.35,6.1-3.54c0.59-0.34,1.27-0.56,1.57-1.27c0.05-0.11,0.17-0.18,0.3-0.07C37.87,9.92,37.93,10.03,37.99,10.15z"
			/>
		<path fill="#8E8DC4" d="M28.59,14.67c-0.22-0.53,0.13-0.96,0.25-1.42c0.78-3,1.59-5.99,2.38-8.98c0.09-0.35,0.27-0.62,0.56-0.82
			c0.16,0.02,0.26,0.12,0.35,0.24c0.06,0.12,0.05,0.24,0,0.35c-0.85,2.32-1.28,4.75-1.99,7.11c-0.21,0.69-0.43,1.39-0.5,2.12
			C29.48,13.88,29.09,14.32,28.59,14.67z"/>
		<path fill="#EE3E2E" d="M26.03,39.16c-0.08,0.04-0.16,0.08-0.24,0.12c-0.48,0.09-0.37-0.35-0.51-0.57
			c-0.07-1.81-0.15-3.63-0.3-5.44c-0.13-1.59-0.15-3.18-0.33-4.77c-0.04-0.3-0.05-0.61,0.04-0.9c0.09-0.21,0.25-0.2,0.43-0.14
			c2.96,2.08,5.89,4.19,8.84,6.29c0.18,0.13,0.39,0.24,0.36,0.51c-0.07,0.07-0.15,0.09-0.24,0.08c-0.35-0.06-0.63-0.26-0.91-0.46
			c-0.25-0.16-0.47-0.36-0.72-0.52c-0.13-0.09-0.26-0.18-0.4-0.27c-0.31-0.26-0.65-0.47-0.98-0.71c-0.26-0.23-0.57-0.4-0.85-0.61
			c-0.22-0.19-0.47-0.34-0.71-0.5c-0.17-0.13-0.32-0.27-0.51-0.37c-0.28-0.2-0.58-0.39-0.86-0.59c-0.22-0.19-0.47-0.34-0.72-0.5
			c-0.27-0.23-0.56-0.42-0.85-0.61c-0.21-0.18-0.43-0.34-0.65-0.49c-0.19-0.14-0.37-0.31-0.65-0.39c-0.09,0.34,0.07,0.64,0.05,0.95
			c0.04,0.52-0.07,1.05,0.08,1.56c0.02,0.07,0.03,0.14,0.04,0.21c0.08,0.67-0.08,1.35,0.09,2.01c0.11,0.6-0.05,1.22,0.12,1.82
			c0.11,0.64-0.05,1.29,0.11,1.92c0.09,0.53,0.02,1.06,0.05,1.6C25.82,38.68,26.25,38.83,26.03,39.16z"/>
		<path fill="#FEFAC1" d="M1.7,14.54c-0.08,0-0.17,0.01-0.25,0.01c0.72-2.33,1.72-4.52,3.21-6.47c0.69-0.9,1.4-1.77,2.23-2.54
			c0.11,0.03,0.15,0.11,0.19,0.2C7.09,5.78,7.1,5.83,7.1,5.88C7.07,6,7.12,6.12,7.09,6.24C6.93,6.59,6.6,6.79,6.37,7.08
			C5.97,7.6,5.5,8.07,5.15,8.63c-0.44,0.52-0.76,1.12-1.09,1.71c-0.71,1.15-1.2,2.4-1.66,3.66c-0.1,0.21-0.29,0.34-0.47,0.48
			C1.86,14.53,1.79,14.57,1.7,14.54z"/>
		<path fill="#6163AD" d="M39.81,25.63c-0.95,3.19-2.58,5.97-4.9,8.35c-0.11,0.11-0.25,0.2-0.37,0.31
			c-0.06,0.02-0.11,0.01-0.15-0.04c-0.04-0.17-0.21-0.29-0.17-0.48c0.17-0.46,0.6-0.7,0.89-1.06c1.53-1.7,2.68-3.63,3.49-5.76
			c0.11-0.28,0.21-0.57,0.35-0.84c0.11-0.18,0.2-0.37,0.42-0.4c-0.11-0.05-0.27,0.09-0.41-0.04c-0.11-0.11-0.04-0.21,0.02-0.31
			c0.08-0.09,0.17-0.15,0.3-0.16c0.11,0.01,0.22,0.06,0.32,0.11C39.71,25.4,39.86,25.45,39.81,25.63z"/>
		<path fill="#CE3729" d="M37.8,9.8c-1.51,1.79-3.78,2.41-5.63,3.67c-0.8,0.54-1.66,1-2.49,1.49c-0.2,0.12-0.39,0.23-0.61,0.07
			c-0.02-0.54,0.33-0.85,0.72-1.14c0.38,0.02,0.63-0.24,0.93-0.4c1.99-1.07,3.9-2.27,5.88-3.36c0.22-0.12,0.4-0.25,0.42-0.54
			c0.01-0.21,0.15-0.37,0.35-0.46C37.58,9.32,37.69,9.57,37.8,9.8z"/>
		<path fill="#D5382B" d="M36.9,8.44c0.16,0.13,0.26,0.31,0.34,0.5c-0.17,0.47-0.46,0.81-0.9,1.08c-1.58,0.96-3.22,1.84-4.81,2.79
			c-0.27,0.16-0.59,0.43-0.92,0.06c0.08-0.67,0.51-1.12,1-1.52c0.44,0.07,0.77-0.2,1.11-0.4c0.98-0.6,2.01-1.11,2.98-1.72
			c0.27-0.17,0.55-0.33,0.74-0.61C36.54,8.46,36.69,8.35,36.9,8.44z"/>
		<path fill="#EBEAF4" d="M2.77,28.8c-0.02-0.27,0.04-0.52,0.18-0.76c0.3,0.42,0.73,0.28,1.11,0.25c1.34-0.1,2.67-0.23,4.01-0.35
			c0.52-0.05,1.06-0.03,1.55-0.18c0.38-0.11,0.35,0.12,0.45,0.3c0.05,0.4-0.2,0.61-0.51,0.77c-0.78-0.32-1.54,0.01-2.31,0.04
			c-1.24,0.04-2.47,0.33-3.72,0.22c-0.34-0.39-0.33,0.16-0.51,0.19C2.86,29.16,2.79,28.99,2.77,28.8z"/>
		<path fill="#F38E97" d="M21.31,39.89c-0.19-0.03-0.29-0.13-0.25-0.33c0.03-0.15,0.16-0.16,0.28-0.17c0.92-0.06,1.48-0.58,1.9-1.37
			c0.17-0.32,0.47-0.63,0.88-0.77c0.4-0.14,0.6-0.51,0.73-0.91c0.16,0.08,0.04,0.31,0.21,0.37c0.35,0.6,0.22,1.25,0.24,1.89
			c-0.02,0.28-0.24,0.34-0.45,0.42c-0.44,0.16-0.9,0.21-1.34,0.33c-0.24,0.06-0.48,0.11-0.49,0.43
			C22.45,39.97,21.88,39.87,21.31,39.89z"/>
		<path fill="#EF3F2F" d="M7.03,5.88c0-0.03,0-0.07,0-0.1c0.54-0.31,0.84,0.15,1.23,0.36c0.28,0.25,0.6,0.43,0.89,0.65
			c0.39,0.31,0.8,0.57,1.2,0.86c0.41,0.36,0.89,0.62,1.33,0.95c0.16,0.14,0.34,0.26,0.5,0.38c0.15,0.14,0.33,0.25,0.5,0.36
			c0.2,0.13,0.4,0.26,0.6,0.38c0.45,0.32,0.88,0.65,1.34,0.95c0.42,0.34,0.9,0.61,1.33,0.94c0.37-0.22,0.05-0.49,0.06-0.74
			c-0.05-0.29-0.04-0.58-0.04-0.87c0-0.41,0.05-0.82-0.08-1.22c-0.08-0.46-0.04-0.92-0.04-1.38c0-0.27,0.02-0.55-0.08-0.82
			c-0.06-0.31-0.05-0.62-0.05-0.94c0.01-0.38,0.05-0.76-0.07-1.13c-0.07-0.35-0.03-0.7-0.04-1.05c-0.01-0.34,0.04-0.69-0.08-1.02
			c-0.05-0.28-0.04-0.56-0.04-0.85c0.01-0.32-0.05-0.66,0.17-0.94c0.04-0.01,0.08-0.02,0.13-0.02c0.01,0.2,0.03,0.39,0.04,0.59
			c0.07,0.08,0.09,0.17,0.1,0.28c0.01,0.26,0.01,0.52,0.08,0.78c0.01,0.3,0.09,0.6,0.06,0.91c0.01,0.37-0.04,0.75,0.06,1.11
			c0.06,0.24,0.07,0.48,0.06,0.72c0.02,0.45-0.06,0.9,0.07,1.34c0.07,0.28,0.06,0.56,0.05,0.84c0,0.34-0.03,0.69,0.06,1.03
			c0.06,0.49,0.08,0.98,0.06,1.47c-0.01,0.23-0.02,0.47,0.06,0.7c0.06,0.26,0.06,0.51,0.06,0.77c0,0.27-0.03,0.53,0.02,0.8
			c0.04,0.14,0.07,0.27,0.1,0.41c0,0.03,0,0.06,0.01,0.08c-0.01,0.06-0.04,0.1-0.08,0.14c-0.08,0.04-0.16,0.05-0.24,0.02
			c-0.13-0.06-0.24-0.14-0.36-0.21c-2.84-2.11-5.75-4.11-8.6-6.19C7.28,6.15,7.13,6.04,7.03,5.88z"/>
		<path fill="#48559D" d="M8.97,36.14c-0.99-0.66-1.9-1.42-2.66-2.34c0-0.09,0.04-0.17,0.09-0.24c2.03-2.9,4.11-5.77,6.16-8.66
			c0.14-0.2,0.25-0.48,0.57-0.49c0.07,0.07,0.1,0.15,0.11,0.24c0.01,0.09-0.01,0.18-0.03,0.27c-0.84,1.33-1.81,2.58-2.72,3.87
			c-1.02,1.46-2.06,2.9-3.11,4.34c-0.23,0.32-0.21,0.54,0.05,0.84c0.46,0.51,1.08,0.85,1.46,1.44C8.9,35.64,9.16,35.86,8.97,36.14z"
			/>
		<path fill="#E4E4F1" d="M3.02,29.28c0.05-0.21,0.1-0.41,0.16-0.65c0.23,0.05,0.3,0.2,0.32,0.4c0.77,0.55,1.6,0.2,2.4,0.14
			c0.92-0.06,1.85-0.13,2.77-0.24c0.23-0.03,0.45-0.01,0.57,0.23c0.04,0.51-0.27,0.78-0.66,1C8.08,30,7.56,30.07,7.04,30.12
			c-0.92,0.09-1.83,0.2-2.75,0.25c-0.09,0.01-0.21-0.16-0.27,0.08c-0.03,0.12-0.16,0.14-0.28,0.05C3.46,30.12,3.12,29.77,3.02,29.28
			z"/>
		<path fill="#D13729" d="M30.64,12.84c0.19,0.13,0.38,0.08,0.56-0.02c1.81-1.05,3.63-2.1,5.44-3.15c0.29-0.17,0.22-0.62,0.59-0.72
			c0.09,0.04,0.12,0.12,0.12,0.21c-0.16,1.31-1.4,1.49-2.24,2c-1.07,0.65-2.14,1.3-3.24,1.88c-0.57,0.3-1.13,0.62-1.67,0.96
			c-0.19,0.12-0.28,0.07-0.39-0.06C29.87,13.4,30.15,13.04,30.64,12.84z"/>
		<path fill="#A3A1D0" d="M29.69,2.22c-0.91,1.18-0.87,2.68-1.33,4.01c-0.26,0.76-0.42,1.55-0.62,2.33
			c-0.04,0.17-0.09,0.31-0.25,0.38c-0.35-0.34-0.3-0.77-0.25-1.19c0.07-1.51,0.6-2.92,0.95-4.36c0.09-0.37,0.15-0.76,0.38-1.08
			c0.15-0.21,0.32-0.44,0.65-0.32C29.41,2.02,29.56,2.09,29.69,2.22z"/>
		<path fill="#8B8AC2" d="M29.56,13.33c-0.24-0.47,0.06-0.91,0.16-1.32c0.53-2.13,1.15-4.23,1.72-6.35
			c0.18-0.68,0.37-1.34,0.69-1.97c0.22,0.05,0.36,0.22,0.51,0.37c-0.97,2.65-1.55,5.41-2.27,8.13
			C30.27,12.68,30.05,13.1,29.56,13.33z"/>
		<path fill="#9694C9" d="M31.26,3.1c-0.44,0.21-0.6,0.61-0.72,1.04c-0.63,2.37-1.27,4.74-1.89,7.11c-0.2,0.77-0.37,1.54-0.55,2.32
			c-0.38-0.51-0.47-1.07-0.29-1.68c0.27-0.12,0.21,0.11,0.25,0.25c-0.22-0.58,0.07-1.1,0.21-1.61c0.61-2.26,1.19-4.52,1.82-6.77
			c0.11-0.38,0.21-0.84,0.73-0.93C30.98,2.89,31.14,2.95,31.26,3.1z"/>
		<path fill="#BFBFDF" d="M40.51,21.37c0.03,0.7-0.02,1.4-0.24,2.08c0.08,0-0.11,0-0.04-0.04c-0.02-0.02-0.03-0.09-0.04-0.06
			c-0.03,0.33-0.12,0.66-0.22,0.98c-0.07,0.22-0.11,0.54-0.49,0.44c-0.18-0.37,0.02-0.73,0.04-1.09c0.02-0.08,0.05-0.15,0.06-0.23
			c0.03-0.22,0.13-0.47-0.03-0.63c-0.2-0.21-0.39,0.05-0.59,0.1c-0.52,0.12-1.02,0.28-1.55,0.36c-0.36-0.21-0.78-0.36-0.85-0.85
			c0.09-0.19,0.27-0.23,0.44-0.3c0.83-0.33,1.68-0.58,2.5-0.91c0.44-0.18,0.54,0.01,0.56,0.39c0.02,0.46-0.05,0.92-0.09,1.29
			c0,0.17,0.14,0.1,0.06,0.1c-0.01,0-0.02-0.01-0.02-0.02c-0.03-0.42,0.05-0.83,0.18-1.23C40.23,21.57,40.26,21.35,40.51,21.37z"/>
		<path fill="#F1F2F8" d="M2.16,27.46c0.17-0.11,0.1-0.29,0.13-0.44c0.02-0.11,0.09-0.23,0.18-0.19c0.8,0.4,1.57-0.07,2.35-0.11
			c1.9-0.09,3.79-0.32,5.69-0.48c0.26-0.02,0.53-0.04,0.77,0.12c0.05,0.28-0.05,0.46-0.35,0.49c-0.82-0.28-1.63,0.01-2.44,0.04
			c-1.09,0.04-2.18,0.22-3.27,0.32c-0.72,0.06-1.46,0.21-2.15,0.09c-0.57-0.1-0.63,0.19-0.78,0.52C2.14,27.73,2.17,27.59,2.16,27.46
			z"/>
		<path fill="#C3C3E1" d="M40.51,21.37c-0.34,0.51-0.29,1.15-0.58,1.79c0-0.69,0-1.29,0-1.93c-1.12,0.45-2.26,0.71-3.31,1.24
			c-0.53-0.06-0.88-0.32-0.99-0.86c1.11-0.29,2.17-0.77,3.31-0.99c0.21-0.04,0.36-0.15,0.54-0.26c0.45-0.27,0.67-0.14,0.7,0.39
			c0.02,0.32-0.01,0.64-0.07,0.95c0.09-0.22,0.02-0.49,0.15-0.71c0.07-0.11,0.09-0.35,0.32-0.17c0,0.15,0.04,0.3-0.05,0.44
			C40.53,21.29,40.52,21.33,40.51,21.37z"/>
		<path fill="#8080BD" d="M33.24,4.54c0.2,0.07,0.35,0.19,0.43,0.39c0.04,0.61-0.13,1.19-0.32,1.76c-0.21,0.66-0.44,1.33-0.44,2.04
			c-0.24,0.63-0.71,1.09-1.12,1.61c-0.06,0.08-0.16,0.11-0.27,0.07c-0.18-0.17-0.11-0.37-0.06-0.57c0.42-1.54,0.8-3.09,1.24-4.62
			C32.78,4.94,32.81,4.57,33.24,4.54z"/>
		<path fill="#FCFBFD" d="M12.4,24.78c-1.02-0.08-2.04,0.04-3.05,0.14c-0.76,0.07-1.52,0.18-2.28,0.22
			c-1.33,0.06-2.65,0.23-3.97,0.35c-0.28,0.03-0.61,0.1-0.84-0.01c-0.39-0.19-0.48-0.05-0.49,0.41c-0.15-0.28-0.24-0.45-0.34-0.62
			c0-0.11,0-0.23,0-0.34c0.65,0.06,1.3-0.08,1.96-0.07c0.33,0,0.67,0.03,0.99-0.08c0.31-0.06,0.62-0.04,0.93-0.04
			c0.38-0.01,0.76,0.05,1.13-0.08c0.31-0.06,0.63-0.04,0.94-0.04c0.38-0.01,0.76,0.05,1.13-0.08c0.35-0.05,0.7-0.04,1.05-0.05
			c0.38-0.01,0.76,0.05,1.13-0.07c0.63,0.02,1.24-0.3,1.87-0.08C12.75,24.57,12.66,24.71,12.4,24.78z"/>
		<path fill="#A8291D" d="M28.71,15.52c0.69-0.03,1.39,0.09,2.07-0.12c0.28,0,0.57,0,0.85,0c0.31-0.16,0.66,0.05,0.97-0.12l0,0
			c0.17-0.17,0.39-0.16,0.6-0.18c0.48,0.05,0.96-0.05,1.44-0.11c0.23-0.01,0.47-0.01,0.7-0.01c0.69,0.03,1.37,0.01,2.05-0.07
			c0.44-0.08,0.88-0.03,1.33-0.1c0.3-0.05,0.45-0.12,0.43-0.48c-0.01-0.24,0.03-0.66,0.5-0.4c0.13,0.37,0.26,0.73,0.39,1.1
			c0.02,0.14-0.08,0.2-0.19,0.24c-1.32,0.21-2.66,0.17-3.99,0.3c-1.63,0.15-3.27,0.15-4.9,0.33c-0.82,0.09-1.66-0.02-2.48,0.12
			c-0.11-0.02-0.21-0.07-0.27-0.16C28.23,15.54,28.43,15.47,28.71,15.52z"/>
		<path fill="#A7A6D3" d="M29.23,1.99c-0.33,0.16-0.57,0.38-0.67,0.77c-0.32,1.27-0.67,2.53-1.03,3.79
			c-0.11,0.39,0.11,0.81-0.16,1.17C26.9,7.2,27,6.56,27,5.94c0.08-1.14,0.35-2.24,0.69-3.32c0.13-0.42,0.27-0.85,0.78-0.99
			C28.72,1.75,28.97,1.87,29.23,1.99z"/>
		<path fill="#DD3B2C" d="M36.27,7.6c0.17,0.12,0.28,0.3,0.37,0.49c-0.23,0.61-0.81,0.81-1.3,1.09c-0.87,0.5-1.7,1.06-2.59,1.51
			c-0.25,0.13-0.46,0.18-0.56-0.17c0.19-0.57,0.54-1.03,1-1.4c0.57-0.01,0.95-0.42,1.4-0.68c0.42-0.24,0.85-0.47,1.24-0.78
			C35.96,7.56,36.11,7.48,36.27,7.6z"/>
		<path fill="#8584BF" d="M33.24,4.54c-0.49,0.45-0.46,1.1-0.63,1.66c-0.38,1.29-0.71,2.59-1.07,3.88
			c-0.03,0.13-0.04,0.24,0.08,0.32c-0.1,0.57-0.39,1.01-0.95,1.23c-0.23-0.59,0.14-1.1,0.28-1.61c0.43-1.61,0.82-3.24,1.28-4.84
			c0.11-0.37,0.06-0.95,0.74-0.87C33.11,4.34,33.19,4.43,33.24,4.54z"/>
		<path fill="#B92F23" d="M32.23,36.22c-0.37,0.4-0.92,0.52-1.33,0.87c-0.44-0.31-0.75,0.08-1.1,0.21
			c-0.43,0.23-0.89,0.39-1.33,0.61c-0.27,0.12-0.54,0.29-0.86,0.26c-0.48-0.18-0.24-0.39,0.01-0.51c0.47-0.24,0.89-0.57,1.35-0.81
			c1.1-0.57,2.14-1.22,3.2-1.85c0.24-0.14,0.49-0.4,0.82-0.19c0.06,0.35-0.2,0.5-0.42,0.65C32.3,35.66,32.19,35.9,32.23,36.22z"/>
		<path fill="#9997CA" d="M30.8,2.84c-0.62,0.53-0.66,1.31-0.86,2.02c-0.61,2.2-1.18,4.42-1.78,6.63c-0.08,0.28-0.03,0.56-0.08,0.86
			c-0.19-0.12-0.02-0.39-0.22-0.48c-0.24-0.26-0.35-0.53-0.12-0.85c0.26-0.03,0.3-0.23,0.36-0.43c0.65-2.41,1.3-4.82,1.92-7.24
			c0.08-0.31,0.48-0.39,0.4-0.74C30.59,2.61,30.7,2.71,30.8,2.84z"/>
		<path fill="#DDDCEE" d="M3.75,30.5c0.25,0.09,0.19-0.44,0.49-0.24c0.43,0.47,0.92,0.59,1.56,0.44c0.54-0.12,1.12-0.04,1.68-0.14
			C7.81,30.5,8.03,30.64,8.07,31c-0.09,0.38-0.3,0.68-0.65,0.87c-0.37-0.26-0.78-0.24-1.19-0.15c-0.34,0.08-0.68,0.09-1.02,0.05
			C5,31.55,4.74,31.55,4.47,31.6C4.23,31.24,3.99,30.87,3.75,30.5z"/>
		<path fill="#D4D1E9" d="M12.65,24.41c-0.65,0.04-1.31,0.09-1.96,0.13c-0.36,0.15-0.75-0.04-1.1,0.11c-0.36,0-0.73,0-1.09,0.01
			c-0.36,0.15-0.75-0.04-1.1,0.11c-0.32,0-0.65,0-0.97,0.01c-0.36,0.15-0.75-0.04-1.1,0.11C5,24.9,4.68,24.9,4.36,24.9
			c-0.31,0.15-0.67-0.04-0.98,0.11c-0.64-0.12-1.32,0.35-1.94-0.1c-0.1-0.03-0.21-0.03-0.22-0.17c0.08,0.01,0.15,0.02,0.23,0.02
			c0.67-0.29,1.4-0.22,2.09-0.25c1.67-0.08,3.35-0.2,5.02-0.31c1.01-0.06,2.02-0.03,3.02-0.19c0.39-0.06,0.81-0.11,1.19,0.11
			c0.16,0.03,0.32,0.06,0.48,0.08c0.03,0.07,0,0.11-0.07,0.13C12.99,24.32,12.84,24.51,12.65,24.41z"/>
		<path fill="#D93A2C" d="M32.25,10.53c0.11,0.05,0.13,0.22,0.34,0.1c0.88-0.54,1.78-1.05,2.68-1.55c0.5-0.28,0.94-0.62,1.37-0.99
			c0.14,0.08,0.21,0.21,0.26,0.36c-0.94,0.99-2.19,1.48-3.33,2.17c-0.5,0.3-1.02,0.57-1.49,0.89c-0.25,0.17-0.31-0.02-0.44-0.12
			C31.64,10.95,31.86,10.68,32.25,10.53z"/>
		<path fill="#7C7CBB" d="M32.85,8.7c-0.3-0.44,0.07-0.81,0.15-1.2c0.17-0.86,0.45-1.71,0.68-2.56c0.46,0.39,0.98,0.71,1.33,1.22
			c-0.01,0.06-0.03,0.11-0.06,0.16c-0.04,0.04-0.08,0.08-0.13,0.11c-0.65,0.49-1.02,1.2-1.52,1.81C33.16,8.4,33.09,8.63,32.85,8.7z"
			/>
		<path fill="#8988C1" d="M32.98,4.31c-0.34,0.02-0.42,0.29-0.49,0.54c-0.41,1.53-0.81,3.07-1.22,4.6
			c-0.14,0.54-0.32,1.08-0.44,1.62c-0.04,0.17-0.26,0.35-0.05,0.55c0.01,0.34-0.15,0.55-0.48,0.61c-0.12-0.08-0.12-0.19-0.08-0.32
			c0.57-2.06,1.13-4.12,1.7-6.18c0.16-0.59,0.16-1.26,0.73-1.67C32.79,4.09,32.89,4.19,32.98,4.31z"/>
		<path fill="#BB3023" d="M35.41,15.15c-0.24,0-0.49,0-0.73,0c-0.29-0.22-0.06-0.34,0.1-0.45c0.49-0.35,1.02-0.65,1.56-0.92
			c0.54-0.27,1.03-0.65,1.57-0.92c0.39-0.19,0.48-0.45,0.34-0.83c-0.01-0.06-0.01-0.12-0.01-0.17c0.08-0.19,0.15-0.4,0.43-0.35
			c0.1,0.39,0.47,0.66,0.49,1.09c-0.14,0.1-0.31,0.17-0.33,0.37c-0.04,0.26-0.21,0.43-0.43,0.55C37.4,14.05,36.48,14.74,35.41,15.15
			z"/>
		<path fill="#B22D21" d="M38.69,12.84c0.05-0.29,0.21-0.36,0.47-0.25c0.24,0.42,0.38,0.87,0.49,1.34c-0.46-0.01-0.4,0.29-0.35,0.59
			c0.05,0.24,0.04,0.36-0.29,0.41c-0.56,0.09-1.11,0.1-1.66,0.1c-0.29-0.17-0.23-0.37,0-0.51c0.22-0.14,0.44-0.29,0.68-0.4
			C38.82,13.73,38.82,13.73,38.69,12.84z"/>
		<path fill="#ACAAD5" d="M28.47,1.64c-0.88,1.08-0.99,2.41-1.22,3.7c-0.03,0.19,0.06,0.41-0.12,0.57
			c-0.44-0.52-0.35-1.15-0.37-1.76c0.1-0.53,0.22-1.06,0.37-1.59c0.13-0.46,0.34-0.86,0.73-1.15C28.05,1.51,28.3,1.47,28.47,1.64z"
			/>
		<path fill="#E23D2D" d="M36.27,7.6c-0.79,0.48-1.58,0.96-2.36,1.45c-0.22,0.14-0.41,0.33-0.69,0.15c0.09-0.62,0.48-1.05,0.95-1.41
			c0.38,0.01,0.68-0.21,1-0.36c0.25-0.12,0.49-0.4,0.82-0.17C36.08,7.36,36.18,7.48,36.27,7.6z"/>
		<path fill="#1C4291" d="M15.18,39.25c-0.91-0.36-1.81-0.71-2.72-1.07c-0.24-0.1-0.46-0.24-0.68-0.36
			c-0.09-0.12-0.21-0.23-0.14-0.41c0.14-0.18,0.33-0.17,0.5-0.1c0.87,0.39,1.79,0.64,2.65,1.07c0.15,0.08,0.16,0.31,0.35,0.36
			c0.07,0.03,0.12,0.09,0.14,0.16c0.01,0.05,0.02,0.1,0.02,0.15C15.29,39.14,15.25,39.21,15.18,39.25z"/>
		<path fill="#D4D3E9" d="M40.53,21.25c0-0.17-0.01-0.33-0.01-0.5c-0.25-0.36-0.11-0.73-0.05-1.09c-0.16,0.2,0.04,0.56-0.26,0.74
			c-0.32-0.3-0.33-0.7-0.35-1.09c0.01-0.37-0.11-0.73-0.12-1.1c-0.01-0.24,0-0.48,0.07-0.71c0.16-0.21,0.12-0.66,0.44-0.62
			c0.37,0.04,0.09,0.5,0.26,0.71c-0.04,1.01,0.22,2.02,0.12,3.03C40.62,20.84,40.71,21.07,40.53,21.25z"/>
		<path fill="#204B99" d="M21.04,0.54c-0.08,0-0.16,0-0.24,0c-0.24-0.57,0.28-0.35,0.48-0.47c1.03-0.02,2.06,0.08,3.06,0.34
			c-0.21,0.21-0.58,0.15-0.76,0.43c-0.14,0.08-0.3,0.1-0.47,0.11c-0.39-0.01-0.77-0.13-1.16-0.14c-0.06-0.01-0.13-0.02-0.19-0.03
			C21.52,0.7,21.25,0.69,21.04,0.54z"/>
		<path fill="#F5957A" d="M8.24,6.27c-0.4-0.17-0.7-0.59-1.21-0.49C6.91,5.74,6.9,5.64,6.89,5.54C7.18,5.29,7.47,5.05,7.77,4.8
			C8.09,4.88,8.4,4.85,8.68,4.66c0.06-0.02,0.11-0.01,0.16,0.01c0.23,0.42,0.05,0.91-0.19,1.1C8.45,5.92,8.6,6.32,8.24,6.27z"/>
		<path fill="#F38493" d="M23.01,39.77c-0.47-0.39-0.01-0.44,0.21-0.5c0.65-0.18,1.3-0.33,1.95-0.49c0.09,0.05,0.19,0.12,0.26-0.02
			c0.16,0.15-0.01,0.51,0.35,0.52C24.88,39.52,23.96,39.74,23.01,39.77z"/>
		<path fill="#E73F30" d="M35.99,7.24c-0.39,0.04-0.69,0.29-1.03,0.46c-0.24,0.12-0.47,0.36-0.77,0.15c-0.08-0.17,0-0.32,0.09-0.45
			c0.24-0.36,0.48-0.73,0.66-1.12C34.95,6.24,34.98,6.2,35,6.15C35.37,6.48,35.72,6.82,35.99,7.24z"/>
		<path fill="#F8F7FB" d="M40.52,17.59c-0.23-0.15-0.02-0.47-0.28-0.66c-0.16,0.15-0.05,0.48-0.33,0.53
			c-0.02-0.02-0.04-0.04-0.07-0.06c-0.14-0.39-0.21-0.81-0.31-1.21c-0.02-0.17-0.06-0.34-0.09-0.52c-0.01-0.09,0-0.17,0.03-0.26
			c0.08-0.19,0.28-0.17,0.43-0.24c0.04-0.05,0.09-0.09,0.13-0.14C40.31,15.87,40.49,16.71,40.52,17.59z"/>
		<path fill="#B5B2D9" d="M26.14,0.8c0.46,0.12,0.93,0.24,1.35,0.48c-0.23,0.58-0.3,1.22-0.71,1.73c-0.26-0.15-0.27-0.42-0.3-0.67
			c-0.05-0.42-0.12-0.82-0.35-1.18c-0.03-0.06-0.05-0.12-0.05-0.18C26.08,0.91,26.1,0.85,26.14,0.8z"/>
		<path fill="#1B4291" d="M26.14,0.8c0.01,0.04,0.01,0.08,0,0.12c-0.05,0.1-0.11,0.19-0.22,0.23c-0.18,0.07-0.33,0.2-0.54,0.18
			c-0.59-0.11-1.12-0.4-1.71-0.52c-0.03-0.01-0.05-0.02-0.08-0.03c0.01-0.6,0.48-0.27,0.74-0.37C24.96,0.45,25.54,0.65,26.14,0.8z"
			/>
		<path fill="#AEAED8" d="M26.76,2.98c0.23-0.57,0.2-1.26,0.73-1.7c0.12,0.04,0.24,0.09,0.37,0.13c-0.54,0.81-0.73,1.75-0.97,2.67
			C26.59,3.74,26.49,3.38,26.76,2.98z"/>
		<path fill="#2E4697" d="M11.66,37.44c0.04,0.13,0.08,0.25,0.12,0.38c-0.62-0.23-1.18-0.57-1.72-0.95
			c-0.08-0.24,0.08-0.35,0.25-0.46C11.04,36.47,11.56,36.87,11.66,37.44z"/>
		<path fill="#DB3C2E" d="M27.98,38.53c-0.45,0.25-0.94,0.38-1.43,0.51c-0.32,0.04-0.38-0.18-0.43-0.42
			c0.41-0.46,0.95-0.52,1.51-0.51C27.88,38.13,28.11,38.18,27.98,38.53z"/>
		<path fill="#B22F23" d="M32.23,36.22c-0.33-0.28-0.21-0.52,0.08-0.73c0.24-0.18,0.51-0.32,0.66-0.61
			c0.04-0.04,0.09-0.05,0.15-0.04c0.27,0.01,0.13,0.37,0.36,0.42C33.11,35.64,32.68,35.94,32.23,36.22z"/>
		<path fill="#3B4B9A" d="M10.32,36.47c-0.09,0.13-0.17,0.27-0.26,0.4c-0.4-0.19-0.76-0.43-1.09-0.74
			c-0.04-0.21-0.07-0.43-0.11-0.64C9.58,35.49,9.92,36.03,10.32,36.47z"/>
		<path fill="#EF553E" d="M13.49,1.4c0.47-0.21,0.95-0.4,1.46-0.5c0.19,0.11,0.41,0.2,0.52,0.42c-0.1,0.24-0.34,0.22-0.53,0.3
			c-0.4,0.05-0.76,0.34-1.19,0.24C13.53,1.78,13.43,1.63,13.49,1.4z"/>
		<path fill="#CD392C" d="M28.46,37.81c0.41-0.29,0.88-0.44,1.34-0.61c0.14,0.08,0.23,0.21,0.25,0.37
			c-0.37,0.28-0.81,0.42-1.22,0.61C28.48,38.29,28.39,38.13,28.46,37.81z"/>
		<path fill="#BEBDDE" d="M39.54,24.78c0.49-0.46,0.37-1.16,0.68-1.69c0.12,0.09,0.03,0.24,0.06,0.36c-0.03,0.76-0.3,1.46-0.47,2.19
			c-0.09-0.09-0.19-0.19-0.28-0.28c-0.07-0.19-0.19-0.37-0.12-0.59C39.46,24.73,39.5,24.74,39.54,24.78z"/>
		<path fill="#A92A1E" d="M33.48,35.26c-0.25,0.01-0.22-0.29-0.39-0.37c0.18-0.45,0.44-0.75,0.98-0.61c0.1-0.01,0.19-0.01,0.29-0.02
			c0.03,0,0.05-0.01,0.08-0.01c0.02,0.03,0.05,0.05,0.09,0.06C34.25,34.69,33.87,34.98,33.48,35.26z"/>
		<path fill="#CCCBE5" d="M6.43,33.67c-0.04,0.04-0.08,0.08-0.11,0.12c-0.39-0.24-0.63-0.6-0.88-0.97c0.09-0.17,0.22-0.31,0.43-0.32
			c0.06,0.01,0.11,0.03,0.16,0.06c0.23,0.18,0.41,0.41,0.5,0.69C6.55,33.4,6.52,33.54,6.43,33.67z"/>
		<path fill="#F37154" d="M10.7,2.75c0.27-0.26,0.6-0.41,0.95-0.53C11.86,2.26,12,2.36,11.99,2.6c-0.17,0.39-0.54,0.48-0.9,0.58
			C10.86,3.12,10.69,3.02,10.7,2.75z"/>
		<path fill="#24519F" d="M21.28,0.07c-0.2,0.11-0.48,0.14-0.48,0.47c-0.31-0.15-0.87,0.35-0.97-0.37
			c-0.04-0.02-0.06-0.04-0.04-0.07c0.01-0.02,0.03-0.03,0.04-0.03C20.31,0.08,20.79,0.08,21.28,0.07z"/>
		<path fill="#F6A8A5" d="M15.18,39.25c0.01-0.08,0.02-0.16,0.03-0.23c0.22-0.14,0.39-0.4,0.71-0.25c0.26,0.17,0.6,0.29,0.49,0.72
			C16,39.41,15.59,39.33,15.18,39.25z"/>
		<path fill="#C13629" d="M30.06,37.57c-0.17-0.07-0.25-0.19-0.25-0.37c0.16-0.2,0.41-0.25,0.61-0.37c0.3-0.17,0.45-0.07,0.49,0.26
			C30.62,37.25,30.34,37.41,30.06,37.57z"/>
		<path fill="#BE3124" d="M38.68,11.5c-0.15,0.09-0.27,0.2-0.35,0.36c-0.11,0.03-0.16,0-0.12-0.12c-0.13-0.35-0.42-0.71,0.12-0.97
			C38.49,10.99,38.64,11.22,38.68,11.5z"/>
		<path fill="#D1D0E8" d="M5.94,32.57c-0.17,0.08-0.33,0.16-0.5,0.25c-0.12-0.12-0.24-0.25-0.35-0.37c-0.1-0.22-0.15-0.43,0.06-0.61
			C5.64,31.84,5.87,32.12,5.94,32.57z"/>
		<path fill="#F48C70" d="M8.37,4.3c0.25-0.25,0.53-0.47,0.85-0.63c0.09,0.17,0.13,0.36,0.18,0.55C9.29,4.54,9.01,4.6,8.74,4.68l0,0
			C8.48,4.68,8.35,4.57,8.37,4.3z"/>
		<path fill="#F59176" d="M8.37,4.3c0.12,0.13,0.25,0.25,0.37,0.38C8.46,5.05,8.14,5.16,7.77,4.8C7.97,4.64,8.17,4.47,8.37,4.3z"/>
		<path fill="#D33B2E" d="M28.46,37.81c0.08,0.17,0.09,0.4,0.37,0.37c-0.26,0.17-0.55,0.29-0.86,0.35
			c-0.01-0.23-0.14-0.35-0.37-0.36c-0.04-0.03-0.05-0.05-0.04-0.08c0.01-0.03,0.03-0.04,0.04-0.04
			C27.93,38.1,28.16,37.83,28.46,37.81z"/>
		<path fill="#D5D4EA" d="M5.21,31.84c-0.11,0.19-0.14,0.39-0.12,0.61c-0.21-0.28-0.41-0.56-0.62-0.84c0.31-0.33,0.55-0.3,0.74,0.12
			c0.04,0.03,0.05,0.05,0.04,0.08C5.23,31.83,5.22,31.84,5.21,31.84z"/>
		<path fill="#EF4C38" d="M15.44,1.27c-0.29,0.04-0.4-0.15-0.49-0.37c0.24-0.07,0.49-0.15,0.73-0.22c0,0.32,0,0.64-0.01,0.96
			c-0.05,0.04-0.1,0.04-0.14,0C15.42,1.54,15.52,1.39,15.44,1.27z"/>
		<path fill="#F37B5F" d="M9.58,3.44c0.15-0.21,0.37-0.31,0.62-0.35c0.17,0.06,0.22,0.19,0.22,0.36c-0.02,0.13-0.08,0.23-0.18,0.31
			c-0.13,0.09-0.27,0.15-0.43,0.11C9.65,3.77,9.5,3.67,9.58,3.44z"/>
		<path fill="#F16549" d="M12.26,1.98c0.24-0.13,0.49-0.26,0.73-0.39c0.15,0.1,0.18,0.25,0.19,0.42c-0.15,0.36-0.45,0.42-0.79,0.39
			C12.26,2.28,12.18,2.15,12.26,1.98z"/>
		<path fill="#F3795C" d="M10.32,3.46c-0.04-0.13-0.09-0.25-0.13-0.38c0.09-0.22,0.3-0.28,0.5-0.33c0.12,0.12,0.24,0.23,0.36,0.35
			C10.94,3.48,10.65,3.5,10.32,3.46z"/>
		<path fill="#F38366" d="M9.58,3.44C9.66,3.57,9.75,3.7,9.84,3.83C9.82,4.15,9.58,4.17,9.35,4.19c-0.2-0.13-0.2-0.32-0.13-0.52
			C9.3,3.54,9.42,3.45,9.58,3.44z"/>
		<path fill="#F05C43" d="M13.13,2c-0.15-0.1-0.12-0.27-0.14-0.42c0.17-0.06,0.34-0.13,0.5-0.19c0.08,0.12,0.16,0.24,0.24,0.36
			c0.04,0.06,0.04,0.12-0.01,0.17C13.54,2.08,13.35,2.18,13.13,2z"/>
		<path fill="#F16A4E" d="M12.26,1.98c0.05,0.13,0.09,0.26,0.14,0.39c-0.05,0.18-0.19,0.24-0.35,0.29c-0.06,0.01-0.1-0.01-0.14-0.05
			c0.02-0.2-0.19-0.25-0.26-0.4C11.82,2.06,12.02,1.98,12.26,1.98z"/>
		<path fill="#E44232" d="M26.15,38.66c0.16,0.1,0.19,0.33,0.39,0.38c-0.15,0.12-0.33,0.14-0.51,0.12c-0.04-0.22-0.15-0.4-0.36-0.5
			c0.05-0.04,0.1-0.07,0.15-0.09C25.95,38.54,26.06,38.56,26.15,38.66z"/>
		<path fill="#325AA4" d="M19.82,0.08c0,0.03,0,0.07,0,0.1c-0.34,0-0.68-0.01-1.01-0.01C19.14,0.02,19.48,0.06,19.82,0.08z"/>
		<path fill="#EFEFF7" d="M2.03,14.79c-0.04-0.01-0.07-0.01-0.1-0.02C1.82,14.41,2.11,14.4,2.3,14.4c1.63,0.01,3.22-0.33,4.82-0.51
			c1.81-0.2,3.61-0.45,5.41-0.67c1.32-0.17,2.65-0.34,3.97-0.51c0.54-0.06,0.6,0.4,0.77,0.73c0.09,0.31,0.24,0.58,0.45,0.83
			c0.2,0.5,0.62,0.89,0.78,1.41c0.09,0.3,0.25,0.56,0.45,0.79c0.51,0.77,0.82,1.65,1.33,2.41c0.11,0.31,0.34,0.58,0.34,0.93
			c-0.01,0.06-0.05,0.11-0.1,0.15c-0.58,0.1-1.1-0.19-1.64-0.3c-0.28-0.11-0.58-0.15-0.86-0.25c-0.14-0.05-0.27-0.09-0.41-0.14
			c-0.28-0.09-0.56-0.14-0.83-0.24c-0.27-0.09-0.56-0.14-0.83-0.24c-0.16-0.06-0.33-0.09-0.49-0.13c-0.14-0.04-0.27-0.08-0.41-0.12
			c-0.27-0.08-0.55-0.14-0.82-0.23c-0.16-0.06-0.33-0.08-0.5-0.13c-0.27-0.1-0.55-0.17-0.83-0.24c-0.27-0.1-0.55-0.18-0.83-0.24
			c-0.14-0.04-0.27-0.09-0.41-0.13c-0.16-0.06-0.33-0.08-0.5-0.13c-0.27-0.1-0.55-0.17-0.84-0.24c-0.28-0.1-0.56-0.18-0.85-0.24
			c-0.28-0.1-0.56-0.18-0.85-0.24c-0.28-0.1-0.57-0.18-0.86-0.24c-0.4-0.15-0.81-0.23-1.21-0.35c-0.29-0.1-0.59-0.15-0.88-0.25
			c-0.56-0.21-1.15-0.29-1.71-0.48C3.33,15.14,2.64,15.09,2.03,14.79z"/>
		<path fill="#EE4030" d="M1.8,24.53c-0.66-2.89-0.69-5.8-0.08-8.7c0.13-0.62,0.22-0.63,0.7-0.24c2.34,1.91,4.69,3.82,7.04,5.72
			c1.06,0.87,2.12,1.74,3.18,2.6c-0.78,0.23-1.59,0.19-2.38,0.24c-1.81,0.12-3.62,0.21-5.42,0.34c-0.82,0.06-1.65,0.06-2.47,0.15
			C2.18,24.67,1.96,24.7,1.8,24.53z"/>
		<path fill="#FEDD16" d="M13.35,24.27c-0.01-0.06-0.01-0.13-0.02-0.19c0.03-0.19,0.2-0.26,0.33-0.36c0.16-0.11,0.33-0.2,0.5-0.29
			c0.35-0.15,0.67-0.36,0.98-0.58c0.23-0.15,0.51-0.2,0.73-0.37c0.35-0.23,0.74-0.37,1.09-0.6c0.28-0.19,0.59-0.31,0.87-0.5
			c0.36-0.23,0.77-0.4,1.14-0.61c0.27-0.13,0.52-0.32,0.79-0.44c0.19-0.09,0.4-0.24,0.6-0.01c-0.09,1-0.45,1.92-0.73,2.87
			c-1.33,4.59-2.64,9.19-3.94,13.78c-0.09,0.33-0.22,0.65-0.35,0.97c-0.06,0.13-0.11,0.33-0.34,0.19c-0.36-0.88-0.32-1.82-0.45-2.74
			c-0.31-2.14-0.56-4.29-0.82-6.43c-0.18-1.42-0.42-2.84-0.48-4.27C13.25,24.54,13.27,24.39,13.35,24.27z"/>
		<path fill="#9E9BCD" d="M13.73,23.8c-0.13,0.09-0.26,0.18-0.4,0.27c-0.07-0.05-0.13-0.1-0.2-0.16c-0.07-0.22-0.24-0.36-0.42-0.48
			c-0.18-0.12-0.31-0.25-0.25-0.49c0.51-1.43,0.86-2.92,1.27-4.38c0.07-0.26,0.1-0.56,0.49-0.37c0.3,0.03,0.59,0.1,0.85,0.24
			c0.07,0.32-0.01,0.62-0.09,0.93C14.58,20.85,14.16,22.33,13.73,23.8z"/>
		<path fill="#AFAED8" d="M9.48,16.85c0.31,0.01,0.6,0.07,0.86,0.25c0.3,0.41,0.05,0.81-0.09,1.17c-0.31,0.79-0.63,1.56-0.62,2.43
			c0,0.11,0,0.26-0.19,0.2c-1.13-0.91-2.29-1.79-3.4-2.72c-1.3-1.09-2.67-2.09-3.91-3.25c0.4-0.16,0.67,0.13,0.95,0.32
			c0.29,0.19,0.57,0.43,0.83,0.66c0.42,0.41,0.91,0.74,1.36,1.11c0.34,0.27,0.68,0.54,1,0.83c0.26,0.24,0.55,0.44,0.83,0.64
			c0.23,0.24,0.52,0.4,0.76,0.63c0.25,0.23,0.52,0.44,0.8,0.61c0.47-0.68,0.45-1.52,0.73-2.25c0.09-0.22-0.13-0.43-0.01-0.64
			c0.01-0.01,0.03-0.02,0.05-0.01C9.45,16.83,9.46,16.84,9.48,16.85z"/>
		<path fill="#D3D3EC" d="M16.62,12.72c-0.13,0.09-0.24,0.22-0.41,0.24c-1.4,0.16-2.8,0.32-4.2,0.49c-1.8,0.22-3.59,0.49-5.39,0.67
			c-1.36,0.14-2.7,0.46-4.08,0.43c-0.21,0-0.51-0.16-0.61,0.21c-0.15-0.01-0.22-0.09-0.23-0.23c0.03-0.02,0.06-0.05,0.09-0.07
			c0.59-0.37,1.28-0.35,1.93-0.42c3.09-0.36,6.16-0.8,9.25-1.14c1-0.11,1.99-0.32,3-0.36c0.16-0.01,0.32-0.04,0.47,0.05
			c0.06,0.01,0.11,0.02,0.17,0.03c0.02,0.01,0.04,0.01,0.06,0.02C16.69,12.69,16.67,12.72,16.62,12.72z"/>
		<path fill="#AEABD5" d="M9.44,20.9c-0.01-1.14,0.47-2.15,0.85-3.19c0.08-0.23-0.16-0.43,0.05-0.61c0.31,0,0.6,0.07,0.86,0.24
			c-0.3,1.03-0.58,2.06-0.9,3.08c-0.07,0.24-0.14,0.47,0.06,0.68c0.2,0.19,0.43,0.33,0.62,0.54c0.16,0.17,0.32,0.35,0.52,0.47
			c0.24,0.16,0.43,0.38,0.68,0.53c0.16,0.11,0.27,0.25,0.34,0.43c0.12,0.34,0.76,0.31,0.63,0.85C11.87,22.95,10.63,21.96,9.44,20.9z
			"/>
		<path fill="#D0341E" d="M1.8,24.53c1.74-0.14,3.49-0.16,5.23-0.35c0.72-0.08,1.44-0.04,2.17-0.11c1.14-0.12,2.29-0.11,3.44-0.15
			c0.18,0,0.21,0.08,0.12,0.22c-3.57,0.22-7.14,0.43-10.72,0.64c-0.2,0.01-0.4-0.01-0.6-0.01C1.56,24.69,1.68,24.61,1.8,24.53z"/>
		<path fill="#CCCBE5" d="M3.87,16.01c-0.61-0.31-0.99-0.98-1.74-1.09c-0.03-0.04-0.06-0.09-0.1-0.13c0.69,0.04,1.34,0.19,1.96,0.49
			C3.88,15.51,4.24,15.82,3.87,16.01z"/>
		<path fill="#273895" d="M13.35,24.27c0,0.13,0,0.26,0,0.4c-0.07,0.07-0.14,0.06-0.21,0c0-0.08-0.01-0.17-0.01-0.25
			c-0.04-0.03-0.06-0.05-0.04-0.08c0.01-0.03,0.03-0.04,0.04-0.04c0.04-0.02,0.08-0.04,0.12-0.06
			C13.28,24.25,13.31,24.26,13.35,24.27z"/>
		<path fill="#1F459A" d="M16.18,7.2c-0.01-0.27-0.02-0.54-0.03-0.82c-0.13-0.45,0.04-0.92-0.1-1.36c-0.01-0.24-0.02-0.47-0.03-0.71
			c-0.12-0.37,0.04-0.76-0.09-1.13c-0.01-0.31-0.02-0.63-0.03-0.94c-0.11-0.23,0.05-0.5-0.1-0.73c0.02-0.09,0.03-0.18,0.05-0.27
			C15.9,1.16,15.94,1.01,16,1.01c0.16-0.01,0.16,0.15,0.17,0.26c0.02,0.54,0.05,1.08,0.1,1.63c0.14,1.48,0.19,2.97,0.27,4.46
			c0.08,1.22,0.16,2.44,0.24,3.65c0.19,0.19,0.14,0.46,0.19,0.69c-0.02,0.28-0.1,0.53-0.3,0.73c-0.22-0.03-0.08-0.24-0.16-0.33
			c-0.08-0.29,0.03-0.6-0.07-0.89c-0.01-0.27-0.02-0.54-0.04-0.82c-0.1-0.19,0.03-0.42-0.1-0.61c0.01-0.53,0.06-1.05-0.02-1.58
			C16.16,7.88,16.3,7.53,16.18,7.2z"/>
		<path fill="#F6A4A2" d="M24.69,30.5c-0.32-0.17-0.43,0.14-0.58,0.29c-2.34,2.33-4.68,4.68-7.02,7.01
			c-0.14,0.14-0.27,0.48-0.54,0.13c-0.04-0.43,0.32-0.64,0.53-0.9c1.43-1.74,2.84-3.49,4.26-5.23c0.15-0.19,0.3-0.39,0.53-0.48
			c0.4,0.16,0.11,0.31,0,0.49c0.65-0.82,1.43-1.51,2.16-2.24c0.18-0.18,0.36-0.49,0.71-0.25C24.83,29.72,24.9,30.12,24.69,30.5z"/>
		<path fill="#FAD2CD" d="M21.9,31.36c-1.78,2.19-3.57,4.38-5.35,6.57c-0.2,0.29-0.5,0.5-0.62,0.84c-0.26,0.01-0.42,0.33-0.71,0.25
			c-0.02-0.03-0.02-0.06-0.01-0.09c0.04-0.07,0.05-0.16,0.12-0.22c0.23-0.17,0.36-0.41,0.54-0.63c2.29-2.84,4.61-5.65,6.91-8.47
			c0.46-0.57,0.91-1.14,1.38-1.69c0.15-0.18,0.27-0.42,0.58-0.32c0.06,0.28-0.02,0.53-0.17,0.76c-0.65,0.79-1.31,1.58-1.94,2.38
			C22.4,30.98,22.21,31.24,21.9,31.36z"/>
		<path fill="#F7AAA5" d="M24.44,28.31c0.11-0.24,0.29-0.45,0.23-0.74c-0.02-0.05-0.01-0.09,0.02-0.13c0.02,0,0.05-0.01,0.07-0.01
			c0.02,0.02,0.04,0.03,0.05,0.05c0.15,2.53,0.31,5.06,0.45,7.58c0.07,1.23,0.12,2.47,0.17,3.71c-0.02,0.09-0.04,0.19-0.06,0.28
			c-0.13-0.04-0.14-0.17-0.21-0.26c0.08-0.7-0.12-1.38-0.12-2.07c0.07-0.62-0.1-1.22-0.12-1.83c0.08-0.66-0.13-1.3-0.12-1.95
			c0.04-0.24-0.2-0.49,0-0.73c-0.16-0.27,0.04-0.59-0.12-0.85c0-0.04,0-0.08,0-0.12c0-0.24,0-0.49,0-0.73
			c-0.06-0.4,0.13-0.83-0.12-1.22C24.32,28.98,24.41,28.64,24.44,28.31z"/>
		<path fill="#315CA6" d="M16.9,11.75c-0.22-0.21-0.08-0.49-0.12-0.73c0.3-0.52,0.03-1.1,0.2-1.65c0.78-2.66,1.45-5.36,2.31-8
			c0.07-0.23,0.02-0.49,0.17-0.7c0.32,0,0.64,0,0.96,0c-0.45,0.71-0.57,1.53-0.8,2.29c-0.72,2.38-1.37,4.79-2.04,7.19
			c-0.07,0.25-0.19,0.49-0.07,0.76C17.55,11.36,17.26,11.58,16.9,11.75z"/>
		<path fill="#2955A1" d="M21.77,0.66c0.04,0,0.08,0,0.12,0c0.12,0.31-0.01,0.6-0.1,0.89c-0.6,1.91-1.05,3.86-1.64,5.78
			c-0.04,0.14-0.03,0.28-0.01,0.42c-0.27,0.66-0.67,1.21-1.3,1.56c-0.03-0.14-0.2-0.21-0.14-0.42c0.61-1.96,1.21-3.93,1.76-5.91
			c0.21-0.78,0.39-1.56,0.69-2.32C21.36,0.57,21.57,0.57,21.77,0.66z"/>
		<path fill="#2A3192" d="M18.85,9.31c0.4-0.53,0.93-0.97,1.22-1.58c0.32-0.63,0.83-1.12,1.26-1.66C21.92,5.4,22.48,4.7,23.03,4
			c0.61-0.76,1.22-1.53,1.85-2.28c0.15-0.18,0.28-0.39,0.54-0.44C25.6,1.2,25.71,1,25.94,1.04c0.03,0.05,0.04,0.11,0.04,0.17
			c-0.02,0.12-0.09,0.21-0.17,0.3c-2.8,3.45-5.63,6.88-8.42,10.34c-0.2,0.25-0.35,0.6-0.74,0.65c0,0,0.01-0.05,0.01-0.05
			c-0.04-0.27,0.15-0.47,0.23-0.69c0.18-0.3,0.5-0.5,0.61-0.85C18.02,10.42,18.43,9.87,18.85,9.31z"/>
		<path fill="#24519E" d="M21.77,0.66c-0.2,0-0.41,0-0.61,0c-0.04-0.04-0.08-0.08-0.12-0.12C21.28,0.58,21.55,0.44,21.77,0.66z"/>
		<path fill="#A4A3D1" d="M13.12,24.29c0,0.04,0,0.08,0,0.12c-1.72,2.39-3.43,4.79-5.15,7.17c-0.51,0.7-0.95,1.45-1.54,2.09
			c0-0.16,0-0.33,0-0.49c0-0.23,0.15-0.39,0.26-0.58c0.23-0.26,0.36-0.61,0.71-0.77c0.2-0.28,0.4-0.57,0.6-0.85
			c0.04-0.4,0.28-0.66,0.61-0.85c0.2-0.28,0.4-0.57,0.61-0.85C9.17,29,9.38,28.9,9.57,28.79c0.17-0.24,0.33-0.48,0.5-0.72
			c0.29-0.41,0.58-0.81,0.86-1.22c0.12-0.16,0.23-0.33,0.35-0.49c0.2-0.28,0.41-0.57,0.61-0.85c0.17-0.24,0.34-0.48,0.51-0.73
			c0.08-0.12,0.16-0.25,0.25-0.37C12.8,24.34,12.95,24.27,13.12,24.29z"/>
		<path fill="#F5A1A1" d="M24.69,31.35c0.23,0.26,0.07,0.57,0.12,0.85c-0.14-0.09-0.12-0.23-0.12-0.37
			C24.69,31.68,24.69,31.52,24.69,31.35z"/>
		<path fill="#8584BF" d="M26.76,2.98c-0.05,0.38,0.08,0.73,0.12,1.1c-0.01,0.62,0.13,1.22,0.24,1.83
			c-0.02,0.62,0.08,1.23,0.24,1.83c-0.05,0.41,0.06,0.81,0.12,1.22c-0.02,0.7,0.2,1.38,0.24,2.07c0.04,0.28,0.08,0.57,0.12,0.85
			c-0.02,0.58,0.13,1.14,0.24,1.71c-0.08,0.54,0.18,1.05,0.12,1.58c0.11,0.12,0.13,0.25,0.09,0.4c-0.03,0.07-0.07,0.12-0.13,0.16
			c-0.44,0.08-0.35-0.29-0.38-0.5c-0.23-1.52-0.4-3.05-0.59-4.58c-0.34-2.71-0.68-5.43-1.03-8.14c-0.05-0.36-0.03-0.73-0.12-1.09
			c-0.02-0.15,0-0.29,0.13-0.39c0.39,0.31,0.37,0.77,0.45,1.19C26.69,2.47,26.72,2.72,26.76,2.98z"/>
		<path fill="#9A97CA" d="M28.24,15.56c0-0.13-0.01-0.27-0.01-0.4c0.12-0.16,0.24-0.33,0.36-0.49c0.32-0.45,0.65-0.89,0.97-1.34
			c0.26-0.36,0.55-0.69,0.73-1.1c0.16-0.2,0.32-0.41,0.48-0.61c0.28-0.41,0.57-0.81,0.85-1.22c0.41-0.57,0.81-1.14,1.22-1.71
			c0.44-0.81,1.05-1.51,1.63-2.23c0.08-0.1,0.24-0.13,0.37-0.19c0.04,0.22-0.06,0.4-0.18,0.56c-2.01,2.77-3.95,5.59-5.97,8.35
			C28.57,15.36,28.48,15.55,28.24,15.56z"/>
		<path fill="#C13225" d="M38.21,11.75c0.04,0.04,0.08,0.08,0.12,0.12c0,0.04,0,0.08,0,0.12c0.16,0.29-0.01,0.45-0.24,0.59
			c-1.45,0.82-2.89,1.64-4.31,2.5c-0.18,0.11-0.4,0.08-0.57,0.2c-0.2,0-0.41,0-0.61,0c-0.11-0.12-0.22-0.19,0.03-0.33
			C34.5,13.89,36.35,12.82,38.21,11.75z"/>
		<path fill="#C13225" d="M32.61,15.28c-0.3,0.24-0.65,0.07-0.97,0.12C31.93,15.16,32.28,15.33,32.61,15.28z"/>
		<path fill="#F17356" d="M28.24,15.56c1.34-1.87,2.69-3.73,4.03-5.6c0.87-1.22,1.72-2.44,2.57-3.67c0.03-0.01,0.06-0.01,0.09-0.01
			c0.09,0.69-0.56,1.02-0.75,1.57c-0.32,0.45-0.65,0.89-0.97,1.34c-0.32,0.45-0.65,0.89-0.97,1.34c-0.2,0.28-0.41,0.57-0.61,0.85
			c-0.35,0.47-0.73,0.93-1,1.46c-0.33,0.33-0.59,0.71-0.83,1.1c-0.27,0.35-0.56,0.69-0.75,1.1c-0.21,0.1-0.27,0.31-0.36,0.49
			c-0.16,0.08-0.32,0.16-0.48,0.23c-0.04-0.01-0.05-0.03-0.05-0.05c0.01-0.02,0.02-0.04,0.03-0.04
			C28.22,15.63,28.23,15.6,28.24,15.56z"/>
		<path fill="#C63427" d="M31.15,32.33c0.35,0.2,0.74,0.37,0.98,0.73c-0.4,0.54-1.05,0.74-1.6,1.05c-1.39,0.79-2.75,1.62-4.15,2.39
			c-0.35,0.19-0.65,0.3-0.75-0.25c-0.14-0.65,0.06-1.06,0.7-1.4c1.43-0.74,2.77-1.65,4.19-2.4C30.72,32.35,30.91,32.23,31.15,32.33z
			"/>
		<path fill="#BB3023" d="M26.15,38.66c-0.12,0-0.24,0-0.36,0c-0.12-0.24-0.03-0.5-0.06-0.75c2.47-1.12,4.7-2.65,7.06-3.96
			c0.13-0.07,0.24-0.23,0.43-0.16c0.29,0.16,0.57,0.32,0.86,0.48c-0.47-0.03-0.65,0.42-0.98,0.61c-0.04,0-0.08,0-0.12,0
			c-0.34-0.1-0.57,0.15-0.8,0.29c-1.48,0.92-3,1.76-4.52,2.61c-0.09,0.05-0.42,0.12-0.04,0.26c0,0.04,0,0.08,0,0.12
			C27.1,38.25,26.61,38.41,26.15,38.66z"/>
		<path fill="#BE3124" d="M33.21,33.79c-0.4,0.41-0.93,0.64-1.4,0.92c-1.81,1.09-3.64,2.12-5.46,3.18c-0.24,0.14-0.4,0.12-0.56-0.09
			c-0.18-0.39,0.02-0.59,0.33-0.78c1.68-0.99,3.36-1.96,5.05-2.92c0.45-0.26,0.85-0.59,1.32-0.81
			C32.81,33.35,32.98,33.62,33.21,33.79z"/>
		<path fill="#C13225" d="M32.49,33.3c-0.14,0.49-0.62,0.57-0.98,0.79c-1.78,1.05-3.57,2.09-5.37,3.11
			c-0.27,0.15-0.4,0.32-0.35,0.61c0,0.28,0,0.57,0,0.85c0,0-0.06,0-0.06,0s-0.06,0-0.06,0c0-0.61,0-1.21,0-1.82
			c-0.09-0.2-0.09-0.41,0-0.61c0.17,0.37,0.35,0.32,0.68,0.13c1.91-1.12,3.85-2.2,5.78-3.3C32.29,33.06,32.41,33.14,32.49,33.3z"/>
		<path fill="#CA3528" d="M25.67,36.23c0,0.2,0,0.41,0,0.61c-0.25-0.64-0.06-1.3-0.12-1.95c-0.1-0.14-0.05-0.3-0.05-0.45
			c1.28-0.63,2.48-1.42,3.74-2.09c0.36-0.2,0.58-0.64,1.06-0.63c0.31,0.17,0.64,0.31,0.85,0.61c-1.35,0.6-2.57,1.44-3.86,2.16
			c-0.31,0.17-0.63,0.42-0.93,0.54C25.72,35.26,25.61,35.66,25.67,36.23z"/>
		<path fill="#CE3729" d="M30.29,31.72c-1.18,1-2.59,1.62-3.89,2.42c-0.25,0.16-0.55,0.25-0.86,0.26c-0.13-0.85-0.14-0.85,0.55-1.25
			c1.01-0.59,2.02-1.18,3.04-1.76c0.13-0.08,0.25-0.22,0.44-0.16C29.86,31.31,30.11,31.46,30.29,31.72z"/>
		<path fill="#7575B6" d="M38.93,25.63c0.16,0,0.31,0,0.54,0c-0.17,0.2-0.29,0.34-0.41,0.49c-0.84,0.08-1.69,0.1-2.53,0.24
			c-0.32,0.08-0.67,0.01-0.99,0.12c-0.29,0.07-0.59,0.02-0.87,0.12c-0.32,0.08-0.66,0.01-0.97,0.12c-0.32,0.08-0.66,0.01-0.97,0.12
			c-0.32,0.08-0.66,0.01-0.97,0.12c-0.32,0.08-0.66,0.01-0.97,0.12c-0.32,0.08-0.66,0.01-0.97,0.12c-0.32,0.08-0.66,0.01-0.97,0.12
			c-0.32,0.08-0.66,0.01-0.97,0.12c-0.29,0.07-0.6,0.02-0.88,0.13c-0.37,0.09-0.75,0-1.11,0.13c-0.26,0.06-0.49-0.01-0.72-0.12
			c-0.11-0.04-0.22-0.07-0.32-0.11c0,0-0.01-0.03-0.01-0.03c-0.03-0.07-0.01-0.13,0.05-0.17c0.57-0.17,1.17-0.15,1.75-0.28
			c0.13-0.03,0.26-0.05,0.39-0.05c0.27,0.02,0.52-0.1,0.79-0.12c1.52-0.18,3.04-0.34,4.56-0.57c0.73-0.06,1.45-0.17,2.16-0.28
			c0.28-0.01,0.56,0.01,0.82-0.09c0.95-0.13,1.91-0.19,2.85-0.37C38.44,25.45,38.71,25.42,38.93,25.63z"/>
		<path fill="#D5382B" d="M28.22,30.26c0.31,0.17,0.64,0.31,0.85,0.61c-0.28,0.56-0.88,0.69-1.35,0.97
			c-0.54,0.32-1.07,0.66-1.63,0.94c-0.58,0.29-0.58,0.29-0.72-0.36c-0.12-0.57,0.13-0.89,0.66-1.09c0.58-0.22,1.05-0.66,1.63-0.9
			C27.84,30.34,28,30.19,28.22,30.26z"/>
		<path fill="#C5C6E4" d="M25.14,27.59c0.25,0,0.5-0.01,0.76-0.01c0.13-0.07,0.37-0.08,0.35,0.02c-0.07,0.55,0.44,0.56,0.68,0.82
			c0.2,0.14,0.4,0.27,0.59,0.42c0.15,0.14,0.33,0.25,0.5,0.37c0.17,0.11,0.34,0.23,0.49,0.36c0.16,0.12,0.33,0.23,0.48,0.36
			c0.12,0.09,0.24,0.17,0.36,0.25c0.12,0.09,0.25,0.16,0.36,0.25c0.11,0.1,0.23,0.18,0.36,0.26c0.11,0.07,0.21,0.15,0.32,0.21
			c0.23,0.15,0.46,0.29,0.66,0.47c0.16,0.13,0.34,0.24,0.52,0.36c0.18,0.11,0.32,0.26,0.5,0.37c0.23,0.16,0.48,0.31,0.7,0.5
			c0.16,0.13,0.33,0.23,0.5,0.34c0.17,0.11,0.31,0.25,0.48,0.36c0.12,0.08,0.24,0.17,0.37,0.26c0.09,0.06,0.14,0.14,0.16,0.25
			c0.05,0.14,0.1,0.29,0.15,0.43c-0.03,0-0.05,0-0.08,0.01c-1.95-1.4-3.9-2.8-5.84-4.21C27.39,29.23,26.27,28.41,25.14,27.59z"/>
		<path fill="#D13729" d="M25.42,32.45c0.1,0.33,0.23,0.43,0.59,0.21c1.01-0.63,2.04-1.2,3.07-1.79c0.24,0.01,0.38,0.17,0.49,0.36
			c-0.9,0.68-1.92,1.16-2.88,1.74c-0.17,0.1-0.33,0.26-0.52,0.31c-0.59,0.17-0.71,0.58-0.63,1.12c0,0.16,0,0.33,0,0.49
			c-0.26-0.59-0.05-1.22-0.12-1.83C25.33,32.86,25.33,32.65,25.42,32.45z"/>
		<path fill="#D93A2C" d="M25.42,32.45c0,0.2,0,0.41,0,0.61c-0.26-0.68-0.06-1.38-0.12-2.07c0.79-0.3,1.38-0.96,2.19-1.22
			c0.3,0.08,0.55,0.23,0.73,0.49c-0.74,0.41-1.47,0.84-2.22,1.24C25.61,31.71,25.3,31.93,25.42,32.45z"/>
		<path fill="#DD3B2C" d="M27.49,29.77c-0.6,0.52-1.3,0.9-1.97,1.3c-0.04,0.02-0.14-0.05-0.22-0.08c0-0.04,0-0.08,0-0.12
			c-0.18-0.58-0.1-1.02,0.56-1.27c0.27-0.1,0.48-0.36,0.78-0.43C26.99,29.27,27.29,29.45,27.49,29.77z"/>
		<path fill="#E23D2D" d="M26.64,29.16c-0.19,0.29-0.5,0.54-0.79,0.61c-0.68,0.17-0.54,0.65-0.55,1.1
			c-0.26-0.55-0.06-1.14-0.12-1.71c0.23-0.26,0.47-0.49,0.85-0.49C26.27,28.79,26.52,28.9,26.64,29.16z"/>
		<path fill="#E63E2F" d="M26.03,28.67c-0.26,0.21-0.53,0.39-0.85,0.49c0-0.06-0.01-0.12,0-0.18c0.03-0.29-0.33-0.69-0.01-0.82
			C25.48,28.04,25.79,28.41,26.03,28.67z"/>
		<path fill="#FEED8C" d="M5.08,8.58C5.35,7.94,5.86,7.5,6.31,7c0.38,0.22,0.26,0.55,0.17,0.85c-0.45,1.49-0.86,2.98-1.29,4.48
			c-0.14,0.5-0.31,0.97,0.16,1.39c-0.26,0.31-0.61,0.2-0.94,0.22c-0.71-0.22-0.74-0.28-0.54-0.98C4.27,11.49,4.75,10.05,5.08,8.58z"
			/>
		<path fill="#FEEB88" d="M5.33,13.69c-0.66-0.08-0.59-0.48-0.44-0.96c0.53-1.69,0.91-3.43,1.5-5.1C6.48,7.42,6.42,7.2,6.31,7
			C6.55,6.71,6.8,6.42,7.05,6.13c0.29,0,0.49,0.12,0.53,0.43C6.89,8,6.62,9.57,6.14,11.07c-0.27,0.85-0.56,1.7-0.64,2.59
			C5.45,13.72,5.4,13.73,5.33,13.69z"/>
		<path fill="#FDCB1E" d="M5.33,13.69c0.04,0,0.08,0,0.12,0c0.28-0.22,0.63-0.17,0.95-0.27c0.29-0.03,0.59-0.02,0.88-0.11
			c0.33-0.05,0.67-0.02,0.99-0.13c0.64-0.08,1.28-0.15,1.91-0.26c0.38-0.01,0.74-0.13,1.12-0.14c0.62,0.02,1.21-0.15,1.82-0.21
			c0.68-0.04,1.34-0.18,2.01-0.26c0.19,0,0.39-0.01,0.58,0.01c0.15,0.01,0.3,0.07,0.45,0.04c0.15,0,0.22,0.1,0.29,0.21
			c-1.76,0.24-3.52,0.48-5.28,0.71c-3.12,0.4-6.25,0.78-9.38,1.17c0.08-0.23,0.34-0.26,0.5-0.4c0.35-0.26,0.79-0.15,1.18-0.27
			c0.3,0.01,0.6-0.03,0.89,0.03C4.69,13.84,5.01,13.79,5.33,13.69z"/>
		<path fill="#FEEE90" d="M4.36,13.82c-0.28,0.07-0.56,0.15-0.86,0.11c-0.45-0.13-0.37-0.44-0.29-0.77c0.23-0.97,0.58-1.9,0.78-2.88
			c0.27-0.63,0.57-1.24,1.1-1.7c0.14,0.09,0.15,0.24,0.11,0.38c-0.41,1.4-0.79,2.82-1.25,4.2C3.77,13.67,4.12,13.66,4.36,13.82z"/>
		<path fill="#FDDC16" d="M16.16,12.37c-0.09,0.13-0.23,0.1-0.36,0.1c-0.17-0.13-0.38-0.19-0.55-0.31c-0.6-0.43-1.2-0.87-1.8-1.29
			c-0.34-0.23-0.65-0.5-1.01-0.71C11.94,9.83,11.49,9.47,11,9.15c-0.48-0.36-0.97-0.72-1.47-1.05C9.29,7.92,9.06,7.73,8.81,7.56
			c-0.26-0.23-0.57-0.4-0.84-0.61C7.81,6.81,7.61,6.72,7.52,6.51C7.36,6.39,7.2,6.26,7.05,6.13c0-0.08-0.19-0.16-0.01-0.25
			c1.06,0.59,2,1.37,2.99,2.06c1.76,1.23,3.49,2.48,5.24,3.73C15.57,11.9,15.86,12.14,16.16,12.37z"/>
		<path fill="#FEEF94" d="M3.98,10.28c0.19,0.16,0.16,0.37,0.08,0.55c-0.34,0.8-0.45,1.66-0.74,2.47c-0.1,0.28-0.03,0.46,0.18,0.63
			c-0.39,0.14-0.8,0.15-1.21,0.13C2.65,12.71,3.17,11.43,3.98,10.28z"/>
		<path fill="#807FBD" d="M36.5,26.24c0.85-0.15,1.69-0.41,2.56-0.12c-0.76,2.36-1.96,4.47-3.53,6.38c-0.1,0.12-0.24,0.21-0.36,0.32
			c-0.37-0.22-0.19-0.54-0.11-0.81c0.49-1.71,0.93-3.43,1.46-5.13C36.58,26.68,36.8,26.44,36.5,26.24z"/>
		<path fill="#C53326" d="M39.29,25.28c-0.07,0.03-0.15,0.07-0.22,0.1c-0.03,0-0.06,0-0.1,0c-3.38-0.92-6.75-1.91-10.12-2.87
			c-2.59-0.74-5.17-1.51-7.77-2.23c-0.1-0.04-0.18-0.09-0.22-0.19c-0.01-0.07,0-0.13,0.03-0.2c0.05-0.05,0.11-0.08,0.17-0.1
			c0.2-0.05,0.4-0.03,0.59,0.02c2.36,0.7,4.75,1.34,7.11,2.05c0.17,0.06,0.35,0.09,0.53,0.14c0.25,0.08,0.5,0.17,0.75,0.24
			c0.16,0.06,0.34,0.09,0.5,0.13c0.27,0.1,0.55,0.18,0.84,0.24c0.28,0.08,0.57,0.14,0.85,0.24c0.28,0.09,0.57,0.15,0.84,0.24
			c0.16,0.06,0.34,0.09,0.5,0.13c0.27,0.1,0.55,0.18,0.83,0.23c0.45,0.21,0.68,0.08,0.74-0.43c0.03-0.26,0.04-0.57,0.33-0.73
			c0.63,0.14,1.01,0.65,1.47,1.02c0.78,0.61,1.52,1.27,2.36,1.81C39.34,25.17,39.33,25.23,39.29,25.28z"/>
		<path fill="#8584BF" d="M36.5,26.24c0.14,0.05,0.43-0.18,0.28,0.29c-0.55,1.76-1.02,3.54-1.51,5.31c-0.09,0.32-0.3,0.63-0.1,0.98
			c-0.29,0.33-0.58,0.66-0.88,0.98c-0.07-0.05-0.15-0.1-0.22-0.14c-0.08-0.21,0.03-0.39,0.08-0.59c0.57-1.96,1.12-3.93,1.69-5.88
			c0.06-0.2,0.19-0.41,0.04-0.63c-0.12-0.06-0.27-0.07-0.36-0.2C35.83,26.12,36.18,26.29,36.5,26.24z"/>
		<path fill="#F0F1F7" d="M39.29,25.28c0-0.04,0-0.09-0.01-0.13c-2.53-1.9-4.94-3.97-7.42-5.94c-1.06-0.84-2.12-1.69-3.16-2.56
			c-0.17-0.14-0.46-0.23-0.36-0.55c0.13-0.1,0.28-0.08,0.43-0.06c0.29,0.09,0.5,0.29,0.71,0.49c0.39,0.29,0.73,0.64,1.11,0.95
			c0.18,0.12,0.33,0.27,0.48,0.41c0.19,0.18,0.41,0.31,0.63,0.46c0.27,0.17,0.46,0.43,0.73,0.6c0.22,0.15,0.4,0.36,0.62,0.5
			c0.35,0.3,0.73,0.56,1.06,0.87c0.29,0.24,0.58,0.47,0.87,0.7c0.23,0.18,0.48,0.35,0.64,0.61c0.25,0.37,0.62,0.61,0.99,0.85
			c0.29,0.24,0.57,0.48,0.86,0.72c0.35,0.04,0.55,0.34,0.82,0.51c0.36,0.38,0.88,0.58,1.13,1.08c0.05,0.19,0.3,0.34,0.11,0.58
			C39.44,25.37,39.35,25.37,39.29,25.28z"/>
		<path fill="#1D297C" d="M38.93,25.63c-1.21,0.13-2.42,0.25-3.63,0.38c-0.23,0.03-0.49,0.2-0.64-0.14
			c0.35-0.25,0.77-0.21,1.17-0.29c0.83-0.16,1.68-0.28,2.53-0.33c0.23-0.01,0.49-0.01,0.71,0.14c0,0,0.01-0.01,0.01-0.01
			C39.03,25.46,38.98,25.54,38.93,25.63z"/>
		<path fill="#E7E7F3" d="M9.57,28.79c-0.12,0.16-0.24,0.33-0.36,0.49c-0.46-0.43-0.99-0.09-1.46-0.07
			c-1.11,0.05-2.22,0.2-3.33,0.32c-0.43,0.05-0.74-0.08-0.92-0.49c0.93-0.08,1.86-0.16,2.8-0.24c0.9-0.08,1.8-0.16,2.7-0.25
			C9.24,28.53,9.43,28.59,9.57,28.79z"/>
		<path fill="#F37C5F" d="M12.03,2.61c0.12-0.08,0.24-0.16,0.37-0.25c0.23-0.14,0.55-0.12,0.73-0.36c0.2-0.04,0.4-0.08,0.61-0.12
			c0.48-0.17,0.48,0.09,0.38,0.43c-0.22,0.69-0.46,1.38-0.7,2.07c-0.46,1.36-1.1,2.65-1.44,4.05c-0.04,0.16-0.08,0.33-0.31,0.27
			c-0.48-0.29-0.98-0.53-1.35-0.96c0.33-1.06,0.7-2.11,1.1-3.14C11.66,3.95,11.93,3.31,12.03,2.61z"/>
		<path fill="#F16448" d="M15.92,5.66c0,0.32,0,0.65,0.01,0.97c0.11,0.2,0.03,0.42,0.06,0.63c-0.03,0.12,0.07,0.29-0.13,0.35
			c-0.04,0.01-0.07-0.12-0.1-0.02c-0.3,1.08-0.8,2.09-1.06,3.17c-0.01,0.03-0.06,0.03-0.11,0.01c-0.49-0.26-0.95-0.58-1.35-0.97
			c-0.08-0.47,0.18-0.86,0.33-1.27c0.54-1.47,1.02-2.97,1.6-4.43c0.11-0.27,0.22-0.51,0.47-0.66c0.05-0.03,0.1-0.03,0.15,0.02
			c0,0.36,0,0.73,0.01,1.09C15.96,4.92,15.76,5.31,15.92,5.66z"/>
		<path fill="#F48769" d="M12.03,2.61c0.13,0.02,0.25,0.05,0.19,0.23c-0.59,1.59-1.18,3.18-1.78,4.77
			c-0.02,0.05-0.08,0.09-0.12,0.13C9.86,7.51,9.47,7.22,9.09,6.88C9.07,6.74,9,6.6,9.06,6.47c0.42-0.9,0.62-1.9,1.14-2.76
			c0.04-0.08,0.08-0.16,0.12-0.24c0.24-0.12,0.49-0.24,0.73-0.36c0.28-0.17,0.61-0.24,0.85-0.48C11.95,2.61,11.99,2.61,12.03,2.61z"
			/>
		<path fill="#F37557" d="M11.66,8.7c0.34-0.31,0.23-0.77,0.37-1.15c0.68-1.77,1.3-3.56,1.96-5.33c0.12-0.32-0.02-0.35-0.26-0.34
			c0-0.04,0-0.08,0-0.12c0.44,0.08,0.78-0.32,1.21-0.25c0.24-0.1,0.31-0.01,0.22,0.21c-0.68,1.66-1.24,3.36-1.88,5.03
			c-0.24,0.64-0.51,1.27-0.68,1.94c-0.05,0.19-0.16,0.43-0.46,0.38C11.97,8.97,11.76,8.91,11.66,8.7z"/>
		<path fill="#F26C4F" d="M15.68,3.46c-1.03,2.03-1.54,4.26-2.45,6.34c-0.25-0.04-0.42-0.21-0.6-0.37c0.2-0.86,0.48-1.71,0.82-2.53
			c0.47-1.16,0.91-2.33,1.31-3.51c0.21-0.61,0.48-1.19,0.79-1.76c0.04,0,0.08,0,0.12,0.01c0,0.28,0.01,0.57,0.01,0.85
			C15.77,2.81,15.78,3.14,15.68,3.46z"/>
		<path fill="#F37052" d="M15.56,1.63c0.04,0.32-0.15,0.55-0.26,0.82c-0.51,1.28-0.92,2.6-1.45,3.87c-0.43,1.03-0.63,2.14-1.21,3.11
			c-0.18-0.1-0.39-0.15-0.49-0.36c0.55-0.38,0.48-1.05,0.72-1.57c0.35-0.76,0.53-1.6,0.86-2.36c0.51-1.16,0.76-2.42,1.37-3.54
			c-0.05-0.02-0.1-0.05-0.15-0.07c0.16-0.08,0.33-0.16,0.49-0.24C15.58,1.36,15.56,1.5,15.56,1.63z"/>
		<path fill="#EF563E" d="M14.58,10.78c0.09-0.91,0.54-1.7,0.83-2.55c0.11-0.33,0.33-0.62,0.35-0.99c0.03,0.09,0.06,0.17,0.09,0.26
			c0.02-0.01,0.05-0.01,0.05-0.02c0.01-0.04,0.02-0.08,0.03-0.12c0.04-0.05,0.08-0.05,0.12,0c0,0.49,0,0.97,0,1.46
			c0.16,0.39-0.05,0.82,0.12,1.22c0,0.32,0,0.65,0,0.97c0.01,0.27,0.22,0.61-0.24,0.73C15.49,11.41,14.96,11.19,14.58,10.78z"/>
		<path fill="#F36144" d="M16.65,12.49c2.96-3.62,5.92-7.24,8.88-10.86c0.08-0.09,0.16-0.18,0.25-0.26c0.22,0.39-0.1,0.63-0.25,0.92
			c-2.7,3.33-5.42,6.65-8.13,9.97c-0.19,0.24-0.35,0.59-0.78,0.36c0,0-0.01,0-0.01,0C16.63,12.58,16.64,12.53,16.65,12.49z"/>
		<path fill="#F58F72" d="M10.2,3.71c-0.14,0.84-0.6,1.56-0.82,2.38c-0.07,0.27-0.19,0.53-0.29,0.8C8.79,6.7,8.47,6.55,8.24,6.27
			c0.2-0.16,0-0.42,0.14-0.59c0.41-0.49,0.43-0.55,0.35-1c0.2-0.16,0.41-0.33,0.61-0.49c0.16-0.12,0.32-0.24,0.49-0.37
			C9.96,3.79,10.08,3.75,10.2,3.71z"/>
		<path fill="#EA4233" d="M15.92,11.75c0.29-0.17,0.13-0.5,0.24-0.73c0.21,0.21,0.14,0.49,0.1,0.72
			C16.21,12.11,16.05,11.94,15.92,11.75z"/>
		<path fill="#E74033" d="M16.06,5.02c0.14,0.45,0.1,0.91,0.1,1.36C15.93,5.94,16.09,5.48,16.06,5.02z"/>
		<path fill="#EA4233" d="M16.17,10.04c-0.25-0.39-0.07-0.81-0.12-1.22C16.29,9.21,16.11,9.64,16.17,10.04z"/>
		<path fill="#E74033" d="M15.94,3.18c0.14,0.37,0.09,0.75,0.09,1.13C15.82,3.95,15.96,3.56,15.94,3.18z"/>
		<path fill="#EB4434" d="M15.92,5.66c-0.23-0.35-0.07-0.73-0.12-1.1C16.04,4.91,15.87,5.29,15.92,5.66z"/>
		<path fill="#EB4434" d="M15.68,3.46c0-0.32,0-0.65,0-0.97c0.24,0.3,0.07,0.65,0.11,0.98C15.76,3.47,15.72,3.46,15.68,3.46z"/>
		<path fill="#E74033" d="M16.18,7.2c0.13,0.33,0.08,0.67,0.09,1.01C16.06,7.89,16.2,7.54,16.18,7.2z"/>
		<path fill="#EF563E" d="M16.43,11.22c0.14,0.29,0.07,0.59,0.07,0.89C16.33,11.82,16.44,11.51,16.43,11.22z"/>
		<path fill="#EB4434" d="M15.8,1.51c0.18,0.22,0.1,0.48,0.1,0.73C15.72,2.02,15.83,1.76,15.8,1.51z"/>
		<path fill="#EA4233" d="M16.04,7.36c-0.04,0-0.08,0-0.12,0c0-0.24,0-0.49,0-0.73C16.14,6.85,16.01,7.12,16.04,7.36z"/>
		<path fill="#EA4232" d="M16.29,9.79c0.2,0.18,0.09,0.4,0.1,0.61C16.22,10.22,16.31,10,16.29,9.79z"/>
		<path fill="#273895" d="M10.32,36.47c-0.54-0.24-0.88-0.79-1.46-0.98c-0.54-0.52-1.06-1.05-1.62-1.54
			c-0.31-0.27-0.31-0.48-0.08-0.8c1.99-2.75,3.97-5.5,5.95-8.26c0.36,0.47,0.27,1.05,0.33,1.58c0.26,2.09,0.53,4.18,0.79,6.26
			c0.22,1.75,0.43,3.49,0.68,5.24c0.03,0.2,0.09,0.4-0.08,0.57c-0.9-0.36-1.8-0.73-2.7-1.08c-0.15-0.06-0.31-0.11-0.47-0.01
			C11.38,36.89,10.86,36.66,10.32,36.47z"/>
		<path fill="#1A2679" d="M14.82,38.54c-0.19-1.45-0.41-2.91-0.57-4.36c-0.14-1.34-0.33-2.68-0.51-4.01
			c-0.22-1.65-0.41-3.31-0.62-4.97c-0.01-0.1-0.01-0.2-0.01-0.3c0.01-0.08,0.02-0.15,0.02-0.23c0.07,0,0.14,0,0.21,0
			c0.49,3.86,0.99,7.72,1.48,11.57c0.08,0.64,0.17,1.29,0.25,1.93c0.16,0.2,0.16,0.4,0.01,0.6C14.85,38.89,14.92,38.61,14.82,38.54z
			"/>
		<path fill="#E1E0F0" d="M8.61,30.13C8.41,30.42,8.2,30.7,8,30.98c-0.11-0.33-0.4-0.38-0.65-0.29c-0.72,0.25-1.48-0.01-2.2,0.23
			c-0.56,0.19-0.66-0.37-0.91-0.67C5.4,30.14,6.57,30,7.74,29.9C8.04,29.87,8.39,29.8,8.61,30.13z"/>
		<path fill="#BBBBDD" d="M38.21,23.79c-0.24-0.2-0.49-0.4-0.73-0.6c0.61-0.29,1.3-0.31,1.9-0.63c0.28-0.15,0.43-0.05,0.41,0.26
			c-0.02,0.25,0.1,0.53-0.12,0.75c-0.2,0.01-0.39,0.05-0.57,0.15C38.82,23.88,38.52,23.9,38.21,23.79z"/>
		<path fill="#B8B7DB" d="M38.21,23.79c0.37-0.06,0.75-0.09,1.06-0.33c0.18-0.13,0.28-0.02,0.39,0.1c0.07,0.42-0.14,0.81-0.12,1.22
			c0,0-0.06,0-0.06,0s-0.06,0-0.06,0C39.02,24.45,38.62,24.12,38.21,23.79z"/>
		<path fill="#C7C7E4" d="M35.63,21.62c-0.33-0.03-0.45-0.37-0.71-0.5c-0.05-0.16,0.04-0.23,0.17-0.26
			c1.41-0.35,2.77-0.87,4.13-1.38c0.26-0.1,0.51-0.24,0.81-0.18c-0.03,0.34,0.06,0.66,0.19,1.02c0.09-0.27,0.05-0.55,0.3-0.84
			c0,0.48,0,0.88,0,1.28c-0.28,0.35-0.24,0.83-0.49,1.36c0-0.59-0.01-1.03,0-1.47c0.01-0.36-0.27-0.43-0.39-0.24
			c-0.31,0.48-0.83,0.27-1.21,0.47c-0.51,0.27-1.11,0.2-1.62,0.59C36.62,21.6,36.06,21.74,35.63,21.62z"/>
		<path fill="#F3F2F8" d="M5.33,24.9c0.35-0.23,0.73-0.07,1.1-0.11C6.08,25.02,5.69,24.85,5.33,24.9z"/>
		<path fill="#F3F2F8" d="M7.4,24.77c0.35-0.23,0.73-0.07,1.1-0.11C8.15,24.89,7.76,24.73,7.4,24.77z"/>
		<path fill="#F8F8FB" d="M9.59,24.65c0.35-0.23,0.73-0.08,1.1-0.11C10.34,24.77,9.95,24.61,9.59,24.65z"/>
		<path fill="#F3F2F8" d="M3.38,25.02c0.3-0.23,0.65-0.07,0.98-0.11C4.05,25.14,3.7,24.97,3.38,25.02z"/>
		<path fill="#F6AAA5" d="M28.21,15.67c0,0.03,0.01,0.06,0.02,0.09c0.04,0.04,0.07,0.08,0.11,0.13c0.03,0.03,0.05,0.06,0.04,0.1
			c-0.01,0.04-0.01,0.05-0.02,0.05c-0.08,0.05-0.16,0.08-0.26,0.07c-0.06-0.01-0.12-0.02-0.17-0.04c-0.24-0.15-0.42,0-0.61,0.11
			c-1.94,1.07-3.89,2.15-5.82,3.23c-0.15,0.08-0.32,0.31-0.52,0.05c0.09-0.94,0.44-1.81,0.69-2.7c1.34-4.72,2.72-9.42,4.06-14.14
			c0.1-0.34,0.13-0.67,0.18-1.01c0.01-0.07,0.03-0.13,0.06-0.19c0.05-0.06,0.11-0.07,0.17-0.05c0.23,0.71,0.25,1.46,0.35,2.19
			c0.28,2.12,0.52,4.24,0.78,6.37c0.22,1.8,0.46,3.6,0.7,5.4C27.99,15.47,27.85,15.76,28.21,15.67z"/>
		<path fill="#C8C4DE" d="M28.33,16.03c0-0.05,0-0.09,0.01-0.14c3.86-0.24,7.71-0.47,11.57-0.71c-0.12,0.08-0.24,0.15-0.35,0.23
			c-0.17,0.29-0.46,0.28-0.74,0.28c-1.18,0.02-2.35,0.13-3.53,0.17c-0.26,0.07-0.53,0.05-0.79,0.1c-0.06,0.01-0.13,0.01-0.19,0
			c-0.31-0.07-0.62-0.05-0.92,0.04c-0.3,0.06-0.6,0.04-0.9,0.05c-0.37,0-0.75-0.05-1.11,0.07c-0.34,0.07-0.69,0.03-1.04,0.04
			c-0.34,0-0.68-0.03-1.01,0.06c-0.17,0-0.34-0.02-0.49-0.1c-0.16,0-0.31,0-0.47,0c-0.03-0.02-0.05-0.04-0.05-0.06
			C28.31,16.04,28.32,16.03,28.33,16.03z"/>
		<path fill="#BE3124" d="M33.21,15.28c1.49-1.01,3.1-1.84,4.65-2.75c0.22-0.13,0.51-0.18,0.46-0.54c0.32,0.48,0.18,0.73-0.33,1
			c-1.1,0.58-2.16,1.25-3.24,1.88c-0.15,0.09-0.14,0.17-0.09,0.29C34.19,15.27,33.71,15.3,33.21,15.28z"/>
		<path fill="#B82F23" d="M38.69,12.84c0.4,0.96,0.34,0.96-0.6,1.44c-0.24,0.12-1.01,0.02-0.74,0.75c-0.64,0.17-1.3,0.11-1.95,0.12
			c0.6-0.51,1.33-0.81,1.98-1.23c0.34-0.22,0.69-0.41,1.05-0.59C38.65,13.23,38.71,13.06,38.69,12.84z"/>
		<path fill="#D9D9EC" d="M7.39,31.84c-0.2,0.28-0.41,0.57-0.61,0.85c-0.24-0.33-0.59,0.11-0.85-0.12c0,0,0,0,0,0
			c-0.19-0.29-0.44-0.54-0.73-0.73c0-0.04,0-0.08,0-0.12c0.6-0.06,1.19-0.17,1.8-0.21C7.32,31.5,7.31,31.69,7.39,31.84z"/>
		<path fill="#D4B582" d="M15.1,38.77c0-0.2-0.01-0.4-0.01-0.6c0.99-2.76,1.67-5.61,2.49-8.42c0.92-3.14,1.81-6.3,2.71-9.45
			c-0.01-0.19,0.12-0.29,0.24-0.39c0.01-0.04,0.02-0.08,0.03-0.11c0.05-0.07,0.13-0.08,0.21-0.06c0.08,0.04,0.12,0.1,0.14,0.18
			c-0.01,0.03-0.02,0.07-0.03,0.1c-0.01,0.08-0.02,0.17-0.06,0.24c-0.04,0.08-0.08,0.15-0.11,0.24c-1.26,4.4-2.51,8.8-3.78,13.2
			c-0.46,1.59-0.91,3.19-1.38,4.78c-0.04,0.13-0.14,0.21-0.22,0.31c-0.04,0.05-0.08,0.1-0.13,0.15
			C15.16,38.87,15.13,38.82,15.1,38.77z"/>
		<path fill="#D1D0E8" d="M34.07,20.39c-0.36-0.29-0.73-0.57-1.09-0.86c0.51-0.34,1.09-0.51,1.66-0.65
			c1.04-0.25,2.02-0.65,3.02-1.03c0.71-0.27,1.48-0.41,2.07-0.91c0.23,0.15,0.04,0.39,0.19,0.52c0,0,0,0,0,0c0,0.24,0,0.49,0,0.73
			c-0.2,0.31-0.51,0.45-0.84,0.55c-1.28,0.4-2.55,0.82-3.78,1.37C34.9,20.3,34.47,20.27,34.07,20.39z"/>
		<path fill="#CCCBE5" d="M34.07,20.39c0.08-0.09,0.14-0.25,0.23-0.27c1.5-0.21,2.84-0.91,4.24-1.42c0.46-0.16,0.93-0.29,1.37-0.51
			c0.04,0.37,0.08,0.73,0.12,1.1c-1,0.48-2.06,0.8-3.11,1.16c-0.46,0.16-0.96,0.27-1.34,0.55c-0.26,0.19-0.52-0.27-0.66,0.11
			C34.64,20.88,34.35,20.63,34.07,20.39z"/>
		<path fill="#24519E" d="M21.4,6.15c-0.44,0.53-0.78,1.15-1.34,1.58c-0.12-0.08-0.16-0.2-0.11-0.32c0.68-1.93,1.03-3.95,1.72-5.88
			c0.1-0.28,0.06-0.6,0.22-0.87c0.42-0.07,0.81,0.14,1.22,0.12c0.1,0.73-0.19,1.43-0.53,1.98c-0.23,0.37-0.34,0.73-0.44,1.11
			C21.94,4.65,21.65,5.39,21.4,6.15z"/>
		<path fill="#204C9B" d="M21.4,6.15c0.01-0.48,0.08-0.95,0.34-1.38c0.23-0.39,0.19-0.85,0.32-1.27c0.09-0.28,0.21-0.59,0.23-0.97
			c0.06,0.15,0.1,0.24,0.14,0.35c0.23-0.71,0.45-1.41,0.67-2.1c0.16,0,0.32,0,0.49,0c0,0,0,0,0,0C23.93,0.81,24,0.97,23.94,1.3
			c-0.18,0.96-0.5,1.87-0.84,2.78C22.6,4.81,22.04,5.51,21.4,6.15z"/>
		<path fill="#D5D4EA" d="M39.91,17.47c-0.13-0.12-0.1-0.43-0.48-0.2c-0.75,0.46-1.63,0.64-2.44,0.99c-0.58,0.25-1.19,0.5-1.78,0.63
			c-0.77,0.16-1.44,0.64-2.24,0.65c-0.2-0.16-0.41-0.32-0.61-0.49c-0.02-0.3,0.23-0.35,0.43-0.41c1.45-0.43,2.82-1.08,4.26-1.52
			c0.89-0.27,1.74-0.65,2.61-0.99C39.76,16.58,39.95,17,39.91,17.47z"/>
		<path fill="#D9D9EC" d="M39.66,16.13c-0.88,0.75-2.01,0.9-3.04,1.3c-1,0.39-2.02,0.7-3,1.13c-0.41,0.18-0.94,0.07-1.26,0.49
			c-0.24-0.2-0.49-0.4-0.73-0.61c0.01-0.34,0.32-0.32,0.52-0.39c1.56-0.56,3.11-1.16,4.69-1.68c0.82-0.27,1.58-0.75,2.48-0.77
			c0.08,0,0.16-0.02,0.22,0.04C39.63,15.8,39.68,15.95,39.66,16.13z"/>
		<path fill="#DDDCEE" d="M39.54,15.64c-0.98,0.12-1.85,0.6-2.77,0.91c-1.62,0.55-3.23,1.13-4.84,1.7c-0.11,0.04-0.23,0.07-0.3,0.19
			c-0.2-0.16-0.48-0.24-0.61-0.48c-0.03-0.26,0.2-0.28,0.35-0.33c1.13-0.39,2.22-0.86,3.36-1.2c0.62-0.19,1.17-0.63,1.88-0.54
			c-0.48-0.06-0.99,0.18-1.45-0.12c0.14-0.17,0.33-0.12,0.51-0.12c1.14,0.05,2.28-0.2,3.42-0.13c0.15,0.01,0.31-0.07,0.46-0.11
			C39.55,15.48,39.55,15.56,39.54,15.64z"/>
		<path fill="#C94C4A" d="M26.15,1.38c-0.04,0.01-0.07,0.02-0.11,0.03c-0.1-0.05-0.06-0.17-0.11-0.25c0-0.04,0.01-0.08,0.02-0.12
			c0.07-0.04,0.13-0.08,0.2-0.12c0.01,0.04,0.03,0.07,0.04,0.11C26.17,1.15,26.16,1.26,26.15,1.38z"/>
		<path fill="#1C4897" d="M23.11,4.07c-0.01-0.92,0.55-1.7,0.66-2.6c0.03-0.27,0.16-0.53-0.18-0.69c0.09-0.14,0.26-0.21,0.37-0.11
			c0.42,0.36,1.03,0.25,1.46,0.6C24.65,2.21,23.88,3.14,23.11,4.07z"/>
		<path fill="#D5D4EA" d="M5.94,32.57c0.28,0.05,0.64-0.47,0.85,0.12c-0.12,0.16-0.24,0.33-0.36,0.49
			C6.26,32.98,6.1,32.77,5.94,32.57z"/>
		<path fill="#EE4030" d="M16.63,12.62c0.23-0.01,0.39-0.1,0.55-0.3c2.44-3.01,4.9-6.01,7.36-9c0.29-0.36,0.59-0.71,0.89-1.06
			c0.22,0.27,0.06,0.55-0.01,0.81c-1.49,5.22-3,10.43-4.48,15.65c-0.17,0.6-0.32,0.64-0.72,0.23c-0.12-0.15-0.27-0.29-0.36-0.45
			c-0.34-0.65-0.67-1.31-1-1.96c-0.14-0.26-0.19-0.57-0.46-0.75c-0.12-0.55-0.67-0.87-0.76-1.44c-0.14-0.26-0.19-0.58-0.47-0.75
			c-0.13-0.31-0.23-0.65-0.53-0.85C16.62,12.69,16.62,12.65,16.63,12.62z"/>
		<path fill="#C43326" d="M20.2,18.93c0.2,0.05,0.4,0.35,0.54-0.13c1.55-5.46,3.11-10.92,4.67-16.38c0.02-0.06,0.01-0.12,0.01-0.18
			c0.11-0.3,0.35-0.55,0.36-0.89c0.05-0.07,0.1-0.13,0.14-0.2C25.96,1.24,26,1.32,26.04,1.4c0,0.04,0,0.07-0.02,0.11
			c-0.75,3.02-1.68,5.98-2.52,8.97c-0.86,3.05-1.76,6.09-2.6,9.14c-0.02,0.06-0.06,0.12-0.12,0.16c-0.07,0-0.15,0-0.22,0
			C20.43,19.51,20.18,19.28,20.2,18.93z"/>
		<path fill="#A3A1D0" d="M12.15,22.71c-0.35-0.01-0.45-0.38-0.73-0.49c-0.09-0.32,0.1-0.59,0.18-0.88c0.28-1.04,0.58-2.07,0.88-3.1
			c0.06-0.19,0.02-0.54,0.42-0.42c0.31,0.01,0.59,0.07,0.85,0.24c-0.47,1.16-0.71,2.39-1.1,3.57
			C12.53,22.01,12.59,22.48,12.15,22.71z"/>
		<path fill="#9A96CA" d="M15.23,22.97c-0.31,0.24-0.64,0.43-1.01,0.57c-0.22-0.24-0.1-0.5-0.03-0.74c0.29-1.05,0.57-2.1,0.88-3.14
			c0.09-0.29,0.21-0.56,0.13-0.88c-0.05-0.22,0.04-0.31,0.26-0.21c0.17,0.01,0.34-0.01,0.47,0.13c0.34,0.23,0.37,0.52,0.25,0.9
			C15.85,20.71,15.49,21.82,15.23,22.97z"/>
		<path fill="#B3B1D9" d="M9.48,16.85c0.23,0.72-0.23,1.34-0.27,2.03c-0.02,0.33-0.35,0.54-0.32,0.92c0.02,0.2-0.19,0.19-0.31,0.09
			c-0.26-0.24-0.64-0.36-0.82-0.7c0.29-0.8,0.59-1.6,0.6-2.48c0-0.18,0.15-0.15,0.27-0.09C8.94,16.61,9.23,16.68,9.48,16.85z"/>
		<path fill="#A8A7D3" d="M10.93,21.73c-0.2-0.16-0.41-0.32-0.61-0.49c0.02-0.66,0.3-1.25,0.46-1.88c0.14-0.55,0.34-1.08,0.44-1.64
			c0.05-0.29,0.18-0.39,0.45-0.26c0.14,0,0.28,0,0.38,0.12c0.16,0.17,0.19,0.36,0.13,0.59c-0.3,1.05-0.59,2.1-0.9,3.15
			C11.22,21.49,11.23,21.75,10.93,21.73z"/>
		<path fill="#9795C9" d="M15.23,22.97c-0.2-0.34-0.01-0.64,0.08-0.95c0.21-0.78,0.43-1.55,0.68-2.32c0.11-0.36,0.32-0.72-0.19-0.94
			c0.01-0.02,0.02-0.04,0.03-0.05c0.04-0.01,0.08-0.02,0.12-0.03c0.3,0.03,0.59,0.09,0.85,0.24c0.13,0.33,0.13,0.65,0.01,0.99
			c-0.32,0.88-0.38,1.84-0.87,2.67C15.75,22.82,15.43,22.79,15.23,22.97z"/>
		<path fill="#A6A5D2" d="M10.93,21.73c0.42-0.98,0.66-2.01,0.9-3.04c0.08-0.32,0.55-0.67,0.06-1.04c0.05-0.02,0.1-0.05,0.15-0.07
			c0.31,0.01,0.59,0.07,0.85,0.24c-0.47,0.46-0.4,1.13-0.61,1.69c-0.33,0.89-0.44,1.85-0.87,2.71
			C11.21,22.1,11.05,21.94,10.93,21.73z"/>
		<path fill="#9492C7" d="M15.92,22.58c-0.04-0.01-0.08-0.02-0.12-0.03c0.45-0.85,0.51-1.83,0.87-2.71
			c0.13-0.32-0.02-0.63,0.11-0.92c0.3,0.04,0.59,0.09,0.85,0.24c0.07,0.27,0.06,0.53-0.02,0.79c-0.2,0.67-0.4,1.34-0.6,2.01
			C16.68,22.23,16.31,22.42,15.92,22.58z"/>
		<path fill="#B7B6DB" d="M8.63,16.61c-0.1,0.42-0.19,0.85-0.3,1.27c-0.12,0.46-0.11,0.98-0.57,1.29c-0.25-0.2-0.58-0.3-0.73-0.61
			c-0.08-0.78,0.34-1.45,0.49-2.18c0.02-0.1,0.16-0.08,0.25-0.02C8.09,16.37,8.38,16.43,8.63,16.61z"/>
		<path fill="#A09ECF" d="M12.15,22.71c0.43-1.41,0.87-2.81,1.27-4.22c0.06-0.21,0.08-0.39,0.33-0.42c0.17,0.01,0.34-0.02,0.47,0.13
			c-0.23-0.03-0.25,0.09-0.31,0.3c-0.36,1.4-0.78,2.79-1.15,4.18c-0.05,0.18-0.17,0.26-0.26,0.39
			C12.35,22.99,12.23,22.87,12.15,22.71z"/>
		<path fill="#9B99CC" d="M15.46,18.56c-0.19,0.28-0.03,0.59-0.13,0.91c-0.44,1.33-0.86,2.67-1.1,4.06
			c-0.16,0.09-0.32,0.18-0.49,0.27c-0.26-0.02-0.14-0.16-0.1-0.3c0.43-1.48,0.87-2.96,1.28-4.44c0.04-0.14,0.19-0.33-0.05-0.53
			c-0.11-0.09,0.15-0.04,0.21-0.09C15.22,18.44,15.36,18.44,15.46,18.56z"/>
		<path fill="#BBBADD" d="M7.78,16.37c-0.34,0.3-0.27,0.75-0.43,1.12c-0.14,0.34-0.21,0.72-0.31,1.08
			c-0.33-0.13-0.58-0.38-0.85-0.61c0.04-0.23,0.02-0.47,0.08-0.71c0.11-0.41,0.38-0.8,0.19-1.25c0.02-0.01,0.03-0.02,0.05-0.02
			c0.02,0,0.04,0.01,0.06,0.02C6.97,16.08,7.4,16.13,7.78,16.37z"/>
		<path fill="#C5C5E2" d="M3.87,16.01C4.08,15.8,3.58,15.46,4,15.28c0.58,0.12,1.18,0.19,1.71,0.49c-0.04,0.49,0.13,1.07-0.49,1.34
			C4.74,16.77,4.24,16.47,3.87,16.01z"/>
		<path fill="#8E8DC4" d="M18.98,20.89c-0.36,0.2-0.73,0.41-1.09,0.61c-0.3,0.12-0.36-0.08-0.36-0.3c0-0.24,0.09-0.47,0.15-0.71
			c0.09-0.35,0.25-0.67,0.09-1.06c-0.09-0.21,0.09-0.21,0.24-0.15c0.3,0.03,0.59,0.1,0.85,0.24C19.35,19.84,19.37,19.99,18.98,20.89
			z"/>
		<path fill="#BFBFDF" d="M5.21,17.11c0.33-0.35,0.39-0.78,0.35-1.23c-0.01-0.14,0.09-0.08,0.15-0.11C6,15.79,6.29,15.85,6.55,16
			c0.11,0.26,0.25,0.47,0.02,0.79c-0.24,0.32-0.16,0.81-0.39,1.17C5.86,17.67,5.53,17.39,5.21,17.11z"/>
		<path fill="#ACAAD4" d="M11.67,17.47c-0.15,0.02-0.23-0.01-0.29,0.24c-0.3,1.19-0.55,2.41-1.06,3.54
			c-0.26-0.14-0.37-0.3-0.26-0.63c0.32-1.01,0.59-2.04,0.88-3.07c0.04-0.14,0.13-0.19,0.26-0.21
			C11.36,17.35,11.54,17.32,11.67,17.47z"/>
		<path fill="#9290C6" d="M18.02,19.29c0.14,0.73-0.3,1.36-0.35,2.06c-0.01,0.12,0.13,0.13,0.23,0.15
			c-0.29,0.16-0.58,0.32-0.88,0.48c-0.14-0.65,0.28-1.19,0.37-1.79c0.04-0.31,0.41-0.63-0.01-0.95c-0.01-0.01,0.17-0.04,0.26-0.06
			C17.77,19.17,17.91,19.18,18.02,19.29z"/>
		<path fill="#8D8BC2" d="M18.98,20.89c-0.15-0.15-0.01-0.3,0.02-0.44c0.1-0.35,0.28-0.69-0.27-0.83c-0.06-0.01,0.08-0.06,0.13-0.09
			c0.55,0.12,1.11,0.25,1.66,0.37c-0.06,0.14-0.09,0.3-0.24,0.39C19.79,20.36,19.45,20.76,18.98,20.89z"/>
		<path fill="#CF3118" d="M17.15,13.57c0.42,0.09,0.46,0.41,0.47,0.75C17.34,14.15,17.28,13.84,17.15,13.57z"/>
		<path fill="#CF3118" d="M18.38,15.76c0.41,0.09,0.45,0.41,0.46,0.75C18.57,16.34,18.47,16.05,18.38,15.76z"/>
		<path fill="#F6A7A4" d="M24.44,28.31c0.25,0.3,0.07,0.65,0.13,0.98c-0.92,1.01-1.85,2.02-2.77,3.04c-0.34-0.54,0.37-0.57,0.1-0.96
			C22.75,30.34,23.59,29.32,24.44,28.31z"/>
		<path fill="#FEFEFE" d="M20.67,20.27c0.02-0.04,0.04-0.08,0.06-0.12c0.37,0.16,0.47,0.53,0.64,0.84c1,1.85,2.04,3.68,3.05,5.52
			c0.16,0.29,0.43,0.56,0.28,0.95c-0.01,0.04-0.02,0.08-0.04,0.12c-0.96,0.96-1.74,2.07-2.61,3.11c-1.58,1.89-3.12,3.82-4.67,5.73
			c-0.48,0.59-0.98,1.18-1.47,1.77c-0.13,0.02-0.18-0.06-0.21-0.16c0.42-1.95,1.06-3.84,1.6-5.76c1.05-3.71,2.1-7.41,3.19-11.11
			C20.6,20.86,20.6,20.56,20.67,20.27z"/>
		<path fill="#EFE9EA" d="M15.8,38.05c0.04,0.04,0.09,0.08,0.13,0.13c-0.2,0.2-0.23,0.57-0.6,0.6c0.03-0.08,0.07-0.16,0.1-0.24
			C15.6,38.41,15.44,38.03,15.8,38.05z"/>
		<path fill="#8584BF" d="M24.71,27.45c-0.67-1.47-1.54-2.84-2.3-4.27c-0.54-1.02-1.11-2.02-1.67-3.03c0.05-0.05,0.1-0.09,0.15-0.14
			c0.05,0.04,0.09,0.09,0.14,0.13c0.39,0.17,0.52,0.55,0.7,0.88c1.08,2.01,2.26,3.96,3.28,6c0.02,0.14-0.05,0.23-0.17,0.29
			c-0.01,0.04-0.01,0.09-0.02,0.13c0,0-0.05,0.01-0.05,0.01L24.71,27.45z"/>
		<path fill="#9391C7" d="M32.73,32.69c-0.24-0.16-0.48-0.33-0.73-0.49c0.12-0.86,0.41-1.67,0.64-2.5c0.23-0.83,0.47-1.67,0.71-2.5
			c0.07-0.23,0.16-0.44,0.34-0.6c0.3-0.23,0.65-0.07,0.98-0.12c0.06-0.06,0.11-0.05,0.15,0.03c-0.68,1.28-0.85,2.72-1.3,4.07
			c-0.18,0.55-0.34,1.12-0.51,1.68C32.96,32.44,32.93,32.62,32.73,32.69z"/>
		<path fill="#8B89C2" d="M34.79,26.48c-0.04,0-0.08,0-0.12,0c0.26-0.23,0.57-0.07,0.85-0.12c0.16,0,0.32,0,0.49,0
			c-0.71,2.16-1.28,4.36-1.93,6.54c-0.06,0.21-0.13,0.43-0.38,0.51c-0.16-0.12-0.33-0.24-0.49-0.36c0.14-0.9,0.47-1.74,0.69-2.62
			c0.28-1.08,0.61-2.13,0.9-3.2C34.88,26.98,35,26.73,34.79,26.48z"/>
		<path fill="#9A97CB" d="M31.51,31.83c-0.16-0.12-0.33-0.24-0.49-0.36c-0.02-0.64,0.27-1.2,0.42-1.8c0.18-0.72,0.41-1.42,0.58-2.15
			c0.04-0.18,0.17-0.39-0.08-0.53c-0.08-0.04-0.15-0.08-0.2-0.16c0.3-0.23,0.65-0.07,0.98-0.12c0.19-0.09,0.44-0.13,0.57,0
			c0.17,0.17-0.08,0.36-0.13,0.54c-0.35,1.2-0.72,2.4-1.03,3.62C32.03,31.25,32.03,31.72,31.51,31.83z"/>
		<path fill="#9694C9" d="M31.51,31.83c0.33-0.28,0.37-0.7,0.48-1.08c0.32-1.12,0.63-2.24,0.94-3.36c0.06-0.22,0.14-0.42,0.29-0.6
			c-0.16-0.14-0.34-0.04-0.51-0.07c0.3-0.23,0.65-0.07,0.97-0.12c0.18,0.23-0.12,0.32-0.16,0.48c-0.4,1.53-0.86,3.05-1.28,4.58
			c-0.06,0.21-0.16,0.36-0.26,0.53C31.84,32.08,31.67,31.96,31.51,31.83z"/>
		<path fill="#ADABD5" d="M28.95,30.01c-0.16-0.12-0.33-0.24-0.49-0.36c-0.08-0.8,0.33-1.48,0.5-2.22c0.23-0.26-0.23-0.06-0.15-0.22
			c0.3-0.21,0.65-0.08,0.98-0.12c0.12-0.08,0.24-0.06,0.37-0.03c-0.37,0.77-0.55,1.61-0.8,2.41C29.3,29.71,29.24,29.95,28.95,30.01z
			"/>
		<path fill="#A6A4D2" d="M30.17,27.09c-0.12,0-0.25,0-0.37,0c0.3-0.22,0.65-0.08,0.97-0.12c0.09-0.07,0.18-0.06,0.27-0.01
			c-0.42,0.95-0.6,1.96-0.92,2.94c-0.08,0.25-0.13,0.52-0.44,0.6c-0.12-0.08-0.24-0.16-0.36-0.25c0.2-0.98,0.51-1.93,0.81-2.89
			C30.16,27.28,30.23,27.2,30.17,27.09z"/>
		<path fill="#A09ECF" d="M31.02,26.97c-0.08,0-0.17,0-0.25,0c0.3-0.22,0.65-0.07,0.97-0.12c0.08,0,0.17,0,0.25,0
			c-0.61,1.09-0.79,2.31-1.16,3.48c-0.09,0.29-0.16,0.6-0.54,0.65c-0.12-0.04-0.2-0.12-0.25-0.23c0.28-1.08,0.64-2.14,0.93-3.21
			C31.02,27.35,31.17,27.17,31.02,26.97z"/>
		<path fill="#B3B1D9" d="M28.82,27.21c0.07,0.06,0.27-0.12,0.25,0.13c-0.41,0.33-0.44,0.84-0.59,1.29
			c-0.09,0.28-0.11,0.62-0.51,0.66c-0.18-0.1-0.4-0.15-0.49-0.36c0.11-0.56,0-1.22,0.61-1.54c-0.03-0.01-0.17,0.08-0.26-0.04
			C28.15,27.12,28.5,27.25,28.82,27.21z"/>
		<path fill="#202C7E" d="M32.38,26.37c-1.09,0.28-2.22,0.3-3.33,0.47c-0.43,0.06-0.87,0.21-1.32,0.13
			c-0.09-0.14-0.38,0.07-0.37-0.22c0.06-0.09,0.15-0.14,0.25-0.15c1.28-0.16,2.55-0.39,3.84-0.51c0.12-0.01,0.24,0.01,0.36,0.03
			C32.01,26.18,32.23,26.19,32.38,26.37z"/>
		<path fill="#B7B6DB" d="M27.85,27.33c0.12,0,0.24,0,0.5,0c-0.82,0.35-0.43,1.15-0.86,1.59c-0.2-0.12-0.4-0.24-0.61-0.37
			c-0.1-0.32-0.04-0.64,0.19-0.84c0.29-0.25-0.17-0.14-0.09-0.26C27.25,27.26,27.56,27.36,27.85,27.33z"/>
		<path fill="#BAB9DD" d="M26.98,27.45c0.09,0.06,0.43-0.09,0.23,0.21c-0.18,0.28-0.17,0.61-0.33,0.89
			c-0.21-0.15-0.44-0.28-0.63-0.46c-0.11-0.11-0.47-0.23-0.09-0.46c-0.09-0.02-0.18-0.04-0.27-0.06
			C26.24,27.37,26.62,27.48,26.98,27.45z"/>
		<path fill="#1E297D" d="M32.38,26.37c-0.17-0.03-0.37,0.05-0.5-0.13c0.71-0.42,1.51-0.38,2.29-0.41c0.17,0.04,0.38,0.03,0.39,0.29
			C33.83,26.22,33.12,26.4,32.38,26.37z"/>
		<path fill="#212D7F" d="M24.83,27.31c0.03-0.07,0.07-0.15,0.1-0.22c0.29-0.35,0.68-0.29,1.07-0.24c0.22,0.09,0.48,0.05,0.65,0.25
			C26.05,27.26,25.45,27.38,24.83,27.31z"/>
		<path fill="#172378" d="M27.37,26.85c0.13,0.01,0.28-0.02,0.36,0.12c-0.24,0.07-0.47,0.18-0.73,0.1
			c-0.12-0.07-0.22-0.14-0.07-0.28C27.09,26.71,27.24,26.72,27.37,26.85z"/>
		<path fill="#172378" d="M26.88,26.86c0.04,0.07,0.08,0.14,0.12,0.21c-0.12,0.01-0.24,0.02-0.35,0.03
			c-0.21-0.04-0.44,0.08-0.62-0.12C26.29,26.77,26.56,26.64,26.88,26.86z"/>
		<path fill="#202B7E" d="M34.55,26.11c-0.09-0.14-0.23-0.11-0.37-0.12c0.1-0.31,0.29-0.24,0.49-0.12c0.18,0.21,0.42,0.08,0.63,0.13
			C35.07,26.18,34.81,26.1,34.55,26.11z"/>
		<path fill="#8E8DC4" d="M34.79,26.48c0.29-0.01,0.39,0.08,0.3,0.4c-0.52,1.82-1.02,3.64-1.54,5.46c-0.07,0.25-0.22,0.47-0.34,0.71
			c-0.16-0.12-0.33-0.24-0.49-0.36c0.49-1.72,0.97-3.45,1.47-5.16C34.31,27.14,34.33,26.68,34.79,26.48z"/>
		<path fill="#9E9BCD" d="M30.3,30.98c0.52-0.47,0.47-1.16,0.68-1.75c0.22-0.62,0.38-1.25,0.55-1.89c0.07-0.27,0.29-0.35,0.48-0.5
			c0.19,0,0.42,0,0.33,0.28c-0.46,1.44-0.73,2.94-1.3,4.34C30.78,31.31,30.54,31.15,30.3,30.98z"/>
		<path fill="#8887C1" d="M33.71,33.41c0.44-0.98,0.63-2.03,0.94-3.05c0.33-1.07,0.59-2.16,0.89-3.24c0.08-0.3,0.24-0.55,0.47-0.76
			c0.13,0.02,0.24,0.06,0.19,0.23c-0.67,2.29-1.35,4.57-2.02,6.86c-0.02,0.08-0.07,0.14-0.11,0.22
			C33.95,33.58,33.83,33.49,33.71,33.41z"/>
		<path fill="#A3A1D0" d="M31.02,26.97c0.15,0.02,0.34-0.06,0.25,0.24c-0.32,1.03-0.71,2.04-0.91,3.11
			c-0.03,0.16-0.21,0.28-0.32,0.43c-0.17-0.01-0.29-0.09-0.36-0.25c0.46-0.84,0.59-1.78,0.85-2.68
			C30.62,27.49,30.71,27.17,31.02,26.97z"/>
		<path fill="#A8A7D3" d="M30.17,27.09c0.05,0.02,0.15,0.06,0.15,0.07c-0.35,1.03-0.46,2.13-1,3.1c-0.12-0.08-0.24-0.16-0.36-0.24
			c0.4-0.69,0.5-1.48,0.73-2.22C29.77,27.49,29.88,27.23,30.17,27.09z"/>
		<path fill="#AEAED8" d="M27.98,29.28c0.44-0.43,0.42-1.03,0.59-1.56c0.09-0.29,0.22-0.41,0.51-0.39c-0.08,0.8-0.39,1.55-0.61,2.31
			C28.3,29.53,28.14,29.41,27.98,29.28z"/>
		<path fill="#FEEA84" d="M7.52,6.51C7.7,6.61,7.9,6.67,8.01,6.87C8.01,7.74,7.57,8.49,7.37,9.31c-0.29,1.13-0.6,2.27-0.95,3.39
			c-0.09,0.3-0.06,0.58,0.01,0.88c-0.32,0.1-0.64,0.14-0.97,0.12c-0.15-0.31-0.07-0.63,0.01-0.94C6.03,10.82,6.6,8.9,7.15,6.97
			C7.22,6.73,7.41,6.67,7.52,6.51z"/>
		<path fill="#FEE473" d="M9.59,7.98c0.51,0.33,1.02,0.66,1.47,1.08c-0.13,0.91-0.33,1.79-0.7,2.64c-0.19,0.44-0.29,0.9-0.16,1.39
			c-0.64,0.13-1.29,0.22-1.95,0.24c-0.52-0.02-0.52-0.35-0.41-0.72c0.31-1.13,0.6-2.26,0.95-3.38C8.87,8.98,8.94,8.73,9,8.47
			C9.08,8.17,9.24,7.96,9.59,7.98z"/>
		<path fill="#FEE87F" d="M6.43,13.57c-0.18-0.13-0.35-0.17-0.25-0.53c0.49-1.63,0.88-3.29,1.38-4.91c0.13-0.42,0.16-0.89,0.45-1.26
			C8.32,7.04,8.64,7.2,8.86,7.48c-0.45,1.47-0.87,2.96-1.29,4.44c-0.14,0.5-0.29,1-0.29,1.53C7.01,13.6,6.72,13.57,6.43,13.57z"/>
		<path fill="#FEE069" d="M10.2,13.08c-0.54-0.49-0.09-1,0.03-1.46c0.18-0.69,0.57-1.32,0.53-2.06c-0.01-0.24,0.25-0.3,0.3-0.5
			c0.48,0.33,0.97,0.66,1.45,0.98c-0.69,0.54-0.58,1.42-0.89,2.12c-0.14,0.32,0.18,0.44,0.33,0.61c-0.22,0.23-0.48,0.03-0.66,0.19
			C10.93,13,10.57,13.04,10.2,13.08z"/>
		<path fill="#FEE67B" d="M7.28,13.45c-0.11-0.13-0.23-0.22-0.16-0.46C7.61,11.3,8.06,9.6,8.55,7.91c0.05-0.16,0.21-0.28,0.32-0.43
			c0.29,0.1,0.49,0.33,0.72,0.5C8.95,8.24,9.1,8.9,8.93,9.37c-0.38,1.08-0.6,2.21-0.95,3.3c-0.11,0.36,0.01,0.51,0.27,0.65
			C7.94,13.5,7.61,13.43,7.28,13.45z"/>
		<path fill="#FEDD5F" d="M11.3,12.96c0.12-0.19,0.35-0.06,0.51-0.18c-0.3-0.11-0.55-0.16-0.34-0.62c0.22-0.46,0.27-1.01,0.39-1.52
			c0.08-0.35,0.27-0.57,0.65-0.6c0.33,0.24,0.65,0.48,0.98,0.73c0.07,0.33-0.1,0.62-0.14,0.93c-0.03,0.17-0.13,0.3,0.07,0.5
			c0.31,0.32-0.12,0.38-0.3,0.52C12.52,12.86,11.92,12.96,11.3,12.96z"/>
		<path fill="#FEDA52" d="M13.12,12.72c0.01-0.18,0.67-0.37-0.01-0.53c-0.03-0.01-0.06-0.13-0.04-0.16
			c0.25-0.38,0.13-0.88,0.41-1.25c0.64,0.4,1.28,0.81,1.83,1.34c0.13,0.18,0.02,0.28-0.13,0.36C14.5,12.56,13.83,12.74,13.12,12.72z
			"/>
		<path fill="#FED740" d="M15.19,12.47c0.04-0.12,0.08-0.24,0.13-0.36c0.24,0.01,0.38,0.17,0.48,0.37
			C15.6,12.47,15.39,12.47,15.19,12.47z"/>
		<path fill="#293895" d="M34.67,25.87c-0.17,0.01-0.36-0.06-0.49,0.12c-0.78-0.04-1.54,0.19-2.31,0.25
			c-1.19,0.01-2.35,0.29-3.52,0.44c-0.32,0.04-0.7-0.09-0.99,0.17c-0.16,0-0.32,0.01-0.49,0.01c-0.28,0.04-0.57,0.08-0.85,0.12
			c-0.37-0.02-0.74,0-1.1,0.12c-1.17-2.11-2.35-4.22-3.53-6.33c-0.12-0.21-0.25-0.41-0.38-0.61c1.32,0.24,2.58,0.68,3.86,1.05
			c4.56,1.3,9.11,2.61,13.67,3.92c0.19,0.05,0.41,0.04,0.51,0.27c-1.16-0.01-2.3,0.23-3.44,0.41
			C35.31,25.84,34.99,25.85,34.67,25.87z"/>
		<path fill="#EE402F" d="M28.33,16.03c0.01,0.04,0.02,0.07,0.03,0.11c1.28,1.17,2.67,2.2,4.02,3.29c2.2,1.79,4.4,3.58,6.59,5.38
			c0.12,0.1,0.29,0.16,0.32,0.34c-0.86-0.23-1.39-0.94-2.07-1.43c-0.59-0.42-1.13-0.91-1.69-1.37c-0.26-0.06-0.5-0.18-0.69-0.38
			c-0.19-0.18-0.41-0.33-0.59-0.52c-0.19-0.18-0.42-0.31-0.61-0.49c-0.24-0.21-0.5-0.38-0.73-0.59c-0.17-0.13-0.35-0.25-0.5-0.39
			c-0.28-0.22-0.57-0.44-0.83-0.7c-0.22-0.16-0.43-0.32-0.62-0.51c-0.16-0.15-0.35-0.26-0.52-0.39c-0.31-0.27-0.5-0.34-0.65,0.19
			c-0.22,0.81-0.45,1.63-0.71,2.43c-0.1,0.33-0.11,0.66-0.15,1c0,0.01-0.03,0.02-0.04,0.02c-0.02,0-0.04-0.01-0.06-0.02
			c-1.1-0.17-2.14-0.57-3.2-0.87c-1.33-0.38-2.69-0.68-3.98-1.2c-0.01-0.34,0.28-0.41,0.5-0.53c1.7-0.93,3.38-1.88,5.09-2.8
			c0.3-0.16,0.58-0.37,0.87-0.54C28.18,16.04,28.25,16.03,28.33,16.03z"/>
		<path fill="#DD3B2C" d="M31.63,19.18c0.28,0.24,0.57,0.49,0.85,0.73c-0.18,0.74-0.44,1.46-0.63,2.21
			c-0.06,0.24-0.08,0.58-0.47,0.6c-0.31,0.01-0.6-0.04-0.85-0.24c0.11-1.04,0.5-2.01,0.79-3.01C31.36,19.33,31.4,19.13,31.63,19.18z
			"/>
		<path fill="#E23D2D" d="M31.63,19.18c-0.45,0.99-0.68,2.05-0.93,3.11c-0.03,0.12-0.06,0.17-0.17,0.18
			c-0.17-0.02-0.36,0.05-0.49-0.12c-0.23-0.16-0.25-0.38-0.17-0.63c0.26-0.87,0.45-1.75,0.74-2.61c0.07-0.2,0.09-0.46,0.41-0.41
			C31.22,18.85,31.43,19.01,31.63,19.18z"/>
		<path fill="#E93F2F" d="M28.83,21.98c-0.15-0.48,0.08-0.91,0.19-1.35c0.2-0.81,0.45-1.61,0.67-2.41c0.13-0.46,0.29-0.44,0.84,0.1
			c-0.37,1.18-0.73,2.36-1.01,3.56c-0.02,0.1-0.02,0.26-0.21,0.22C29.15,22.08,28.96,22.15,28.83,21.98z"/>
		<path fill="#F9CBC5" d="M20.78,19.79c0-0.04,0.01-0.08,0.01-0.12c0.06-0.07,0.09-0.17,0.2-0.16c2.13-1.19,4.25-2.37,6.38-3.56
			c0.21-0.11,0.42-0.31,0.6,0.04c-0.46,0.64-1.22,0.82-1.85,1.19c-1.41,0.82-2.85,1.57-4.26,2.39c-0.27,0.15-0.56,0.21-0.84,0.33
			c-0.04,0-0.08,0-0.12,0.01C20.87,19.87,20.83,19.83,20.78,19.79z"/>
		<path fill="#E63E2F" d="M29.31,22.1c0.31-1.14,0.61-2.28,0.92-3.41c0.04-0.16,0.13-0.3,0.3-0.36c0.18,0.1,0.4,0.15,0.49,0.37
			c-0.44,0.46-0.4,1.1-0.62,1.64c-0.2,0.49-0.26,1.04-0.44,1.54c-0.08,0.22,0.14,0.31,0.08,0.48C29.78,22.33,29.53,22.27,29.31,22.1
			z"/>
		<path fill="#D5382B" d="M32.97,20.27c0.24,0.21,0.54,0.34,0.73,0.61c0.07,0.31,0.01,0.61-0.11,0.88
			c-0.22,0.46-0.16,1.02-0.49,1.44c-0.3-0.03-0.59-0.08-0.85-0.24c-0.14-0.08-0.21-0.21-0.17-0.35c0.2-0.72,0.3-1.47,0.63-2.15
			C32.75,20.34,32.81,20.23,32.97,20.27z"/>
		<path fill="#EE4030" d="M21.03,19.9c2.32-1.3,4.63-2.6,6.95-3.9c0.04,0.01,0.08,0.03,0.12,0.04c-0.11,0.41-0.49,0.5-0.8,0.67
			c-1.72,0.95-3.45,1.89-5.18,2.84c-0.17,0.1-0.32,0.24-0.48,0.36C21.44,19.91,21.23,19.9,21.03,19.9z"/>
		<path fill="#D93A2C" d="M32.97,20.27c-0.43,0.84-0.66,1.74-0.73,2.68c-0.3-0.02-0.59-0.08-0.85-0.24c0.5-0.67,0.5-1.51,0.78-2.26
			c0.08-0.21,0.09-0.43,0.32-0.54C32.65,20.03,32.81,20.15,32.97,20.27z"/>
		<path fill="#CE3729" d="M34.31,21.37c0.2,0.16,0.4,0.33,0.6,0.49c0.03,0.62,0.02,1.23-0.48,1.7c-0.31,0.01-0.6-0.04-0.85-0.24
			c-0.03-0.6,0.19-1.14,0.4-1.68C34.03,21.5,34.09,21.32,34.31,21.37z"/>
		<path fill="#D13729" d="M34.31,21.37c-0.33,0.43-0.42,0.95-0.54,1.46c-0.04,0.17-0.03,0.36-0.19,0.49
			c-0.17-0.02-0.36,0.06-0.49-0.12c0.02-0.82,0.42-1.54,0.61-2.31C33.9,21.04,34.18,21.12,34.31,21.37z"/>
		<path fill="#CA3528" d="M34.43,23.56c0.16-0.57,0.32-1.13,0.48-1.7c0.2,0.16,0.41,0.32,0.61,0.49c-0.23,0.44-0.3,0.92-0.36,1.45
			C34.94,23.61,34.63,23.78,34.43,23.56z"/>
		<path fill="#E1E0F0" d="M35.16,15.76c0.57,0,1.13,0,1.7,0c-0.96,0.27-1.84,0.74-2.78,1.05c-1.03,0.34-2.07,0.68-3.06,1.15
			c-0.16-0.12-0.32-0.25-0.48-0.37c-0.16-0.36,0.16-0.41,0.35-0.49c1.16-0.47,2.32-0.92,3.53-1.22
			C34.64,15.67,34.91,15.8,35.16,15.76z"/>
		<path fill="#E4E4F1" d="M34.42,15.88c0.02,0,0.04,0,0.06,0.01c0.05,0.02,0.12,0.09,0.04,0.1c-0.87,0.17-1.69,0.51-2.51,0.83
			c-0.51,0.2-1.16,0.18-1.48,0.77c-0.37-0.32-0.73-0.65-1.1-0.97c0.13-0.48,0.54-0.39,0.89-0.43c0.02,0,0.03,0.02,0.05,0.02
			c0.01-0.1-0.09-0.01-0.11-0.07c-0.02-0.05-0.02-0.09,0.02-0.13c0.36,0,0.73,0,1.09-0.01c0.35-0.15,0.75,0.04,1.1-0.12
			c0.32,0,0.65,0,0.97,0c0.29-0.09,0.58-0.09,0.86,0C34.35,15.88,34.39,15.88,34.42,15.88z"/>
		<path fill="#EFEBF1" d="M30.29,16.13c0.12,0,0.23,0,0.53,0c-0.57,0.23-1.05,0.15-1.38,0.49c-0.2-0.16-0.4-0.32-0.61-0.48
			c0.16,0,0.32,0,0.48-0.01C29.64,16.04,29.97,16.03,30.29,16.13z"/>
		<path fill="#C94C4A" d="M21,19.51c-0.07,0.05-0.14,0.1-0.2,0.16c0.36-1.32,0.72-2.65,1.09-3.97c1.26-4.43,2.52-8.86,3.79-13.29
			c0.09-0.31,0.14-0.63,0.34-0.9c0.08,0.92-0.33,1.74-0.57,2.58c-1.39,4.93-2.81,9.86-4.22,14.78C21.16,19.1,21.08,19.3,21,19.51z"
			/>
		<path fill="#E0DFEF" d="M32.48,15.89c-0.35,0.24-0.73,0.07-1.1,0.12C31.73,15.77,32.12,15.93,32.48,15.89z"/>
		<path fill="#E0DFEF" d="M30.29,16.13c-0.33,0-0.65,0-0.98,0c0.3-0.23,0.65-0.07,0.98-0.12C30.29,16.05,30.29,16.09,30.29,16.13z"
			/>
		<path fill="#E0DFEF" d="M34.32,15.88c-0.29,0-0.58,0-0.86,0C33.74,15.7,34.03,15.7,34.32,15.88z"/>
		<path fill="#D3D3EA" d="M15.8,38.05c-0.12,0.16-0.25,0.32-0.37,0.48c0.27-1.37,0.72-2.69,1.1-4.03c1.3-4.57,2.61-9.13,3.92-13.69
			c0.05-0.19,0.08-0.4,0.23-0.55c0.13,0.3,0.05,0.6-0.03,0.88c-1.38,4.8-2.76,9.59-4.14,14.39C16.26,36.38,16.03,37.21,15.8,38.05z"
			/>
	</g>
</g>
</svg>
