<?xml version="1.0" encoding="utf-8"?>
<!-- Generator: Adobe Illustrator 25.0.0, SVG Export Plug-In . SVG Version: 6.00 Build 0)  -->
<svg version="1.1" baseProfile="tiny" id="Layer_1" xmlns="http://www.w3.org/2000/svg" xmlns:xlink="http://www.w3.org/1999/xlink"
	 x="0px" y="0px" viewBox="0 0 40.08 40" overflow="visible" xml:space="preserve">
<path fill="#01937A" d="M38.24,12.27c-1.9-4.59-5.19-7.88-9.67-9.99c-0.25-0.12-0.59-0.5-0.84-0.14c-0.34,0.5,0.29,0.53,0.5,0.76
	c0.15,0.16,0.38,0.26,0.56,0.39c6.11,4.73,8.55,11.06,8.14,18.66c-1.11-2.69-2.8-4.91-5.17-6.73c-0.28,1.45-0.45,2.76-0.81,4.01
	c-0.2,0.7-0.04,1.08,0.46,1.51c1.4,1.21,2.58,2.59,3.17,4.39c0.85,2.59-0.26,4.66-2.92,5.35c-2.57,0.68-4.85-0.22-7.07-1.38
	c-0.62-0.32-0.31-0.6,0-0.93c1.21-1.31,2.3-2.73,3.11-4.33c2.91-5.74,3.83-11.63,0.88-17.62C26.53,2.1,23.18-0.09,18.46,0
	C8.23,0.2-1.36,11.51,0.16,21.65c0.04,0.28-0.04,0.67,0.62,0.82c0.21-3.85,1.31-7.38,3.55-10.53c2.47-3.47,6.71-7.04,8.64-7.11
	c-1.71,2.22-2.95,4.59-3.17,7.61c1.35-0.68,2.54-1.14,3.78-1.39c0.78-0.15,1-0.53,1.15-1.24c0.4-1.89,1.09-3.68,2.53-5.07
	c1.74-1.69,3.83-1.72,5.61-0.07c1.64,1.52,2.22,3.52,2.43,5.66c0.2,1.99,0.17,1.99-1.71,1.61c-0.54-0.11-1.08-0.2-1.62-0.27
	c-7.22-1.03-15.4,2.67-18.79,8.54c-2.3,3.99-2.16,7.93,0.46,11.73c5.87,8.54,19.14,10.73,27.46,4.55c0.26-0.19,0.68-0.33,0.43-0.88
	c-7.44,3.57-14.55,2.62-21.44-1.52c2.81,0.03,5.59,0,8.24-1.33c-1.07-0.92-2.11-1.73-3.05-2.64c-0.49-0.47-0.88-0.6-1.55-0.37
	c-1.74,0.59-3.54,0.92-5.39,0.51c-2.73-0.6-3.95-2.68-3.09-5.35c0.64-2,2.04-3.43,3.68-4.65c1.47-1.08,1.45-1.06,2.08,0.67
	c2.37,6.55,6.72,11.14,13.46,13.15c6.03,1.8,11.15-0.2,13.68-5.23C40.89,23.34,40.53,17.79,38.24,12.27z M19.14,24.74
	c-1.62-2.02-2.73-4.28-3.49-6.73c-0.22-0.71,0.1-0.89,0.67-0.95c0.99-0.11,1.99-0.2,2.67-0.27c1.87,0.05,3.4,0.24,4.91,0.55
	c0.61,0.12,0.83,0.33,0.56,1.01c-0.95,2.4-2.32,4.51-4.04,6.43C19.93,25.31,19.61,25.33,19.14,24.74z"/>
</svg>
