<?xml version="1.0" encoding="utf-8"?>
<!-- Generator: Adobe Illustrator 25.0.0, SVG Export Plug-In . SVG Version: 6.00 Build 0)  -->
<svg version="1.1" baseProfile="tiny" xmlns="http://www.w3.org/2000/svg" xmlns:xlink="http://www.w3.org/1999/xlink" x="0px"
	 y="0px" viewBox="0 0 61.7 40" overflow="visible" xml:space="preserve">
<g id="Layer_2">
</g>
<g id="Layer_1">
	<g>
		<rect x="12.12" y="29.6" fill="#F9FBF9" width="31.84" height="10.19"/>
		<path fill="#E86924" d="M19.36,35.27c0.04-0.14,0-0.19-0.14-0.15c-0.23,0.06-0.45,0.13-0.68,0.19c-0.46,0.12-0.63,0.37-0.61,0.87
			c0.08,0.03,0.15-0.02,0.22-0.06c0.19-0.1,0.34-0.06,0.47,0.11c0.13,0.18,0.04,0.31-0.07,0.45c-0.14,0.18-0.35,0.26-0.54,0.32
			c-0.31,0.09-0.4,0.27-0.38,0.57c0.01,0.24,0.05,0.47,0.16,0.68c0.15,0.29,0.4,0.55,0.46,0.85c0.13,0.78,0.68,0.66,1.21,0.67
			c0.28,0,0.29-0.09,0.21-0.32C19.14,38.08,18.92,36.7,19.36,35.27z"/>
		<path fill="#E86A24" d="M37.47,35.67c-0.17,0.03-0.17,0.08-0.1,0.21c0.18,0.34,0.23,0.7,0.14,1.08c-0.04,0.17-0.09,0.4-0.27,0.42
			c-0.18,0.02-0.22-0.22-0.31-0.36c-0.08-0.13-0.08-0.38-0.25-0.35c-0.19,0.04-0.23,0.28-0.25,0.47c-0.01,0.09-0.01,0.18-0.01,0.27
			c-0.01,0.68,0.22,1.29,0.49,1.9c0.15,0.35,0.34,0.54,0.68,0.45c0.11,0,0.16-0.01,0.22,0c0.32,0.04,0.43-0.06,0.33-0.39
			c-0.08-0.28-0.1-0.57-0.14-0.86c-0.1-0.73-0.21-1.46,0.06-2.19C38.34,35.52,38.32,35.52,37.47,35.67z"/>
		<path fill="#E96A24" d="M21.54,36.84c-0.24-0.25-0.51-0.48-0.75-0.72c-0.14-0.14-0.24-0.13-0.35,0.03
			c-0.28,0.42-0.47,0.84-0.36,1.38c0.11,0.53,0.21,1.05,0.33,1.58c0.17,0.69,0.16,0.69,0.87,0.65c0.01,0,0.02,0,0.03,0
			c0.16,0.01,0.21-0.06,0.21-0.22c0-0.68,0.02-1.37,0.09-2.07C21.54,37.27,21.71,37.02,21.54,36.84z"/>
		<path fill="#E96A24" d="M23.99,37.08c0.05-0.42-0.16-0.7-0.58-0.74c-0.45-0.05-0.83,0.25-0.89,0.71c-0.09,0.77-0.17,1.53-0.26,2.3
			c-0.04,0.41-0.04,0.42,0.44,0.41c0.27,0.09,0.39-0.08,0.48-0.37c0.12-0.41,0.31-0.79,0.45-1.19
			C23.77,37.83,23.94,37.47,23.99,37.08z"/>
		<path fill="#F2C19F" d="M42.96,36.28c-0.13-0.32-0.19-0.34-0.39-0.13C42.78,35.94,42.85,36.15,42.96,36.28z"/>
		<path fill="#E96923" d="M61.37,22.19c-0.42-2.28-1.26-4.39-2.53-6.33c-1.31-2-2.9-3.72-4.91-5.06c-1.51-1.01-2.76-2.27-3.69-3.85
			c-0.35-0.6-0.89-1.01-1.57-1.33c0.04,0.35,0.27,0.57,0.31,0.88c-0.51,0.04-0.92-0.17-1.33-0.42c-0.19-0.11-0.28-0.22-0.04-0.38
			c0.08-0.06,0.18-0.13,0.15-0.24c-0.03-0.13-0.16-0.15-0.27-0.16c-0.77-0.09-1.54-0.13-2.31,0.05c-0.96,0.22-1.88,0.59-2.85,0.81
			c-0.09,0.02-0.22,0.01-0.24,0.14c-0.02,0.15,0.11,0.19,0.2,0.24c0.36,0.19,0.6,0.5,0.81,0.84c0.23,0.37,0.45,0.75,0.67,1.13
			c0.09,0.15,0.21,0.22,0.39,0.21c0.34-0.02,0.67,0.02,0.98,0.18c0.06,0.03,0.15,0.07,0.22,0c0.06-0.07,0.04-0.15,0.01-0.22
			c-0.02-0.06-0.06-0.12-0.08-0.18c-0.03-0.08-0.09-0.18,0-0.25c0.08-0.07,0.2-0.16,0.3-0.08c0.4,0.32,0.88,0.21,1.32,0.28
			c0.25,0.04,0.48,0.12,0.59,0.42c-0.43,0.07-0.85,0.1-1.26,0.21c-0.41,0.11-0.41,0.1-0.25,0.48c0.04,0.1,0.12,0.26-0.08,0.22
			c-0.4-0.08-0.84,0.01-1.18-0.31c-0.05-0.04-0.09-0.15-0.18-0.05c-0.09,0.1-0.02,0.16,0.05,0.23c0.16,0.14,0.31,0.3,0.48,0.43
			c0.95,0.73,1.94,1.36,3.22,1.2c0.51-0.06,1.02-0.16,1.53-0.21c0.47-0.05,0.95-0.11,1.39,0.1c0.42,0.2,0.84,0.43,1.24,0.67
			c1.86,1.11,3.27,2.67,4.48,4.44c1.09,1.6,1.88,3.34,2.31,5.23c0.49,2.13,0.46,4.28,0.08,6.42c-0.38,2.1-1.14,4.03-2.62,5.62
			c-0.9,0.96-1.9,1.78-3.18,2.17c-0.89,0.27-1.78,0.31-2.67-0.05c-0.33-0.13-0.44-0.27-0.35-0.64c0.28-1.14,0.39-2.3,0.42-3.47
			C51,28.2,50.48,25,48.9,22.03c-0.91-1.73-1.99-3.33-3.59-4.52c-0.84-0.63-1.74-1.11-2.84-1.06c-1.28,0.06-2.11,0.78-2.23,2.06
			c-0.03,0.38-0.18,0.57-0.51,0.67c-0.1,0.03-0.19,0.08-0.28,0.12c-1.15,0.45-2.32,0.71-3.55,0.46c-1.07-0.22-2.01-0.76-2.93-1.32
			c-0.14-0.08-0.19-0.21-0.19-0.37c0.01-0.34-0.01-0.67,0.01-1.01c0.01-0.2-0.05-0.32-0.24-0.42c-0.39-0.19-0.67-0.48-0.75-0.93
			c-0.01-0.08-0.05-0.17,0.02-0.22c0.07-0.05,0.15,0,0.22,0.03c0.17,0.07,0.29,0.25,0.53,0.26c-0.05-0.56-0.15-1.09-0.34-1.61
			c-0.11-0.31-0.26-0.56-0.65-0.57c-0.13,0-0.26-0.08-0.37-0.14c-0.42-0.26-0.72-0.6-0.78-1.16c0.36,0.18,0.7,0.28,1.09,0.36
			c-0.34-0.85-0.4-1.73-0.71-2.54c-0.36-0.97-0.7-1.95-1.58-2.61c-0.3-0.23-0.59-0.48-0.85-0.76c-0.25-0.26-0.47-0.53-0.87-0.58
			c-0.18-0.02-0.46-0.66-0.35-0.77c0.16-0.15,0.27,0.1,0.43,0.12c0.02,0,0.04-0.01,0.1-0.04c-0.12-0.33-0.23-0.67-0.35-1
			c-0.4-1.08-0.92-2.07-1.87-2.78c-0.1-0.07-0.18-0.18-0.32-0.09c-0.55,0.34-1.16,0.18-1.81,0.24c0.21-0.32,0.51-0.36,0.74-0.5
			c0.09-0.05,0.24-0.07,0.07-0.22c-0.36-0.31-1.07-0.4-1.49-0.17c-0.19,0.1-0.38,0.19-0.59,0.24c-0.32,0.07-0.36,0.01-0.35-0.32
			c0.01-0.27,0.24-0.38,0.43-0.6c-0.6-0.07-1.14-0.06-1.68,0c-0.05,0.01-0.12,0.08-0.14,0.13c-0.12,0.39-0.39,0.7-0.53,1.09
			c-0.12,0.32-0.38,0.58-0.58,0.86c-0.07-0.49,0.1-0.91,0.21-1.34c0.04-0.15,0.15-0.34,0.04-0.44c-0.1-0.1-0.26,0.06-0.4,0.09
			c-0.02,0.01-0.04,0.02-0.06,0.03c-0.41,0.23-0.81,0.27-1.23-0.02c-0.2-0.14-0.44-0.23-0.66-0.32C16.8,0.22,16.48,0.04,16.01,0
			c0.47,0.47,0.39,0.99,0.39,1.49c0,0.08,0.04,0.2-0.07,0.24c-0.09,0.03-0.16-0.06-0.22-0.13c-0.29-0.35-0.58-0.71-0.82-1.11
			C15.22,0.38,15.16,0.29,15,0.3C14.47,0.36,14,0.54,13.54,0.92c0.38,0.13,0.72,0.23,0.93,0.56c-0.14,0.07-0.26,0.05-0.38,0.03
			c-0.51-0.1-1.01-0.2-1.51-0.32c-0.17-0.04-0.31-0.04-0.44,0.07c-0.87,0.69-1.65,1.45-2.15,2.46c-0.08,0.15-0.06,0.22,0.13,0.24
			c0.09,0.01,0.24-0.01,0.27,0.09c0.04,0.13-0.1,0.2-0.18,0.25C9.52,4.67,9.36,5.27,9.47,5.98c0,0.02,0,0.05,0,0.07
			C9.52,6.33,9.4,6.54,9.21,6.74C8.84,7.11,8.57,7.52,8.44,8.05c-0.41,1.73-0.51,3.48-0.51,5.25c0,0.34-0.11,0.58-0.4,0.75
			C7.4,14.12,7.29,14.2,7.3,14.38c0.01,0.47,0,0.94,0.01,1.41c0,0.06-0.03,0.15,0.06,0.17c0.07,0.02,0.11-0.06,0.16-0.1
			c0.19-0.18,0.38-0.35,0.57-0.53c0.05-0.04,0.11-0.1,0.18-0.06c0.08,0.04,0.05,0.12,0.05,0.18c-0.02,0.27-0.06,0.54-0.06,0.81
			c0,0.18-0.07,0.28-0.23,0.36c-0.27,0.13-0.49,0.36-0.5,0.67c-0.02,0.58,0.07,1.16,0.15,1.74c0,0.02,0.04,0.04,0.09,0.08
			c0.2-0.32,0.43-0.58,0.79-0.7c0.06-0.02,0.13-0.06,0.19-0.02c0.05,0.03,0.03,0.08,0.01,0.12c-0.16,0.35-0.17,0.79-0.44,1.04
			c-0.39,0.37-0.38,0.76-0.3,1.22c0.35,1.85,0.94,3.62,1.61,5.38c0.12,0.32,0.13,0.58-0.04,0.89c-0.37,0.69-0.69,1.41-0.99,2.14
			c-0.49,1.17-0.85,2.39-1.17,3.61C7.35,33.07,7.29,33.15,7,32.97c-0.86-0.55-2.19-0.48-2.98,0.16c-0.3,0.24-0.54,0.36-0.94,0.26
			c-0.74-0.18-1.25,0.26-1.71,0.78c-0.33,0.37-0.59,0.77-0.59,1.28c0,0.18-0.06,0.31-0.18,0.45c-0.33,0.38-0.54,0.82-0.55,1.34
			c-0.01,0.82,0.16,1.58,0.58,2.29c0.11,0.18,0.23,0.24,0.43,0.24c5.16,0,10.31,0,15.47-0.01c0.22,0,0.54,0.11,0.63-0.06
			c0.1-0.17-0.16-0.38-0.27-0.57c-0.62-1.03-0.56-2.06-0.02-3.09c0.24-0.46,0.55-0.88,0.72-1.36c0.07-0.19,0.17-0.3,0.34-0.38
			c0.5-0.24,1.05-0.31,1.58-0.43c0.06-0.01,0.15-0.02,0.2,0.01c0.29,0.24,0.41,0.02,0.54-0.19c0.13-0.21,0.23-0.45,0.53-0.46
			c0.57-0.03,1.15-0.06,1.7,0.12c0.54,0.18,0.96,0.51,1.18,1.07c-0.22,0.06-0.41,0.04-0.6-0.06c-0.37-0.19-0.76-0.33-1.19-0.33
			c-0.8,0.01-0.83-0.06-0.91,0.84c-0.02,0.28,0.05,0.46,0.33,0.57c0.23,0.09,0.43,0.25,0.6,0.42c0.13,0.13,0.23,0.15,0.35-0.01
			c0.2-0.26,0.48-0.39,0.79-0.48c0.73-0.23,1.86,0.18,1.74,1.3c-0.03,0.27-0.02,0.54-0.07,0.8c-0.05,0.26,0.04,0.4,0.28,0.49
			c0.34,0.13,0.67,0.27,1,0.4c0.08,0.03,0.2,0.06,0.2,0.15c0,0.11-0.11,0.17-0.2,0.19c-0.51,0.13-1.08,0.22-1.52,0.01
			c-0.45-0.22-0.5,0.02-0.64,0.27c-0.08,0.15-0.16,0.3-0.24,0.45c-0.13,0.23-0.11,0.34,0.2,0.33c0.55-0.02,1.1-0.01,1.65-0.01
			c3.44,0,6.87,0,10.31,0.01c0.27,0,0.4-0.03,0.2-0.32c-0.54-0.8-0.62-1.71-0.66-2.64c0-0.12,0.03-0.22,0.1-0.31
			c0.34-0.45,0.68-0.89,1.01-1.35c0.07-0.1,0.15-0.15,0.27-0.16c0.67-0.09,1.33-0.19,2-0.27c0.16-0.02,0.28-0.07,0.32-0.24
			c0.06-0.22,0.24-0.3,0.45-0.36c0.58-0.15,1.11-0.01,1.63,0.21c0.18,0.08,0.43,0.14,0.33,0.41c-0.1,0.29-0.33,0.14-0.51,0.08
			c-0.03-0.01-0.06-0.03-0.1-0.03c-0.13-0.03-0.27-0.12-0.38,0c-0.1,0.11-0.02,0.23,0.04,0.34c0.07,0.13,0.04,0.19-0.11,0.16
			c-0.09-0.02-0.18-0.04-0.26-0.07c-0.51-0.15-0.51-0.15-0.73,0.34c-0.01,0.02-0.02,0.04-0.03,0.06c-0.15,0.25-0.12,0.46,0.15,0.61
			c0.14,0.08,0.23,0.21,0.31,0.35c0.12,0.2,0.03,0.66-0.18,0.84c-0.17,0.14-0.3-0.05-0.44-0.12c-0.22-0.13-0.32-0.06-0.36,0.18
			c-0.07,0.47-0.03,0.94-0.03,1.41c0.01,0.9,0.01,0.9,0.92,0.85c0.16-0.01,0.24-0.05,0.26-0.23c0.04-0.45,0.1-0.89,0.14-1.34
			c0.12-1.23,0.71-2.23,1.59-3.06c0.29-0.27,0.64-0.3,0.97-0.15c0.52,0.23,0.91,0.64,1.29,1.06c0.08,0.09,0.1,0.19-0.01,0.3
			c-0.26,0.25-0.77,0.22-1.01-0.06c-0.12-0.09-0.21-0.25-0.39-0.13c-0.09,0.09-0.16,0.19-0.26,0.26c-0.2,0.15-0.2,0.28,0,0.44
			c0.18,0.14,0.29,0.34,0.4,0.54c0.2,0.37,0.13,0.9-0.16,1.15c-0.14,0.12-0.24,0.14-0.33-0.06c-0.11-0.23-0.23-0.46-0.35-0.69
			c-0.2-0.38-0.3-0.4-0.61-0.11c-0.06,0.06-0.12,0.14-0.17,0.21c-0.32,0.45-0.26,1.01-0.42,1.51c-0.08,0.24,0.01,0.36,0.3,0.36
			c2.07-0.01,4.13,0,6.2-0.01c0.59,0,1.17-0.04,1.7-0.33c0.42-0.23,0.86-0.28,1.33-0.28c1.23,0,2.47-0.03,3.66-0.43
			c2.33-0.78,4.06-2.34,5.42-4.33c1.17-1.71,1.85-3.63,2.17-5.67C61.81,26.54,61.78,24.36,61.37,22.19z M45.73,7.01
			c-0.17-0.07-0.35-0.08-0.52,0.02c-0.3,0.17-0.55,0.06-0.84-0.17c0.44-0.07,0.75-0.29,1.06-0.48c0.19-0.11,0.35-0.15,0.54,0.02
			c0.24,0.21,0.55,0.33,0.81,0.6C46.41,7.1,46.07,7.15,45.73,7.01z M48.69,8.11c-0.16-0.02-0.23-0.17-0.36-0.23
			c-0.06-0.03-0.17-0.07-0.14-0.16c0.03-0.09,0.14-0.1,0.23-0.09c0.21-0.05,0.42-0.11,0.64-0.15c0.09-0.02,0.17-0.01,0.25,0.07
			c0.24,0.24,0.73,1.22,0.78,1.61C49.64,8.75,48.98,8.68,48.69,8.11z M25.11,24.75c0.13-0.02,0.25,0.02,0.31,0.15
			c0.17,0.37,0.5,0.55,0.84,0.73c0.19,0.1,0.37,0.2,0.5,0.4c-1.22,0.32-2.16-0.2-3.08-0.85c-0.13-0.09-0.09-0.18,0.04-0.2
			C24.18,24.9,24.65,24.83,25.11,24.75z M23.9,19.59c0.32,0.12,0.59,0.25,0.83,0.44c0.18,0.14,0.31,0.33,0.29,0.55
			c-0.03,0.38,0.17,0.63,0.41,0.88c0.08,0.08,0.2,0.14,0.21,0.29C24.98,21.87,24.02,21.26,23.9,19.59z M26.16,23.49
			c0.29-0.16,0.62-0.18,0.93-0.26c0.09-0.02,0.15,0.05,0.19,0.11c0.38,0.52,0.77,1.03,1.34,1.46c-1.12,0.17-1.83-0.41-2.51-1.05
			C25.99,23.63,26.03,23.55,26.16,23.49z M24.76,30.15c0.05-0.3,0.48-0.67,0.78-0.69c0.27-0.02,0.48-0.18,0.68-0.33
			c0.35-0.26,0.7-0.41,1.08-0.04c0.13,0.12,0.32,0.12,0.48,0.11c0.69-0.03,1.02,0.41,1.29,0.94c0.04,0.07,0.07,0.14,0.11,0.21
			c0.05,0.08,0.12,0.15,0.07,0.24c-0.05,0.09-0.16,0.04-0.26,0.04c-0.29-0.02-0.56-0.11-0.75-0.36c-0.2-0.26-0.43-0.43-0.77-0.19
			c-0.17,0.12-0.37,0.04-0.55-0.02c-0.18-0.06-0.35-0.14-0.53-0.2c-0.24-0.08-0.45-0.06-0.65,0.11c-0.22,0.2-0.48,0.32-0.76,0.41
			C24.75,30.43,24.73,30.32,24.76,30.15z M28.78,22.55c-0.11-0.1-0.12-0.17,0.04-0.24c0.21-0.08,0.41-0.17,0.61-0.28
			c0.13-0.07,0.23-0.04,0.33,0.05c0.44,0.35,0.91,0.64,1.46,0.89c-0.54,0.35-1.04,0.15-1.53,0.05
			C29.35,22.96,29.05,22.79,28.78,22.55z M29.75,18.7c0.1,0.11,0.24,0.19,0.36,0.29c-0.06,0.08-0.14,0.11-0.22,0.07
			c-0.35-0.16-0.72-0.09-1.09-0.11c-0.12,0-0.26,0.02-0.3-0.14c-0.04-0.17-0.3-0.32-0.15-0.49c0.19-0.23,0.91-0.21,1.09-0.01
			C29.55,18.43,29.63,18.58,29.75,18.7z M28.16,14.44c0.08,0.17,0.13,0.29,0.18,0.41c0.05,0.1,0.12,0.25,0.22,0.23
			c0.34-0.04,0.38,0.2,0.47,0.41c0.08,0.21,0.18,0.41,0.25,0.62c0.1,0.28,0.04,0.35-0.26,0.28c-0.48-0.11-0.75-0.48-0.87-0.9
			C28.07,15.2,28.03,14.84,28.16,14.44z M27.56,19.82c0.13,0.17,0.3,0.3,0.45,0.45c0.04,0.05,0.09,0.12,0.09,0.17
			c-0.01,0.08-0.11,0.06-0.17,0.06c-0.2,0.02-0.4,0.04-0.61,0.06c-0.08-0.01-0.17-0.02-0.26-0.03c-0.18-0.03-0.34-0.11-0.39-0.28
			c-0.05-0.16,0.13-0.22,0.21-0.31c0.04-0.05,0.1-0.09,0.15-0.14C27.21,19.58,27.37,19.58,27.56,19.82z M26.6,10.5
			c0.05,0,0.12,0.06,0.15,0.11c0.15,0.25,0.31,0.5,0.32,0.84c-0.05,0.23-0.11,0.49-0.17,0.75c-0.02,0.09-0.59,0.36-0.7,0.35
			c-0.12-0.02-0.09-0.11-0.08-0.18c0.12-0.57,0.25-1.14,0.37-1.71C26.52,10.59,26.55,10.5,26.6,10.5z M14.15,13.61
			c-0.05-0.24-0.14-0.44-0.33-0.64c-0.51-0.53-0.95-1.11-1.16-1.83c-0.06-0.19-0.09-0.38,0.14-0.5c0.12-0.06,0.1-0.16,0.07-0.27
			c-0.19-0.85-0.22-1.71-0.01-2.57c0.03-0.13,0-0.18-0.11-0.23c-0.98-0.45-1.43-1.31-1.73-2.28c-0.07-0.22-0.06-0.42,0.05-0.62
			c0.21-0.37,0.42-0.74,0.63-1.11c0.03-0.05,0.09-0.12,0.14-0.13c0.42-0.11,0.76-0.37,1.13-0.58c0.48-0.27,0.92-0.07,1.37,0.01
			c0.2,0.03,0.38,0.12,0.57,0.19c0.04,0.01,0.12,0.03,0.12,0.05c0.03,0.44,0.43,0.5,0.7,0.69c0.24,0.17,0.32,0.45,0.41,0.72
			c0.09,0.28,0.26,0.43,0.56,0.43c0.64,0.01,1.25,0.15,1.8,0.46c0.09,0.05,0.16,0.04,0.25,0c0.7-0.4,1.45-0.52,2.24-0.46
			c0.23,0.02,0.36-0.04,0.4-0.28c0.03-0.13,0.1-0.25,0.14-0.38c0.31-0.9,1.58-1.51,2.48-1.18c0.07,0.03,0.15,0.06,0.23,0.06
			c0.81,0.04,1.24,0.59,1.59,1.23c0.25,0.45,0.36,0.89,0.31,1.45c-0.09,1.04-0.66,1.61-1.49,2.03c-0.18,0.09-0.22,0.15-0.18,0.35
			c0.12,0.65,0.09,1.29-0.17,1.91c-0.02,0.05-0.01,0.11-0.02,0.17c0.13,0.29,0.28-0.05,0.42,0.01c0.13-0.06,0.13,0.03,0.11,0.11
			c-0.12,0.69-0.18,1.39-0.76,1.92c-0.18,0.16-0.24,0.45-0.37,0.67c-0.23,0.38-0.51,0.71-0.94,0.87c-0.14,0.05-0.22,0.11-0.21,0.26
			c0.02,0.19,0.17,0.14,0.29,0.14c1.35,0.02,2.62,0.35,3.81,0.99c0.13,0.07,0.26,0.14,0.26,0.32c0,0.14,0.08,0.32-0.05,0.41
			c-0.12,0.09-0.25-0.06-0.36-0.12c-1.07-0.56-2.19-0.93-3.39-1.06c-0.15-0.02-0.38-0.15-0.47,0.1c-0.13,0.36-0.03,0.64,0.25,0.78
			c0.95,0.48,1.9,0.96,2.74,1.64c0.49,0.4,0.51,0.47,0.39,1.19c-0.33-0.3-0.63-0.58-0.95-0.86c-0.69-0.61-1.44-1.14-2.33-1.44
			c-0.27-0.09-0.44-0.06-0.63,0.19c-0.37,0.51-0.38,0.5-0.93,0.18c-0.58-0.34-1.2-0.62-1.86-0.75c-0.27-0.06-0.41-0.22-0.46-0.47
			c-0.04-0.2-0.05-0.4-0.08-0.6c-0.02-0.13,0.04-0.2,0.16-0.25c0.36-0.14,0.63-0.39,0.76-0.76c0.06-0.17,0.18-0.13,0.3-0.12
			c0.18,0.01,0.4,0.06,0.44-0.18c0.05-0.27,0.15-0.56-0.14-0.77c-0.27-0.2-0.6-0.26-0.92-0.27c-0.59-0.03-1.19-0.02-1.79-0.03
			c-0.27,0-0.51,0.09-0.73,0.23c-0.25,0.16-0.33,0.4-0.19,0.66c0.14,0.25,0.34,0.35,0.61,0.19c0.19-0.12,0.28-0.07,0.28,0.17
			c0,0.4,0.22,0.68,0.55,0.86c0.15,0.08,0.17,0.17,0.16,0.32c-0.09,0.82-0.09,0.82-0.91,0.89c-0.27,0.02-0.49,0.14-0.72,0.26
			c-0.42,0.21-0.85,0.41-1.26,0.64c-0.23,0.13-0.37,0.08-0.51-0.11c-0.1-0.14-0.23-0.25-0.3-0.4c-0.14-0.27-0.31-0.28-0.57-0.16
			c-0.99,0.45-1.83,1.13-2.73,1.72c-0.09,0.06-0.18,0.13-0.27,0.2c-0.13,0.09-0.18,0.05-0.18-0.1c0-0.29,0.05-0.53,0.31-0.74
			c0.68-0.54,1.47-0.86,2.23-1.23c0.08-0.04,0.16-0.07,0.24-0.11c0.48-0.25,0.55-0.42,0.47-0.96c-0.03-0.18-0.14-0.16-0.27-0.17
			c-0.96-0.08-1.85,0.16-2.69,0.59c-0.25,0.13-0.5,0.26-0.73,0.41c-0.21,0.14-0.26,0.05-0.3-0.15c-0.04-0.27,0.05-0.45,0.3-0.57
			c1.09-0.56,2.23-0.9,3.46-0.85C14.14,13.99,14.2,13.87,14.15,13.61z M21.69,23.47c-0.36-0.1-0.71-0.2-1.01-0.43
			c-0.23-0.18-0.27-0.38-0.09-0.64c0.15-0.21,0.35-0.37,0.53-0.56c0.11-0.12,0.18-0.1,0.21,0.07C21.4,22.43,21.52,22.94,21.69,23.47
			z M15.05,20.71c-0.04,0.31-0.09,0.62-0.13,0.93c-0.01,0.05-0.01,0.12-0.08,0.12c-0.04,0-0.08-0.04-0.1-0.08
			c-0.31-0.48-0.54-1-0.64-1.57c-0.03-0.18,0.06-0.17,0.17-0.11c0.24,0.14,0.48,0.29,0.72,0.43C15.09,20.51,15.04,20.62,15.05,20.71
			z M12.48,23.46c0.12,0.07,0.11,0.17,0.08,0.26c-0.19,0.65-0.55,1.18-1.2,1.62c0.04-0.63,0.24-1.14,0.33-1.66
			C11.73,23.5,12.3,23.36,12.48,23.46z M11.71,19.5c0.39,0.15,0.69,0.35,0.91,0.71c0.24,0.4,0.53,0.78,0.79,1.17
			c0.12,0.18,0.2,0.37,0.26,0.58c0.02,0.06,0.07,0.13,0.01,0.19c-0.07,0.08-0.15,0.03-0.22,0c-0.77-0.38-1.38-0.91-1.64-1.77
			C11.74,20.11,11.64,19.83,11.71,19.5z M13.42,25.08c0.03-0.05,0.05-0.1,0.08-0.15c0.1-0.15,0.26-0.14,0.39-0.1
			c0.18,0.06,0.08,0.2,0.04,0.31c-0.1,0.32-0.23,0.63-0.31,0.96c-0.1,0.38-0.37,0.54-0.73,0.6c-0.33,0.05-0.67,0.03-1.09-0.03
			C12.57,26.29,13.04,25.73,13.42,25.08z M11.03,21.93c0.05,0.19-0.21,0.28-0.34,0.41c-0.25,0.25-0.51,0.49-0.75,0.83
			c-0.08-0.28-0.14-0.49-0.19-0.71c-0.08-0.36,0.44-0.84,0.79-0.74C10.71,21.77,10.98,21.74,11.03,21.93z M10.24,7.04
			c0.02-0.03,0.07-0.05,0.11-0.05c0.06,0,0.06,0.06,0.06,0.1c0,0.15,0,0.29,0,0.44c0.01,0.59-0.01,0.6-0.48,0.75
			c-0.16,0.05-0.2,0-0.19-0.15C9.79,7.71,10.03,7.38,10.24,7.04z M9.54,10.44c0.21-0.44,0.52-0.63,0.94-0.73
			c-0.43,0.88-0.28,1.89-0.63,2.79c-0.03,0.09-0.05,0.19-0.09,0.34C9.48,12.02,9.13,11.29,9.54,10.44z M2.55,36.83
			c-0.56-0.27-0.67-0.19-0.66,0.45c0.01,0.49,0.19,0.97,0.1,1.47c-0.02,0.11,0,0.26-0.11,0.3c-0.13,0.05-0.21-0.09-0.31-0.17
			c-0.47-0.38-0.55-0.9-0.44-1.49c-0.26-0.74,0.26-1.2,0.68-1.71c0.35-0.42,0.39-0.42,0.73,0.02c0.23,0.29,0.3,0.62,0.26,0.98
			C2.79,36.84,2.75,36.92,2.55,36.83z M5.29,36.87c-0.14-0.21-0.24-0.42-0.39-0.59c-0.33-0.38-0.58-0.33-0.78,0.12
			c-0.23,0.52-0.2,1.04-0.06,1.58c0.14,0.52,0.13,0.52-0.33,0.8c-0.02,0.01-0.04,0.02-0.06,0.04c-0.41,0.25-0.42,0.26-0.54-0.24
			c-0.35-1.52-0.05-2.9,0.87-4.16C4.3,34,4.7,34.2,5.1,34.07c-0.07,0.22-0.12,0.36-0.15,0.52c-0.05,0.25-0.02,0.45,0.29,0.55
			c0.28,0.09,0.41,0.32,0.41,0.63C5.64,36.16,5.57,36.53,5.29,36.87z M9.07,37.22c-0.26,0.43-0.57,0.82-1,1.22
			c-0.04-0.56,0.15-1.02,0.23-1.49c0.06-0.37-0.13-0.6-0.6-0.71c-0.34-0.08-0.52,0.02-0.61,0.39c-0.08,0.32-0.25,0.6-0.44,0.86
			c-0.28,0.4-0.58,0.79-0.78,1.24c-0.09-0.02-0.1-0.08-0.1-0.13c0.02-0.94,0.07-1.89,0.4-2.78c0.34-0.95,1.29-1.55,2.2-1.41
			c0.31,0.05,0.38,0.14,0.17,0.37c-0.23,0.26-0.12,0.35,0.11,0.49C9.45,35.79,9.58,36.39,9.07,37.22z M12.33,35.47
			c-0.06,0.24-0.14,0.46-0.25,0.79c-0.26-0.63-0.49-1.17-0.66-1.73c0,0,0,0,0,0c-0.16-0.16-0.32-0.31-0.48-0.47
			c-0.63-0.48-1.41-0.67-2.12-0.99c-0.1-0.05-0.19-0.03-0.29,0.01c-0.21,0.08-0.29-0.01-0.25-0.23c0.12-0.57,0.59-0.82,1.13-0.59
			c0.44,0.19,0.87,0.42,1.3,0.63c0.22,0.11,0.33,0.29,0.31,0.55c-0.01,0.18-0.02,0.36,0.07,0.53c0.12,0.06,0.23,0.13,0.35,0.19
			c0.05,0.02,0.09,0.06,0.15,0.07C12.3,34.42,12.5,34.74,12.33,35.47z M13.49,34.3c-0.17,0.12-0.21,0.07-0.24-0.09
			c-0.07-0.32-0.02-0.68-0.27-0.95c-0.03-0.03-0.02-0.15,0.02-0.19c0.26-0.26,0.02-0.34-0.15-0.43c-0.48-0.26-1.04-0.34-1.5-0.66
			c-0.3-0.21-0.59-0.42-0.81-0.7c-0.2-0.26-0.43-0.3-0.71-0.21c-0.22,0.07-0.44,0.15-0.66,0.24c-0.18,0.07-0.31-0.03-0.25-0.18
			c0.14-0.36,0.26-0.75,0.64-0.95c0.12-0.06,0.26-0.05,0.4-0.04c0.5-0.03,0.91,0.24,1.3,0.48c0.6,0.38,1.06,0.95,1.71,1.28
			c0.1,0.05,0.13,0.14,0.13,0.25c0,0.26,0.16,0.42,0.4,0.47c0.26,0.05,0.33,0.22,0.41,0.43C14.08,33.57,13.93,33.97,13.49,34.3z
			 M14.43,31.77c-0.12-0.33-0.25-0.56-0.4-0.78c-0.21-0.29-0.47-0.49-0.83-0.59c-0.39-0.1-0.63-0.43-0.82-0.75
			c-0.13-0.22-0.29-0.31-0.53-0.35c-0.61-0.11-1.22-0.19-1.83,0.01c-0.06,0.02-0.15,0.05-0.19-0.01c-0.05-0.07,0-0.14,0.05-0.21
			c0.18-0.23,0.36-0.46,0.54-0.69c0.07-0.09,0.15-0.12,0.26-0.1c0.31,0.04,0.62,0.07,0.94,0.1c0.4,0.04,0.74,0.18,1.03,0.5
			c0.19,0.21,0.48,0.33,0.72,0.49c0.12,0.08,0.32,0.15,0.31,0.28c-0.02,0.44,0.33,0.45,0.59,0.54c0.21,0.07,0.28,0.17,0.26,0.39
			C14.5,30.97,14.54,31.33,14.43,31.77z M15.83,26.61c-0.3,0.17-0.67,0.12-1,0.18c-0.2-0.02-0.49,0.06-0.54-0.11
			c-0.05-0.18,0.23-0.28,0.39-0.34c0.5-0.18,0.85-0.54,1.17-0.92c0.26-0.3,0.57-0.26,0.89-0.25c0.14,0,0.14,0.09,0.09,0.18
			C16.59,25.84,16.33,26.33,15.83,26.61z M16.27,21.77c0.44,0.01,0.59,0.14,0.7,0.57c0.08,0.31,0.19,0.62,0.2,0.95
			c0,0.05-0.01,0.12-0.04,0.15c-0.05,0.05-0.1,0-0.14-0.04c-0.37-0.4-0.76-0.79-0.91-1.34C16.02,21.87,16.02,21.72,16.27,21.77z
			 M16.46,28.16c0.23-0.39,0.59-0.65,0.81-1.03c0.08-0.14,0.16-0.29,0.26-0.43c0.09-0.15,0.06-0.37,0.26-0.45
			c0.31-0.12,0.62-0.17,0.95-0.15c0.14,0.01,0.15,0.09,0.1,0.18c-0.28,0.6-0.57,1.2-1.22,1.48C17.25,27.92,16.85,28.03,16.46,28.16z
			 M18.85,30.27c-0.66,0.29-1.22-0.01-1.45-0.79c0.44-0.02,0.87-0.01,1.3-0.03c0.28-0.01,0.26,0.37,0.36,0.58
			C19.13,30.19,18.95,30.22,18.85,30.27z M18.86,23.73c-0.16,0.15-0.27,0.19-0.32-0.09c-0.05-0.24-0.22-0.48-0.19-0.7
			c0.03-0.22,0.35-0.27,0.51-0.44c0.15-0.15,0.31-0.28,0.53-0.47C19.42,22.72,19.33,23.29,18.86,23.73z M19.82,18.35
			c-0.09,0.38-0.17,0.74-0.17,1.11c0,0.28-0.13,0.38-0.36,0.43c-0.13,0.03-0.27,0.05-0.4,0.06c-0.22,0.01-0.36-0.04-0.41-0.32
			c-0.05-0.31-0.22-0.61-0.19-0.94c0.01-0.05-0.02-0.11-0.09-0.12c-0.09-0.01-0.17,0.04-0.17,0.12c0,0.4-0.3,0.66-0.44,0.99
			c-0.07,0.16-0.17,0.19-0.31,0.16c-0.47-0.07-0.62-0.24-0.64-0.71c-0.01-0.18,0-0.36,0-0.54c0-0.09,0.02-0.21-0.06-0.25
			c-0.1-0.05-0.14,0.07-0.2,0.13c-0.05,0.06-0.11,0.12-0.15,0.18c-0.22,0.27-0.28,0.28-0.43-0.03c-0.22-0.44-0.28-0.92-0.28-1.4
			c0-0.16,0.12-0.2,0.23-0.25c1.02-0.48,2.1-0.55,3.19-0.42c0.7,0.08,1.38,0.27,2.04,0.55c0.22,0.1,0.31,0.21,0.25,0.46
			c-0.12,0.51-0.22,1.03-0.59,1.45c-0.14,0.16-0.23,0.22-0.35-0.04C20.19,18.75,20.07,18.52,19.82,18.35z M21.86,29.99
			c-0.33,0.07-1.13-0.54-1.15-0.88c0-0.01,0-0.02,0-0.05c-0.03-0.14,0.05-0.18,0.18-0.2c0.71-0.07,0.51-0.22,0.83,0.44
			c0.08,0.16,0.14,0.33,0.2,0.5C21.94,29.87,21.98,29.96,21.86,29.99z M22.93,26.81c-0.64,0.34-1.21,0.23-1.62-0.35
			c-0.29-0.41-0.57-0.82-1-1.09c-0.09-0.06-0.17-0.16-0.1-0.24c0.11-0.12,0.26-0.05,0.39,0.02c0.34,0.05,0.68,0.11,1.02,0.17
			c0.13,0.02,0.27,0.05,0.27,0.23c0,0.09,0.08,0.16,0.16,0.2c0.4,0.16,0.62,0.53,0.93,0.79C23.12,26.66,23.06,26.74,22.93,26.81z
			 M22.76,22.59c-0.25-0.73-0.05-1.38,0.29-2.11c0.2,0.5,0.31,0.94,0.35,1.38c0.04,0.45,0.26,0.75,0.61,0.98
			c0.12,0.08,0.24,0.16,0.31,0.29C23.45,23.55,22.96,23.18,22.76,22.59z M23.58,32.48c-0.05-0.15,0.01-0.23,0.09-0.32
			c0.1-0.71,0.65-0.92,1.23-1.07c0.43-0.11,0.85-0.2,1.31-0.04c0.28,0.1,0.62,0.03,0.94,0.03c0.78,0,1.5,0.16,2.15,0.65
			c0.31,0.24,0.31,0.55,0.35,0.87c0.02,0.15-0.09,0.13-0.18,0.09c-0.41-0.19-0.85-0.29-1.2-0.64c-0.28-0.28-0.72-0.18-1.1-0.17
			c-0.44,0.01-0.87,0.12-1.31,0.1c-0.09,0-0.22,0.03-0.25-0.05c-0.13-0.35-0.34-0.18-0.55-0.11c-0.42,0.14-0.86,0.26-1.24,0.51
			C23.77,32.41,23.68,32.44,23.58,32.48z M26.91,36.48c-0.03,0.18-0.14,0.35-0.3,0.37c-0.19,0.02-0.15-0.21-0.2-0.33
			c-0.04-0.1-0.05-0.22-0.06-0.33c-0.05-0.35-0.19-0.6-0.6-0.64c-0.26-0.02-0.46-0.21-0.66-0.38c-0.23-0.2-0.21-0.28,0.08-0.4
			c0.34-0.14,0.71,0.06,0.86,0.48c0.06,0.15,0.13,0.22,0.27,0.25c0.5,0.1,0.6,0.22,0.61,0.81C26.92,36.35,26.92,36.42,26.91,36.48z
			 M30.59,35.13c-0.08,0.28-0.14,0.56-0.22,0.85c-0.02,0.06,0,0.15-0.09,0.16c-0.08,0-0.1-0.07-0.12-0.14
			c-0.08-0.26-0.22-0.49-0.35-0.73c-0.09-0.17-0.22-0.34-0.4-0.4c-0.28-0.09-0.4-0.27-0.49-0.53c-0.12-0.34-0.38-0.52-0.74-0.54
			c-0.21-0.01-0.42-0.03-0.62-0.05c-0.03,0.13,0.06,0.19,0.12,0.24c0.23,0.18,0.38,0.38,0.27,0.69c-0.05,0.16,0.08,0.21,0.19,0.28
			c0.22,0.13,0.44,0.26,0.6,0.47c0.25,0.34,0.18,0.73,0.17,1.1c0,0.1-0.48,0.36-0.58,0.34c-0.11-0.03-0.08-0.12-0.08-0.19
			c-0.01-0.25,0.01-0.49-0.01-0.74c-0.04-0.52-0.33-0.8-0.85-0.84c-0.23-0.02-0.37-0.17-0.46-0.35c-0.18-0.33-0.46-0.58-0.67-0.88
			c-0.07-0.1-0.16-0.14-0.26-0.07c-0.32,0.22-0.68,0.18-1.04,0.2c-0.21,0.01-0.42,0.03-0.65,0.05c0.19-0.73,0.61-1.08,1.34-1.03
			c0.22,0.01,0.44-0.07,0.66-0.12c0.86-0.18,1.64,0.06,2.41,0.39c0.14,0.06,0.29,0.13,0.43,0.18c0.34,0.12,0.6,0.35,0.7,0.68
			c0.1,0.35,0.19,0.64,0.62,0.69C30.6,34.86,30.62,35,30.59,35.13z M31.86,34.53c-0.01,0.06,0.01,0.15-0.07,0.17
			c-0.08,0.03-0.11-0.06-0.14-0.11c-0.24-0.31-0.39-0.62-0.34-1.06c0.08-0.7-0.21-1.36-0.44-2.02c-0.03-0.08-0.04-0.15-0.04-0.23
			c-0.11-0.13-0.08-0.3-0.18-0.52c0.16,0.1,0.26,0.14,0.3,0.26c0.14,0.14,0.29,0.28,0.43,0.43c0.23,0.23,0.37,0.49,0.38,0.83
			c0.02,0.45,0.08,0.89,0.12,1.34C31.9,33.93,31.91,34.23,31.86,34.53z M32.15,21.55c-0.13,0.02-0.27,0.03-0.37,0.05
			c-0.3-0.01-0.56-0.05-0.81-0.16c-0.17-0.07-0.18-0.16-0.02-0.25c0.14-0.09,0.29-0.17,0.43-0.27c0.13-0.09,0.22-0.04,0.33,0.03
			c0.16,0.11,0.32,0.2,0.48,0.31c0.07,0.05,0.18,0.07,0.16,0.18C32.33,21.52,32.23,21.54,32.15,21.55z M33.24,23.32
			c0.19-0.05,0.31,0.22,0.42,0.37c0.34,0.47,0.35,0.77,0.06,1.05c-0.13,0.13-0.23,0.19-0.36-0.03c-0.16-0.28-0.31-0.55-0.24-0.88
			C33.14,23.65,33.06,23.37,33.24,23.32z M34.27,30.98c-0.1-0.46-0.26-0.88-0.58-1.23c-0.06-0.07-0.04-0.15,0.02-0.22
			c0.17-0.22,0.04-0.33-0.13-0.45c-0.55-0.4-0.6-0.71-0.21-1.27c0.05-0.06,0.09-0.13,0.14-0.19c0.09-0.09,0.13-0.28,0.28-0.25
			c0.16,0.03,0.22,0.21,0.27,0.36c0.11,0.32,0.11,0.64,0.02,0.96c-0.07,0.26-0.01,0.44,0.26,0.52c0.25,0.08,0.34,0.26,0.29,0.52
			C34.56,30.16,34.45,30.57,34.27,30.98z M35.39,26.65c-0.13,0.34-0.38,0.39-0.62,0.12c-0.25-0.28-0.46-0.58-0.43-0.99
			c0-0.19,0.05-0.38,0.1-0.56c0.03-0.12,0.03-0.33,0.19-0.29c0.15,0.04,0.41,0.07,0.37,0.35c-0.05,0.33,0.11,0.58,0.29,0.83
			C35.41,26.28,35.46,26.46,35.39,26.65z M37.17,30.94c-0.16,0.37-0.39,0.7-0.71,1.06c0.02-0.37,0.03-0.65,0.05-0.94
			c0.02-0.33-0.14-0.49-0.46-0.46c-0.33,0.03-0.38-0.14-0.33-0.41c0.09-0.48,0.16-0.94-0.16-1.39c-0.16-0.23-0.08-0.51,0.14-0.7
			c0.22-0.2,0.47-0.38,0.71-0.57c0.13,0.17,0.14,0.36,0.12,0.53c-0.06,0.48,0.05,0.93,0.15,1.39c0.05,0.21,0.03,0.42-0.02,0.63
			c-0.05,0.19-0.01,0.31,0.23,0.34C37.22,30.47,37.31,30.62,37.17,30.94z M37.96,29.64c-0.12,0-0.17-0.15-0.17-0.26
			c-0.04-0.58-0.26-1.11-0.39-1.67c-0.18-0.81-0.58-1.52-0.96-2.24c-0.15-0.28-0.31-0.55-0.41-0.84c-0.12-0.34-0.33-0.56-0.62-0.74
			c-0.13-0.04-0.22-0.12-0.32-0.26c0.18-0.03,0.32-0.08,0.45,0.05c0.07,0.08,0.17,0.03,0.25,0.06c0.29,0.08,0.58,0.12,0.67,0.5
			c0.06,0.25,0.24,0.44,0.52,0.52c0.2,0.06,0.35,0.2,0.45,0.38c0.17,0.33,0.29,0.68,0.55,0.96c0.07,0.08,0.05,0.14-0.02,0.2
			c-0.07,0.05-0.14,0.11-0.21,0.17c-0.36,0.3-0.36,0.41,0.04,0.65c0.31,0.18,0.43,0.43,0.4,0.78c-0.05,0.49-0.07,0.98-0.11,1.47
			C38.05,29.47,38.12,29.64,37.96,29.64z M37.17,23.04c-0.25-0.3-0.5-0.6-0.77-0.93c0.19-0.07,0.33,0,0.43,0.08
			c0.54,0.36,1.07,0.73,1.59,1.11c0.25,0.18,0.37,0.77,0.26,1.05c-0.07,0.19-0.15,0.05-0.22,0C37.97,23.98,37.56,23.51,37.17,23.04z
			 M39.66,27.88c-0.04,0.13-0.05,0.26-0.1,0.51c-0.28-0.55-0.52-1.01-0.76-1.47c-0.02-0.03-0.04-0.07-0.03-0.09
			c0.03-0.13-0.41-0.12-0.1-0.32c0.22-0.14,0.44-0.15,0.63,0.06C39.63,26.94,39.84,27.35,39.66,27.88z M44.58,21.91
			c0.16,0.38,0.27,0.43,0.64,0.28c0.53-0.2,0.82-0.11,1.13,0.37c0.12,0.19,0.22,0.39,0.32,0.59c0.03,0.07,0.1,0.18,0.01,0.25
			c-0.07,0.05-0.15-0.01-0.22-0.04c-0.53-0.22-1.08-0.37-1.62-0.54c-1.1-0.35-2.03,0.03-2.91,0.62c-0.33,0.22-0.32,0.23-0.4-0.17
			c-0.03-0.14-0.06-0.28-0.1-0.46c-0.02-0.08,0.05-0.12,0.15-0.16c0.11-0.05,0.25-0.08,0.33-0.17c0.31-0.36,0.72-0.44,1.17-0.47
			c0.38-0.02,0.75-0.07,1.08-0.3C44.35,21.56,44.49,21.7,44.58,21.91z M46.95,25.8c0.01,0.2-0.15,0.17-0.26,0.16
			c-0.64-0.1-1.23-0.26-1.45-1c-0.07-0.25-0.43-0.32-0.65-0.11c-0.24,0.23-0.47,0.21-0.74,0.13c-0.24-0.08-0.4-0.06-0.44,0.26
			c-0.03,0.24-0.23,0.38-0.45,0.45c-0.17,0.06-0.35,0.09-0.53,0.09c-0.59,0-0.62-0.04-0.62-0.62c0.01-0.51-0.08-0.51,0.49-0.54
			c0.31-0.01,0.62-0.1,0.88-0.28c0.35-0.23,0.7-0.25,1.08-0.07c0.36,0.17,0.73,0.28,1.11,0.02c0.08-0.06,0.22-0.05,0.33-0.04
			c0.41,0.04,0.76,0.28,1,0.56C46.91,25.04,46.93,25.45,46.95,25.8z M41.39,21.32c-0.02-0.59,0.43-0.82,0.84-1.06
			c0.19-0.11,0.4-0.2,0.57-0.17c0.6,0.02,1,0.28,1.33,0.66c0.06,0.07,0.13,0.17,0.09,0.27c-0.05,0.13-0.18,0.07-0.27,0.06
			c-0.14,0-0.29-0.02-0.43-0.05c-0.67-0.13-1.26,0.03-1.79,0.46c-0.07,0.06-0.14,0.18-0.25,0.12
			C41.37,21.56,41.39,21.43,41.39,21.32z M42.49,17.94c0.1,0.03,0.21,0.05,0.24,0.16c0.06,0.29,0.27,0.32,0.51,0.33
			c0.65,0.04,0.91,0.28,1.06,0.95c-0.25,0.01-0.48-0.09-0.71-0.16c-0.75-0.25-1.48-0.21-2.2,0.09c-0.15,0.06-0.26,0.09-0.29-0.12
			C41,18.55,41.87,17.77,42.49,17.94z M43.68,34.34c-0.37-0.2-0.74-0.36-1.17-0.39c-0.13-0.01-0.19-0.06-0.22-0.2
			c-0.16-0.7-0.41-0.81-1.05-0.49c-0.09,0.05-0.17,0.15-0.35,0.07c0.33-0.34,0.64-0.68,0.98-1c0.07-0.07,0.21-0.03,0.31,0.03
			c0.08,0.06,0.17,0.14,0.26,0.15c0.34,0.06,0.44,0.23,0.32,0.56c-0.08,0.2,0.08,0.25,0.24,0.25c0.33,0,0.6,0.16,0.85,0.36
			c0.14,0.11,0.2,0.27,0.19,0.45C44.03,34.38,43.89,34.46,43.68,34.34z M45.07,32.63c-0.05,0.28-0.19,0.29-0.4,0.17
			c-0.23-0.13-0.34-0.34-0.43-0.58c-0.19-0.55-0.55-0.76-1.14-0.68c-0.22,0.03-0.44,0.07-0.66,0.1c-0.19,0.03-0.26-0.07-0.25-0.25
			c0.02-0.3,0.25-0.63,0.54-0.71c0.44-0.13,0.87-0.08,1.31,0.06c0.52,0.17,0.89,0.47,1.07,0.99c0.04,0.11,0.08,0.21,0.06,0.42
			C45.16,32.24,45.11,32.43,45.07,32.63z M45.45,30.59c-0.11,0.04-0.19-0.04-0.25-0.13c-0.1-0.17-0.2-0.35-0.28-0.53
			c-0.22-0.49-0.61-0.72-1.14-0.74c-0.33-0.02-0.54,0.16-0.75,0.37c-0.08,0.08-0.18,0.22-0.31,0.16c-0.11-0.06-0.04-0.21-0.03-0.31
			c0.05-0.31,0.03-0.63,0.22-0.9c0.25-0.36,0.65-0.45,0.98-0.17c0.4,0.34,0.89,0.47,1.33,0.69c0.21,0.11,0.31,0.2,0.29,0.43
			c-0.01,0.13,0,0.27,0,0.4c0,0.17,0.01,0.34,0,0.5C45.51,30.44,45.56,30.56,45.45,30.59z M45.68,28.15
			c-0.34-0.09-0.67-0.17-0.7-0.63c-0.01-0.18-0.19-0.25-0.37-0.29c-0.52-0.09-1,0.04-1.48,0.19c-0.31,0.1-0.41,0.01-0.6-0.46
			c-0.12-0.29,0.08-0.33,0.26-0.39c0.47-0.16,0.93-0.32,1.42-0.26c0.14,0,0.27-0.01,0.39,0c0.38,0.05,0.75,0.06,0.91,0.56
			c0.11,0.33,0.43,0.59,0.5,0.97C46.07,28.21,46.05,28.24,45.68,28.15z M47.3,35.09c-0.08,0.12-0.15,0.25-0.3,0.37
			c-0.22-0.5-0.63-0.83-0.88-1.29c-0.15-0.28-0.03-0.82,0.23-0.98c0.09-0.06,0.17-0.01,0.25,0.03c0.35,0.18,0.52,0.53,0.46,0.96
			c-0.03,0.25-0.07,0.49,0.21,0.64C47.38,34.89,47.36,35,47.3,35.09z M48.09,32.37c0.03,0.29-0.05,0.56-0.16,0.82
			c-0.07,0.16-0.15,0.23-0.28,0.04c-0.01-0.01-0.01-0.02-0.02-0.03c-0.15-0.23-0.49-0.43-0.46-0.67c0.05-0.37,0.27-0.72,0.43-1.08
			c0.07-0.17,0.17-0.12,0.24,0C47.99,31.74,48.16,32.02,48.09,32.37z"/>
		<path fill="#E96923" d="M42.96,36.28c-0.1-0.13-0.18-0.34-0.39-0.13C42.75,36.03,42.84,36.19,42.96,36.28z"/>
		<path fill="#FEFEFE" d="M13.82,13.98c-1.23-0.05-2.37,0.3-3.46,0.85c-0.25,0.13-0.34,0.3-0.3,0.57c0.03,0.2,0.09,0.29,0.3,0.15
			c0.23-0.15,0.48-0.29,0.73-0.41c0.85-0.43,1.74-0.66,2.69-0.59c0.12,0.01,0.24-0.01,0.27,0.17c0.08,0.54,0.01,0.71-0.47,0.96
			c-0.08,0.04-0.16,0.07-0.24,0.11c-0.76,0.37-1.55,0.7-2.23,1.23c-0.26,0.2-0.31,0.45-0.31,0.74c0,0.15,0.05,0.19,0.18,0.1
			c0.09-0.07,0.18-0.14,0.27-0.2c0.9-0.59,1.74-1.27,2.73-1.72c0.27-0.12,0.43-0.11,0.57,0.16c0.08,0.15,0.21,0.26,0.3,0.4
			c0.14,0.19,0.28,0.24,0.51,0.11c0.41-0.23,0.84-0.43,1.26-0.64c0.23-0.11,0.46-0.24,0.72-0.26c0.82-0.07,0.82-0.07,0.91-0.89
			c0.02-0.15-0.01-0.24-0.16-0.32c-0.33-0.18-0.56-0.46-0.55-0.86c0-0.24-0.09-0.28-0.28-0.17c-0.28,0.16-0.48,0.07-0.61-0.19
			c-0.14-0.26-0.06-0.5,0.19-0.66c0.22-0.14,0.46-0.23,0.73-0.23c0.6,0.01,1.19,0,1.79,0.03c0.32,0.01,0.65,0.07,0.92,0.27
			c0.28,0.21,0.19,0.51,0.14,0.77c-0.05,0.24-0.26,0.19-0.44,0.18c-0.12-0.01-0.24-0.05-0.3,0.12c-0.13,0.37-0.4,0.62-0.76,0.76
			c-0.12,0.05-0.18,0.12-0.16,0.25c0.03,0.2,0.04,0.4,0.08,0.6c0.05,0.25,0.19,0.41,0.46,0.47c0.67,0.14,1.28,0.41,1.86,0.75
			c0.55,0.32,0.56,0.33,0.93-0.18c0.18-0.25,0.36-0.28,0.63-0.19c0.89,0.3,1.64,0.83,2.33,1.44c0.31,0.28,0.62,0.56,0.95,0.86
			c0.12-0.72,0.1-0.79-0.39-1.19c-0.83-0.67-1.79-1.15-2.74-1.64c-0.28-0.14-0.38-0.42-0.25-0.78c0.09-0.25,0.32-0.11,0.47-0.1
			c1.19,0.14,2.32,0.5,3.39,1.06c0.11,0.06,0.23,0.21,0.36,0.12c0.13-0.09,0.04-0.27,0.05-0.41c0-0.18-0.12-0.24-0.26-0.32
			c-1.19-0.64-2.46-0.97-3.81-0.99c-0.11,0-0.27,0.05-0.29-0.14c-0.01-0.14,0.07-0.21,0.21-0.26c0.43-0.16,0.72-0.48,0.94-0.87
			c0.13-0.22,0.19-0.51,0.37-0.67c0.58-0.52,0.64-1.23,0.76-1.92c0.01-0.08,0.02-0.17-0.11-0.11c-0.06,0.12-0.18,0.16-0.29,0.19
			c-0.21,0.05-0.23-0.04-0.12-0.2c0.01-0.06,0-0.12,0.02-0.17c0.26-0.62,0.28-1.27,0.17-1.91c-0.04-0.2,0-0.26,0.18-0.35
			c0.83-0.42,1.4-0.99,1.49-2.03c0.05-0.56-0.06-1-0.31-1.45c-0.35-0.64-0.78-1.18-1.59-1.23c-0.08,0-0.15-0.04-0.23-0.06
			c-0.9-0.32-2.17,0.28-2.48,1.18c-0.04,0.13-0.12,0.25-0.14,0.38c-0.05,0.23-0.17,0.29-0.4,0.28c-0.79-0.06-1.54,0.06-2.24,0.46
			c-0.09,0.05-0.16,0.06-0.25,0c-0.56-0.32-1.17-0.45-1.8-0.46c-0.3,0-0.47-0.15-0.56-0.43c-0.09-0.26-0.17-0.54-0.41-0.72
			c-0.27-0.2-0.67-0.25-0.7-0.69c0-0.02-0.08-0.04-0.12-0.05C14.72,3,14.54,2.91,14.34,2.87c-0.45-0.07-0.89-0.27-1.37-0.01
			c-0.37,0.2-0.71,0.46-1.13,0.58c-0.06,0.01-0.11,0.08-0.14,0.13c-0.21,0.37-0.42,0.74-0.63,1.11c-0.11,0.2-0.11,0.4-0.05,0.62
			c0.3,0.97,0.75,1.83,1.73,2.28c0.11,0.05,0.14,0.1,0.11,0.23c-0.2,0.86-0.18,1.71,0.01,2.57c0.02,0.1,0.04,0.21-0.07,0.27
			c-0.23,0.12-0.19,0.31-0.14,0.5c0.21,0.72,0.65,1.3,1.16,1.83c0.19,0.19,0.28,0.39,0.33,0.64C14.2,13.87,14.14,13.99,13.82,13.98z
			 M21.94,15c-0.01,0.16-0.06,0.23-0.22,0.17c-0.28-0.1-0.57-0.19-0.85-0.29c-0.07-0.02-0.16-0.04-0.15-0.15
			c0.01-0.1,0.08-0.16,0.18-0.16c0.14,0,0.29,0,0.43,0c0,0,0,0,0,0c0.07,0,0.13,0,0.2,0C21.97,14.57,21.97,14.58,21.94,15z
			 M22.98,3.98c0.18-0.07,0.36-0.13,0.53-0.21c0.13-0.06,0.23-0.03,0.35,0.04c0.22,0.15,0.44,0.3,0.68,0.44
			c0.61,0.35,0.82,0.89,0.77,1.56c0,0.1,0.01,0.2,0,0.3c-0.05,0.73-0.26,0.95-0.97,1.05C24.18,7.18,24.07,7.14,23.99,7
			c-0.38-0.71-0.93-1.25-1.64-1.63c-0.11-0.06-0.13-0.13-0.13-0.24C22.22,4.63,22.52,4.18,22.98,3.98z M21.86,8.46
			c0.41,0.03,0.83,0.08,1.24,0.11c0.08,0.01,0.17-0.01,0.2,0.08c0.03,0.09-0.07,0.13-0.11,0.19c-0.03,0.04-0.08,0.11-0.12,0.11
			c-0.43,0-0.58,0.32-0.78,0.63c-0.19,0.29-0.54,0.28-0.91,0.28c-0.26,0.03-0.53-0.02-0.66-0.36c-0.02-0.06-0.06-0.09-0.13-0.06
			c-0.06,0.03-0.08,0.09-0.06,0.14c0.17,0.47,0.14,0.97,0.18,1.46c0.01,0.17,0.16,0.21,0.28,0.26c0.2,0.09,0.34,0.18,0.37,0.43
			c0.03,0.25,0.23,0.37,0.45,0.45c0.23,0.09,0.47,0.16,0.7,0.25c0.22,0.08,0.28,0.22,0.17,0.45c-0.22,0.43-0.35,0.48-0.77,0.26
			c-0.12-0.06-0.24-0.13-0.37-0.17c-0.32-0.1-0.57-0.22-0.64-0.62c-0.05-0.28-0.32-0.46-0.59-0.55c-0.19-0.07-0.25-0.17-0.25-0.37
			c0.01-0.75-0.03-1.5-0.15-2.24c-0.05-0.3,0.24-0.42,0.44-0.56C20.8,8.29,21.33,8.41,21.86,8.46z M19.77,6.34
			c0.21-0.05,0.41,0.1,0.63,0.05c0.27-0.06,0.32,0.19,0.44,0.33c0.1,0.12,0.18,0.26,0.35,0.3c0.19,0.05,0.36,0.15,0.31,0.36
			c-0.05,0.18-0.25,0.07-0.38,0.1c-0.05,0.01-0.11,0-0.17,0c-0.62-0.01-0.62,0-0.8-0.59C20.09,6.7,20,6.57,19.79,6.55
			c-0.07-0.01-0.15-0.02-0.16-0.1C19.63,6.38,19.7,6.35,19.77,6.34z M15.17,15.06c-0.14,0.09-0.23-0.03-0.28-0.15
			c-0.05-0.13-0.11-0.37,0.04-0.38c0.37-0.03,0.76-0.2,1.2,0.04C15.76,14.73,15.46,14.88,15.17,15.06z M15.92,7.15
			c0.5-0.43,1.07-0.71,1.72-0.81c0.07-0.01,0.17-0.01,0.2,0.08c0.02,0.08-0.06,0.11-0.1,0.16c-0.21,0.25-0.42,0.49-0.6,0.76
			c-0.17,0.25-0.46,0.07-0.64,0.13c-0.18,0-0.32,0.01-0.45,0c-0.08,0-0.2,0.01-0.23-0.09C15.79,7.3,15.85,7.21,15.92,7.15z
			 M13.63,6.4c-0.14,0.1-0.24,0.12-0.38,0c-0.18-0.17-0.42-0.19-0.66-0.22C12.14,6.11,11.93,5.79,12,5.34
			c0.09-0.52,0.24-1,0.66-1.36c0.21-0.17,0.44-0.26,0.83-0.26c0.59,0.27,1.4,0.37,1.86,1.08c0.23,0.35,0.19,0.46-0.17,0.65
			C14.64,5.73,14.12,6.04,13.63,6.4z M14.07,8.86c-0.05-0.02-0.08-0.07-0.11-0.12c-0.06-0.09-0.15-0.2-0.09-0.31
			c0.06-0.09,0.18-0.05,0.28-0.05c0.68,0,1.37,0,2.05,0c0.55,0,0.76,0.23,0.75,0.79c-0.04,0.85-0.28,1.68-0.3,2.54
			c0,0.02,0,0.05-0.01,0.06c-0.38,0.32-0.67,0.73-1.03,1.06c-0.18,0.17-0.46,0.23-0.69,0.34c-0.17,0.09-0.24,0.02-0.27-0.15
			c-0.08-0.41,0.15-1,0.55-1.12c0.85-0.26,1.02-0.88,1.01-1.64c0-0.04,0-0.09,0-0.13c0.02-0.59,0-0.65-0.54-0.43
			c-0.49,0.2-0.76-0.05-1.03-0.32C14.45,9.2,14.32,8.97,14.07,8.86z"/>
		<path fill="#FDFEFD" d="M20.64,19.01c0.37-0.41,0.47-0.93,0.59-1.45c0.06-0.25-0.03-0.37-0.25-0.46
			c-0.65-0.28-1.33-0.47-2.04-0.55c-1.1-0.13-2.17-0.06-3.19,0.42c-0.11,0.05-0.23,0.09-0.23,0.25c0,0.49,0.06,0.97,0.28,1.4
			c0.16,0.31,0.21,0.3,0.43,0.03c0.05-0.06,0.1-0.12,0.15-0.18c0.06-0.06,0.1-0.18,0.2-0.13c0.08,0.04,0.06,0.16,0.06,0.25
			c0,0.18-0.01,0.36,0,0.54c0.02,0.47,0.18,0.64,0.64,0.71c0.15,0.02,0.25,0,0.31-0.16c0.14-0.33,0.44-0.59,0.44-0.99
			c0-0.08,0.07-0.14,0.17-0.12c0.07,0.01,0.09,0.07,0.09,0.12c-0.03,0.34,0.14,0.63,0.19,0.94c0.05,0.28,0.19,0.33,0.41,0.32
			c0.13,0,0.27-0.03,0.4-0.06c0.23-0.05,0.36-0.16,0.36-0.43c-0.01-0.36,0.07-0.72,0.17-1.11c0.25,0.17,0.37,0.4,0.48,0.63
			C20.41,19.23,20.5,19.17,20.64,19.01z"/>
		<path fill="#F9FBF9" d="M29.87,34.15c-0.1-0.33-0.36-0.56-0.7-0.68c-0.15-0.05-0.29-0.12-0.43-0.18
			c-0.77-0.33-1.56-0.57-2.41-0.39c-0.22,0.05-0.44,0.13-0.66,0.12c-0.74-0.05-1.16,0.3-1.34,1.03c0.23-0.02,0.44-0.04,0.65-0.05
			c0.36-0.02,0.72,0.02,1.04-0.2c0.1-0.07,0.19-0.03,0.26,0.07c0.21,0.31,0.49,0.55,0.67,0.88c0.1,0.18,0.23,0.33,0.46,0.35
			c0.52,0.05,0.81,0.32,0.85,0.84c0.02,0.25,0.01,0.49,0.01,0.74c0,0.07-0.02,0.16,0.08,0.19c0.1,0.03,0.58-0.24,0.58-0.34
			c0-0.38,0.08-0.77-0.17-1.1c-0.16-0.21-0.38-0.34-0.6-0.47c-0.1-0.06-0.24-0.12-0.19-0.28c0.1-0.31-0.04-0.51-0.27-0.69
			c-0.07-0.05-0.15-0.11-0.12-0.24c0.21,0.02,0.41,0.03,0.62,0.05c0.36,0.03,0.62,0.2,0.74,0.54c0.09,0.26,0.21,0.44,0.49,0.53
			c0.18,0.06,0.3,0.22,0.4,0.4c0.13,0.24,0.27,0.47,0.35,0.73c0.02,0.07,0.05,0.14,0.12,0.14c0.09,0,0.07-0.1,0.09-0.16
			c0.07-0.28,0.14-0.56,0.22-0.85c0.03-0.13,0.01-0.27-0.1-0.28C30.06,34.79,29.97,34.49,29.87,34.15z"/>
		<path fill="#FBFCF9" d="M8.65,35.28c-0.23-0.15-0.34-0.24-0.11-0.49c0.21-0.23,0.15-0.32-0.17-0.37c-0.91-0.14-1.86,0.46-2.2,1.41
			c-0.33,0.9-0.38,1.84-0.4,2.78c0,0.05,0.01,0.11,0.1,0.13c0.2-0.45,0.5-0.84,0.78-1.24c0.19-0.27,0.36-0.54,0.44-0.86
			c0.09-0.37,0.27-0.47,0.61-0.39c0.47,0.11,0.66,0.34,0.6,0.71c-0.08,0.47-0.27,0.92-0.23,1.49c0.42-0.4,0.73-0.79,1-1.22
			C9.58,36.39,9.45,35.79,8.65,35.28z"/>
		<path fill="#F9FCF8" d="M5.23,35.13c-0.3-0.1-0.33-0.3-0.29-0.55c0.03-0.15,0.09-0.3,0.15-0.52C4.7,34.2,4.3,34,4,34.41
			c-0.92,1.26-1.22,2.64-0.87,4.16c0.11,0.49,0.12,0.49,0.54,0.24c0.02-0.01,0.04-0.02,0.06-0.04c0.46-0.28,0.46-0.28,0.33-0.8
			c-0.14-0.53-0.17-1.06,0.06-1.58c0.2-0.45,0.44-0.5,0.78-0.12c0.15,0.17,0.26,0.38,0.39,0.59c0.28-0.34,0.35-0.71,0.35-1.11
			C5.64,35.45,5.52,35.22,5.23,35.13z"/>
		<path fill="#F9FBF8" d="M13.49,32.61c-0.24-0.05-0.4-0.21-0.4-0.47c0-0.11-0.02-0.2-0.13-0.25c-0.65-0.32-1.11-0.9-1.71-1.28
			c-0.39-0.24-0.8-0.51-1.3-0.48c-0.13-0.01-0.28-0.02-0.4,0.04c-0.38,0.2-0.5,0.59-0.64,0.95c-0.06,0.15,0.07,0.24,0.25,0.18
			c0.22-0.08,0.44-0.16,0.66-0.24c0.28-0.09,0.51-0.05,0.71,0.21c0.22,0.28,0.51,0.5,0.81,0.7c0.46,0.32,1.02,0.4,1.5,0.66
			c0.17,0.09,0.41,0.17,0.15,0.43c-0.04,0.04-0.05,0.15-0.02,0.19c0.25,0.28,0.2,0.63,0.27,0.95c0.03,0.15,0.08,0.21,0.24,0.09
			c0.44-0.33,0.59-0.72,0.41-1.25C13.82,32.84,13.74,32.66,13.49,32.61z"/>
		<path fill="#F9FBF8" d="M45.71,24.24c-0.11-0.01-0.25-0.02-0.33,0.04c-0.38,0.26-0.75,0.15-1.11-0.02
			c-0.38-0.18-0.73-0.16-1.08,0.07c-0.27,0.18-0.57,0.27-0.88,0.28c-0.58,0.02-0.49,0.03-0.49,0.54c0,0.58,0.04,0.61,0.62,0.62
			c0.18,0,0.36-0.03,0.53-0.09c0.22-0.08,0.42-0.21,0.45-0.45c0.04-0.31,0.2-0.33,0.44-0.26c0.27,0.09,0.5,0.1,0.74-0.13
			c0.22-0.21,0.57-0.14,0.65,0.11c0.21,0.74,0.81,0.89,1.45,1c0.12,0.02,0.27,0.04,0.26-0.16c-0.01-0.35-0.03-0.75-0.24-0.99
			C46.47,24.52,46.12,24.28,45.71,24.24z"/>
		<path fill="#F7FBF7" d="M25.61,31.92c0.03,0.09,0.16,0.05,0.25,0.05c0.44,0.02,0.87-0.09,1.31-0.1c0.37-0.01,0.82-0.11,1.1,0.17
			c0.35,0.35,0.79,0.45,1.2,0.64c0.09,0.04,0.2,0.05,0.18-0.09c-0.04-0.32-0.04-0.63-0.35-0.87c-0.64-0.49-1.37-0.65-2.15-0.65
			c-0.31,0-0.66,0.07-0.94-0.03c-0.46-0.17-0.89-0.07-1.31,0.04c-0.58,0.15-1.13,0.36-1.23,1.07c0.01,0.09,0.05,0.14,0.15,0.15
			c0.38-0.25,0.82-0.36,1.24-0.51C25.27,31.74,25.48,31.57,25.61,31.92z"/>
		<path fill="#F8FBF7" d="M44.14,21.7c-0.33,0.23-0.71,0.27-1.08,0.3c-0.44,0.03-0.86,0.11-1.17,0.47
			c-0.07,0.09-0.21,0.12-0.33,0.17c-0.09,0.04-0.16,0.07-0.15,0.16c0.04,0.18,0.07,0.32,0.1,0.46c0.08,0.4,0.07,0.39,0.4,0.17
			c0.89-0.59,1.81-0.97,2.91-0.62c0.54,0.17,1.09,0.33,1.62,0.54c0.07,0.03,0.15,0.09,0.22,0.04c0.09-0.07,0.03-0.17-0.01-0.25
			c-0.1-0.2-0.2-0.4-0.32-0.59c-0.31-0.48-0.6-0.57-1.13-0.37c-0.37,0.14-0.48,0.09-0.64-0.28C44.49,21.7,44.35,21.56,44.14,21.7z"
			/>
		<path fill="#F8FAF7" d="M14.28,30.22c-0.26-0.09-0.61-0.1-0.59-0.54c0.01-0.13-0.19-0.2-0.31-0.28c-0.24-0.16-0.53-0.28-0.72-0.49
			c-0.29-0.32-0.63-0.46-1.03-0.5c-0.31-0.03-0.62-0.06-0.94-0.1c-0.12-0.02-0.2,0.01-0.26,0.1c-0.18,0.23-0.36,0.46-0.54,0.69
			c-0.05,0.06-0.11,0.13-0.05,0.21c0.04,0.06,0.13,0.03,0.19,0.01c0.61-0.2,1.21-0.12,1.83-0.01c0.24,0.04,0.4,0.13,0.53,0.35
			c0.19,0.32,0.43,0.65,0.82,0.75c0.36,0.1,0.62,0.3,0.83,0.59c0.16,0.22,0.28,0.46,0.4,0.78c0.11-0.45,0.08-0.81,0.11-1.16
			C14.56,30.39,14.48,30.29,14.28,30.22z"/>
		<path fill="#F7FAF7" d="M37.77,27.12c-0.41-0.24-0.41-0.35-0.04-0.65c0.07-0.06,0.14-0.11,0.21-0.17c0.08-0.06,0.09-0.12,0.02-0.2
			c-0.26-0.28-0.38-0.63-0.55-0.96c-0.1-0.19-0.24-0.33-0.45-0.38c-0.28-0.08-0.46-0.27-0.52-0.52c-0.09-0.38-0.39-0.42-0.67-0.5
			c-0.08-0.02-0.18,0.03-0.25-0.06c-0.19-0.02-0.17,0.08-0.12,0.21c0.29,0.18,0.5,0.41,0.62,0.74c0.1,0.29,0.26,0.57,0.41,0.84
			c0.39,0.72,0.79,1.44,0.96,2.24c0.12,0.56,0.35,1.09,0.39,1.67c0.01,0.11,0.05,0.26,0.17,0.26c0.16-0.01,0.09-0.17,0.1-0.27
			c0.04-0.49,0.07-0.98,0.11-1.47C38.2,27.55,38.09,27.3,37.77,27.12z"/>
		<path fill="#F8FBF7" d="M24.98,30.36c0.28-0.08,0.54-0.21,0.76-0.41c0.2-0.18,0.42-0.2,0.65-0.11c0.18,0.06,0.35,0.14,0.53,0.2
			c0.18,0.06,0.38,0.14,0.55,0.02c0.34-0.24,0.57-0.07,0.77,0.19c0.2,0.25,0.46,0.33,0.75,0.36c0.1-0.01,0.2,0.04,0.26-0.04
			c0.05-0.09-0.02-0.17-0.07-0.24c-0.04-0.07-0.07-0.14-0.11-0.21c-0.27-0.53-0.61-0.97-1.29-0.94c-0.16,0.01-0.36,0.01-0.48-0.11
			c-0.38-0.36-0.73-0.22-1.08,0.04c-0.2,0.15-0.42,0.31-0.68,0.33c-0.31,0.03-0.73,0.4-0.78,0.69
			C24.73,30.32,24.75,30.43,24.98,30.36z"/>
		<path fill="#F9FBF7" d="M45.5,26.87c-0.16-0.51-0.53-0.51-0.91-0.56c-0.12-0.02-0.25,0-0.39,0c-0.49-0.06-0.96,0.1-1.42,0.26
			c-0.18,0.06-0.37,0.11-0.26,0.39c0.19,0.47,0.3,0.55,0.6,0.46c0.48-0.15,0.97-0.29,1.48-0.19c0.18,0.03,0.36,0.1,0.37,0.29
			c0.03,0.46,0.36,0.54,0.7,0.63c0.37,0.09,0.39,0.07,0.32-0.3C45.92,27.46,45.6,27.2,45.5,26.87z"/>
		<path fill="#F9FBF7" d="M36.88,30.42c-0.24-0.03-0.28-0.15-0.23-0.34c0.05-0.21,0.07-0.43,0.02-0.63
			c-0.1-0.46-0.21-0.91-0.15-1.39c0.02-0.17,0.01-0.36-0.12-0.53c-0.24,0.19-0.49,0.37-0.71,0.57c-0.21,0.19-0.29,0.47-0.14,0.7
			c0.31,0.45,0.24,0.91,0.16,1.39c-0.05,0.27-0.01,0.45,0.33,0.41c0.33-0.03,0.48,0.12,0.46,0.46c-0.02,0.29-0.03,0.58-0.05,0.94
			c0.32-0.36,0.55-0.69,0.71-1.06C37.31,30.62,37.22,30.47,36.88,30.42z"/>
		<path fill="#F9FBF7" d="M1.82,35.68c-0.42,0.5-0.94,0.97-0.68,1.71c-0.1,0.6-0.03,1.11,0.44,1.49c0.09,0.08,0.18,0.22,0.31,0.17
			c0.11-0.04,0.09-0.19,0.11-0.3c0.09-0.5-0.1-0.98-0.1-1.47c-0.01-0.64,0.1-0.72,0.66-0.45c0.19,0.09,0.24,0.01,0.26-0.15
			c0.04-0.36-0.03-0.69-0.26-0.98C2.22,35.26,2.17,35.26,1.82,35.68z"/>
		<path fill="#F9FBF7" d="M44.06,30.73c-0.44-0.14-0.87-0.19-1.31-0.06c-0.29,0.09-0.52,0.41-0.54,0.71
			c-0.01,0.19,0.05,0.28,0.25,0.25c0.22-0.03,0.44-0.07,0.66-0.1c0.59-0.09,0.95,0.12,1.14,0.68c0.08,0.24,0.2,0.45,0.43,0.58
			c0.21,0.12,0.35,0.11,0.4-0.17c0.03-0.2,0.09-0.39,0.11-0.5c0.02-0.21-0.02-0.31-0.06-0.42C44.94,31.2,44.58,30.9,44.06,30.73z"/>
		<path fill="#F8FAF7" d="M45.52,29.86c0-0.13-0.01-0.27,0-0.4c0.03-0.23-0.07-0.32-0.29-0.43c-0.44-0.23-0.94-0.36-1.33-0.69
			c-0.33-0.28-0.73-0.18-0.98,0.17c-0.19,0.27-0.18,0.59-0.22,0.9c-0.02,0.1-0.08,0.25,0.03,0.31c0.13,0.07,0.23-0.07,0.31-0.16
			c0.21-0.21,0.42-0.39,0.75-0.37c0.53,0.03,0.92,0.25,1.14,0.74c0.08,0.18,0.18,0.36,0.28,0.53c0.05,0.09,0.13,0.17,0.25,0.13
			c0.11-0.04,0.06-0.15,0.07-0.23C45.52,30.19,45.52,30.02,45.52,29.86z"/>
		<path fill="#FAFAF7" d="M41.38,19.3c0.72-0.3,1.45-0.34,2.2-0.09c0.23,0.08,0.46,0.17,0.71,0.16c-0.15-0.67-0.41-0.9-1.06-0.95
			c-0.24-0.02-0.45-0.04-0.51-0.33c-0.02-0.11-0.14-0.14-0.24-0.16c-0.62-0.17-1.49,0.61-1.4,1.25
			C41.12,19.39,41.23,19.37,41.38,19.3z"/>
		<path fill="#F9FBF7" d="M11.02,33.46c0.02-0.26-0.1-0.44-0.31-0.55c-0.43-0.22-0.86-0.44-1.3-0.63c-0.54-0.24-1.01,0.02-1.13,0.59
			c-0.05,0.22,0.03,0.31,0.25,0.23c0.1-0.04,0.19-0.06,0.29-0.01c0.71,0.32,1.48,0.5,2.12,0.99c0.06-0.02,0.12-0.02,0.16-0.08
			C11,33.82,11.01,33.63,11.02,33.46z"/>
		<path fill="#F9FBF6" d="M22.05,25.75c-0.08-0.03-0.16-0.11-0.16-0.2c-0.01-0.19-0.14-0.21-0.27-0.23
			c-0.34-0.06-0.68-0.11-1.02-0.17c-0.14,0.01-0.3,0.01-0.29,0.22c0.44,0.27,0.72,0.68,1,1.09c0.41,0.58,0.98,0.69,1.62,0.35
			c0.14-0.07,0.2-0.15,0.06-0.27C22.67,26.27,22.45,25.91,22.05,25.75z"/>
		<path fill="#F7F9F4" d="M43.01,33.33c-0.17,0-0.32-0.05-0.24-0.25c0.12-0.33,0.02-0.5-0.32-0.56c-0.09-0.02-0.17-0.1-0.26-0.15
			c-0.1-0.07-0.24-0.1-0.31-0.03c-0.33,0.32-0.65,0.66-0.98,1c0.17,0.09,0.25-0.02,0.35-0.07c0.64-0.32,0.89-0.21,1.05,0.49
			c0.03,0.14,0.08,0.19,0.22,0.2c0.42,0.03,0.8,0.19,1.17,0.39c0.22,0.12,0.36,0.04,0.37-0.21c0.01-0.18-0.05-0.33-0.19-0.45
			C43.61,33.48,43.35,33.33,43.01,33.33z"/>
		<path fill="#F8FBF6" d="M34.33,29.21c-0.27-0.09-0.33-0.27-0.26-0.52c0.09-0.32,0.08-0.64-0.02-0.96
			c-0.05-0.15-0.11-0.33-0.27-0.36c-0.15-0.03-0.19,0.16-0.28,0.25c-0.05,0.06-0.1,0.12-0.14,0.19c-0.39,0.55-0.34,0.87,0.21,1.27
			c0.17,0.12,0.31,0.24,0.13,0.45c-0.05,0.07-0.08,0.15-0.02,0.22c0.31,0.35,0.48,0.77,0.58,1.23c0.19-0.41,0.29-0.82,0.36-1.24
			C34.67,29.47,34.59,29.29,34.33,29.21z"/>
		<path fill="#F9FAF5" d="M41.74,21.51c0.53-0.43,1.12-0.59,1.79-0.46c0.14,0.03,0.29,0.04,0.43,0.05c0.09,0,0.22,0.06,0.27-0.06
			c0.04-0.1-0.03-0.2-0.09-0.27c-0.33-0.38-0.74-0.65-1.33-0.66c-0.17-0.04-0.39,0.06-0.57,0.17c-0.41,0.24-0.86,0.47-0.84,1.06
			c0,0.11-0.02,0.24,0.09,0.3C41.6,21.69,41.67,21.56,41.74,21.51z"/>
		<path fill="#F8FAF6" d="M23.69,25.18c0.91,0.65,1.86,1.18,3.08,0.85c-0.13-0.2-0.32-0.31-0.5-0.4c-0.34-0.18-0.67-0.36-0.84-0.73
			c-0.06-0.13-0.18-0.17-0.31-0.15c-0.46,0.07-0.93,0.15-1.39,0.23C23.6,25.01,23.55,25.09,23.69,25.18z"/>
		<path fill="#F8FAF5" d="M13.46,22.15c0.06,0.03,0.15,0.08,0.22,0c0.05-0.06,0-0.13-0.01-0.19c-0.05-0.21-0.14-0.41-0.26-0.58
			c-0.26-0.39-0.55-0.76-0.79-1.17c-0.21-0.36-0.52-0.56-0.91-0.71c-0.08,0.33,0.03,0.61,0.11,0.88
			C12.08,21.23,12.69,21.77,13.46,22.15z"/>
		<path fill="#F8F9F5" d="M24.31,23.14c-0.07-0.14-0.19-0.21-0.31-0.29c-0.35-0.24-0.57-0.53-0.61-0.98
			c-0.04-0.44-0.15-0.88-0.35-1.38c-0.34,0.73-0.54,1.38-0.29,2.11C22.96,23.18,23.45,23.55,24.31,23.14z"/>
		<path fill="#F8F9F4" d="M18.85,26.28c0.04-0.09,0.03-0.18-0.1-0.18c-0.33-0.02-0.65,0.04-0.95,0.15c-0.2,0.08-0.17,0.3-0.26,0.45
			c-0.09,0.14-0.17,0.29-0.26,0.43c-0.22,0.38-0.58,0.64-0.81,1.03c0.39-0.13,0.79-0.24,1.17-0.4
			C18.28,27.48,18.57,26.88,18.85,26.28z"/>
		<path fill="#F8F8F2" d="M16.74,25.16c-0.32-0.01-0.63-0.05-0.89,0.25c-0.32,0.38-0.67,0.75-1.17,0.92
			c-0.16,0.06-0.44,0.16-0.39,0.34c0.05,0.17,0.34,0.09,0.54,0.11c0.33-0.05,0.7,0,1-0.18c0.5-0.28,0.75-0.78,1-1.27
			C16.88,25.25,16.89,25.17,16.74,25.16z"/>
		<path fill="#F7F8F3" d="M31.76,32.29c-0.02-0.34-0.15-0.6-0.38-0.83c-0.14-0.14-0.29-0.28-0.43-0.43
			c-0.18,0.03-0.08,0.18-0.12,0.27c0,0.08,0.02,0.15,0.04,0.23c0.23,0.65,0.52,1.31,0.44,2.02c-0.05,0.44,0.1,0.75,0.34,1.06
			c0.04,0.05,0.06,0.14,0.14,0.11c0.08-0.02,0.06-0.11,0.07-0.17c0.05-0.3,0.04-0.6,0.02-0.91C31.84,33.18,31.78,32.73,31.76,32.29z
			"/>
		<path fill="#F7F9F4" d="M27.28,23.33c-0.04-0.06-0.1-0.13-0.19-0.11c-0.31,0.08-0.64,0.11-0.93,0.26
			c-0.12,0.07-0.16,0.15-0.05,0.26c0.68,0.64,1.39,1.22,2.51,1.05C28.05,24.36,27.66,23.85,27.28,23.33z"/>
		<path fill="#F7F9F5" d="M9.85,12.5c0.35-0.9,0.21-1.91,0.63-2.79c-0.43,0.1-0.73,0.29-0.94,0.73c-0.41,0.85-0.06,1.58,0.23,2.4
			C9.8,12.69,9.82,12.59,9.85,12.5z"/>
		<path fill="#F7F6EF" d="M38.69,24.35c0.11-0.28-0.02-0.87-0.26-1.05c-0.52-0.39-1.06-0.75-1.59-1.11
			c-0.11-0.07-0.24-0.14-0.43-0.08c0.27,0.33,0.52,0.63,0.77,0.93c0.4,0.47,0.8,0.94,1.3,1.31C38.53,24.4,38.62,24.54,38.69,24.35z"
			/>
		<path fill="#F6F8F4" d="M25.64,21.74c-0.01-0.14-0.13-0.2-0.21-0.29c-0.24-0.24-0.45-0.49-0.41-0.88
			c0.02-0.22-0.11-0.41-0.29-0.55c-0.24-0.19-0.51-0.32-0.83-0.44C24.02,21.26,24.98,21.87,25.64,21.74z"/>
		<path fill="#F8F8F3" d="M47.05,34.19c0.06-0.44-0.11-0.78-0.46-0.96c-0.08-0.04-0.16-0.09-0.25-0.03
			c-0.26,0.17-0.38,0.7-0.23,0.98c0.24,0.45,0.66,0.79,0.88,1.29c0.15-0.12,0.22-0.25,0.3-0.37c0.06-0.1,0.08-0.21-0.03-0.26
			C46.98,34.68,47.02,34.44,47.05,34.19z"/>
		<path fill="#F9F8F3" d="M12.89,26.71c0.35-0.06,0.62-0.22,0.73-0.6c0.09-0.32,0.21-0.64,0.31-0.96c0.03-0.11,0.14-0.25-0.04-0.31
			c-0.13-0.05-0.29-0.06-0.39,0.1c-0.03,0.05-0.05,0.1-0.08,0.15c-0.37,0.65-0.85,1.21-1.61,1.6
			C12.23,26.73,12.56,26.76,12.89,26.71z"/>
		<path fill="#F7F8F3" d="M31.23,22.98c-0.55-0.24-1.03-0.53-1.46-0.89c-0.1-0.09-0.2-0.12-0.33-0.05c-0.2,0.1-0.4,0.19-0.61,0.28
			c-0.16,0.06-0.15,0.14-0.04,0.24c0.27,0.23,0.57,0.41,0.91,0.48C30.19,23.13,30.69,23.34,31.23,22.98z"/>
		<path fill="#F8FAF4" d="M35,25.29c0.04-0.28-0.22-0.31-0.37-0.35c-0.16-0.04-0.16,0.17-0.19,0.29c-0.05,0.18-0.11,0.37-0.1,0.56
			c-0.03,0.4,0.19,0.7,0.43,0.99c0.24,0.27,0.48,0.22,0.62-0.12c0.08-0.2,0.02-0.37-0.1-0.54C35.11,25.87,34.96,25.61,35,25.29z"/>
		<path fill="#F7F7EF" d="M26.3,35.51c-0.14-0.03-0.22-0.1-0.27-0.25c-0.16-0.43-0.53-0.62-0.86-0.48c-0.29,0.12-0.31,0.19-0.08,0.4
			c0.19,0.17,0.4,0.36,0.66,0.38c0.41,0.04,0.55,0.28,0.6,0.64c0.02,0.11,0.02,0.23,0.06,0.33c0.05,0.12,0.01,0.35,0.2,0.33
			c0.16-0.02,0.27-0.19,0.3-0.37c0.01-0.07,0.01-0.13,0.01-0.16C26.9,35.73,26.81,35.61,26.3,35.51z"/>
		<path fill="#F6F7F1" d="M49.05,7.48c-0.21,0.04-0.42,0.1-0.64,0.15c-0.01,0.06-0.18,0.1-0.02,0.19c0.12,0.07,0.24,0.15,0.29,0.29
			c0.29,0.57,0.95,0.64,1.39,1.05c-0.05-0.39-0.54-1.38-0.78-1.61C49.23,7.48,49.14,7.47,49.05,7.48z"/>
		<path fill="#F9FAF5" d="M26.21,12.55c0.1,0.02,0.67-0.25,0.7-0.35c0.07-0.26,0.12-0.52,0.17-0.75c-0.01-0.35-0.17-0.59-0.32-0.84
			c-0.03-0.05-0.1-0.11-0.15-0.11c-0.06,0.01-0.09,0.09-0.1,0.16c-0.12,0.57-0.25,1.14-0.37,1.71
			C26.12,12.43,26.08,12.53,26.21,12.55z"/>
		<path fill="#F8F8F2" d="M11.36,25.34c0.64-0.44,1.01-0.96,1.2-1.62c0.03-0.09,0.04-0.2-0.08-0.26c-0.17-0.09-0.75,0.04-0.78,0.22
			C11.6,24.2,11.4,24.7,11.36,25.34z"/>
		<path fill="#F8FAF4" d="M47.61,31.45c-0.16,0.36-0.38,0.71-0.43,1.08c-0.03,0.24,0.31,0.44,0.46,0.67
			c0.01,0.01,0.01,0.02,0.02,0.03c0.12,0.19,0.21,0.12,0.28-0.04c0.11-0.26,0.2-0.53,0.16-0.82c0.06-0.34-0.1-0.63-0.25-0.92
			C47.78,31.33,47.68,31.28,47.61,31.45z"/>
		<path fill="#F8F7F0" d="M18.7,29.44c-0.43,0.02-0.87,0.01-1.3,0.03c0.23,0.78,0.79,1.08,1.45,0.79c0.1-0.04,0.29-0.08,0.21-0.24
			C18.96,29.82,18.98,29.43,18.7,29.44z"/>
		<path fill="#F7F6F0" d="M21.12,21.84c-0.17,0.19-0.38,0.35-0.53,0.56c-0.18,0.25-0.13,0.46,0.09,0.64
			c0.29,0.23,0.65,0.32,1.01,0.43c-0.17-0.52-0.29-1.03-0.36-1.55C21.3,21.74,21.23,21.72,21.12,21.84z"/>
		<path fill="#F7F7F2" d="M29.03,16.4c0.3,0.07,0.36,0,0.26-0.28c-0.07-0.21-0.17-0.41-0.25-0.62c-0.09-0.22-0.13-0.46-0.47-0.41
			c-0.1,0.01-0.17-0.13-0.22-0.23c-0.06-0.12-0.11-0.24-0.18-0.41c-0.13,0.4-0.08,0.76,0,1.06C28.28,15.92,28.55,16.29,29.03,16.4z"
			/>
		<path fill="#F8FAF4" d="M11.58,34.25c-0.05-0.01-0.1-0.05-0.15-0.07c-0.07,0.03-0.28-0.02-0.1,0.16c0.05,0.06,0.1,0.11,0.08,0.2
			c0,0,0,0,0,0c0,0,0,0,0,0c0.17,0.56,0.4,1.1,0.66,1.73c0.1-0.33,0.19-0.56,0.25-0.79C12.5,34.74,12.3,34.42,11.58,34.25z"/>
		<path fill="#F7F6EE" d="M45.43,6.37c-0.31,0.19-0.62,0.41-1.06,0.48c0.29,0.23,0.54,0.35,0.84,0.17c0.17-0.1,0.34-0.09,0.52-0.02
			c0.34,0.15,0.68,0.09,1.05-0.02c-0.26-0.27-0.57-0.39-0.81-0.6C45.78,6.22,45.62,6.26,45.43,6.37z"/>
		<path fill="#F7F6F0" d="M18.34,22.94c-0.03,0.22,0.14,0.46,0.19,0.7c0.06,0.28,0.17,0.23,0.32,0.09c0.48-0.45,0.56-1.01,0.53-1.7
			c-0.22,0.19-0.38,0.32-0.53,0.47C18.69,22.67,18.37,22.73,18.34,22.94z"/>
		<path fill="#F7F4EC" d="M38.66,26.5c-0.31,0.2,0.13,0.19,0.1,0.32c-0.01,0.03,0.02,0.06,0.03,0.09c0.24,0.46,0.48,0.92,0.76,1.47
			c0.05-0.24,0.06-0.38,0.1-0.51c0.18-0.53-0.03-0.94-0.36-1.32C39.1,26.35,38.88,26.36,38.66,26.5z"/>
		<path fill="#F8F7EE" d="M10.53,21.72c-0.35-0.1-0.87,0.39-0.79,0.74c0.05,0.21,0.11,0.42,0.19,0.71c0.24-0.34,0.5-0.58,0.75-0.83
			c0.13-0.13,0.39-0.21,0.34-0.41C10.98,21.74,10.71,21.77,10.53,21.72z"/>
		<path fill="#F7F8F2" d="M17.12,23.45c0.03-0.03,0.04-0.1,0.04-0.15c-0.01-0.33-0.12-0.63-0.2-0.95c-0.11-0.43-0.25-0.56-0.7-0.57
			c-0.25-0.05-0.24,0.09-0.19,0.29c0.15,0.55,0.54,0.94,0.91,1.34C17.02,23.45,17.07,23.5,17.12,23.45z"/>
		<path fill="#F7F4EA" d="M28.35,18.32c-0.15,0.18,0.11,0.32,0.15,0.49c0.04,0.16,0.18,0.14,0.3,0.14c0.37,0.01,0.74-0.05,1.09,0.11
			c0.08,0.04,0.15,0.01,0.22-0.07c-0.12-0.09-0.25-0.18-0.36-0.29c-0.11-0.12-0.2-0.27-0.31-0.4
			C29.27,18.11,28.55,18.09,28.35,18.32z"/>
		<path fill="#F7F5EE" d="M14.09,20.12c0.1,0.57,0.33,1.09,0.64,1.57c0.02,0.03,0.07,0.07,0.1,0.08c0.07,0,0.08-0.07,0.08-0.12
			c0.04-0.31,0.09-0.62,0.13-0.93c0-0.1,0.04-0.21-0.07-0.27c-0.24-0.15-0.48-0.29-0.72-0.43C14.15,19.95,14.06,19.94,14.09,20.12z"
			/>
		<path fill="#F7F7EE" d="M21.72,29.31c-0.31-0.66-0.12-0.52-0.83-0.44c-0.14,0.01-0.21,0.06-0.18,0.2c0,0.02,0,0.04,0,0.05
			c0.02,0.34,0.82,0.95,1.15,0.88c0.12-0.03,0.08-0.12,0.06-0.18C21.86,29.63,21.79,29.47,21.72,29.31z"/>
		<path fill="#F5F5ED" d="M33.36,24.72c0.13,0.22,0.23,0.16,0.36,0.03c0.29-0.29,0.28-0.58-0.06-1.05
			c-0.11-0.16-0.24-0.42-0.42-0.37c-0.18,0.05-0.1,0.33-0.12,0.51C33.05,24.17,33.2,24.44,33.36,24.72z"/>
		<path fill="#F8F6F0" d="M26.88,19.95c-0.08,0.1-0.26,0.15-0.21,0.31c0.05,0.17,0.21,0.25,0.39,0.28c0.09,0.02,0.18,0.02,0.26,0.03
			c0.21-0.02,0.41-0.04,0.61-0.06c0.06-0.01,0.16,0.02,0.17-0.06c0.01-0.05-0.04-0.12-0.09-0.17c-0.15-0.15-0.32-0.29-0.45-0.45
			c-0.19-0.24-0.35-0.24-0.53-0.01C26.98,19.86,26.92,19.9,26.88,19.95z"/>
		<path fill="#F7F8F2" d="M32.19,21.26c-0.16-0.1-0.32-0.2-0.48-0.31c-0.11-0.07-0.2-0.13-0.33-0.03c-0.14,0.1-0.28,0.18-0.43,0.27
			c-0.15,0.1-0.14,0.18,0.02,0.25c0.25,0.11,0.51,0.15,0.81,0.16c0.1-0.01,0.24-0.03,0.37-0.05c0.08-0.01,0.17-0.03,0.19-0.11
			C32.37,21.34,32.26,21.31,32.19,21.26z"/>
		<path fill="#F7F3E7" d="M9.93,8.28c0.47-0.15,0.49-0.16,0.48-0.75c0-0.15,0-0.29,0-0.44c0-0.04,0-0.1-0.06-0.1
			c-0.04,0-0.09,0.02-0.11,0.05c-0.21,0.34-0.46,0.67-0.5,1.08C9.72,8.28,9.77,8.33,9.93,8.28z"/>
		<path fill="#F0DBBA" d="M11.22,34.2c0.05-0.08,0.14-0.05,0.21-0.03c-0.12-0.06-0.23-0.13-0.35-0.19c0,0.13-0.08,0.11-0.16,0.08
			c0.16,0.16,0.32,0.31,0.48,0.47c-0.02-0.06-0.07-0.11-0.11-0.17C11.26,34.32,11.18,34.28,11.22,34.2z"/>
		<path fill="#F0DBBA" d="M11.09,33.98c-0.03,0.06-0.1,0.07-0.16,0.08C11.01,34.09,11.09,34.11,11.09,33.98z"/>
		<path fill="#F0DBBA" d="M11.33,34.34c-0.17-0.19,0.03-0.13,0.1-0.16c-0.07-0.02-0.16-0.06-0.21,0.03
			c-0.04,0.07,0.04,0.12,0.08,0.17c0.04,0.05,0.09,0.1,0.11,0.17c0,0,0,0,0,0C11.43,34.45,11.38,34.39,11.33,34.34z"/>
		<path fill="#EDC59B" d="M48.42,7.63c-0.09-0.01-0.2,0-0.23,0.09c-0.03,0.09,0.07,0.13,0.14,0.16c0.13,0.06,0.2,0.21,0.36,0.23
			c-0.12-0.08-0.21-0.19-0.33-0.27C48.17,7.73,48.33,7.69,48.42,7.63z"/>
		<path fill="#EDC59B" d="M48.39,7.83c-0.15-0.09,0.01-0.13,0.02-0.19c-0.08,0.05-0.25,0.09-0.07,0.21
			c0.12,0.08,0.22,0.19,0.33,0.27C48.63,7.97,48.51,7.9,48.39,7.83z"/>
		<path fill="#F4D8AF" d="M35.33,23.69c0.05-0.07,0.13-0.07,0.2-0.01c-0.13-0.13-0.27-0.08-0.45-0.05c0.1,0.13,0.19,0.22,0.32,0.26
			C35.35,23.83,35.28,23.77,35.33,23.69z"/>
		<path fill="#F4D8AF" d="M35.53,23.68c-0.07-0.06-0.15-0.06-0.2,0.01c-0.05,0.08,0.02,0.14,0.07,0.19
			C35.36,23.77,35.34,23.66,35.53,23.68z"/>
		<path fill="#F4DBB2" d="M30.95,31.03c-0.04-0.12-0.14-0.16-0.3-0.26c0.09,0.22,0.07,0.39,0.18,0.52
			C30.77,31.04,30.78,31.03,30.95,31.03z"/>
		<path fill="#F4DBB2" d="M30.95,31.03c-0.17,0-0.18,0.02-0.12,0.27C30.86,31.2,30.77,31.05,30.95,31.03z"/>
		<path fill="#D6946A" d="M24.41,10.49c0.11-0.03,0.2-0.09,0.29-0.15c-0.14-0.06-0.29,0.28-0.42-0.01
			C24.24,10.44,24.26,10.52,24.41,10.49z"/>
		<path fill="#D6946A" d="M24.41,10.52c0.11-0.03,0.23-0.06,0.29-0.19c-0.09,0.06-0.19,0.12-0.29,0.15
			c-0.15,0.04-0.17-0.04-0.13-0.17C24.17,10.48,24.19,10.57,24.41,10.52z"/>
		<path fill="#F4CFAA" d="M20.59,25.15c-0.13-0.07-0.28-0.13-0.39-0.02c-0.07,0.08,0.01,0.18,0.1,0.24
			C20.21,25.05,20.42,25.12,20.59,25.15z"/>
		<path fill="#F4CFAA" d="M20.59,25.15c-0.17-0.02-0.38-0.1-0.29,0.22C20.29,25.15,20.45,25.16,20.59,25.15z"/>
		<path fill="#ECB97E" d="M23.68,32.16c-0.08,0.09-0.15,0.18-0.09,0.32c0.1-0.04,0.19-0.07,0.24-0.17
			C23.69,32.35,23.63,32.3,23.68,32.16z"/>
		<path fill="#ECB97E" d="M23.68,32.16c-0.04,0.14,0.01,0.19,0.15,0.15C23.73,32.31,23.69,32.25,23.68,32.16z"/>
		<path fill="#E76925" d="M20.32,8.62c-0.2,0.14-0.49,0.26-0.44,0.56c0.12,0.75,0.17,1.49,0.15,2.24c0,0.2,0.06,0.3,0.25,0.37
			c0.27,0.1,0.54,0.28,0.59,0.55c0.07,0.4,0.32,0.52,0.64,0.62c0.13,0.04,0.25,0.11,0.37,0.17c0.43,0.22,0.56,0.17,0.77-0.26
			c0.12-0.23,0.05-0.36-0.17-0.45c-0.23-0.09-0.47-0.16-0.7-0.25c-0.22-0.08-0.43-0.2-0.45-0.45c-0.03-0.24-0.17-0.34-0.37-0.43
			c-0.12-0.05-0.26-0.08-0.28-0.26c-0.04-0.49,0-0.99-0.18-1.46c-0.02-0.05,0-0.11,0.06-0.14c0.07-0.04,0.11,0,0.13,0.06
			c0.13,0.34,0.4,0.39,0.66,0.36c0.38,0,0.73,0,0.91-0.28c0.2-0.3,0.35-0.62,0.78-0.63c0.04,0,0.09-0.06,0.12-0.11
			c0.05-0.06,0.14-0.1,0.11-0.19c-0.03-0.09-0.13-0.08-0.2-0.08c-0.41-0.04-0.83-0.08-1.24-0.11C21.33,8.41,20.8,8.29,20.32,8.62z"
			/>
		<path fill="#E96A24" d="M22.36,5.36c0.7,0.39,1.26,0.92,1.64,1.63c0.08,0.14,0.19,0.18,0.33,0.16c0.71-0.09,0.92-0.32,0.97-1.05
			c0.01-0.1,0-0.2,0-0.3c0.05-0.67-0.16-1.21-0.77-1.56c-0.23-0.13-0.45-0.29-0.68-0.44c-0.11-0.07-0.22-0.1-0.35-0.04
			c-0.17,0.08-0.36,0.13-0.53,0.21c-0.46,0.19-0.75,0.65-0.75,1.13C22.22,5.23,22.25,5.3,22.36,5.36z"/>
		<path fill="#E96923" d="M15.35,4.8c-0.46-0.71-1.27-0.82-1.86-1.08c-0.39,0-0.62,0.09-0.83,0.26C12.24,4.34,12.09,4.82,12,5.34
			c-0.08,0.45,0.14,0.77,0.59,0.83c0.24,0.03,0.48,0.05,0.66,0.22c0.14,0.13,0.23,0.1,0.38,0c0.49-0.35,1.01-0.66,1.55-0.95
			C15.53,5.26,15.58,5.15,15.35,4.8z"/>
		<path fill="#E96825" d="M14.64,9.38c0.26,0.27,0.54,0.52,1.03,0.32c0.54-0.22,0.56-0.16,0.54,0.43c0,0.04,0,0.09,0,0.13
			c0.01,0.76-0.16,1.38-1.01,1.64c-0.39,0.12-0.62,0.71-0.55,1.12c0.03,0.17,0.1,0.24,0.27,0.15c0.23-0.12,0.51-0.17,0.69-0.34
			c0.36-0.34,0.65-0.75,1.03-1.06c0.01-0.01,0.01-0.04,0.01-0.06c0.02-0.85,0.27-1.68,0.3-2.54c0.01-0.55-0.2-0.78-0.75-0.79
			c-0.68,0-1.37,0-2.05,0c-0.1,0-0.22-0.04-0.28,0.05c-0.06,0.11,0.03,0.21,0.09,0.31c0.03,0.05,0.06,0.1,0.11,0.12
			C14.32,8.97,14.45,9.2,14.64,9.38z"/>
		<path fill="#E56E2C" d="M16.51,7.48c0.18-0.06,0.47,0.12,0.64-0.13c0.18-0.27,0.39-0.52,0.6-0.76c0.04-0.05,0.12-0.09,0.1-0.16
			c-0.03-0.1-0.13-0.09-0.2-0.08c-0.65,0.1-1.23,0.38-1.72,0.81c-0.06,0.06-0.13,0.15-0.09,0.24c0.04,0.1,0.15,0.08,0.23,0.09
			C16.19,7.49,16.33,7.48,16.51,7.48z"/>
		<path fill="#E56E2A" d="M19.79,6.55c0.21,0.02,0.3,0.15,0.36,0.34c0.18,0.59,0.18,0.58,0.8,0.59c0.06,0,0.11,0.01,0.17,0
			c0.13-0.03,0.34,0.08,0.38-0.1c0.05-0.21-0.12-0.31-0.31-0.36c-0.16-0.05-0.24-0.19-0.35-0.3c-0.12-0.14-0.17-0.39-0.44-0.33
			c-0.22,0.05-0.41-0.1-0.63-0.05c-0.07,0.02-0.14,0.04-0.14,0.12C19.64,6.53,19.72,6.54,19.79,6.55z"/>
		<path fill="#E26E2E" d="M21.53,14.57c-0.07,0-0.13,0-0.2,0c0,0,0,0,0,0c-0.14,0-0.29,0-0.43,0c-0.1,0-0.17,0.06-0.18,0.16
			c-0.02,0.11,0.08,0.12,0.15,0.15c0.28,0.1,0.57,0.19,0.85,0.29c0.16,0.06,0.21-0.01,0.22-0.17
			C21.97,14.58,21.97,14.57,21.53,14.57z"/>
		<path fill="#E1702D" d="M14.93,14.53c-0.14,0.01-0.08,0.25-0.04,0.38c0.04,0.12,0.13,0.24,0.28,0.15
			c0.29-0.18,0.59-0.33,0.96-0.49C15.68,14.33,15.3,14.5,14.93,14.53z"/>
	</g>
</g>
</svg>
