<?xml version="1.0" encoding="utf-8"?>
<!-- Generator: Adobe Illustrator 25.0.0, SVG Export Plug-In . SVG Version: 6.00 Build 0)  -->
<svg version="1.1" baseProfile="tiny" xmlns="http://www.w3.org/2000/svg" xmlns:xlink="http://www.w3.org/1999/xlink" x="0px"
	 y="0px" viewBox="0 0 35.7 40" overflow="visible" xml:space="preserve">
<g id="Layer_2">
</g>
<g id="Layer_1">
	<path fill="#E5907B" d="M363.45-305.99c0.4-1.33,1.39-2.32,2.04-3.51c0.04-0.87,0.63-1.39,1.21-1.92c0.24-1.2,1.48-1.72,1.91-2.78
		c0.44-0.86,1.02-1.6,1.71-2.27c0.46-0.35,0.73-0.85,1.07-1.29c0.64-0.69,1.27-1.38,1.91-2.08c0.88-1.19,2.03-2.13,3.05-3.18
		c0.41-0.42,0.83-0.81,1.14-1.31c0.46-0.48,0.92-0.96,1.38-1.43c0.12-0.05,0.22-0.03,0.3,0.06c-0.33,0.96-1.08,1.64-1.76,2.28
		c-3.51,3.26-6.39,7.06-9.29,10.82c-1.32,1.72-2.29,3.71-3.44,5.56c-1.73,2.78-3.15,5.7-4.47,8.69c-1.07,2.43-1.87,4.94-2.65,7.47
		c-0.47,1.53-0.97,3.05-1.36,4.6c-0.95,3.71-1.47,7.49-1.88,11.3c-0.59,5.4-0.01,10.74,0.75,16.09c0.54,3.78,1.87,7.27,3.65,10.55
		c1.45,2.66,3.47,4.98,5.48,7.28c3.31,3.8,7.55,6.22,12,8.33c0.86,0.41,1.85,0.56,2.66,1.13c0.63,0.44,1.09,1.01,0.97,1.85
		c-0.13,0.9-0.86,1.14-1.58,1.35c-3.03,0.92-6.15,1.63-9.29,1.78c-3.96,0.2-7.95,0.53-11.91-0.26c-3.4-0.68-6.86-0.99-10.23-1.83
		c-2.98-0.74-5.88-1.67-8.73-2.85c-2.89-1.19-5.7-2.45-8.28-4.23c-0.41-0.28-0.91-0.47-1.09-1.01c0.67,0.04,1.12,0.53,1.61,0.87
		c2.26,1.59,4.68,2.81,7.31,3.73c1.53,0.54,2.98,1.37,4.57,1.83c1.48,0.43,2.95,0.97,4.46,1.26c3.77,0.73,7.57,1.34,11.36,2
		c3.73,0.65,7.47,0.28,11.2,0.01c3.22-0.23,6.36-0.88,9.41-1.92c0.4-0.14,0.75-0.24,0.77-0.73c0.02-0.5,0.03-0.96-0.49-1.33
		c-1.09-0.76-2.32-1.23-3.54-1.69c-2.42-0.91-4.47-2.43-6.64-3.76c-3.46-2.13-5.87-5.3-8.34-8.38c-2.02-2.53-3.49-5.43-4.44-8.56
		c-0.14-0.48-0.62-0.83-0.5-1.4c-0.34-0.5-0.24-1.12-0.44-1.66c-0.01-0.15-0.03-0.3-0.04-0.44c-0.47-0.65-0.22-1.44-0.43-2.14
		c-0.01-0.3-0.03-0.61-0.04-0.91c-0.27-0.6-0.29-1.27-0.43-1.9c-0.02-0.46-0.04-0.91-0.05-1.37c-0.58-1.14-0.1-2.39-0.41-3.56
		c-0.35-1.79-0.15-3.58,0-5.37c0.25-0.85-0.08-1.75,0.19-2.6c0.28-2.55,0.51-5.09,1.06-7.62c0.27-1.26,0.43-2.56,0.62-3.85
		c0.39-0.49,0.02-1.18,0.43-1.67c0.4-0.98,0.97-1.91,0.97-3.02c0.29-0.94,0.15-2.03,0.94-2.81c0.37-1.02,0.74-2.04,1.11-3.05
		c-0.1-0.71,0.35-1.18,0.73-1.68c0.32-0.85,0.64-1.71,0.96-2.56c0.26-0.58,0.46-1.19,0.93-1.65c0.16-0.31,0.33-0.61,0.49-0.92
		C362.25-304.58,362.65-305.4,363.45-305.99z"/>
	<path fill="#EEBAA7" d="M393.94-231.43c-1.27,0.11-2.58,1.18-3.78-0.16c-0.09-0.11-0.09-0.22,0.01-0.32
		c4.53,0.13,8.24-2.1,11.95-4.25c2.9-1.68,5.93-3.17,8.45-5.44c2.72-2.46,5.11-5.15,6.27-8.74c0.25-0.78,0.27-1.51,0.11-2.3
		c-0.69-3.38-2.56-6.17-4.48-8.94c-0.69-0.99-1.44-1.94-2.29-2.81c-0.73-0.75-0.77-1.66-0.14-2.31c1.99-2.05,4.26-3.66,7.04-4.44
		c3.05-0.86,5.73,0.23,7.45,2.92c1.36,2.14,2.16,4.48,2.56,6.97c0.22,1.33,0.58,1.67,1.87,1.77c1.34-0.54,1.51-1.82,1.8-2.96
		c0.28-1.09,0.58-2.18,0.87-3.26c0.88-3.34,0.37-6.74,0.42-10.12c0.01-0.97-0.38-1.97-0.94-2.85c-0.27-0.44-0.68-0.9-0.34-1.5
		c1.44,1.28,1.98,3.06,2.02,4.81c0.08,3.14,0.45,6.32-0.4,9.43c-0.48,1.75-0.88,3.54-1.46,5.26c-0.65,1.9-2.22,2.5-3.58,1.49
		c-0.72-0.53-0.88-1.34-1.01-2.16c-0.45-2.98-1.38-5.72-3.66-7.86c-1.58-1.49-3.49-1.82-5.5-0.94c-2.22,0.98-4.27,2.19-5.96,3.97
		c-0.43,0.45-0.69,0.88-0.02,1.34c0.21,0.14,0.3,0.35,0.33,0.59c0.38,0.55,0.87,1.02,1.13,1.65c2.03,2.65,3.7,5.48,4.71,8.68
		c0.06,0.18,0.16,0.34,0.24,0.51c0.18,1.41,0.32,2.81-0.23,4.18l0,0c-0.2,1.06-0.88,1.89-1.41,2.79c-0.09,0.17-0.18,0.33-0.27,0.5
		c-0.37,0.54-0.71,1.11-1.14,1.6c-0.09,0.09-0.18,0.18-0.26,0.28c-0.67,1.1-1.52,2.03-2.54,2.81l0,0c-0.91,0.31-1.52,1.06-2.24,1.62
		c-2.02,1.55-4.27,2.71-6.43,4.01l0,0c-0.83,0.51-1.77,0.81-2.57,1.38c-0.63,0.33-1.25,0.65-1.88,0.98
		c-0.94,0.4-1.85,0.83-2.82,1.17l0,0C395.15-231.99,394.56-231.64,393.94-231.43z"/>
	<path fill="#EEBBA7" d="M404.01-328.76c-4.04-2.41-8.62-3.99-11.91-7.6c-3.15-3.47-4.94-7.44-5.03-12.2
		c-0.05-2.61-0.17-5.23,0.54-7.75c0.99-3.52,1.59-7.16,3.14-10.53c0.45-0.98,0.81-2,1.38-2.94c0.73-1.21,1.77-1.88,2.65-1.66
		c0.97,0.25,1.93,1.53,1.94,2.79c0,1.55,0.11,3.11-0.13,4.67c-0.14,0.93,0,1.95,0.19,2.89c0.6,2.96,0.82,6.01,1.89,8.86
		c0.68,1.81,1.35,3.02,3.81,2.88c2.06-0.12,4.14-0.04,6.21-0.04c2.98,0,3.9-0.54,4.58-3.36c0.34-1.43,0.68-2.88,1.14-4.26
		c0.54-1.64,0.32-3.31,0.63-4.95c0.39-2.03,0.42-4.08,0.03-6.14c-0.1-0.54,0.15-1.14,0.25-1.71c0.14-0.07,0.25-0.04,0.33,0.09
		c0.52,2.19,0.49,4.41,0.38,6.64c-0.19,3.66-1.19,7.16-2.16,10.66c-0.24,0.86-0.66,1.68-1.11,2.45c-0.55,0.95-1.45,1.37-2.56,1.37
		c-1.84,0-3.68,0-5.51,0c-0.51,0-1.02,0.01-1.52,0.07c-2.55,0.33-4.29-0.69-5.22-3.12c-0.66-1.72-1.04-3.53-1.35-5.33
		c-0.44-2.57-1-5.15-0.84-7.79c0.07-1.21,0.13-2.41-0.03-3.62c-0.04-0.31-0.06-0.62-0.14-0.93c-0.15-0.6-0.42-1.11-1.07-1.27
		c-0.62-0.16-1.04,0.22-1.42,0.63c-0.59,0.65-0.95,1.44-1.25,2.24c-1.45,3.76-2.64,7.61-3.54,11.53c-0.89,3.85-1.07,7.79,0,11.59
		c1.06,3.76,2.92,7.1,6.27,9.48c2.43,1.74,5.01,3.17,7.67,4.49c0.88,0.43,1.88,0.8,2.31,1.84
		C404.37-328.6,404.19-328.63,404.01-328.76z"/>
	<path fill="#EFBEAC" d="M404.01-328.76c0.16,0,0.32,0,0.48-0.01c0.38-0.17,0.7,0.03,0.98,0.22c6.46,4.5,11.88,9.84,13.88,17.79
		c0.5,1.97,0.43,4.05-0.02,6.04c-0.27,1.22-0.66,2.41-0.98,3.62c-0.35,1.3-0.1,2.13,0.79,2.53c0.76,0.35,1.55-0.05,2.37-1.04
		c2.02-2.44,3.01-5.37,4.06-8.27c1.54-4.27,2.59-8.67,3.36-13.15c0.33-1.89-0.03-3.74-0.21-5.6c-0.38-3.91-1.79-7.5-3.65-10.93
		c-0.26-0.48-0.6-0.93-0.46-1.53c0.1-0.12,0.2-0.13,0.32-0.03c1.27,1.42,1.84,3.22,2.61,4.9c1.88,4.11,2.55,8.49,2.21,12.93
		c-0.3,3.9-1.09,7.75-2.47,11.46c-1.12,3.03-2.04,6.13-3.6,8.98c-0.77,1.42-1.71,2.68-3.43,3.12c-1.46,0.37-2.7-0.61-2.69-2.14
		c0.01-1.11,0.18-2.19,0.56-3.2c0.68-1.77,0.95-3.58,0.9-5.46c-0.07-2.59-1.14-4.87-2.24-7.11c-1.97-4.03-4.97-7.2-8.53-9.9
		C406.84-326.59,405.44-327.7,404.01-328.76z"/>
	<path fill="#EBA99A" d="M430.76-280.19c0.13,1,0.92,1.67,1.21,2.62c0.83,2.72,0.25,5.49,0.44,8.22c0.13,1.9-0.47,3.66-0.99,5.45
		c-0.25,0.88-0.38,1.81-0.68,2.68c-0.33,0.95-0.77,1.86-1.91,2.1c-0.01-0.12-0.02-0.24,0.04-0.34c1.99-2.97,2.32-6.44,2.66-9.82
		c0.27-2.65,0.31-5.37-0.33-8.04c-0.74-3.1-4.07-6.13-7.24-6.29c-4.07-0.2-8.12-0.1-12.01,1.39c-3.99,1.52-7.85,3.28-10.97,6.32
		c-0.7,0.68-1.5,1.25-2.19,1.94c-0.27,0.27-0.58,0.54-1.03,0.42c-0.13-0.08-0.16-0.18-0.07-0.31c2.11-1.78,3.93-3.89,6.33-5.32
		c3.4-2.01,6.93-3.7,10.82-4.63c3.18-0.76,6.38-0.92,9.58-0.55C427.15-284.04,429.37-282.67,430.76-280.19z"/>
	<path fill="#DD6645" d="M379.17-325.7c-0.1-0.02-0.2-0.04-0.3-0.06c1.29-1.03,0.93-2.47,1.02-3.83c0.2-3.17-0.43-6.29-0.64-9.42
		c-0.14-2.01,0.02-4.08-0.42-6.02c-0.43-1.86-0.15-3.77-0.74-5.62c-0.4-1.25-0.14-2.65-0.55-3.99c-0.5-1.65-0.85-3.36-1.29-5.04
		c-0.35-1.36-0.56-2.77-1.09-4.08c-0.72-1.79-1.26-3.65-2.08-5.41c-1.3-2.8-2.59-5.61-4-8.36c-0.69-1.35-1.67-2.51-2.62-3.67
		c-1.83-2.22-3.73-4.39-5.83-6.37c-0.66-0.62-1.67-0.91-1.9-1.95c2.56,2.09,4.96,4.35,6.96,7.01c0.67,0.9,1.51,1.67,2.2,2.57
		c1.65,2.12,2.72,4.56,3.81,6.98c0.87,1.92,1.93,3.77,2.6,5.76c0.76,2.24,1.7,4.41,2.16,6.78c0.3,1.54,0.74,3.11,1.19,4.65
		c0.51,1.76,0.81,3.59,0.99,5.42c0.51,4.99,0.92,9.99,1.36,14.98c0.19,2.17,0.3,4.36,0.53,6.53
		C380.68-327.49,380.17-326.51,379.17-325.7z"/>
	<path fill="#EFC0AE" d="M424.93-339.1c-0.1,0.01-0.21,0.02-0.31,0.03c-0.61,0.04-0.93-0.38-1.19-0.81
		c-1.03-1.69-1.45-3.44-0.97-5.47c0.58-2.49,1.37-4.98,1.17-7.6c-0.16-1.98-0.55-3.93-0.98-5.87c-0.81-3.71-1.98-7.3-3.74-10.68
		c-0.18-0.35-0.37-0.7-0.67-0.95c-0.62-0.52-1.26-0.59-1.88,0.02c-0.24,0.24-0.38,0.61-0.79,0.63c-0.09,0-0.17-0.01-0.26-0.01
		c-0.03-0.89,0.57-1.44,1.27-1.59c0.79-0.17,1.7-0.32,2.39,0.48c1.2,1.38,1.95,3.02,2.58,4.68c1.12,2.93,1.78,5.99,2.43,9.06
		c0.86,4.04,0.76,8.02-0.4,11.94C422.87-342.87,423.49-340.93,424.93-339.1z"/>
	<path fill="#E69980" d="M401.48-317.97c0.03,2.7-2.39,5.1-5.17,5.11c-2.54,0.02-5.36-2.65-5.39-5.09
		c-0.03-3.05,2.16-5.36,5.12-5.38C399.1-323.35,401.44-321.04,401.48-317.97z"/>
	<path fill="#F1C8B6" d="M397.69-273.85c0.01,0.1,0.02,0.19,0.03,0.29c-0.5,1.24-1.39,2.23-2.16,3.29
		c-3.13,4.32-5.39,9.03-6.85,14.16c-1.3,4.55-1.23,9.21-0.93,13.84c0.16,2.57,0.4,5.2,1.34,7.69c0.34,0.9,1.03,1.67,1.07,2.69
		c-0.01,0.1-0.02,0.2-0.04,0.3c-1.44-1.1-1.69-2.8-2.09-4.37c-1.37-5.34-1.34-10.84-0.8-16.21c0.46-4.55,1.95-9,4.39-13.07
		c1.29-2.16,2.62-4.29,4-6.4C396.2-272.49,396.83-273.28,397.69-273.85z"/>
	<path fill="#F1C8B6" d="M403.08-235.63c1.3-1.2,2.97-1.83,4.41-2.82c1.16-0.8,2.31-1.61,3.39-2.51c0.26-0.22,0.46-0.55,0.88-0.3
		c-1.75,1.72-3.82,3-5.92,4.21C404.95-236.54,404.19-235.72,403.08-235.63z"/>
	<path fill="#F1C8B6" d="M411.76-241.26c0.85-0.94,1.7-1.87,2.55-2.81C413.83-242.79,412.98-241.86,411.76-241.26z"/>
	<path fill="#F1C8B6" d="M417.39-249.23c0.3-1.38,0.26-2.78,0.23-4.18C417.96-252,418.18-250.59,417.39-249.23z"/>
	<path fill="#F1C8B6" d="M400.5-234.25c0.63-0.88,1.64-1.06,2.57-1.38C402.38-234.87,401.45-234.54,400.5-234.25z"/>
	<path fill="#F1C8B6" d="M415.98-246.45c0.26-1.03,1-1.83,1.41-2.79C417.39-248.06,416.76-247.21,415.98-246.45z"/>
	<path fill="#F1C8B6" d="M395.81-232.1c0.87-0.55,1.79-1,2.82-1.17C397.79-232.64,396.85-232.24,395.81-232.1z"/>
	<path fill="#F1C8B6" d="M412.67-262.6c-0.44-0.51-0.98-0.95-1.13-1.65C412.1-263.83,412.61-263.38,412.67-262.6z"/>
	<path fill="#F1C8B6" d="M414.57-244.34c0.24-0.64,0.56-1.21,1.14-1.6C415.54-245.26,415.21-244.69,414.57-244.34z"/>
	<path fill="#F1C8B6" d="M393.94-231.43c0.55-0.44,1.15-0.73,1.87-0.67C395.21-231.81,394.66-231.38,393.94-231.43z"/>
	<path fill="#DD6645" d="M377.48-324.33c0,0.68-0.59,0.96-0.98,1.35c-1.05,1.07-2.14,2.1-3.21,3.14c0.18-0.87,0.9-1.29,1.45-1.88
		C375.62-322.63,376.52-323.52,377.48-324.33z"/>
	<path fill="#DB5B3B" d="M363.45-305.99c-0.47,0.78-0.94,1.56-1.41,2.34C361.89-304.8,362.22-305.66,363.45-305.99z"/>
	<path fill="#DC6241" d="M357.82-293.78c-0.43,0.9-0.33,1.97-0.94,2.81C356.9-292.01,356.64-293.14,357.82-293.78z"/>
	<path fill="#DC6241" d="M353.61-266.84c0.46,1.15,0.18,2.38,0.41,3.56c-0.52-0.14-0.42-0.57-0.42-0.93
		C353.59-265.09,353.6-265.96,353.61-266.84z"/>
	<path fill="#DB5B3B" d="M370.47-316.34c-0.82,0.54-1.09,1.55-1.86,2.13c0.17-1.19,1.05-1.86,1.86-2.59
		C370.62-316.64,370.6-316.49,370.47-316.34z"/>
	<path fill="#DB5B3B" d="M366.7-311.42c-0.4,0.64-0.81,1.28-1.21,1.92C365.16-310.61,365.89-311.04,366.7-311.42z"/>
	<path fill="#DC6241" d="M355.91-287.95c0,0.59,0.25,1.25-0.43,1.67C355.59-286.85,355.08-287.57,355.91-287.95z"/>
	<path fill="#DC6241" d="M359.66-298.51c-0.24,0.56-0.49,1.12-0.73,1.68C358.47-297.7,359.05-298.11,359.66-298.51z"/>
	<path fill="#DB5B3B" d="M361.55-302.73c-0.19,0.62-0.38,1.24-0.93,1.65C360.55-301.83,360.8-302.42,361.55-302.73z"/>
	<path fill="#DD6645" d="M370.47-316.34c0-0.15,0-0.31,0-0.46c0.13-0.49,0.44-0.8,0.91-0.97
		C371.3-317.15,370.94-316.7,370.47-316.34z"/>
	<path fill="#DD6645" d="M353.8-274.81c-0.08,0.87,0.17,1.76-0.19,2.6C353.63-273.08,353.34-273.98,353.8-274.81z"/>
	<path fill="#DC6241" d="M354.54-259.1c0.14,0.71,0.29,1.42,0.43,2.14C354.21-257.55,354.59-258.36,354.54-259.1z"/>
	<path fill="#DC6241" d="M354.07-261.91c0.23,0.61,0.49,1.22,0.43,1.9C353.95-260.55,354.02-261.23,354.07-261.91z"/>
	<path fill="#DC6241" d="M355.01-256.52c0.3,0.51,0.48,1.06,0.44,1.66C354.77-255.27,355.03-255.93,355.01-256.52z"/>
	<g>
		<path fill="#D31D0C" d="M11.84,37.63c-1.2-0.82-2.12-1.89-2.87-3.12C8.39,33.56,8,32.52,7.71,31.45c-0.42-1.54-0.44-3.1-0.2-4.67
			c0.18-1.23,0.47-2.42,0.92-3.57c0.23-0.59,0.43-1.19,0.7-1.77c0.35-0.72,0.58-1.49,0.9-2.22c0.37-0.85,0.55-1.76,0.76-2.65
			c0.18-0.76,0.23-1.52-0.18-2.23c-0.46-0.8-1.01-1.51-1.86-1.94c-1.22-0.61-2.5-0.76-3.8-0.37c-0.95,0.28-1.7,0.87-2.26,1.7
			c-0.25,0.37-0.49,0.75-0.65,1.18c-0.08,0.23-0.29,0.36-0.53,0.35c-0.24-0.01-0.43-0.15-0.56-0.36c-0.19-0.31-0.34-0.63-0.48-0.96
			c-0.21-0.48-0.36-0.96-0.41-1.49c-0.03-0.33-0.1-0.65-0.11-0.99c-0.02-0.91,0.15-1.8,0.36-2.67C0.45,8.2,0.68,7.65,0.9,7.1
			c0.25-0.63,0.63-1.18,0.96-1.75C2.11,4.93,2.45,4.57,2.78,4.2c0.89-0.98,1.93-1.79,3.09-2.43c0.99-0.55,2.04-0.99,3.14-1.31
			c1.16-0.34,2.34-0.52,3.55-0.44c1.51,0.1,3,0.33,4.34,1.09c0.57,0.32,1.15,0.64,1.66,1.07c0.07,0.06,0.14,0.1,0.22,0.15
			c0.38,0.36,0.77,0.71,1.12,1.1c0.45,0.49,0.89,0.99,1.25,1.55c0.28,0.44,0.45,0.94,0.69,1.41c0.33,0.66,0.59,1.35,0.83,2.04
			c0.12,0.33,0.16,0.69,0.26,1.02c0.11,0.39,0.19,0.78,0.29,1.18c0.08,0.32,0.1,0.65,0.14,0.98c0.11,0.76,0.12,1.52,0.19,2.28
			c0.09,0.89,0.19,1.79,0.19,2.69c0,0.21-0.16,0.31-0.25,0.46c-0.08,0.16-0.23,0.26-0.35,0.39c-0.31,0.35-0.71,0.6-0.95,1.01
			c-0.11,0.2-0.3,0.33-0.45,0.5c-0.09,0.06-0.16,0.14-0.22,0.22c-0.14,0.19-0.34,0.34-0.41,0.58c-0.1,0.26-0.34,0.41-0.45,0.65
			c-0.15,0.11-0.3,0.22-0.27,0.44c-0.14,0.29-0.33,0.55-0.49,0.83c-0.22,0.1-0.3,0.28-0.3,0.51c-0.03,0.09-0.07,0.17-0.13,0.24
			c-0.12,0.1-0.19,0.22-0.19,0.38c-0.05,0.2-0.12,0.4-0.23,0.58c-0.13,0.11-0.21,0.23-0.17,0.41c-0.08,0.24-0.11,0.5-0.26,0.71
			c-0.2,0.16-0.19,0.39-0.18,0.62c-0.02,0.26-0.11,0.5-0.25,0.72c-0.12,0.11-0.06,0.26-0.08,0.4c-0.17,0.86-0.32,1.73-0.4,2.61
			c-0.05,0.2-0.05,0.4-0.05,0.61c0,0.41-0.05,0.82,0.02,1.23c0.02,0.27-0.06,0.55,0.06,0.81c0.04,0.1,0.02,0.21,0.02,0.31
			c0.01,0.16,0.02,0.31,0.09,0.46c0.02,0.07,0.01,0.14,0.02,0.21c0.03,0.16-0.02,0.33,0.08,0.48c0.02,0.04,0.02,0.08,0.02,0.12
			c0.02,0.13,0.01,0.28,0.1,0.39c0.17,0.5,0.38,0.98,0.61,1.44c0.21,0.41,0.5,0.77,0.78,1.13c0.27,0.34,0.54,0.68,0.85,0.98
			c0.38,0.38,0.84,0.65,1.28,0.95c0.5,0.35,1.08,0.57,1.64,0.81c0.17,0.07,0.36,0.14,0.38,0.37c0.02,0.16-0.04,0.27-0.21,0.33
			c-0.46,0.14-0.92,0.25-1.38,0.34c-0.69,0.13-1.39,0.15-2.09,0.18c-0.79,0.04-1.56-0.11-2.33-0.25c-0.52-0.09-1.04-0.16-1.56-0.29
			c-0.68-0.17-1.35-0.34-1.98-0.65c-0.22-0.11-0.45-0.16-0.68-0.26C12.81,38.3,12.33,37.97,11.84,37.63z"/>
		<path fill="#D31D0C" d="M26.05,38.77c-0.35-0.47-0.46-1.02-0.55-1.58c-0.12-0.74-0.12-1.49-0.12-2.24c0-0.51,0.11-0.99,0.19-1.49
			c0.19-1.11,0.71-2.07,1.24-3.01c0.26-0.47,0.58-0.93,0.97-1.31c0.23-0.12,0.42-0.32,0.6-0.5c0.67-0.69,1.51-1.09,2.37-1.46
			c1.01-0.43,2.07-0.54,3.15-0.43c0.67,0.07,1.17,0.45,1.5,1.06c0.43,0.79,0.3,1.63,0.28,2.46c-0.02,0.56-0.22,1.09-0.33,1.63
			c-0.05,0.24-0.2,0.42-0.37,0.58c-0.31-0.04-0.46-0.19-0.49-0.48c-0.06-0.56-0.22-1.1-0.55-1.55c-0.58-0.8-1.1-0.93-1.9-0.61
			c-0.52,0.21-0.95,0.54-1.35,0.91c-0.16,0.15-0.13,0.31,0.01,0.45c0.56,0.54,0.94,1.22,1.31,1.9c0.44,0.81,0.37,1.58-0.19,2.35
			c-0.62,0.85-1.39,1.49-2.29,2c-0.84,0.47-1.64,1.01-2.57,1.28C26.67,38.8,26.36,38.92,26.05,38.77z"/>
		<path fill="#D21D0C" d="M31.91,6.89C32,6.7,32.1,6.54,32.35,6.56c0.22,0.02,0.31,0.18,0.4,0.35c0.34,0.6,0.53,1.27,0.75,1.91
			c0.11,0.33,0.16,0.69,0.23,1.04c0.16,0.75,0.18,1.5-0.06,2.24c-0.06,0.19-0.09,0.4-0.13,0.6c-0.08,0.5,0.07,0.93,0.45,1.28
			c0.18,0.41,0.43,0.78,0.59,1.2c0.16,0.44,0.32,0.88,0.39,1.35c0.1,0.63,0.18,1.26,0.06,1.88c-0.17,0.84-0.35,1.68-0.64,2.5
			c-0.2,0.56-0.4,1.12-0.66,1.65c-0.13,0.26-0.3,0.49-0.5,0.7c-0.15,0.16-0.34,0.28-0.58,0.14c-0.22-0.14-0.28-0.36-0.2-0.63
			c0.16-0.54,0.32-1.08,0.31-1.66c-0.01-0.73-0.29-1.37-0.63-1.98c-0.66-1.19-1.69-2.03-2.8-2.77c-0.46-0.38-1.03-0.58-1.54-0.87
			c-0.65-0.37-1.25-0.81-1.67-1.42c-0.33-0.48-0.56-1.04-0.67-1.63c-0.09-0.46-0.08-0.91-0.08-1.37c0-0.65,0.18-1.27,0.35-1.88
			c0.16-0.57,0.35-1.14,0.56-1.7c0.09-0.24,0.19-0.46,0.33-0.68c0.09-0.14,0.23-0.26,0.4-0.23c0.2,0.04,0.34,0.17,0.35,0.39
			c0.02,0.31,0.1,0.62,0.03,0.94c-0.07,0.32-0.01,0.65,0.05,0.97c0.13,0.8,0.2,1.61,0.55,2.35c0.16,0.33,0.44,0.52,0.83,0.49
			c0.6-0.05,1.19-0.02,1.79-0.03c0.36,0,0.53-0.11,0.66-0.44c0.46-1.18,0.71-2.39,0.67-3.66C31.94,7.37,31.88,7.13,31.91,6.89z"/>
		<path fill="#D31D0C" d="M28.21,19.57c-0.32,0.32-0.79,0.45-1.13,0.3c-0.41-0.18-0.81-0.66-0.74-1.14c0.08-0.54,0.33-0.88,0.85-1
			c0.47-0.11,0.93,0.11,1.17,0.56c0.02,0.03,0.04,0.06,0.06,0.09C28.6,18.83,28.55,19.23,28.21,19.57z"/>
	</g>
	<path fill="#DC5D43" d="M399.56-314.92c0.47-1.15,1.52-2.1,1.18-3.53c-0.13-0.53-0.18-1.07-0.26-1.6
		C401.58-318.52,401.17-316.23,399.56-314.92z"/>
</g>
</svg>
