<?xml version="1.0" encoding="utf-8"?>
<!-- Generator: Adobe Illustrator 25.0.0, SVG Export Plug-In . SVG Version: 6.00 Build 0)  -->
<svg version="1.1" baseProfile="tiny" xmlns="http://www.w3.org/2000/svg" xmlns:xlink="http://www.w3.org/1999/xlink" x="0px"
	 y="0px" viewBox="0 0 30.7 40" overflow="visible" xml:space="preserve">
<g id="Layer_2">
</g>
<g id="Layer_1">
	<path fill="#009286" d="M15.2,40c-0.13-0.11-0.26-0.22-0.38-0.33C10.08,34.93,5.35,30.2,0.6,25.48c-0.31-0.31-0.42-0.61-0.42-1.04
		c0.01-7.93,0.01-15.85,0-23.78C0.18,0.16,0.27,0,0.81,0C10.41,0.02,20,0.02,29.6,0c0.47,0,0.63,0.06,0.63,0.6
		c-0.02,7.95-0.01,15.89-0.02,23.84c0,0.17-0.01,0.34-0.02,0.51c-0.15-0.14-0.31-0.27-0.46-0.42c-4.67-4.67-9.34-9.34-14.01-14
		c-0.14-0.14-0.25-0.33-0.52-0.41c0,0.22,0,0.42,0,0.62C15.21,20.5,15.21,30.25,15.2,40z"/>
	<path fill="#F0BF01" d="M15.2,40c0-9.75,0-19.5,0.01-29.25c0-0.2,0-0.4,0-0.62c0.28,0.07,0.38,0.27,0.52,0.41
		c4.67,4.66,9.34,9.33,14.01,14c0.15,0.15,0.3,0.28,0.46,0.42c0.03,0.24-0.17,0.32-0.29,0.45c-4.77,4.78-9.54,9.56-14.32,14.34
		C15.48,39.84,15.41,40.03,15.2,40z"/>
</g>
</svg>
