<?xml version="1.0" encoding="utf-8"?>
<!-- Generator: Adobe Illustrator 25.0.0, SVG Export Plug-In . SVG Version: 6.00 Build 0)  -->
<svg version="1.1" baseProfile="basic" id="Layer_1"
	 xmlns="http://www.w3.org/2000/svg" xmlns:xlink="http://www.w3.org/1999/xlink" x="0px" y="0px" viewBox="0 0 140 91.26"
	 xml:space="preserve">
<path fill="#F6CB48" d="M18.21,12.68l0.95,3.88c0.31,1.33,0.59,2.75,0.55,4.25c-0.04,1.49-0.4,3.08-1.37,4.47
	c-0.93,1.39-2.54,2.57-4.36,2.88c-1.83,0.31-3.6-0.29-4.87-1.14c-1.31-0.85-2.26-1.94-3.15-3c-0.88-1.07-1.65-2.18-2.36-3.34
	c-0.71-1.16-1.39-2.37-1.97-3.66c-1.15-2.57-1.76-5.55-1.17-8.59c0.28-1.52,0.78-3.09,1.8-4.53c0.98-1.44,2.61-2.73,4.53-3.2
	c1.93-0.46,3.94-0.07,5.44,0.75c1.53,0.82,2.6,2.07,3.35,3.37c0.76,1.31,1.2,2.69,1.59,4C17.56,10.14,17.88,11.41,18.21,12.68z
	 M17.73,12.81c-0.35-1.23-0.94-2.39-1.75-3.37c-0.8-0.98-1.81-1.77-2.82-2.36c-1.01-0.59-2.02-0.99-2.87-1.2
	c-0.86-0.22-1.55-0.2-2.14-0.02c-0.59,0.2-1.13,0.57-1.7,1.19c-0.56,0.62-1.05,1.5-1.39,2.5c-0.62,2.01-0.88,4.35-0.78,6.79
	c0.16,2.41,1.06,4.93,2.86,6.6c0.88,0.83,2,1.39,3.07,1.57c1.08,0.19,2.02-0.04,2.71-0.37c0.7-0.37,1.26-0.84,1.87-1.51
	c0.6-0.67,1.24-1.53,1.81-2.56c0.58-1.02,1.06-2.21,1.28-3.46C18.11,15.35,18.05,14.05,17.73,12.81z"/>
<path fill="#F6CB48" d="M24.86,28.2l0.95,3.88c0.31,1.33,0.59,2.75,0.55,4.25c-0.04,1.49-0.4,3.08-1.37,4.47
	c-0.93,1.39-2.54,2.57-4.36,2.88c-1.83,0.31-3.6-0.29-4.87-1.14c-1.31-0.85-2.26-1.94-3.15-3c-0.88-1.07-1.65-2.18-2.36-3.34
	c-0.71-1.16-1.39-2.37-1.97-3.66c-1.15-2.57-1.76-5.55-1.17-8.59c0.28-1.52,0.78-3.09,1.8-4.53c0.98-1.44,2.61-2.73,4.53-3.2
	c1.93-0.46,3.94-0.07,5.44,0.75c1.53,0.82,2.6,2.08,3.35,3.37c0.76,1.31,1.2,2.69,1.59,4C24.21,25.65,24.53,26.93,24.86,28.2z
	 M24.38,28.32c-0.35-1.23-0.94-2.39-1.75-3.37c-0.8-0.98-1.81-1.77-2.82-2.36c-1.01-0.59-2.02-0.99-2.87-1.2
	c-0.86-0.22-1.55-0.2-2.14-0.02c-0.59,0.2-1.13,0.57-1.7,1.19c-0.56,0.62-1.05,1.5-1.39,2.5c-0.62,2.01-0.88,4.35-0.78,6.79
	c0.16,2.41,1.06,4.93,2.86,6.6c0.88,0.83,2,1.39,3.07,1.57c1.08,0.19,2.02-0.04,2.71-0.37c0.7-0.37,1.26-0.84,1.87-1.51
	c0.6-0.67,1.24-1.53,1.81-2.56c0.58-1.02,1.06-2.21,1.28-3.46C24.76,30.87,24.7,29.56,24.38,28.32z"/>
<path fill="#F6CB48" d="M32.55,41.33l2.15,3.36c0.72,1.16,1.45,2.41,1.9,3.85c0.44,1.42,0.61,3.04,0.15,4.67
	c-0.43,1.62-1.58,3.25-3.2,4.13c-1.63,0.88-3.5,0.88-4.98,0.49c-1.52-0.39-2.77-1.11-3.94-1.82c-1.18-0.73-2.27-1.53-3.32-2.4
	c-1.05-0.87-2.08-1.79-3.04-2.83c-1.92-2.06-3.45-4.68-3.88-7.76c-0.23-1.53-0.26-3.17,0.24-4.87c0.46-1.68,1.59-3.42,3.26-4.49
	c1.68-1.05,3.7-1.34,5.39-1.05c1.72,0.28,3.13,1.13,4.26,2.11c1.14,0.99,2.01,2.16,2.8,3.28C31.11,39.13,31.82,40.24,32.55,41.33z
	 M32.13,41.61c-0.72-1.05-1.66-1.96-2.74-2.63c-1.08-0.67-2.29-1.09-3.43-1.32c-1.14-0.24-2.23-0.28-3.1-0.21
	c-0.88,0.07-1.53,0.31-2.04,0.67c-0.49,0.38-0.89,0.9-1.23,1.67c-0.33,0.77-0.51,1.76-0.51,2.81c0.06,2.1,0.57,4.4,1.46,6.67
	c0.94,2.23,2.6,4.32,4.84,5.32c1.1,0.5,2.34,0.67,3.41,0.49c1.09-0.17,1.89-0.69,2.45-1.22c0.54-0.58,0.92-1.2,1.29-2.03
	c0.35-0.83,0.68-1.85,0.89-3c0.22-1.15,0.29-2.43,0.1-3.69C33.31,43.89,32.84,42.67,32.13,41.61z"/>
<path fill="#F6CB48" d="M43.85,53.87L46,57.23c0.72,1.16,1.45,2.41,1.9,3.85c0.44,1.42,0.61,3.04,0.15,4.67
	c-0.43,1.62-1.58,3.25-3.2,4.13c-1.63,0.88-3.5,0.88-4.98,0.49c-1.52-0.39-2.77-1.11-3.94-1.82c-1.18-0.73-2.27-1.53-3.32-2.4
	c-1.05-0.87-2.08-1.79-3.04-2.83c-1.92-2.06-3.45-4.68-3.88-7.76c-0.23-1.53-0.26-3.17,0.24-4.87c0.46-1.68,1.59-3.42,3.26-4.49
	c1.68-1.05,3.7-1.34,5.39-1.05c1.72,0.28,3.13,1.13,4.26,2.11c1.14,0.99,2.01,2.16,2.8,3.28C42.41,51.67,43.12,52.77,43.85,53.87z
	 M43.43,54.14c-0.72-1.05-1.66-1.96-2.74-2.63c-1.08-0.67-2.29-1.09-3.43-1.32c-1.14-0.24-2.23-0.28-3.1-0.21
	c-0.88,0.07-1.53,0.31-2.04,0.67c-0.49,0.38-0.89,0.9-1.23,1.67c-0.33,0.77-0.51,1.76-0.51,2.81c0.06,2.1,0.57,4.4,1.46,6.67
	c0.94,2.23,2.6,4.32,4.84,5.32c1.1,0.5,2.34,0.67,3.41,0.49c1.09-0.17,1.89-0.69,2.45-1.22c0.54-0.58,0.92-1.2,1.29-2.03
	c0.35-0.83,0.68-1.85,0.89-3c0.22-1.15,0.29-2.43,0.1-3.69C44.62,56.42,44.14,55.21,43.43,54.14z"/>
<path fill="#F6CB48" d="M53.64,65.03l2.88,2.76c0.97,0.96,1.98,2,2.75,3.29c0.76,1.28,1.31,2.81,1.24,4.51
	c-0.04,1.67-0.76,3.53-2.13,4.77c-1.38,1.24-3.19,1.68-4.72,1.66c-1.56-0.02-2.95-0.42-4.26-0.84c-1.31-0.43-2.56-0.95-3.79-1.55
	c-1.22-0.6-2.45-1.25-3.63-2.03c-2.35-1.55-4.46-3.74-5.6-6.62c-0.58-1.43-1-3.02-0.92-4.79c0.05-1.74,0.73-3.7,2.1-5.13
	c1.38-1.42,3.29-2.17,4.99-2.29c1.73-0.13,3.3,0.36,4.64,1.04c1.34,0.69,2.46,1.62,3.49,2.53C51.72,63.23,52.67,64.14,53.64,65.03z
	 M53.3,65.4c-0.95-0.85-2.08-1.51-3.28-1.91c-1.21-0.4-2.48-0.52-3.65-0.48c-1.17,0.04-2.23,0.25-3.06,0.53
	c-0.84,0.28-1.42,0.66-1.82,1.13c-0.38,0.49-0.65,1.08-0.8,1.91c-0.14,0.82-0.08,1.83,0.17,2.85c0.55,2.03,1.59,4.14,2.99,6.14
	c1.44,1.95,3.54,3.59,5.96,4.03c1.19,0.23,2.44,0.1,3.44-0.33c1.02-0.42,1.68-1.12,2.09-1.77c0.39-0.69,0.61-1.38,0.77-2.28
	c0.15-0.89,0.22-1.96,0.16-3.13c-0.06-1.17-0.29-2.43-0.78-3.61C54.99,67.33,54.23,66.26,53.3,65.4z"/>
<path fill="#F6CB48" d="M63.88,72.61l3.88,0.94c1.32,0.34,2.72,0.74,4.03,1.46c1.3,0.72,2.55,1.77,3.34,3.27
	c0.81,1.47,1.11,3.44,0.56,5.19c-0.56,1.77-1.91,3.06-3.25,3.81c-1.36,0.77-2.76,1.12-4.11,1.42c-1.35,0.29-2.69,0.46-4.06,0.56
	c-1.36,0.09-2.74,0.15-4.15,0.07c-2.81-0.15-5.73-0.99-8.17-2.91c-1.22-0.94-2.38-2.11-3.2-3.68c-0.83-1.53-1.22-3.57-0.76-5.5
	c0.48-1.92,1.75-3.53,3.16-4.49c1.43-0.99,3.03-1.35,4.53-1.43c1.51-0.08,2.94,0.17,4.29,0.43C61.32,72.02,62.6,72.32,63.88,72.61z
	 M63.77,73.09c-1.25-0.26-2.56-0.26-3.8,0c-1.24,0.26-2.41,0.8-3.39,1.42c-0.99,0.62-1.8,1.34-2.38,2c-0.59,0.66-0.89,1.28-1,1.89
	c-0.09,0.61-0.02,1.26,0.27,2.06c0.3,0.78,0.85,1.62,1.58,2.38c1.5,1.47,3.46,2.77,5.67,3.81c2.22,0.96,4.86,1.32,7.18,0.49
	c1.14-0.4,2.16-1.14,2.81-2.01c0.67-0.88,0.89-1.81,0.92-2.58c-0.01-0.79-0.17-1.5-0.48-2.36c-0.32-0.84-0.79-1.81-1.44-2.78
	c-0.64-0.98-1.47-1.96-2.48-2.73C66.21,73.92,65.02,73.37,63.77,73.09z"/>
<path fill="#F6CB48" d="M121.94,14.29c-0.33,1.23-0.39,2.54-0.17,3.79c0.22,1.25,0.7,2.44,1.28,3.46c0.57,1.02,1.21,1.89,1.81,2.56
	c0.62,0.67,1.18,1.14,1.87,1.51c0.69,0.33,1.63,0.56,2.71,0.37c1.07-0.18,2.19-0.74,3.07-1.57c1.8-1.67,2.7-4.18,2.86-6.6
	c0.1-2.44-0.15-4.78-0.78-6.79c-0.33-0.99-0.83-1.87-1.39-2.5c-0.57-0.62-1.11-0.98-1.7-1.19c-0.59-0.18-1.28-0.2-2.14,0.02
	c-0.85,0.21-1.86,0.6-2.87,1.2c-1.01,0.59-2.02,1.38-2.82,2.36C122.89,11.9,122.29,13.06,121.94,14.29z M121.46,14.16
	c0.33-1.27,0.65-2.54,1.04-3.87c0.39-1.32,0.83-2.7,1.59-4c0.76-1.29,1.82-2.55,3.35-3.37c1.5-0.82,3.51-1.21,5.44-0.75
	c1.93,0.48,3.55,1.76,4.53,3.2c1.01,1.45,1.52,3.02,1.8,4.53c0.59,3.05-0.02,6.03-1.17,8.59c-0.58,1.29-1.26,2.49-1.97,3.66
	c-0.71,1.16-1.48,2.28-2.36,3.34c-0.88,1.06-1.83,2.14-3.15,3c-1.28,0.85-3.04,1.45-4.87,1.14c-1.82-0.31-3.43-1.49-4.36-2.88
	c-0.97-1.4-1.33-2.98-1.37-4.47c-0.04-1.5,0.25-2.92,0.55-4.25L121.46,14.16z"/>
<path fill="#F6CB48" d="M115.29,29.8c-0.33,1.23-0.39,2.54-0.17,3.79c0.22,1.25,0.7,2.44,1.28,3.46c0.57,1.02,1.21,1.89,1.81,2.56
	c0.62,0.67,1.18,1.14,1.87,1.51c0.69,0.33,1.63,0.56,2.71,0.37c1.07-0.18,2.19-0.74,3.07-1.57c1.8-1.67,2.7-4.18,2.86-6.6
	c0.1-2.44-0.15-4.78-0.78-6.79c-0.33-0.99-0.83-1.87-1.39-2.5c-0.57-0.62-1.11-0.98-1.7-1.19c-0.59-0.18-1.28-0.2-2.14,0.02
	c-0.85,0.21-1.86,0.6-2.87,1.2c-1.01,0.59-2.02,1.38-2.82,2.36C116.24,27.41,115.64,28.57,115.29,29.8z M114.81,29.68
	c0.33-1.27,0.65-2.54,1.04-3.87c0.39-1.32,0.83-2.7,1.59-4c0.76-1.29,1.82-2.55,3.35-3.37c1.5-0.82,3.51-1.21,5.44-0.75
	c1.93,0.48,3.55,1.76,4.53,3.2c1.01,1.45,1.52,3.02,1.8,4.53c0.59,3.05-0.02,6.03-1.17,8.59c-0.58,1.29-1.26,2.49-1.97,3.66
	c-0.71,1.16-1.48,2.28-2.36,3.34c-0.88,1.06-1.83,2.14-3.15,3c-1.28,0.85-3.04,1.45-4.87,1.14c-1.82-0.31-3.43-1.49-4.36-2.88
	c-0.97-1.4-1.33-2.98-1.37-4.47c-0.04-1.5,0.25-2.92,0.55-4.25L114.81,29.68z"/>
<path fill="#F6CB48" d="M107.54,43.08c-0.71,1.06-1.19,2.28-1.38,3.54c-0.2,1.26-0.12,2.54,0.1,3.69c0.21,1.15,0.53,2.17,0.89,3
	c0.37,0.84,0.75,1.46,1.29,2.03c0.55,0.53,1.36,1.05,2.45,1.22c1.07,0.18,2.31,0.01,3.41-0.49c2.24-1,3.9-3.09,4.84-5.32
	c0.88-2.28,1.4-4.57,1.46-6.67c0-1.05-0.18-2.04-0.51-2.81c-0.34-0.77-0.74-1.29-1.23-1.67c-0.5-0.36-1.15-0.6-2.04-0.67
	c-0.87-0.07-1.95-0.03-3.1,0.21c-1.15,0.23-2.36,0.65-3.43,1.32C109.2,41.13,108.27,42.03,107.54,43.08z M107.12,42.81
	c0.72-1.09,1.44-2.2,2.23-3.32c0.79-1.12,1.65-2.29,2.8-3.28c1.13-0.98,2.54-1.83,4.26-2.11c1.69-0.29,3.71-0.01,5.39,1.05
	c1.67,1.07,2.79,2.81,3.26,4.49c0.49,1.7,0.46,3.34,0.24,4.87c-0.43,3.07-1.96,5.7-3.88,7.76c-0.96,1.03-2,1.95-3.04,2.83
	c-1.05,0.87-2.14,1.68-3.32,2.4c-1.18,0.71-2.43,1.44-3.94,1.82c-1.48,0.39-3.35,0.39-4.98-0.5c-1.62-0.88-2.76-2.52-3.2-4.13
	c-0.47-1.63-0.3-3.25,0.15-4.67c0.45-1.43,1.18-2.68,1.9-3.85L107.12,42.81z"/>
<path fill="#F6CB48" d="M96.24,55.62c-0.71,1.06-1.19,2.28-1.38,3.54c-0.2,1.26-0.12,2.54,0.1,3.69c0.21,1.15,0.53,2.17,0.89,3
	c0.37,0.84,0.75,1.46,1.29,2.03c0.55,0.53,1.36,1.05,2.45,1.22c1.07,0.18,2.31,0.01,3.41-0.49c2.24-1,3.9-3.09,4.84-5.32
	c0.88-2.28,1.4-4.57,1.46-6.67c0-1.05-0.18-2.04-0.51-2.81c-0.34-0.77-0.74-1.29-1.23-1.67c-0.5-0.36-1.15-0.6-2.04-0.67
	c-0.87-0.07-1.95-0.03-3.1,0.21c-1.15,0.23-2.36,0.65-3.43,1.32C97.9,53.66,96.96,54.57,96.24,55.62z M95.82,55.35
	c0.72-1.09,1.44-2.2,2.23-3.32c0.79-1.12,1.65-2.29,2.8-3.28c1.13-0.98,2.54-1.83,4.26-2.11c1.69-0.29,3.71-0.01,5.39,1.05
	c1.67,1.07,2.79,2.81,3.26,4.49c0.49,1.7,0.46,3.34,0.24,4.87c-0.43,3.07-1.96,5.7-3.88,7.76c-0.96,1.03-2,1.95-3.04,2.83
	c-1.05,0.87-2.14,1.68-3.32,2.4c-1.18,0.71-2.43,1.44-3.94,1.82c-1.48,0.39-3.35,0.39-4.98-0.49c-1.62-0.88-2.76-2.52-3.2-4.13
	c-0.47-1.63-0.3-3.25,0.15-4.67c0.45-1.43,1.18-2.68,1.9-3.85L95.82,55.35z"/>
<path fill="#F6CB48" d="M86.37,66.87c-0.94,0.87-1.69,1.94-2.18,3.11c-0.49,1.17-0.72,2.44-0.78,3.61
	c-0.07,1.17,0.01,2.24,0.16,3.13c0.16,0.9,0.38,1.59,0.77,2.28c0.41,0.65,1.07,1.34,2.09,1.77c1,0.43,2.25,0.56,3.44,0.33
	c2.42-0.44,4.52-2.08,5.96-4.03c1.4-2.01,2.44-4.11,2.99-6.14c0.25-1.02,0.31-2.03,0.17-2.85c-0.15-0.83-0.41-1.43-0.8-1.91
	c-0.4-0.47-0.98-0.86-1.82-1.13c-0.83-0.28-1.89-0.49-3.06-0.53c-1.17-0.05-2.44,0.08-3.65,0.48
	C88.45,65.36,87.33,66.02,86.37,66.87z M86.03,66.51c0.96-0.89,1.92-1.8,2.95-2.7c1.03-0.9,2.15-1.83,3.49-2.53
	c1.33-0.69,2.9-1.18,4.64-1.04c1.71,0.12,3.61,0.87,4.99,2.29c1.37,1.44,2.05,3.39,2.1,5.13c0.08,1.76-0.34,3.36-0.92,4.79
	c-1.14,2.89-3.25,5.08-5.6,6.62c-1.18,0.78-2.4,1.43-3.63,2.03c-1.23,0.6-2.47,1.12-3.79,1.55c-1.31,0.42-2.7,0.82-4.26,0.84
	c-1.53,0.03-3.35-0.41-4.72-1.66c-1.37-1.24-2.09-3.1-2.13-4.77c-0.07-1.7,0.48-3.23,1.24-4.51c0.77-1.29,1.78-2.33,2.75-3.29
	L86.03,66.51z"/>
<path fill="#F6CB48" d="M74.86,74.89c-1.19,0.45-2.29,1.17-3.18,2.07c-0.89,0.91-1.58,1.99-2.07,3.06c-0.5,1.06-0.83,2.08-1.02,2.96
	c-0.19,0.89-0.24,1.62-0.14,2.4c0.14,0.75,0.49,1.65,1.28,2.42c0.77,0.77,1.88,1.35,3.07,1.58c2.41,0.49,4.97-0.24,7.03-1.52
	c2.04-1.34,3.79-2.91,5.07-4.58c0.61-0.85,1.04-1.77,1.22-2.58c0.17-0.83,0.15-1.48-0.03-2.07c-0.2-0.59-0.59-1.16-1.27-1.73
	c-0.67-0.57-1.57-1.16-2.64-1.63c-1.07-0.48-2.3-0.84-3.56-0.92C77.35,74.26,76.06,74.45,74.86,74.89z M74.68,74.42
	c1.23-0.47,2.45-0.95,3.74-1.41c1.29-0.45,2.67-0.9,4.18-1.04c1.49-0.14,3.13-0.01,4.69,0.76c1.54,0.74,3.02,2.15,3.78,3.99
	c0.73,1.84,0.64,3.91,0.04,5.55c-0.58,1.67-1.57,2.99-2.64,4.1c-2.13,2.25-4.91,3.5-7.67,4.06c-1.38,0.28-2.76,0.43-4.12,0.53
	c-1.36,0.1-2.72,0.12-4.09,0.03c-1.37-0.1-2.81-0.24-4.27-0.81c-1.43-0.55-2.95-1.63-3.77-3.3c-0.81-1.66-0.78-3.65-0.2-5.22
	c0.57-1.6,1.65-2.82,2.84-3.72c1.2-0.91,2.52-1.5,3.78-2.03L74.68,74.42z"/>
</svg>
