<?xml version="1.0" encoding="utf-8"?>
<!-- Generator: Adobe Illustrator 25.0.0, SVG Export Plug-In . SVG Version: 6.00 Build 0)  -->
<svg version="1.1" baseProfile="basic" id="Layer_1"
	 xmlns="http://www.w3.org/2000/svg" xmlns:xlink="http://www.w3.org/1999/xlink" x="0px" y="0px" viewBox="0 0 140 110.87"
	 xml:space="preserve">
<path fill="none" stroke="#AD5E17" stroke-width="10" stroke-linecap="round" stroke-linejoin="round" stroke-miterlimit="10" d="
	M109.28,5.39c0,0-51.78,15.34-103.56,63.29"/>
<path fill="none" stroke="#B2B2B2" stroke-width="10" stroke-linecap="round" stroke-linejoin="round" stroke-miterlimit="10" d="
	M81.28,16.9c0,0-29.64,15.28-44.93,26.82"/>
<circle fill="#F2D9CE" cx="21.06" cy="89.78" r="21.1"/>
<circle fill="#99B3A9" cx="67.09" cy="59.09" r="21.1"/>
<circle fill="#E67131" cx="118.87" cy="30.33" r="21.1"/>
<circle fill="#F6CB48" cx="42.16" cy="72.52" r="21.1"/>
<circle fill="#239F8E" cx="97.77" cy="41.83" r="21.1"/>
<path fill="#F6CB48" d="M210.29-68.64c0.42,1.72,0.82,3.44,1.15,5.23c0.32,1.79,0.58,3.67,0.42,5.61c-0.15,1.93-0.68,3.96-1.93,5.71
	c-1.21,1.75-3.2,3.22-5.46,3.65c-2.28,0.4-4.52-0.23-6.21-1.28c-1.73-1.04-3.05-2.42-4.24-3.8c-1.19-1.4-2.22-2.9-3.14-4.47
	c-0.92-1.57-1.76-3.21-2.46-4.94c-0.66-1.74-1.22-3.56-1.44-5.47c-0.24-1.91-0.18-3.87,0.2-5.84c0.38-1.96,1.08-3.96,2.36-5.77
	c1.24-1.81,3.26-3.38,5.63-3.98c2.38-0.57,4.86-0.12,6.78,0.89c1.96,1,3.38,2.55,4.45,4.18c1.07,1.64,1.77,3.41,2.37,5.13
	C209.35-72.06,209.84-70.35,210.29-68.64z M209.81-68.51c-0.47-1.67-1.22-3.26-2.24-4.65c-1.01-1.39-2.28-2.56-3.6-3.49
	c-2.67-1.84-5.41-2.79-7.45-2.16c-1.03,0.32-1.95,0.98-2.81,1.96c-0.84,0.98-1.49,2.31-1.94,3.74c-0.45,1.44-0.66,3-0.78,4.6
	c-0.1,1.59-0.12,3.25,0.08,4.91c0.41,3.3,1.71,6.66,4.14,9c1.19,1.17,2.68,2.02,4.17,2.38c1.5,0.36,2.91,0.23,4.05-0.23
	c1.14-0.49,2.08-1.25,2.98-2.29c0.88-1.04,1.7-2.33,2.38-3.8c0.68-1.46,1.21-3.11,1.41-4.82C210.37-65.07,210.24-66.83,209.81-68.51
	z"/>
<path fill="#F6CB48" d="M219.29-47.64c0.42,1.72,0.82,3.44,1.15,5.23c0.32,1.79,0.58,3.67,0.42,5.61c-0.15,1.93-0.68,3.96-1.93,5.71
	c-1.21,1.75-3.2,3.22-5.46,3.65c-2.28,0.4-4.52-0.23-6.21-1.28c-1.73-1.04-3.05-2.42-4.24-3.8c-1.19-1.4-2.22-2.9-3.14-4.47
	c-0.92-1.57-1.76-3.21-2.46-4.94c-0.66-1.74-1.22-3.56-1.44-5.47c-0.24-1.91-0.18-3.87,0.2-5.84c0.38-1.96,1.08-3.96,2.36-5.77
	c1.24-1.81,3.26-3.38,5.63-3.98c2.38-0.57,4.86-0.12,6.78,0.89c1.96,1,3.38,2.55,4.45,4.18c1.07,1.64,1.77,3.41,2.37,5.13
	C218.35-51.06,218.84-49.35,219.29-47.64z M218.81-47.51c-0.47-1.67-1.22-3.26-2.24-4.65c-1.01-1.39-2.28-2.56-3.6-3.49
	c-2.67-1.84-5.41-2.79-7.45-2.16c-1.03,0.32-1.95,0.98-2.81,1.96c-0.84,0.98-1.49,2.31-1.94,3.74c-0.45,1.44-0.66,3-0.78,4.6
	c-0.1,1.59-0.12,3.25,0.08,4.91c0.41,3.3,1.71,6.66,4.14,9c1.19,1.17,2.68,2.02,4.17,2.38c1.5,0.36,2.91,0.23,4.05-0.23
	c1.14-0.49,2.08-1.25,2.98-2.29c0.88-1.04,1.7-2.33,2.38-3.8c0.68-1.46,1.21-3.11,1.41-4.82C219.37-44.07,219.24-45.83,218.81-47.51
	z"/>
<path fill="#F6CB48" d="M229.7-29.84c0.95,1.49,1.89,2.99,2.78,4.58c0.88,1.59,1.73,3.29,2.21,5.18c0.48,1.88,0.63,3.96,0.02,6.03
	c-0.58,2.05-1.99,4.08-3.99,5.22c-2.03,1.12-4.35,1.24-6.29,0.8c-1.97-0.42-3.66-1.3-5.25-2.23c-1.58-0.94-3.04-2.03-4.42-3.22
	c-1.38-1.19-2.71-2.46-3.92-3.88c-1.18-1.43-2.3-2.98-3.13-4.71c-0.84-1.73-1.42-3.61-1.7-5.59c-0.28-1.98-0.26-4.09,0.37-6.23
	c0.59-2.12,1.99-4.25,4.04-5.59c2.07-1.31,4.56-1.68,6.7-1.35c2.17,0.32,4.02,1.32,5.56,2.52c1.55,1.21,2.78,2.65,3.9,4.09
	C227.72-32.77,228.72-31.31,229.7-29.84z M229.29-29.56c-0.98-1.43-2.21-2.69-3.62-3.68c-1.41-0.99-2.99-1.69-4.54-2.14
	c-3.12-0.88-6.02-0.89-7.75,0.36c-0.87,0.64-1.53,1.56-2.03,2.76c-0.48,1.2-0.67,2.67-0.63,4.17c0.04,1.51,0.34,3.06,0.74,4.6
	c0.42,1.54,0.93,3.12,1.66,4.62c1.45,2.99,3.77,5.75,6.82,7.19c1.5,0.72,3.19,1.05,4.72,0.9c1.54-0.14,2.83-0.72,3.76-1.53
	c0.92-0.83,1.57-1.85,2.08-3.12c0.49-1.27,0.86-2.76,1.02-4.36c0.17-1.61,0.14-3.34-0.23-5.02
	C230.94-26.49,230.24-28.11,229.29-29.56z"/>
<path fill="#F6CB48" d="M245-12.86c0.95,1.49,1.89,2.99,2.78,4.58c0.88,1.59,1.73,3.29,2.21,5.18c0.48,1.88,0.63,3.96,0.02,6.03
	c-0.58,2.05-1.99,4.08-3.99,5.22c-2.03,1.12-4.35,1.24-6.29,0.8c-1.97-0.42-3.66-1.3-5.25-2.23c-1.58-0.94-3.04-2.03-4.42-3.22
	c-1.38-1.19-2.71-2.46-3.92-3.88c-1.18-1.43-2.3-2.98-3.13-4.71c-0.84-1.73-1.42-3.61-1.7-5.59c-0.28-1.98-0.26-4.09,0.37-6.23
	c0.59-2.12,1.99-4.25,4.04-5.59c2.07-1.31,4.56-1.68,6.7-1.35c2.17,0.32,4.02,1.32,5.56,2.52c1.55,1.21,2.78,2.65,3.9,4.09
	C243.01-15.8,244.02-14.34,245-12.86z M244.58-12.59c-0.98-1.43-2.21-2.69-3.62-3.68c-1.41-0.99-2.99-1.69-4.54-2.14
	c-3.12-0.88-6.02-0.89-7.75,0.36c-0.87,0.64-1.53,1.56-2.03,2.76c-0.48,1.2-0.67,2.67-0.63,4.17c0.04,1.51,0.34,3.06,0.74,4.6
	c0.42,1.54,0.93,3.12,1.66,4.62c1.45,2.99,3.77,5.75,6.82,7.19c1.5,0.72,3.19,1.05,4.72,0.9c1.54-0.14,2.83-0.72,3.76-1.53
	c0.92-0.83,1.57-1.85,2.08-3.12c0.49-1.27,0.86-2.76,1.02-4.36c0.17-1.61,0.14-3.34-0.23-5.02
	C246.23-9.52,245.54-11.14,244.58-12.59z"/>
<path fill="#F6CB48" d="M258.27,2.26c1.28,1.23,2.54,2.46,3.78,3.8c1.23,1.34,2.46,2.79,3.37,4.51c0.91,1.71,1.55,3.7,1.44,5.86
	c-0.08,2.13-0.97,4.44-2.64,6.01c-1.71,1.56-3.94,2.23-5.93,2.26c-2.02,0.05-3.87-0.4-5.62-0.93c-1.76-0.54-3.43-1.25-5.05-2.08
	c-1.62-0.83-3.21-1.76-4.73-2.84c-1.49-1.11-2.94-2.35-4.15-3.84c-1.22-1.48-2.23-3.17-2.97-5.04c-0.74-1.86-1.22-3.92-1.11-6.14
	c0.08-2.2,0.93-4.6,2.61-6.38c1.7-1.76,4.04-2.71,6.2-2.89c2.19-0.21,4.22,0.33,6,1.13c1.79,0.81,3.33,1.92,4.75,3.06
	C255.64-0.12,256.97,1.06,258.27,2.26z M257.93,2.63c-1.29-1.16-2.78-2.09-4.39-2.72c-1.6-0.63-3.3-0.94-4.91-1.01
	c-3.24-0.12-6.06,0.55-7.45,2.18c-0.7,0.83-1.12,1.88-1.32,3.16c-0.18,1.28-0.02,2.75,0.37,4.2c0.39,1.46,1.05,2.89,1.81,4.3
	c0.77,1.4,1.64,2.81,2.7,4.1c2.11,2.56,5.02,4.7,8.32,5.37c1.63,0.35,3.34,0.27,4.8-0.23c1.46-0.5,2.58-1.37,3.29-2.37
	c0.7-1.03,1.09-2.17,1.28-3.53c0.18-1.35,0.18-2.88-0.04-4.48c-0.21-1.6-0.65-3.27-1.4-4.82C260.25,5.22,259.2,3.81,257.93,2.63z"/>
<path fill="#F6CB48" d="M272.18,12.54c1.72,0.42,3.43,0.85,5.18,1.38c1.74,0.54,3.52,1.17,5.18,2.2c1.64,1.02,3.2,2.42,4.19,4.34
	c1,1.88,1.39,4.32,0.74,6.53c-0.69,2.21-2.28,3.91-3.99,4.93c-1.72,1.06-3.55,1.6-5.33,2.02c-1.79,0.41-3.6,0.64-5.41,0.74
	c-1.82,0.09-3.66,0.1-5.52-0.08c-1.84-0.21-3.72-0.56-5.52-1.23c-1.8-0.66-3.53-1.62-5.1-2.86c-1.57-1.24-3.02-2.78-4.04-4.75
	c-1.04-1.94-1.51-4.45-0.95-6.83c0.59-2.37,2.13-4.37,3.9-5.62c1.79-1.28,3.82-1.83,5.75-2.04c1.95-0.2,3.84-0.01,5.64,0.25
	C268.71,11.8,270.45,12.15,272.18,12.54z M272.07,13.03c-1.7-0.35-3.46-0.41-5.16-0.15c-1.7,0.26-3.33,0.85-4.75,1.6
	c-2.86,1.53-4.96,3.53-5.34,5.62c-0.19,1.07-0.03,2.18,0.45,3.39c0.49,1.2,1.37,2.39,2.43,3.44c1.07,1.06,2.36,1.97,3.72,2.81
	c1.37,0.82,2.83,1.6,4.4,2.19c3.11,1.15,6.7,1.54,9.9,0.46c1.58-0.52,3.02-1.45,4.03-2.61c1.01-1.17,1.54-2.48,1.65-3.7
	c0.09-1.24-0.15-2.42-0.66-3.69c-0.52-1.26-1.29-2.58-2.28-3.85c-0.99-1.28-2.21-2.5-3.64-3.46
	C275.39,14.1,273.76,13.41,272.07,13.03z"/>
<path fill="#F6CB48" d="M350.7-66.51c-0.44,1.68-0.57,3.44-0.37,5.15c0.2,1.71,0.72,3.36,1.41,4.82c0.67,1.47,1.5,2.76,2.38,3.8
	c0.89,1.04,1.84,1.79,2.98,2.29c1.14,0.46,2.55,0.59,4.05,0.23c1.49-0.36,2.98-1.21,4.17-2.38c2.42-2.35,3.73-5.71,4.14-9
	c0.2-1.66,0.17-3.32,0.08-4.91c-0.12-1.59-0.33-3.15-0.78-4.6c-0.45-1.43-1.1-2.76-1.94-3.74c-0.86-0.98-1.78-1.64-2.81-1.96
	c-2.04-0.62-4.78,0.32-7.45,2.16c-1.32,0.92-2.59,2.1-3.6,3.49C351.93-69.77,351.17-68.18,350.7-66.51z M350.22-66.64
	c0.45-1.71,0.94-3.42,1.53-5.14c0.6-1.72,1.29-3.49,2.37-5.13c1.07-1.63,2.5-3.18,4.45-4.18c1.92-1,4.4-1.45,6.78-0.89
	c2.37,0.6,4.38,2.17,5.63,3.98c1.28,1.81,1.99,3.81,2.36,5.77c0.38,1.97,0.44,3.94,0.2,5.84c-0.22,1.91-0.78,3.74-1.44,5.47
	c-0.7,1.73-1.54,3.37-2.46,4.94c-0.92,1.57-1.95,3.07-3.14,4.47c-1.2,1.39-2.51,2.77-4.24,3.8c-1.7,1.04-3.94,1.68-6.21,1.28
	c-2.26-0.43-4.25-1.9-5.46-3.65c-1.25-1.76-1.78-3.79-1.93-5.71c-0.15-1.95,0.1-3.83,0.42-5.61C349.4-63.2,349.8-64.92,350.22-66.64
	z"/>
<path fill="#F6CB48" d="M341.7-45.51c-0.44,1.68-0.57,3.44-0.37,5.15c0.2,1.71,0.72,3.36,1.41,4.82c0.67,1.47,1.5,2.76,2.38,3.8
	c0.89,1.04,1.84,1.79,2.98,2.29c1.14,0.46,2.55,0.59,4.05,0.23c1.49-0.36,2.98-1.21,4.17-2.38c2.42-2.35,3.73-5.71,4.14-9
	c0.2-1.66,0.17-3.32,0.08-4.91c-0.12-1.59-0.33-3.15-0.78-4.6c-0.45-1.43-1.1-2.76-1.94-3.74c-0.86-0.98-1.78-1.64-2.81-1.96
	c-2.04-0.62-4.78,0.32-7.45,2.16c-1.32,0.92-2.59,2.1-3.6,3.49C342.93-48.77,342.17-47.18,341.7-45.51z M341.22-45.64
	c0.45-1.71,0.94-3.42,1.53-5.14c0.6-1.72,1.29-3.49,2.37-5.13c1.07-1.63,2.5-3.18,4.45-4.18c1.92-1,4.4-1.45,6.78-0.89
	c2.37,0.6,4.38,2.17,5.63,3.98c1.28,1.81,1.99,3.81,2.36,5.77c0.38,1.97,0.44,3.94,0.2,5.84c-0.22,1.91-0.78,3.74-1.44,5.47
	c-0.7,1.73-1.54,3.37-2.46,4.94c-0.92,1.57-1.95,3.07-3.14,4.47c-1.2,1.39-2.51,2.77-4.24,3.8c-1.7,1.04-3.94,1.68-6.21,1.28
	c-2.26-0.43-4.25-1.9-5.46-3.65c-1.25-1.76-1.78-3.79-1.93-5.71c-0.15-1.95,0.1-3.83,0.42-5.61C340.4-42.2,340.8-43.92,341.22-45.64
	z"/>
<path fill="#F6CB48" d="M331.22-27.56c-0.96,1.45-1.65,3.07-2.01,4.76c-0.36,1.68-0.4,3.41-0.23,5.02c0.16,1.61,0.53,3.1,1.02,4.36
	c0.51,1.27,1.16,2.29,2.08,3.12c0.93,0.8,2.22,1.38,3.76,1.53c1.53,0.14,3.21-0.18,4.72-0.9c3.05-1.44,5.37-4.2,6.82-7.19
	c0.73-1.51,1.24-3.08,1.66-4.62c0.4-1.55,0.7-3.09,0.74-4.6c0.04-1.5-0.15-2.97-0.63-4.17c-0.49-1.2-1.15-2.12-2.03-2.76
	c-1.73-1.25-4.63-1.24-7.75-0.36c-1.55,0.45-3.13,1.15-4.54,2.14C333.43-30.25,332.2-28.99,331.22-27.56z M330.8-27.84
	c0.98-1.47,1.99-2.93,3.11-4.38c1.12-1.44,2.35-2.88,3.9-4.09c1.54-1.2,3.39-2.2,5.56-2.52c2.14-0.33,4.64,0.05,6.7,1.35
	c2.05,1.33,3.45,3.47,4.04,5.59c0.63,2.13,0.65,4.24,0.37,6.23c-0.27,1.99-0.86,3.87-1.7,5.59c-0.83,1.73-1.95,3.28-3.13,4.71
	c-1.22,1.41-2.55,2.69-3.92,3.88c-1.38,1.19-2.84,2.27-4.42,3.22c-1.58,0.93-3.27,1.81-5.25,2.23c-1.94,0.44-4.27,0.32-6.29-0.8
	c-2-1.14-3.41-3.17-3.99-5.22c-0.62-2.07-0.46-4.16,0.02-6.03c0.49-1.89,1.33-3.59,2.21-5.18C328.91-24.84,329.85-26.34,330.8-27.84
	z"/>
<path fill="#F6CB48" d="M315.92-10.59c-0.96,1.45-1.65,3.07-2.01,4.76c-0.36,1.68-0.4,3.41-0.23,5.02c0.16,1.61,0.53,3.1,1.02,4.36
	c0.51,1.27,1.16,2.29,2.08,3.12c0.93,0.8,2.22,1.38,3.76,1.53c1.53,0.14,3.21-0.18,4.72-0.9c3.05-1.44,5.37-4.2,6.82-7.19
	c0.73-1.51,1.24-3.08,1.66-4.62c0.4-1.55,0.7-3.09,0.74-4.6c0.04-1.5-0.15-2.97-0.63-4.17c-0.49-1.2-1.15-2.12-2.03-2.76
	c-1.73-1.25-4.63-1.24-7.75-0.36c-1.55,0.45-3.13,1.15-4.54,2.14C318.14-13.28,316.9-12.02,315.92-10.59z M315.51-10.86
	c0.98-1.47,1.99-2.93,3.11-4.38c1.12-1.44,2.35-2.88,3.9-4.09c1.54-1.2,3.39-2.2,5.56-2.52c2.14-0.33,4.64,0.05,6.7,1.35
	c2.05,1.33,3.45,3.47,4.04,5.59c0.63,2.13,0.65,4.24,0.37,6.23c-0.27,1.99-0.86,3.87-1.7,5.59c-0.83,1.73-1.95,3.28-3.13,4.71
	c-1.22,1.41-2.55,2.69-3.92,3.88c-1.38,1.19-2.84,2.27-4.42,3.22c-1.58,0.93-3.27,1.81-5.25,2.23c-1.94,0.44-4.27,0.32-6.29-0.8
	c-2-1.14-3.41-3.17-3.99-5.22c-0.62-2.07-0.46-4.16,0.02-6.03c0.49-1.89,1.33-3.59,2.21-5.18C313.62-7.87,314.55-9.37,315.51-10.86z
	"/>
<path fill="#F6CB48" d="M302.58,4.63c-1.27,1.18-2.33,2.6-3.07,4.15c-0.75,1.55-1.19,3.22-1.4,4.82c-0.22,1.6-0.22,3.13-0.04,4.48
	c0.19,1.36,0.59,2.5,1.28,3.53c0.71,1,1.83,1.87,3.29,2.37c1.45,0.5,3.17,0.58,4.8,0.23c3.31-0.68,6.21-2.81,8.32-5.37
	c1.06-1.29,1.93-2.71,2.7-4.1c0.76-1.41,1.41-2.84,1.81-4.3c0.39-1.45,0.55-2.92,0.37-4.2c-0.2-1.28-0.62-2.33-1.32-3.16
	c-1.39-1.62-4.2-2.29-7.45-2.18c-1.61,0.07-3.31,0.38-4.91,1.01C305.37,2.53,303.87,3.47,302.58,4.63z M302.24,4.26
	c1.3-1.2,2.62-2.38,4.05-3.52c1.43-1.13,2.96-2.25,4.75-3.06c1.78-0.8,3.81-1.34,6-1.13c2.16,0.19,4.5,1.14,6.2,2.89
	c1.68,1.78,2.54,4.18,2.61,6.38c0.11,2.22-0.37,4.28-1.11,6.14c-0.73,1.87-1.74,3.56-2.97,5.04c-1.21,1.49-2.67,2.73-4.15,3.84
	c-1.52,1.09-3.11,2.01-4.73,2.84c-1.62,0.83-3.29,1.54-5.05,2.08c-1.76,0.53-3.61,0.99-5.62,0.93c-1.99-0.03-4.22-0.7-5.93-2.26
	c-1.68-1.58-2.57-3.89-2.64-6.01c-0.11-2.16,0.53-4.15,1.44-5.86c0.92-1.72,2.14-3.17,3.37-4.51C299.7,6.72,300.96,5.49,302.24,4.26
	z"/>
<path fill="#F6CB48" d="M287.02,15.45c-1.62,0.62-3.13,1.54-4.4,2.7c-1.27,1.16-2.31,2.54-3.1,3.95c-0.8,1.4-1.37,2.83-1.7,4.14
	c-0.32,1.33-0.39,2.54-0.12,3.75c0.29,1.19,1,2.42,2.17,3.43c1.16,1.01,2.72,1.72,4.36,2.01c3.32,0.6,6.81-0.29,9.73-1.88
	c1.47-0.8,2.8-1.79,4.04-2.8c1.23-1.02,2.37-2.11,3.28-3.31c0.9-1.2,1.6-2.5,1.91-3.76c0.3-1.27,0.3-2.4-0.04-3.42
	c-0.68-2.02-3.04-3.7-6.1-4.8c-1.52-0.54-3.21-0.88-4.93-0.9C290.38,14.55,288.65,14.86,287.02,15.45z M286.84,14.99
	c1.65-0.63,3.32-1.23,5.07-1.75c1.75-0.52,3.59-0.98,5.55-1.06c1.95-0.08,4.04,0.18,5.99,1.19c1.93,0.98,3.75,2.73,4.67,5
	c0.89,2.27,0.79,4.83,0.04,6.89c-0.73,2.1-1.94,3.83-3.31,5.28c-1.38,1.46-2.94,2.65-4.63,3.57c-1.68,0.93-3.49,1.54-5.29,2.02
	c-1.81,0.44-3.64,0.71-5.45,0.88c-1.81,0.16-3.63,0.2-5.46,0.05c-1.83-0.16-3.71-0.43-5.57-1.23c-1.84-0.77-3.66-2.22-4.66-4.31
	c-0.97-2.09-0.93-4.56-0.21-6.57c0.7-2.04,2.04-3.65,3.52-4.9c1.49-1.26,3.17-2.14,4.81-2.93C283.56,16.32,285.2,15.65,286.84,14.99
	z"/>
</svg>
