<?xml version="1.0" encoding="utf-8"?>
<!-- Generator: Adobe Illustrator 25.0.0, SVG Export Plug-In . SVG Version: 6.00 Build 0)  -->
<svg version="1.1" baseProfile="tiny" id="zak" xmlns="http://www.w3.org/2000/svg" xmlns:xlink="http://www.w3.org/1999/xlink"
	 x="0px" y="0px" viewBox="0 0 1124 272" overflow="visible" xml:space="preserve">
<path id="Path_1" fill="#F1D9CD" d="M1115.54,174.64c-7.47,35.32-44.19,56.31-78.32,44.53c-153.08-52.87-269.55,8.68-386.02,41.38
	c-148.32,41.63-271.28-40-359.98-63.66c-85.23-22.73-156.96-7.88-207.9,13.14C43.62,226.4,0,197.38,0,154.43v-29.2
	c-0.01-19.68,9.61-38.11,25.74-49.37C75.89,40.89,191.87-25.6,306.85,11.11c164.94,52.67,241.64,140.15,350.71,75.24
	c134.52-80.06,215.04-116.5,432.27-12.27c25.03,12.02,38.6,39.59,32.85,66.75L1115.54,174.64z"/>
</svg>
